<svg xmlns="http://www.w3.org/2000/svg" width="618" height="280" fill="none">
  <g fill="#EDF8F5" opacity=".6">
    <path d="M279.1 45.43L193.97 94.5v97.9l85.13 49.07 85.12-49.06V94.5L279.1 45.43z" opacity=".03"/>
    <path d="M193.97 94.03l85.23 48.39 85.02-48.39-85.02-48.6-85.22 48.6z" opacity=".3"/>
    <path d="M364.22 93.93l-84.6 49.1v98.44l84.6-49.1V93.92z" opacity=".1"/>
    <path d="M410.75 203.3l-42.4 24.2v48.38l42.4 24.4 42.2-24.4V227.5l-42.2-24.2z" opacity=".03"/>
    <path d="M368.35 227.54l42.3 24.25 42.3-24.25-42.3-24.25-42.3 24.25z" opacity=".3"/>
    <path d="M452.95 228.06l-42.3 24.07v48.15l42.3-24.07v-48.15z" opacity=".1"/>
    <path d="M240.4-66l-39.2 22.53V1.77l39.2 22.53 39-22.53v-45.24L240.4-66z" opacity=".03"/>
    <path d="M279.4-43.47l-39 22.52v45.06l39-22.53v-45.05z" opacity=".1"/>
    <path d="M419.33-13.38l-50.98 29.36v58.9l50.98 29.36 51.16-29.36v-58.9l-51.16-29.36z" opacity=".03"/>
    <path d="M368.35 16.03l51.07 29.4 51.07-29.4-51.07-29.4-51.07 29.4z" opacity=".3"/>
    <path d="M470.5 16.54l-51.6 29.24v58.46l51.6-29.23V16.54z" opacity=".1"/>
    <path d="M99.29 203.23l-66.27 38.24v76.48L99.29 356l66.08-38.05v-76.48l-66.08-38.24z" opacity=".03"/>
    <path d="M33.02 241.47l66.27 38.05 66.08-38.05-66.08-38.24-66.27 38.24z" opacity=".3"/>
    <path d="M165.37 241.47l-66.08 38.05V356l66.08-38.24v-76.29z" opacity=".1"/>
    <path d="M62.85 13.45L0 49.6v72.14l62.85 36.16 63.03-36.16V49.6L62.85 13.45zM556.04 110.44l-60.78 35.12v70.07l60.78 35.13 60.97-35.13v-70.07l-60.97-35.13z" opacity=".03"/>
    <path d="M0 49.47l62.94 36.2 62.94-36.2-62.94-36.02L0 49.47zM495.25 145.43l60.88 35.17 60.88-35.17-60.88-35-60.88 35z" opacity=".3"/>
    <path d="M125.88 49.56L62.94 85.73v72.17l62.94-36V49.56zM617 145.51l-60.87 35.14v70.1l60.88-34.96v-70.28zM384.95 72.99l-25.74 14.86 1.59 2.75 25.74-14.86-1.59-2.75zM524.15 208.45l-70.02 40.43 1.59 2.75 70.02-40.43-1.59-2.75zM232.6 169.44l-95.37 55.06 1.59 2.75 95.36-55.06-1.59-2.75zM193.27-24.73l-94.71 56.2v3.58L194.89-22l-1.62-2.73zM319.38 173.37l-1.6 2.75L386.88 216l1.58-2.75-69.07-39.88z" opacity=".1"/>
    <path d="M94.2 105.77l-1.58 2.75 102.98 59.45 1.6-2.75-103-59.45zM275.37-14.93l-1.59 2.75 94.53 54.56 1.59-2.75-94.53-54.56zM438.03 68.13l-1.59 2.75 98.39 56.8 1.58-2.76-98.38-56.79z" opacity=".1"/>
  </g>
</svg>
