<svg width="70" height="70" fill="none" xmlns="http://www.w3.org/2000/svg">
  <path d="M7.52 27.44c-1.2 17.3 5.68 27.77 16.97 28.44 11.3.66 7.92-7.18 29.9-14.96 22-7.77-8.29-35-22.24-25.36C18.19 25.2 8.7 10.15 7.52 27.45z" fill="#DCF6EF"/>
  <path fill-rule="evenodd" clip-rule="evenodd" d="M56.97 37.4c-.45-.1-.93 0-1.3.28a1 1 0 00-.17.17l-5.64 6.84-3.18-2.28a1 1 0 00-1.17 1.62l3.94 2.83a1 1 0 001.36-.17l5.74-6.97 4.55 9.19a1 1 0 101.8-.9l-4.86-9.78-.01-.02c-.22-.41-.61-.7-1.06-.8z" fill="#14C393"/>
  <path fill-rule="evenodd" clip-rule="evenodd" d="M47.73 15.18a5.3 5.3 0 00-5.3-5.3H17.28a5.3 5.3 0 00-5.3 5.3v16.78a5.3 5.3 0 005.3 5.29h2.1a1 1 0 011 1v8.34l13.76-9.17a1 1 0 01.55-.17h7.76a5.3 5.3 0 005.3-5.3V15.19zm-5.3-7.3a7.3 7.3 0 017.3 7.3v12.25h11.34c3.5 0 6.36 2.86 6.36 6.37v14.3c0 3.5-2.86 6.36-6.36 6.36h-.8v7.7a1 1 0 01-1.55.83l-12.8-8.53h-6.3a6.37 6.37 0 01-6.36-6.37V40.4l-13.34 8.9a1 1 0 01-1.55-.84v-9.21h-1.1a7.3 7.3 0 01-7.3-7.3V15.19a7.3 7.3 0 017.3-7.3h25.17zm-7.17 31.37v8.84c0 2.4 1.95 4.37 4.36 4.37h6.6c.2 0 .4.06.56.16l11.5 7.67v-6.83a1 1 0 011-1h1.79c2.4 0 4.36-1.96 4.36-4.37V33.8c0-2.4-1.96-4.36-4.36-4.36H49.73v2.53a7.3 7.3 0 01-7.3 7.29h-7.17z" fill="#505573"/>
  <path fill-rule="evenodd" clip-rule="evenodd" d="M61.32 13.12a1 1 0 01-.05 1.41L48 26.88a1 1 0 01-1.17.14l-14-7.79-11.05 13.93a1 1 0 01-1.56-1.24l11-13.87a1.83 1.83 0 012.6-.56l13.35 7.43 12.75-11.85a1 1 0 011.41.05z" fill="#14C393"/>
  <path d="M63.34 13.36a2.74 2.74 0 11-5.5 0 2.74 2.74 0 015.5 0z" fill="#14C393"/>
  <path fill-rule="evenodd" clip-rule="evenodd" d="M60.6 15.23a1.87 1.87 0 100-3.74 1.87 1.87 0 000 3.74zm0 .87a2.74 2.74 0 100-5.49 2.74 2.74 0 000 5.5z" fill="#F9FAFC"/>
  <path d="M49.88 25.73a2.7 2.7 0 11-5.41 0 2.7 2.7 0 015.41 0z" fill="#14C393"/>
  <path fill-rule="evenodd" clip-rule="evenodd" d="M47.17 27.58a1.85 1.85 0 100-3.7 1.85 1.85 0 000 3.7zm0 .85a2.7 2.7 0 100-5.4 2.7 2.7 0 000 5.4z" fill="#fff"/>
  <path d="M35.23 18.46a2.7 2.7 0 11-5.42 0 2.7 2.7 0 015.42 0z" fill="#14C393"/>
  <path fill-rule="evenodd" clip-rule="evenodd" d="M32.52 20.31a1.85 1.85 0 100-3.7 1.85 1.85 0 000 3.7zm0 .86a2.7 2.7 0 100-5.41 2.7 2.7 0 000 5.41z" fill="#fff"/>
  <path d="M20.37 59.84c3.2-1.72 5.4-2.85 6.62 0 1.22 2.85.6 6.26-1.84 6.64-5.28.82-8.76-4.5-4.78-6.64z" fill="#505573"/>
  <path d="M24.28 64.84v-1.88h1.88V61.7h-1.88v-1.88h-1.25v1.88h-1.88v1.26h1.88v1.88h1.25z" fill="#fff"/>
  <path d="M4.13 42.58c3.91-2.1 6.6-3.48 8.08 0 1.5 3.48.74 7.64-2.25 8.1-6.44 1-10.69-5.49-5.83-8.1z" fill="#14C393"/>
  <path d="M8.2 48.46v-2.11h2.1v-1.4H8.2v-2.12H6.79v2.11H4.68v1.41h2.1v2.11H8.2z" fill="#fff"/>
</svg>
