<svg width="80" height="80" fill="none" xmlns="http://www.w3.org/2000/svg">
  <path d="M2.89 29.41c-1.44 20.8 6.95 37.9 20.92 39.52 13.98 1.61.09-16.8 26.54-26.14 26.45-9.35 2.74-28.28-9.86-31.06-12.6-2.78-36.17-3.11-37.6 17.68z" fill="#F9FAFC"/>
  <path d="M47 23c-6.62 0-12 5.38-12 12v7h1a3 3 0 013-3h1.17A4.38 4.38 0 0143 36a15 15 0 009 3h3a3 3 0 013 3h1v-7c0-6.62-5.38-12-12-12z" fill="#14C393"/>
  <path d="M34.61 55.46l3.88-1.12 3.1 7.26L47 57.28l5.4 4.32 3.11-7.26 3.03.88.56-1.92-7.1-2.05v-1.91A7.81 7.81 0 0054.47 46H55a4 4 0 000-8h-3c-3 0-6-1-8.4-2.8l-.42-.31-.5.16A5.37 5.37 0 0039.47 38H39a4 4 0 000 8h.6a8.04 8.04 0 002.4 3.23v2.02l-7.94 2.29A7.03 7.03 0 0029 60.27V65h28.83v-2H37v-4h-2v4h-4v-2.74a5.02 5.02 0 013.61-4.8zM39 44a2 2 0 010-4h.01l-.01.16V43c0 .34.03.67.07 1H39zm14.58 9.78L51.6 58.4l-3.1-2.48 2.79-2.8 2.29.66zM57 42a2 2 0 01-2 2h-.04c.03-.26.04-.52.04-.8V40a2 2 0 012 2zm-16 1v-2.84c0-1.3.73-2.46 1.87-3.02A16.12 16.12 0 0052 40h1v3.2c0 3.2-2.6 5.8-5.79 5.8h-.18A6.02 6.02 0 0141 43zm6.03 8h.18c.98 0 1.92-.2 2.79-.52v1.1l-3 3-3-3V50.4c.94.38 1.96.6 3.03.6zm-4.32 2.12l2.8 2.8-3.1 2.48-1.99-4.62 2.29-.66z" fill="#2F354D"/>
  <path d="M67 71c-6.06 0-11-4.94-11-11s4.94-11 11-11c6.07 0 11 4.94 11 11s-4.93 11-11 11z" fill="#14C393"/>
  <path d="M64 35.87V31h-1a3 3 0 01-3-3v-8a3 3 0 013-3h12a3 3 0 013 3v8a3 3 0 01-3 3h-3.7L64 35.87zM63 19a1 1 0 00-1 1v8a1 1 0 001 1h3v3.13L70.7 29H75a1 1 0 001-1v-8a1 1 0 00-1-1H63z" fill="#2F354D"/>
  <path d="M30 35.87L22.7 31H19a3 3 0 01-3-3v-8a3 3 0 013-3h12a3 3 0 013 3v8a3 3 0 01-3 3h-1v4.87zM19 19a1 1 0 00-1 1v8a1 1 0 001 1h4.3l4.7 3.13V29h3a1 1 0 001-1v-8a1 1 0 00-1-1H19z" fill="#2F354D"/>
  <path d="M67 59a1 1 0 111-1h2a3 3 0 00-2-2.82V53h-2v2.18A3 3 0 0067 61a1 1 0 11-1 1h-2a3 3 0 002 2.82V67h2v-2.18A3 3 0 0067 59z" fill="#fff"/>
</svg>
