<svg xmlns="http://www.w3.org/2000/svg" width="70" height="70" fill="none">
  <path fill="#DCF6EF" d="M7.52 27.44c-1.2 17.3 5.68 27.77 16.97 28.44 11.3.66 7.92-7.18 29.9-14.96 22-7.77-8.29-35-22.24-25.35C18.19 25.2 8.7 10.15 7.52 27.44z"/>
  <path fill="#14C393"  d="M56.91 37.65c-.38-.09-.78 0-1.09.23a.75.75 0 00-.13.13l-5.79 7.02-3.37-2.42a.75.75 0 00-.87 1.22l3.94 2.83c.32.23.76.17 1.02-.13l5.98-7.27 4.72 9.54a.75.75 0 001.35-.67l-4.85-9.79-.01-.02c-.19-.34-.51-.59-.9-.67z"/>
  <path fill="#7A859E"  d="M33.5 39.04l1.18-.79h.33v9.84a4.62 4.62 0 004.6 4.62h6.62c.14 0 .29.04.41.12l11.89 7.93v-7.3c0-.42.33-.75.75-.75h1.79a4.62 4.62 0 004.6-4.62V33.8a4.62 4.62 0 00-4.6-4.6H48.73v-1.5h12.34a6.12 6.12 0 016.1 6.1v14.3a6.12 6.12 0 01-6.1 6.12h-1.04v7.95a.75.75 0 01-1.17.62L46 54.21h-6.38a6.12 6.12 0 01-6.11-6.12v-9.05z" />
  <path fill="#9FAAC4" d="M42.44 9.64a5.55 5.55 0 015.54 5.54v16.78a5.55 5.55 0 01-5.54 5.54h-7.76c-.14 0-.29.04-.41.13l-14.15 9.43v-8.81a.75.75 0 00-.75-.75h-2.1a5.55 5.55 0 01-5.54-5.54V15.18a5.55 5.55 0 015.54-5.54h25.17zm7.04 5.54a7.05 7.05 0 00-7.04-7.04H17.27a7.05 7.05 0 00-7.04 7.04v16.78A7.05 7.05 0 0017.27 39h1.35v9.46a.75.75 0 001.16.63L34.91 39h7.53a7.05 7.05 0 007.04-7.04V15.18z" />
  <path fill="#14C393" d="M61.14 13.29c.28.3.27.78-.04 1.06L47.82 26.7a.75.75 0 01-.87.1L32.9 19a.75.75 0 01-.08-.06.09.09 0 00-.07-.02.08.08 0 00-.06.04.75.75 0 01-.07.12L21.58 33a.75.75 0 01-1.18-.93l11.02-13.9a1.58 1.58 0 012.26-.48l13.52 7.53 12.88-11.98a.75.75 0 011.06.04z" />
  <path fill="#14C393" d="M63.34 13.36a2.74 2.74 0 11-5.5 0 2.74 2.74 0 015.5 0z"/>
  <path fill="#F9FAFC" fill-rule="evenodd" d="M60.6 15.23a1.87 1.87 0 100-3.74 1.87 1.87 0 000 3.74zm0 .87a2.74 2.74 0 100-5.49 2.74 2.74 0 000 5.5z" />
  <path fill="#14C393" d="M49.88 25.73a2.7 2.7 0 11-5.41 0 2.7 2.7 0 015.41 0z"/>
  <path fill="#fff" fill-rule="evenodd" d="M47.17 27.58a1.85 1.85 0 100-3.7 1.85 1.85 0 000 3.7zm0 .85a2.7 2.7 0 100-5.4 2.7 2.7 0 000 5.4z" />
  <path fill="#14C393" d="M35.23 18.46a2.7 2.7 0 11-5.42 0 2.7 2.7 0 015.42 0z"/>
  <path fill="#fff" fill-rule="evenodd" d="M32.52 20.31a1.85 1.85 0 100-3.7 1.85 1.85 0 000 3.7zm0 .86a2.7 2.7 0 100-5.41 2.7 2.7 0 000 5.41z" />
  <path fill="#9FAAC4" d="M20.37 59.84c3.2-1.72 5.4-2.85 6.62 0 1.22 2.85.6 6.26-1.84 6.64-5.28.82-8.76-4.5-4.78-6.64z"/>
  <path fill="#14C393" d="M4.13 42.58c3.91-2.1 6.6-3.48 8.08 0 1.5 3.48.74 7.64-2.25 8.1-6.44 1-10.69-5.49-5.83-8.1z"/>
  <path stroke="#fff" d="M5.04 46h4.91m-2.46-2.45v4.91"/>
  <path fill="#fff"  d="M25.58 63.26h-4.91v-1h4.91v1z" />
  <path fill="#fff"  d="M22.62 65.22v-4.91h1v4.91h-1z" />
</svg>
