<svg width="70" height="70" fill="none" xmlns="http://www.w3.org/2000/svg">
  <g clip-path="url(#clip0)">
    <path d="M14.6 12.3C3.21 29.76 2.2 48.78 13.62 57c11.41 8.22 7.04-19.94 34.7-15.21 27.65 4.73 17.39-18.04 7.73-26.6C46.4 6.61 26-5.17 14.6 12.3z" fill="#DCF6EF"/>
    <path fill-rule="evenodd" clip-rule="evenodd" d="M33.52 59.65v-33h-6v33h6zm1 2a1 1 0 001-1v-35a1 1 0 00-1-1h-8a1 1 0 00-1 1v35a1 1 0 001 1h8zm13.95-21v19h-6v-19h6zm2 20a1 1 0 01-1 1h-8a1 1 0 01-1-1v-21a1 1 0 011-1h8a1 1 0 011 1v21zm-31.9-17.39v16.4h-6v-16.4h6zm2 17.4a1 1 0 01-1 1h-8a1 1 0 01-1-1v-18.4a1 1 0 011-1h8a1 1 0 011 1v18.4zm42.85-34v33h-6v-33h6zm2 34a1 1 0 01-1 1h-8a1 1 0 01-1-1v-35a1 1 0 011-1h8a1 1 0 011 1v35z" fill="#505573"/>
    <path d="M30.75 19.36c0-11.22-15.94-.97-12.2 9.62 3.74 10.6 14.33 11.84 21.18 6.86 5.95-4.33 2.62-21.19 0-15.17-2.62 6.02-8.98 1.66-8.98-1.31z" fill="#F9FAFC"/>
    <circle cx="31.01" cy="25.87" r="9.84" stroke="#505573" stroke-width="1.5"/>
    <path fill-rule="evenodd" clip-rule="evenodd" d="M31.01 34.46a8.6 8.6 0 100-17.18 8.6 8.6 0 000 17.18zm0 2a10.6 10.6 0 100-21.18 10.6 10.6 0 000 21.18z" fill="#505573"/>
    <path fill-rule="evenodd" clip-rule="evenodd" d="M28.4 30.27a1 1 0 01.08-1.41l2.98-2.66-3.06-3.4a1 1 0 011.48-1.34l3.74 4.15a1 1 0 01-.08 1.42l-3.73 3.32a1 1 0 01-1.42-.08z" fill="#14C393"/>
    <path d="M9.28 14.17a.87.87 0 00-1.71 0 3.36 3.36 0 01-2.76 2.76.87.87 0 000 1.72 3.36 3.36 0 012.76 2.76.87.87 0 001.71 0 3.36 3.36 0 012.76-2.76.87.87 0 000-1.72 3.36 3.36 0 01-2.76-2.76zm-.86 4.86a5.1 5.1 0 00-1.24-1.24c.49-.34.9-.76 1.24-1.24.34.48.76.9 1.24 1.24-.48.34-.9.76-1.24 1.24z" fill="#14C393"/>
    <path d="M51.38 4.1c5.08-2.73 7-3.24 8.93 1.28 1.94 4.51.95 9.91-2.92 10.51-8.37 1.3-12.32-8.4-6.01-11.78z" fill="#E7EAF3"/>
    <path d="M56.1 6.1a.7.7 0 00-1.37 0 2.7 2.7 0 01-2.23 2.22.7.7 0 000 1.38 2.7 2.7 0 012.23 2.23.7.7 0 001.37 0 2.7 2.7 0 012.23-2.23.7.7 0 000-1.38A2.7 2.7 0 0156.1 6.1zm-.68 3.91a4.1 4.1 0 00-1-1 4.1 4.1 0 001-1c.27.4.6.73 1 1a4.1 4.1 0 00-1 1z" fill="#505573"/>
  </g>
  <defs>
    <clipPath id="clip0">
      <path fill="#fff" d="M0 0h70v70H0z"/>
    </clipPath>
  </defs>
</svg>
