<svg width="80" height="80" fill="none" xmlns="http://www.w3.org/2000/svg">
  <g clip-path="url(#clip0)">
    <path d="M1.89 29.41C.45 50.21 8.84 67.31 22.8 68.93c13.98 1.61.09-16.8 26.54-26.14 26.45-9.35 2.74-28.28-9.86-31.06-12.6-2.78-36.17-3.11-37.6 17.68z" fill="#F9FAFC"/>
    <path d="M55 9a13 13 0 00-12.73 15.63l4.3.23a2.57 2.57 0 01-.14 5.14h-1.66A13 13 0 1055 9z" fill="#14C393"/>
    <path d="M79 71h-8V56h8v15z" fill="#14C393"/>
    <path d="M49 71h-8V48h8v23z" fill="#14C393"/>
    <path d="M69 71h-8V52h8v19z" fill="#14C393"/>
    <path d="M59 71h-8V44h8v27z" fill="#14C393"/>
    <path d="M50 27.43c0-1.9-1.48-3.46-3.37-3.56L32 23.05v-.86A6 6 0 0035 17v-2a6 6 0 00-12 0v2a6 6 0 003 5.19v1l-5.08 1.14A4.97 4.97 0 0017 29.2V41.5a3.5 3.5 0 005 3.15V71h14V31h10.43C48.4 31 50 29.4 50 27.43zM25 15a4 4 0 018 0v2a4 4 0 01-8 0v-2zm-1 26.5V40h4v29h-4V41.5zM34 69h-4V40h4v29zm0-40v9H24v-8h-2v11.5a1.5 1.5 0 01-3 0V29.2c0-1.4.97-2.61 2.35-2.92L28 24.8v-1.89a6 6 0 002 0v2.04l16.52.91a1.57 1.57 0 01-.09 3.14H34z" fill="#2F354D"/>
    <path d="M55 25a1 1 0 01-1-1h-2a3 3 0 002 2.82V29h2v-2.18A3 3 0 0055 21a1 1 0 111-1h2a3 3 0 00-2-2.82V15h-2v2.18A3 3 0 0055 23a1 1 0 010 2z" fill="#fff"/>
    <path d="M75 48c-.9 0-1.7.4-2.24 1.03l-4.77-1.91L68 47a3 3 0 00-4.58-2.54l-5.6-4.48c.11-.31.18-.64.18-.98a3 3 0 00-6 0l.01.12-4.77 1.9A2.98 2.98 0 0042 43a3 3 0 006 0l-.01-.12 4.77-1.9a2.98 2.98 0 003.82.56l5.6 4.48c-.11.31-.18.64-.18.98a2.98 2.98 0 005.24 1.97l4.77 1.91L72 51a3 3 0 103-3zm-30-4a1 1 0 110-2 1 1 0 010 2zm10-4a1 1 0 110-2 1 1 0 010 2zm10 8a1 1 0 110-2 1 1 0 010 2zm10 4a1 1 0 110-2 1 1 0 010 2z" fill="#2F354D"/>
  </g>
  <defs>
    <clipPath id="clip0">
      <path fill="#fff" d="M0 0h80v80H0z"/>
    </clipPath>
  </defs>
</svg>
