<svg xmlns="http://www.w3.org/2000/svg" width="70" height="70" fill="none">
    <path fill="#DCF6EF" d="M14.6 12.3C3.21 29.76 2.2 48.78 13.62 57c11.41 8.22 7.04-19.94 34.7-15.21 27.65 4.73 17.39-18.04 7.73-26.6C46.4 6.61 26-5.17 14.6 12.3z"/>
    <path fill="#9FAAC4" fill-rule="evenodd" d="M34.02 60.15v-34h-7v34h7zm.5 1.5a1 1 0 001-1v-35a1 1 0 00-1-1h-8a1 1 0 00-1 1v35a1 1 0 001 1h8zm14.45-21.5v20h-7v-20h7zm1.5 20.5a1 1 0 01-1 1h-8a1 1 0 01-1-1v-21a1 1 0 011-1h8a1 1 0 011 1v21zm-31.4-17.89v17.4h-7v-17.4h7zm1.5 17.9a1 1 0 01-1 1h-8a1 1 0 01-1-1v-18.4a1 1 0 011-1h8a1 1 0 011 1v18.4zm43.35-34.5v34h-7v-34h7zm1.5 34.5a1 1 0 01-1 1h-8a1 1 0 01-1-1v-35a1 1 0 011-1h8a1 1 0 011 1v35z" />
    <path fill="#F9FAFC" d="M30.75 19.36c0-11.22-15.94-.97-12.2 9.62 3.74 10.6 14.33 11.84 21.18 6.86 5.95-4.33 2.62-21.19 0-15.17-2.62 6.02-8.98 1.66-8.98-1.31z"/>
    <circle cx="31.01" cy="25.87" r="9.84" stroke="#505573" stroke-width="1.5"/>
    <path fill="#7A859E" fill-rule="evenodd" d="M31.01 34.96a9.1 9.1 0 100-18.18 9.1 9.1 0 000 18.18zm0 1.5a10.6 10.6 0 100-21.18 10.6 10.6 0 000 21.18z" />
    <path fill="#14C393"  d="M28.58 30.1a.75.75 0 01.06-1.05l3.18-2.83-3.24-3.59a.75.75 0 111.12-1l3.74 4.15a.75.75 0 01-.06 1.06l-3.74 3.33a.75.75 0 01-1.06-.07z"/>
    <path stroke="#7A859E" stroke-width="1.5" d="M49.73 60.65c0 .14-.12.25-.25.25h-8a.25.25 0 01-.25-.25v-21c0-.13.1-.25.25-.25h8c.13 0 .25.12.25.25v21z"/>
    <path fill="#14C393" fill-rule="evenodd" d="M9.28 14.17a.87.87 0 00-1.71 0 3.36 3.36 0 01-2.76 2.76.87.87 0 000 1.72 3.36 3.36 0 012.76 2.76.87.87 0 001.71 0 3.36 3.36 0 012.76-2.76.87.87 0 000-1.72 3.36 3.36 0 01-2.76-2.76zm-.86 5.3a4.86 4.86 0 011.68-1.68 4.87 4.87 0 01-1.68-1.67 4.86 4.86 0 01-1.67 1.67 4.86 4.86 0 011.67 1.67z" />
    <path fill="#E7EAF3" d="M51.38 4.1c5.08-2.73 7-3.24 8.93 1.28 1.94 4.51.95 9.91-2.92 10.51-8.37 1.3-12.32-8.4-6.01-11.78z"/>
    <path fill="#7A859E" fill-rule="evenodd" d="M52.09 9.47c.1.12.25.2.41.23a2.7 2.7 0 012.23 2.23.7.7 0 001.37 0 2.7 2.7 0 012.23-2.23.7.7 0 000-1.38A2.7 2.7 0 0156.1 6.1a.7.7 0 00-1.37 0 2.7 2.7 0 01-2.23 2.22.7.7 0 00-.41 1.15zM53.62 9a3.7 3.7 0 011.8 1.8A3.7 3.7 0 0157.2 9a3.7 3.7 0 01-1.8-1.79 3.7 3.7 0 01-1.79 1.8z" />
</svg>
