<svg xmlns="http://www.w3.org/2000/svg" width="70" height="70" fill="none">
  <path fill="#DCF6EF" d="M17.53 20.33C-6.5 8.7 6.73 57.99 20.7 59.6c13.98 1.61 1.47-1.07 27.92-10.42 26.45-9.35 16.9-32.13 3.55-38.93-13.34-6.8-10.62 21.7-34.65 10.08z"/>
  <path fill="#F9FAFC" d="M23.66 33.85c1.75-6.26 8.01-7.66 10.93-7.58-2.19 1.43-3.15 2.5 2.1 2.91 6.55.5 10.35 1.39 10.35 11.5 0 10.1-7.65 7.83-9.18 3.53-1.53-4.3-3.27-1.77-9.83 0-6.56 1.77-6.56-2.52-4.37-10.36z"/>
  <path fill="#9FAAC4" fill-rule="evenodd" d="M34.17 12.13a.75.75 0 00-1.5 0v1.76a22.86 22.86 0 00-21.74 22.83H9.2a.75.75 0 000 1.5h1.78a22.86 22.86 0 0021.7 21.32v1.76a.75.75 0 001.5 0v-1.73c5.98-.1 11.41-2.51 15.43-6.37a.75.75 0 10-1.03-1.08 21.28 21.28 0 01-14.4 5.95v-1.73a.75.75 0 00-1.5 0v1.7a21.36 21.36 0 01-20.2-19.82h1.68a.75.75 0 000-1.5h-1.73a21.36 21.36 0 0120.24-21.33v1.7a.75.75 0 001.5 0v-1.72a21.35 21.35 0 0120.97 21.35h-4.3a17.06 17.06 0 10-4.16 11.16.75.75 0 10-1.13-.99 15.56 15.56 0 113.79-10.18h-4.36a11.2 11.2 0 10-2.2 6.68.75.75 0 00-1.21-.9 9.68 9.68 0 01-17.49-5.77 9.7 9.7 0 0119.4 0h-9.65a.75.75 0 000 1.5h29.43a.75.75 0 000-1.5h-6.62a22.85 22.85 0 00-22.47-22.85v-1.74z" />
  <path stroke="#7A859E" stroke-linecap="round" stroke-linejoin="round" stroke-width="1.5" d="M50.09 36.72a16.3 16.3 0 10-3.97 10.66"/>
  <path fill="#14C393" d="M45.85 23.44a3.03 3.03 0 11-6.06 0 3.03 3.03 0 016.06 0z"/>
  <path fill="#DCF6EF" fill-rule="evenodd" d="M42.82 24.97a1.53 1.53 0 100-3.06 1.53 1.53 0 000 3.06zm0 1.5a3.03 3.03 0 100-6.06 3.03 3.03 0 000 6.06z"/>
  <path fill="#14C393" d="M25.38 47.62a3.03 3.03 0 11-6.06 0 3.03 3.03 0 016.06 0z"/>
  <path fill="#DCF6EF" fill-rule="evenodd" d="M22.35 49.15a1.53 1.53 0 100-3.06 1.53 1.53 0 000 3.06zm0 1.5a3.03 3.03 0 100-6.06 3.03 3.03 0 000 6.06z" />
  <path stroke="#7A859E" stroke-linecap="round" stroke-linejoin="round" stroke-width="1.5" d="M33.83 37.47h29.43"/>
  <path fill="#9FAAC4" d="M56.01 43.7c4.3-2.31 5.93-2.75 7.57 1.07 1.64 3.83.8 8.4-2.48 8.91-7.08 1.1-10.42-7.11-5.09-9.98z"/>
  <path fill="#E7EAF3" d="M49.52 59.97c3.2-1.72 5.4-2.85 6.62 0 1.22 2.85.6 6.26-1.84 6.64-5.28.82-8.76-4.5-4.78-6.64z"/>
  <path fill="#14C393" d="M7.7 9.39c4.78-2.91 3.84 0 7.81 0 3.98 0 .25 11.14-3.34 11.02C8.57 20.28 1.77 13 7.7 9.39z"/>
  <path fill="#fff" fill-rule="evenodd" d="M58.35 48.69v1.96h1v-1.96h1.95v-1h-1.95v-1.96h-1v1.96h-1.96v1h1.96z" />
  <path fill="#14C393" fill-rule="evenodd" d="M52.05 63v1.96h1v-1.95H55v-1h-1.95v-1.96h-1v1.96h-1.96v1h1.96z" />
  <path fill="#F9FAFC" fill-rule="evenodd" d="M11.86 12.1a.57.57 0 00-1.13 0 2.21 2.21 0 01-1.82 1.82.57.57 0 000 1.13 2.22 2.22 0 011.82 1.82.57.57 0 001.13 0 2.21 2.21 0 011.82-1.82.57.57 0 000-1.13 2.21 2.21 0 01-1.82-1.82zm.52 2.38a3.21 3.21 0 01-1.08-1.08 3.22 3.22 0 01-1.09 1.08 3.22 3.22 0 011.09 1.08 3.21 3.21 0 011.08-1.08z" />
</svg>
