<svg width="70" height="70" fill="none" xmlns="http://www.w3.org/2000/svg">
  <path d="M17.53 20.33C-6.5 8.7 6.73 57.99 20.7 59.6c13.98 1.61 1.47-1.07 27.92-10.42 26.45-9.35 16.9-32.13 3.55-38.93-13.34-6.8-10.62 21.7-34.65 10.08z" fill="#DCF6EF"/>
  <path d="M23.66 33.85c1.75-6.26 8.01-7.66 10.93-7.58-2.19 1.43-3.15 2.5 2.1 2.91 6.55.5 10.35 1.39 10.35 11.5 0 10.1-7.65 7.83-9.18 3.53-1.53-4.3-3.27-1.77-9.83 0-6.56 1.77-6.56-2.52-4.37-10.36z" fill="#F9FAFC"/>
  <path fill-rule="evenodd" clip-rule="evenodd" d="M34.42 12.13a1 1 0 10-2 0v1.52a23.1 23.1 0 00-21.74 22.82H9.2a1 1 0 100 2h1.54a23.1 23.1 0 0021.68 21.31v1.52a1 1 0 102 0v-1.49a23.03 23.03 0 0015.37-6.43 1 1 0 10-1.39-1.44 21.03 21.03 0 01-13.98 5.87v-1.47a1 1 0 10-2 0v1.44a21.1 21.1 0 01-19.67-19.31h1.4a1 1 0 100-2h-1.47a21.1 21.1 0 0119.74-20.81v1.43a1 1 0 102 0v-1.47a21.1 21.1 0 0120.46 20.85h-3.8a17.26 17.26 0 00-5.33-12.26c-.18.69-.6 1.28-1.15 1.68a15.26 15.26 0 014.49 10.58h-3.86a11.45 11.45 0 10-2.26 7.07 1 1 0 00-1.6-1.2 9.43 9.43 0 01-17.04-5.62 9.45 9.45 0 0118.9-.25h-9.4a1 1 0 100 2h29.43a1 1 0 000-2h-6.38a23.1 23.1 0 00-22.46-22.85v-1.49zm5.47 10.54c.18-.68.59-1.27 1.14-1.68a17.3 17.3 0 00-21.5 25.54c.25-.67.73-1.22 1.35-1.56a15.3 15.3 0 0119-22.3zm-6.1 31.35c-3.95 0-7.58-1.31-10.49-3.53a3.04 3.04 0 001.63-1.28 15.27 15.27 0 0020.43-2.48 1 1 0 111.51 1.3 17.27 17.27 0 01-13.09 6z" fill="#505573"/>
  <path d="M44.62 23.44a1.8 1.8 0 11-3.6 0 1.8 1.8 0 013.6 0z" fill="#14C393"/>
  <path d="M24.07 47.62a1.71 1.71 0 11-3.43 0 1.71 1.71 0 013.43 0z" fill="#14C393"/>
  <path d="M56.01 43.7c4.3-2.31 5.93-2.75 7.57 1.07 1.64 3.83.8 8.4-2.48 8.91-7.08 1.1-10.42-7.11-5.09-9.98z" fill="#7A859E"/>
  <path d="M49.52 59.97c3.2-1.72 5.4-2.85 6.62 0 1.22 2.85.6 6.26-1.84 6.64-5.28.82-8.76-4.5-4.78-6.64z" fill="#E7EAF3"/>
  <path d="M7.7 9.39c4.78-2.91 3.84 0 7.81 0 3.98 0 .25 11.14-3.34 11.02C8.57 20.28 1.77 13 7.7 9.39z" fill="#14C393"/>
  <path d="M54.01 64.96V63.1h1.88v-1.25H54v-1.88h-1.25v1.88H50.9v1.25h1.87v1.87h1.25z" fill="#14C393"/>
  <path d="M59.51 50.49V48.6h1.88v-1.25H59.5V45.5h-1.25v1.87H56.4v1.25h1.87v1.88h1.25z" fill="#fff"/>
  <path d="M11.86 12.1a.57.57 0 00-1.13 0 2.21 2.21 0 01-1.82 1.82.57.57 0 000 1.13 2.21 2.21 0 011.82 1.82.57.57 0 001.13 0 2.21 2.21 0 011.82-1.82.57.57 0 000-1.13 2.21 2.21 0 01-1.82-1.82zm-.56 3.2c-.23-.32-.5-.6-.82-.82.32-.22.6-.5.82-.82.22.32.5.6.81.82-.31.22-.6.5-.81.82z" fill="#F9FAFC"/>
</svg>
