<svg width="80" height="80" fill="none" xmlns="http://www.w3.org/2000/svg">
  <g clip-path="url(#clip0)">
    <path d="M1.89 29.41C.45 50.21 8.84 67.31 22.8 68.93c13.98 1.61.09-16.8 26.54-26.14 26.45-9.35 2.74-28.28-9.86-31.06-12.6-2.78-36.17-3.11-37.6 17.68z" fill="#F9FAFC"/>
    <path d="M40 25c-10.48 0-19 8.52-19 19s8.52 19 19 19h1v-7h-2v4.97a17 17 0 01-13.19-7.62l4.3-2.48-1-1.73-4.3 2.48a16.9 16.9 0 010-15.23l4.3 2.48 1-1.74-4.3-2.47A17.01 17.01 0 0139 27.06V32h2v-4.95c8.58.5 15.47 7.37 15.97 15.95H52v2h7v-1c0-10.48-8.52-19-19-19z" fill="#2F354D"/>
    <path d="M67 9L56 22h5v18h5v-2h4v-2h3V22h5L67 9z" fill="#14C393"/>
    <path d="M23 17h-2v2h2v-2z" fill="#2F354D"/>
    <path d="M49 17H25v2h24v-2z" fill="#2F354D"/>
    <path d="M23 21h-2v2h2v-2z" fill="#2F354D"/>
    <path d="M49 21H25v2h24v-2z" fill="#2F354D"/>
    <path d="M73 31v4h-4v2h-4v2h-4v8h-9.7v2h5.53A14.02 14.02 0 0145 60.83V55.3h-2V67h1a19 19 0 0018.95-18H67v20H19V15h45v-2H17v58h52V49h10V31h-6zm-4 8v8h-2v-8h2zM45 64.97v-2.13A16 16 0 0058.84 49h2.13A17.03 17.03 0 0145 64.97zM63 41h2v6h-2v-6zm8 6V37h2v10h-2zm6 0h-2V33h2v14z" fill="#2F354D"/>
    <path d="M73 51h-2v2h2v-2z" fill="#2F354D"/>
    <path d="M73 55h-2v2h2v-2z" fill="#2F354D"/>
    <path d="M73 59h-2v2h2v-2z" fill="#2F354D"/>
    <path d="M40 57c-7.17 0-13-5.83-13-13s5.83-13 13-13 13 5.83 13 13-5.83 13-13 13z" fill="#14C393"/>
    <path d="M40 43a2 2 0 112-2h2a4 4 0 00-3-3.86V35h-2v2.14A4 4 0 0040 45a2 2 0 11-2 2h-2a4 4 0 003 3.86V53h2v-2.14A4 4 0 0040 43z" fill="#fff"/>
  </g>
  <defs>
    <clipPath id="clip0">
      <path fill="#fff" d="M0 0h80v80H0z"/>
    </clipPath>
  </defs>
</svg>
