<svg xmlns="http://www.w3.org/2000/svg" width="70" height="70" fill="none">
  <path fill="#DCF6EF" d="M22 27.5c-14-4.8-22 5-20 14C3.33 48.17-.8 61 14 67c18.5 7.5 49.94-2.5 51.44-15.5S57 33.85 43 36.35c-14 2.5-3.5-2.85-21-8.85z"/>
  <path fill="#9FAAC4" d="M22.1 8.1c5.08-2.74 7-3.26 8.94 1.26 1.93 4.52.95 9.92-2.92 10.52-8.37 1.3-12.32-8.4-6.02-11.79z"/>
  <path fill="#9FAAC4" fill-rule="evenodd" d="M11.75 6a.75.75 0 00-1.5 0v53.9c0 .4.34.74.75.74h9.18a.9.9 0 00.04 0H61a.75.75 0 000-1.5h-8.8V22.43c1.26-.93 2.5-1.88 3.72-2.84a.75.75 0 00-.93-1.18c-.92.73-1.85 1.44-2.79 2.15V20a.75.75 0 00-1.5 0v1.67c-6 4.4-12.3 8.33-18.41 11.44-7.45 3.8-14.58 6.36-20.54 7.1V6zm0 35.72v17.42h7.7v-19.1c-2.7.82-5.29 1.4-7.7 1.68zm9.2-2.15v19.57h8.82V36.01a81.52 81.52 0 01-8.82 3.56zm10.32-4.28v23.85h8.43v-28.4a122.96 122.96 0 01-8.43 4.55zm9.92-5.44l.01.15v29.14h9.5V23.52a146.68 146.68 0 01-9.51 6.33z" />
  <path stroke="#7A859E" stroke-linecap="round" stroke-linejoin="round" stroke-width="1.5" d="M11 6v53.9h50"/>
  <path fill="#E7EAF3" d="M47.12 17.44C41.58 6.25 35 16.21 37.58 22.4c2.59 6.19 5.69 14.67 23.4 5.73 7.09-3.58-.14-21.16-2.98-14.71-2.83 6.44-9.46 6.9-10.88 4.03z"/>
  <path fill="#7A859E" fill-rule="evenodd" d="M49.5 31.5a10 10 0 100-20 10 10 0 000 20zm0 1.5a11.5 11.5 0 100-23 11.5 11.5 0 000 23z" />
  <path fill="#14C393" fill-rule="evenodd" d="M54.5 18.44c.3.27.34.75.06 1.06l-5.33 6a.75.75 0 01-1.15-.03l-2.67-3.33a.75.75 0 111.18-.94l2.1 2.64 4.75-5.34a.75.75 0 011.06-.06z" />
  <path fill="#14C393" d="M15.21 29.2c.84 2.2-2.63 8.26-6.61 7.22-3.99-1.04-7.04-4.47-5.44-7.35 1.6-2.87 5.55-7.52 7.03-3.27 1.48 4.24 4.18 1.2 5.02 3.4z"/>
  <path fill="#fff" fill-rule="evenodd" d="M8.48 31.56v1.95h1v-1.95h1.95v-1H9.48V28.6h-1v1.96H6.52v1h1.96z" />
  <path fill="#E7EAF3" fill-rule="evenodd" d="M25.5 13.5v1.96h1V13.5h1.96v-1H26.5v-1.96h-1v1.96h-1.96v1h1.96z"/>
</svg>
