<svg width="70" height="70" fill="none" xmlns="http://www.w3.org/2000/svg">
  <path d="M22 27.5c-14-4.8-22 5-20 14C3.33 48.17-.8 61 14 67c18.5 7.5 49.94-2.5 51.44-15.5S57 33.85 43 36.35c-14 2.5-3.5-2.85-21-8.85z" fill="#DCF6EF"/>
  <path d="M22.1 8.1c5.08-2.74 7-3.26 8.94 1.26 1.93 4.52.95 9.92-2.92 10.52-8.37 1.3-12.32-8.4-6.02-11.79z" fill="#7A859E"/>
  <path d="M11 6v53.9h50" stroke="#505573" stroke-width="2" stroke-linecap="round" stroke-linejoin="round"/>
  <path d="M30.52 35v24.58" stroke="#505573" stroke-width="2" stroke-linecap="round" stroke-linejoin="round"/>
  <path d="M20.2 39.13v20.76" stroke="#505573" stroke-width="2" stroke-linecap="round" stroke-linejoin="round"/>
  <path d="M40.45 30v29.58" stroke="#505573" stroke-width="2" stroke-linecap="round" stroke-linejoin="round"/>
  <path d="M51.45 20v39.58" stroke="#505573" stroke-width="2" stroke-linecap="round" stroke-linejoin="round"/>
  <path d="M11.45 41c12.32-1.38 29.48-10.54 44-22" stroke="#505573" stroke-width="2" stroke-linecap="round" stroke-linejoin="round"/>
  <path d="M47.12 17.44C41.58 6.25 35 16.21 37.58 22.4c2.59 6.19 5.69 14.67 23.4 5.73 7.09-3.58-.14-21.16-2.98-14.71-2.83 6.44-9.46 6.9-10.88 4.03z" fill="#E7EAF3"/>
  <circle cx="49.5" cy="21.5" r="10.5" stroke="#505573" stroke-width="2"/>
  <path d="M46 21.67L48.67 25 54 19" stroke="#14C393" stroke-width="2" stroke-linecap="round" stroke-linejoin="round"/>
  <path d="M26.75 16v-2.25H29v-1.5h-2.25V10h-1.5v2.25H23v1.5h2.25V16h1.5z" fill="#E7EAF3"/>
  <path d="M15.21 29.2c.84 2.2-2.63 8.26-6.61 7.22-3.99-1.04-7.04-4.47-5.44-7.35 1.6-2.87 5.55-7.52 7.03-3.27 1.48 4.24 4.18 1.2 5.02 3.4z" fill="#14C393"/>
  <path d="M9.6 33.6v-1.88h1.88v-1.25H9.6V28.6H8.35v1.87H6.48v1.25h1.87v1.88H9.6z" fill="#fff"/>
  <path d="M22 27.5c-14-4.8-22 5-20 14C3.33 48.17-.8 61 14 67c18.5 7.5 49.94-2.5 51.44-15.5S57 33.85 43 36.35c-14 2.5-3.5-2.85-21-8.85z" fill="#DCF6EF"/>
  <path d="M22.1 8.1c5.08-2.74 7-3.26 8.94 1.26 1.93 4.52.95 9.92-2.92 10.52-8.37 1.3-12.32-8.4-6.02-11.79z" fill="#7A859E"/>
  <path fill-rule="evenodd" clip-rule="evenodd" d="M12 6a1 1 0 10-2 0v53.9a1 1 0 001 1h50a1 1 0 100-2h-8.55V22.54c1.22-.9 2.43-1.83 3.62-2.77a1 1 0 00-1.24-1.57c-.78.63-1.58 1.24-2.38 1.84V20a1 1 0 10-2 0v1.54A136.45 136.45 0 0132.17 32.9c-7.31 3.73-14.31 6.26-20.17 7.04V6zm0 35.94V58.9h7.2V40.38a45.1 45.1 0 01-7.2 1.56zm9.2-2.2V58.9h8.32V36.4a81.46 81.46 0 01-8.32 3.35zm10.32-4.29v23.44h7.93V31.18a122.45 122.45 0 01-7.93 4.27zm9.93-5.47V58.9h9V24a146.8 146.8 0 01-9 5.97z" fill="#505573"/>
  <path d="M47.12 17.44C41.58 6.25 35 16.21 37.58 22.4c2.59 6.19 5.69 14.67 23.4 5.73 7.09-3.58-.14-21.16-2.98-14.71-2.83 6.44-9.46 6.9-10.88 4.03z" fill="#E7EAF3"/>
  <path fill-rule="evenodd" clip-rule="evenodd" d="M49.5 31a9.5 9.5 0 100-19 9.5 9.5 0 000 19zm0 2a11.5 11.5 0 100-23 11.5 11.5 0 000 23z" fill="#505573"/>
  <path fill-rule="evenodd" clip-rule="evenodd" d="M54.66 18.25a1 1 0 01.09 1.41l-5.34 6a1 1 0 01-1.52-.04l-2.67-3.33a1 1 0 011.56-1.25l1.93 2.41 4.54-5.11a1 1 0 011.41-.09z" fill="#14C393"/>
  <path d="M26.75 16v-2.25H29v-1.5h-2.25V10h-1.5v2.25H23v1.5h2.25V16h1.5z" fill="#E7EAF3"/>
  <path d="M15.21 29.2c.84 2.2-2.63 8.26-6.61 7.22-3.99-1.04-7.04-4.47-5.44-7.35 1.6-2.87 5.55-7.52 7.03-3.27 1.48 4.24 4.18 1.2 5.02 3.4z" fill="#14C393"/>
  <path d="M9.6 33.6v-1.88h1.88v-1.25H9.6V28.6H8.35v1.87H6.48v1.25h1.87v1.88H9.6z" fill="#fff"/>
</svg>
