<svg width="80" height="80" fill="none" xmlns="http://www.w3.org/2000/svg">
  <g clip-path="url(#clip0)">
    <path d="M1.89 29.41C.45 50.21 8.84 67.31 22.8 68.93c13.98 1.61.09-16.8 26.54-26.14 26.45-9.35 2.74-28.28-9.86-31.06C26.88 8.95 3.32 8.62 1.89 29.41z" fill="#F9FAFC"/>
    <path d="M24 47h-3v15h3V47z" fill="#14C393"/>
    <path d="M30 46h-3v16h3V46z" fill="#14C393"/>
    <path d="M36 44h-3v18h3V44z" fill="#14C393"/>
    <path d="M42 42h-3v20h3V42z" fill="#14C393"/>
    <path d="M48 40h-3v22h3V40z" fill="#14C393"/>
    <path d="M64 9a11 11 0 00-2 21.81V30a2 2 0 114 0v.81A11 11 0 0064 9z" fill="#14C393"/>
    <path d="M76 39c-.4 0-.77.08-1.12.22a3 3 0 00-4-2A3 3 0 0067 35.18V30a3 3 0 00-2-2.82v-2.36A3 3 0 0064 19a1 1 0 111-1h2a3 3 0 00-2-2.82V13h-2v2.18A3 3 0 0064 21a1 1 0 11-1 1h-2a3 3 0 002 2.82v2.36A3 3 0 0061 30v21.58c-.19-.2-.32-.44-.37-.73L58.83 41h-2.65A3.18 3.18 0 0053 44.18v.64c0 .18.02.35.04.52l1.8 10.8c.14.84.5 1.63 1.03 2.3L57.92 61H49V36.95c3.9-1.9 7.64-4.11 11.23-6.63-.73-.26-1.42-.6-2.07-1.02-9 6.13-19 10.35-29.75 12.5L19 43.68V39.6l8.62-1.72a76.86 76.86 0 0027.53-11.36c-.4-.54-.74-1.1-1.04-1.71a74.88 74.88 0 01-26.88 11.1L19 37.56V34h6v-2h-6v-2h4v-2h-4v-2h6v-2h-6v-2h4v-2h-4v-2h-2v45h41.97l.03.4V66h2v-2.6c0-1.13-.39-2.24-1.1-3.12l-2.47-3.1a3 3 0 01-.62-1.37L55.01 45a1.21 1.21 0 01-.01-.2v-.63c0-.65.53-1.18 1.18-1.18h.98l1.5 8.21A3.4 3.4 0 0062 54h1V30a1 1 0 012 0v18h2V38a1 1 0 012 0v10h2v-8a1 1 0 012 0v8h2v-6a1 1 0 012 0v13.6a3 3 0 01-.66 1.87l-2.24 2.81c-.71.88-1.1 2-1.1 3.12V66h2v-2.6a3 3 0 01.66-1.87l2.24-2.81c.71-.88 1.1-2 1.1-3.12V42a3 3 0 00-3-3zM47 61h-4V39.56c1.35-.53 2.68-1.1 4-1.7V61zM37 41.68a82.3 82.3 0 004-1.34V61h-4V41.68zM35 61h-4V43.26c1.35-.3 2.68-.64 4-1.02V61zm-6.2-17.24l.2-.05V61h-4V44.52l3.8-.76zM19 45.72l4-.8V61h-4V45.72z" fill="#2F354D"/>
    <path d="M64 23a1 1 0 01-1-1h-2a3 3 0 002 2.82V27h2v-2.18A3 3 0 0064 19a1 1 0 111-1h2a3 3 0 00-2-2.82V13h-2v2.18A3 3 0 0064 21a1 1 0 010 2z" fill="#fff"/>
    <path d="M77 71H57v-6h20v6z" fill="#14C393"/>
  </g>
  <defs>
    <clipPath id="clip0">
      <path fill="#fff" d="M0 0h80v80H0z"/>
    </clipPath>
  </defs>
</svg>
