<svg width="160" height="32" viewBox="0 0 160 32" fill="none" xmlns="http://www.w3.org/2000/svg">
<g id="Binance_logo 1" clip-path="url(#clip0_4634_93165)">
<path id="Vector" d="M10.262 13.4467L16.4556 7.23248L22.6524 13.45L26.2562 9.83396L16.4556 0L6.6582 9.83068L10.262 13.4467Z" fill="#D2D6E7"/>
<path id="Vector_2" d="M7.71705 15.9995L4.11328 12.3835L0.509331 15.9996L4.1131 19.6156L7.71705 15.9995Z" fill="#D2D6E7"/>
<path id="Vector_3" d="M10.2615 18.5533L16.455 24.7675L22.6516 18.5503L26.2574 22.1643L26.2557 22.1663L16.455 32L6.65738 22.1696L6.65234 22.1645L10.2615 18.5533Z" fill="#D2D6E7"/>
<path id="Vector_4" d="M28.7984 19.6173L32.4023 16.0012L28.7986 12.3853L25.1946 16.0014L28.7984 19.6173Z" fill="#D2D6E7"/>
<path id="Vector_5" d="M20.1111 15.9982H20.1126L16.4556 12.3289L13.7531 15.0405H13.7528L13.4425 15.3522L12.8019 15.9949L12.7969 15.9999L12.8019 16.0053L16.4556 19.6713L20.1126 16.002L20.1144 15.9999L20.1111 15.9982Z" fill="#D2D6E7"/>
<path id="Vector_6" d="M38.0195 7.75391H45.8577C47.8031 7.75391 49.2741 8.25484 50.2711 9.25671C51.0427 10.0326 51.4283 10.9943 51.4283 12.1415V12.19C51.4283 12.6748 51.3686 13.1032 51.2485 13.4747C51.1286 13.8468 50.9684 14.1817 50.7681 14.4807C50.5683 14.7799 50.3361 15.0425 50.0721 15.2685C49.8079 15.4949 49.524 15.689 49.22 15.8503C50.1978 16.2223 50.9676 16.727 51.5288 17.3655C52.0898 18.0041 52.3706 18.889 52.3706 20.02V20.0683C52.3706 20.8442 52.222 21.5228 51.9245 22.1049C51.6271 22.6864 51.2009 23.1715 50.6459 23.5594C50.091 23.9474 49.4237 24.238 48.6439 24.4321C47.864 24.626 46.9998 24.7228 46.0514 24.7228H38.0195V7.75391ZM45.0741 14.6141C45.8957 14.6141 46.5481 14.4731 47.031 14.19C47.5141 13.9072 47.7557 13.4505 47.7557 12.8204V12.7719C47.7557 12.2065 47.5461 11.7743 47.1275 11.475C46.7086 11.176 46.1045 11.0264 45.3156 11.0264H41.6433V14.6141H45.0741ZM46.0647 21.4505C46.8862 21.4505 47.53 21.3014 47.9975 21.0022C48.4645 20.7032 48.6983 20.2384 48.6983 19.608V19.5598C48.6983 18.9941 48.4807 18.5458 48.0459 18.2142C47.6109 17.8833 46.9104 17.7175 45.9438 17.7175H41.6433V21.4508L46.0647 21.4505Z" fill="#D2D6E7"/>
<path id="Vector_7" d="M57.0391 7.75391H60.76V24.7233H57.0391V7.75391Z" fill="#D2D6E7"/>
<path id="Vector_8" d="M66.3965 7.75391H69.8268L77.7516 18.2023V7.75391H81.4239V24.7233H78.2591L70.0686 13.9357V24.7233H66.3965V7.75391Z" fill="#D2D6E7"/>
<path id="Vector_9" d="M92.6882 7.63281H96.1187L103.367 24.7233H99.4772L97.9308 20.9175H90.7793L89.2332 24.7233H85.4395L92.6882 7.63281ZM96.6021 17.6202L94.355 12.1175L92.1086 17.6202H96.6021Z" fill="#D2D6E7"/>
<path id="Vector_10" d="M107.383 7.75391H110.814L118.738 18.2023V7.75391H122.411V24.7233H119.246L111.055 13.9357V24.7233H107.383V7.75391Z" fill="#D2D6E7"/>
<path id="Vector_11" d="M135.801 25.0138C134.56 25.0138 133.409 24.7874 132.345 24.3352C131.282 23.8831 130.364 23.2646 129.591 22.4806C128.818 21.6969 128.214 20.7716 127.779 19.705C127.344 18.6382 127.127 17.4988 127.127 16.2866V16.2384C127.127 15.0262 127.344 13.8911 127.779 12.8324C128.214 11.7739 128.818 10.8446 129.591 10.0447C130.364 9.24473 131.29 8.61413 132.369 8.15364C133.448 7.69314 134.641 7.46289 135.945 7.46289C136.734 7.46289 137.455 7.52785 138.107 7.65674C138.76 7.7864 139.351 7.96383 139.883 8.19003C140.415 8.41649 140.906 8.69122 141.357 9.01423C141.808 9.33774 142.227 9.69309 142.613 10.0811L140.246 12.8203C139.585 12.2225 138.913 11.7534 138.228 11.4143C137.543 11.0751 136.775 10.9052 135.921 10.9052C135.212 10.9052 134.556 11.0427 133.952 11.3175C133.348 11.5922 132.829 11.9718 132.394 12.4566C131.959 12.9413 131.621 13.5032 131.379 14.1414C131.138 14.78 131.017 15.4627 131.017 16.1898V16.2381C131.017 16.9653 131.138 17.6525 131.379 18.2985C131.621 18.9452 131.954 19.5106 132.382 19.9954C132.808 20.4801 133.324 20.8643 133.928 21.1471C134.532 21.4302 135.196 21.5712 135.921 21.5712C136.888 21.5712 137.704 21.3936 138.373 21.038C139.041 20.6828 139.706 20.1978 140.366 19.5834L142.734 21.9835C142.299 22.4523 141.848 22.8726 141.381 23.2439C140.914 23.6159 140.403 23.9349 139.847 24.2018C139.291 24.4682 138.683 24.6706 138.023 24.8076C137.362 24.9448 136.622 25.0138 135.801 25.0138Z" fill="#D2D6E7"/>
<path id="Vector_12" d="M147.113 7.75391H159.846V11.0752H150.786V14.5176H158.759V17.8386H150.786V21.4023H159.967V24.7233H147.113V7.75391Z" fill="#D2D6E7"/>
</g>
<defs>
<clipPath id="clip0_4634_93165">
<rect width="159.2" height="32" fill="white" transform="translate(0.646484)"/>
</clipPath>
</defs>
</svg>
