<svg width="177" height="32" viewBox="0 0 177 32" fill="none" xmlns="http://www.w3.org/2000/svg">
<g id="bitcoin-magazine-vector-logo 1" clip-path="url(#clip0_4668_94764)">
<g id="Group">
<g id="Group_2">
<g id="Group_3">
<g id="Group_4">
<g id="Group_5">
<path id="Vector" d="M20.0329 24.3985L16.1289 26.3166V11.9158L20.0329 9.99771V24.3985ZM25.3329 21.7954L21.4289 23.7135V9.31268L25.3329 7.39461V21.7954ZM26.7289 21.1104V6.70958L30.6329 4.7915V19.1923L26.7289 21.1104Z" fill="#D2D6E7"/>
</g>
<g id="Group_6">
<path id="Vector_2" d="M14.7639 22.4347V26.309L0.267578 19.1923V15.3181L14.7639 22.4347ZM14.7639 17.1676V21.0419L0.267578 13.9252V10.051L14.7639 17.1676ZM14.7639 11.9082V15.7824L0.267578 8.66571V4.7915L14.7639 11.9082Z" fill="#D2D6E7"/>
</g>
</g>
<g id="Group_7">
<g id="Group_8">
<path id="Vector_3" d="M39.8535 0.226807V22.4667H51.2329C56.5705 22.4667 59.9807 20.0574 59.9807 16.2396C59.9807 13.4225 58.2385 11.1985 55.4956 10.6425C57.7937 9.97535 59.2764 8.08495 59.2764 5.86095C59.2764 2.45083 55.9404 0.263909 50.7511 0.263909H39.8535V0.226807ZM46.4143 5.19374H50.4175C51.7148 5.19374 52.5303 5.898 52.5303 7.04706C52.5303 8.23319 51.7148 8.97455 50.4175 8.97455H46.4143V5.19374ZM46.4143 13.4596H50.4175C52.0855 13.4596 53.1604 14.2009 53.1604 15.4241C53.1604 16.7214 52.1226 17.5369 50.4175 17.5369H46.4143V13.4596Z" fill="#D2D6E7"/>
</g>
<g id="Group_9">
<path id="Vector_4" d="M70.5451 0.226807H63.9473V22.4667H70.5451V0.226807Z" fill="#D2D6E7"/>
</g>
<g id="Group_10">
<path id="Vector_5" d="M91.6365 5.49029V0.226807H74.5488V5.49029H79.7752V22.4667H86.4101V5.49029H91.6365Z" fill="#D2D6E7"/>
</g>
<g id="Group_11">
<g id="Group_12">
<path id="Vector_6" d="M105.924 0.0415039C99.0293 0.0415039 93.9512 4.8231 93.9512 11.3098C93.9512 17.8705 98.9181 22.7633 105.701 22.7633C109.074 22.7633 112.707 21.0953 115.116 18.4636L111.298 14.3863C109.779 15.9431 107.703 16.9439 105.998 16.9439C102.995 16.9439 100.697 14.4604 100.697 11.1986C100.697 7.93672 102.995 5.49032 105.998 5.49032C107.851 5.49032 109.89 6.67645 111.298 8.45564L115.116 3.9706C112.855 1.56127 109.26 0.0415039 105.924 0.0415039Z" fill="#D2D6E7"/>
</g>
<g id="Group_13">
<path id="Vector_7" d="M128.869 0.0415039C121.9 0.0415039 116.748 4.78602 116.748 11.3468C116.748 17.9076 121.9 22.7633 128.869 22.7633C135.837 22.7633 140.99 17.8705 140.99 11.3468C140.99 4.82309 135.837 0.0415039 128.869 0.0415039ZM128.98 5.56443C131.908 5.56443 134.243 8.01085 134.243 11.3839C134.243 14.757 131.908 17.2404 128.98 17.2404C126.052 17.2404 123.531 14.7199 123.531 11.3839C123.531 8.04792 126.015 5.56443 128.98 5.56443Z" fill="#D2D6E7"/>
</g>
<g id="Group_14">
<path id="Vector_8" d="M151.33 0.226807H144.732V22.4667H151.33V0.226807Z" fill="#D2D6E7"/>
</g>
<g id="Group_15">
<path id="Vector_9" d="M176.401 22.4667V0.226807H170.36V12.6441L160.945 0.226807H155.311V22.4667H161.352V10.0865L170.767 22.4667H176.401Z" fill="#D2D6E7"/>
</g>
</g>
</g>
<g id="Group_16">
<path id="Vector_10" d="M46.1452 31.9102V26.3726H44.1995L42.9808 29.259L41.7621 26.3726H39.8164V31.9102H41.42V28.8741L42.3607 31.3757H43.5581L44.4988 28.8741V31.9102H46.1452Z" fill="#D2D6E7"/>
<path id="Vector_11" d="M51.0205 31.1404L51.2985 31.9315H53.2441L50.9991 26.3938H49.1176L46.7871 31.9315H48.6686L48.9466 31.1404H51.0205ZM50.5715 29.8147H49.417L49.9942 28.1898L50.5715 29.8147Z" fill="#D2D6E7"/>
<path id="Vector_12" d="M57.3056 29.0024V30.2852C57.0276 30.3921 56.7711 30.4776 56.5786 30.4776C55.8517 30.4776 55.3386 29.9217 55.3386 29.152C55.3386 28.4037 55.8517 27.8478 56.5786 27.8478C57.0276 27.8478 57.5835 28.083 57.947 28.4251L58.9733 27.1636C58.3746 26.6504 57.4339 26.3083 56.5786 26.3083C54.7613 26.3083 53.457 27.5057 53.457 29.1306C53.457 30.777 54.7185 31.9743 56.4504 31.9743C57.2414 31.9743 58.2677 31.675 58.8664 31.2687V28.981H57.3056V29.0024Z" fill="#D2D6E7"/>
<path id="Vector_13" d="M63.6338 31.1404L63.9117 31.9315H65.8574L63.6124 26.3938H61.7309L59.4004 31.9315H61.2819L61.5599 31.1404H63.6338ZM63.1848 29.8147H62.0302L62.6075 28.1898L63.1848 29.8147Z" fill="#D2D6E7"/>
<path id="Vector_14" d="M71.29 27.5271V26.3726H66.351V27.7837H68.8312L66.2441 30.777V31.9316H71.3328V30.5205H68.7029L71.29 27.5271Z" fill="#D2D6E7"/>
<path id="Vector_15" d="M74.0477 26.3726H72.209V31.9102H74.0477V26.3726Z" fill="#D2D6E7"/>
<path id="Vector_16" d="M80.5248 31.9102V26.3726H78.8785V29.2162L76.6976 26.3726H75.1582V31.9102H76.8259V29.0879L79.0068 31.9102H80.5248Z" fill="#D2D6E7"/>
<path id="Vector_17" d="M86.3191 27.7623V26.3726H81.6367V31.9102H86.4047V30.5205H83.4755V29.8362H86.0625V28.4465H83.4755V27.7623H86.3191Z" fill="#D2D6E7"/>
</g>
</g>
</g>
</g>
</g>
<defs>
<clipPath id="clip0_4668_94764">
<rect width="176.44" height="32" fill="white" transform="translate(0.164062)"/>
</clipPath>
</defs>
</svg>
