<svg width="129" height="16" viewBox="0 0 129 16" fill="none" xmlns="http://www.w3.org/2000/svg">
<g id="Page-1">
<g id="Bitfinex">
<path id="Shape" d="M9.2367 12.917H3.0486V9.56578H9.2367C10.7891 9.56578 11.5653 10.3177 11.5653 11.2844C11.5653 12.2296 10.8107 12.917 9.2367 12.917ZM9.04265 7.78275H3.0486V4.96856H9.04265C10.6813 4.96856 11.3066 5.54858 11.3066 6.34343C11.3066 7.07383 10.5735 7.78275 9.04265 7.78275ZM10.6166 8.62056C13.2255 8.53463 14.1742 7.22421 14.1742 5.78489C14.1742 4.21667 12.9452 2.90625 9.94823 2.90625H0.375V14.9149H10.2285C12.6865 14.9149 14.5192 13.8623 14.5192 11.6281C14.5192 10.0599 13.4843 8.70649 10.6166 8.62056ZM17.1066 2.92773V14.9364H19.7802V2.92773H17.1066ZM31.0352 5.18338H36.9214V2.90625H22.4754V5.18338H28.3616V14.9149H31.0352V5.18338ZM39.6382 2.92773V14.9364H42.3118V10.2532H48.5861V8.27684H42.3118V4.99004H52.5103V2.92773H39.6382ZM55.3779 2.92773V14.9364H58.0515V2.92773H55.3779ZM63.4634 5.84933L72.3251 14.9364H75.3437V2.92773H72.7132V11.5851L64.1965 2.92773H60.8114V14.9364H63.4634V5.84933ZM78.1036 2.92773V14.9364H91.1697V12.917H80.7556V9.60875H86.9868V7.73978H80.7556V4.99004H91.1697V2.92773H78.1036ZM109.648 2.92773H106.112L101.627 7.13828L97.1638 2.90625H93.5846L99.8805 8.8139L93.3474 14.8934H96.8835L101.605 10.468L106.306 14.8934H109.907L103.352 8.8139L109.648 2.92773Z" fill="#D2D6E7"/>
<path id="Shape_2" d="M128.127 0.585073C128.083 0.563591 122.564 -0.209774 117.109 3.3563C113.724 5.56898 113.271 8.81282 113.443 10.9825C121.378 10.0803 127.954 0.842862 128.127 0.585073ZM113.982 13.3886C114.672 14.6131 119.804 17.3628 124.375 13.5604C128.924 9.75804 128.558 2.81924 128.148 0.585073C127.997 0.907309 123.017 11.9922 113.982 13.3886Z" fill="#D2D6E7"/>
<path id="Path" d="M128.127 0.585073C128.083 0.563591 122.564 -0.209774 117.109 3.3563C113.724 5.56898 113.271 8.81282 113.443 10.9825C121.378 10.0803 127.954 0.842862 128.127 0.585073Z" fill="#D2D6E7"/>
</g>
</g>
</svg>
