<svg width="128" height="16" viewBox="0 0 128 16" fill="none" xmlns="http://www.w3.org/2000/svg">
<path d="M8.98745 12.9161H2.82202V9.56481H8.98745C10.5342 9.56481 11.3075 10.3167 11.3075 11.2834C11.3075 12.2286 10.5557 12.9161 8.98745 12.9161ZM8.79411 7.78177H2.82202V4.96758H8.79411C10.4268 4.96758 11.0498 5.5476 11.0498 6.34245C11.0498 7.07285 10.3194 7.78177 8.79411 7.78177ZM10.3623 8.61958C12.9617 8.53365 13.9069 7.22323 13.9069 5.78391C13.9069 4.2157 12.6824 2.90527 9.69637 2.90527H0.158203V14.9139H9.97564C12.4246 14.9139 14.2506 13.8613 14.2506 11.6271C14.2506 10.0589 13.2195 8.70551 10.3623 8.61958ZM16.8285 2.92676V14.9354H19.4923V2.92676H16.8285ZM30.7061 5.1824H36.5708V2.90527H22.1776V5.1824H28.0423V14.9139H30.7061V5.1824ZM39.2776 2.92676V14.9354H41.9414V10.2522H48.1928V8.27586H41.9414V4.98906H52.1026V2.92676H39.2776ZM54.9597 2.92676V14.9354H57.6235V2.92676H54.9597ZM63.0156 5.84836L71.8448 14.9354H74.8524V2.92676H72.2315V11.5841L63.746 2.92676H60.3733V14.9354H63.0156V5.84836ZM77.6021 2.92676V14.9354H90.6204V12.9161H80.2444V9.60777H86.4529V7.73881H80.2444V4.98906H90.6204V2.92676H77.6021ZM109.031 2.92676H105.508L101.039 7.1373L96.5925 2.90527H93.0265L99.2993 8.81292L92.7902 14.8924H96.3133L101.018 10.4671L105.701 14.8924H109.289L102.758 8.81292L109.031 2.92676Z" fill="#D2D6E6"/>
<path d="M127.441 0.585073C127.398 0.563591 121.899 -0.209774 116.464 3.3563C113.091 5.56898 112.64 8.81282 112.812 10.9825C120.717 10.0803 127.269 0.842862 127.441 0.585073ZM113.349 13.3886C114.036 14.6131 119.149 17.3628 123.703 13.5604C128.236 9.75804 127.871 2.81924 127.463 0.585073C127.312 0.907309 122.35 11.9922 113.349 13.3886Z" fill="#98E35D"/>
<path d="M127.441 0.585073C127.398 0.563591 121.899 -0.209774 116.464 3.3563C113.091 5.56898 112.64 8.81282 112.812 10.9825C120.717 10.0803 127.269 0.842862 127.441 0.585073Z" fill="#16B157"/>
</svg>
