<svg width="109" height="20" viewBox="0 0 109 20" fill="none" xmlns="http://www.w3.org/2000/svg">
<g id="New_Bloomberg_Logo 1" clip-path="url(#clip0_4634_93154)">
<g id="Group">
<path id="Vector" d="M0.646484 0H8.56425C10.0724 0 11.2035 0.378152 12.0414 1.0084C12.963 1.76471 13.4657 2.85714 13.4657 4.20168C13.4657 5.7563 12.8373 6.72269 11.5805 7.31093V7.39496C13.2563 7.94118 14.2198 9.45378 14.2198 11.2605C14.2198 12.9832 13.5495 14.3277 12.4603 15.1681C11.5386 15.8403 10.3656 16.1345 8.77371 16.1345H0.646484V0ZM7.76828 6.30252C8.60614 6.30252 9.23454 5.84034 9.23454 4.87395C9.23454 3.94958 8.60614 3.4874 7.72639 3.4874H5.00335V6.26051H7.76828V6.30252ZM8.14532 12.563C9.10886 12.563 9.82104 11.9748 9.82104 10.9244C9.82104 9.78992 9.06696 9.28572 8.14532 9.28572H5.04524V12.605H8.14532V12.563Z" fill="#D2D6E7"/>
<path id="Vector_2" d="M14.9316 0H19.079V16.1765H14.9316V0Z" fill="#D2D6E7"/>
<path id="Vector_3" d="M19.918 10.4201C19.918 6.76461 22.264 4.32764 25.9087 4.32764C29.5533 4.32764 31.8575 6.80663 31.8575 10.4201C31.8575 14.0755 29.5533 16.5125 25.9087 16.5125C22.264 16.5125 19.918 14.0755 19.918 10.4201ZM27.7101 10.4201C27.7101 8.40327 27.0817 7.14276 25.8249 7.14276C24.5681 7.14276 23.9816 8.40327 23.9816 10.4201C23.9816 12.4369 24.5681 13.7394 25.8249 13.7394C27.0817 13.6974 27.7101 12.4369 27.7101 10.4201Z" fill="#D2D6E7"/>
<path id="Vector_4" d="M32.5352 10.4674C32.5352 6.81198 34.8812 4.375 38.5258 4.375C42.1705 4.375 44.4328 6.81198 44.4328 10.4674C44.4328 14.1229 42.1286 16.5599 38.484 16.5599C34.8812 16.5599 32.5352 14.1229 32.5352 10.4674ZM40.3272 10.4674C40.3272 8.45063 39.6988 7.19013 38.4421 7.19013C37.1853 7.19013 36.5988 8.45063 36.5988 10.4674C36.5988 12.4842 37.1853 13.7868 38.4421 13.7868C39.6988 13.7447 40.3272 12.4842 40.3272 10.4674Z" fill="#D2D6E7"/>
<path id="Vector_5" d="M45.0527 4.62178H48.9069V6.34447H48.9907C49.7447 4.99993 50.7921 4.28564 52.4678 4.28564C53.934 4.28564 55.0233 4.99993 55.5679 6.26043H55.6516C56.5733 4.74783 57.7882 4.28564 59.2125 4.28564C61.8937 4.28564 63.0248 6.26043 63.0248 8.90749V16.1344H59.0031V9.62178C59.0031 8.44531 58.626 7.68901 57.6206 7.68901C56.6152 7.68901 56.1125 8.61337 56.1125 9.87388V16.1344H52.0907V9.62178C52.0907 8.44531 51.7137 7.68901 50.7083 7.68901C49.7028 7.68901 49.2001 8.61337 49.2001 9.87388V16.1344H45.0527V4.62178Z" fill="#D2D6E7"/>
<path id="Vector_6" d="M68.0933 14.6219H68.0514V16.1345H64.1973V0H68.219V5.79832H68.3028C69.0568 4.78992 70.1042 4.2437 71.5704 4.2437C74.461 4.2437 76.1367 6.84874 76.1367 10.3361C76.1367 14.2437 74.3354 16.5126 71.3191 16.5126C70.0623 16.5126 68.7636 15.9244 68.0933 14.6219ZM71.9893 10.2941C71.9893 8.44538 71.3191 7.22689 70.1042 7.22689C68.8474 7.22689 68.0933 8.44538 68.0933 10.2941C68.0933 12.1429 68.8893 13.3613 70.1042 13.3613C71.3191 13.3613 71.9893 12.1849 71.9893 10.2941Z" fill="#D2D6E7"/>
<path id="Vector_7" d="M76.5977 10.3781C76.5977 6.76464 78.9856 4.28564 82.4208 4.28564C84.1384 4.28564 85.4371 4.83186 86.4425 5.79825C87.7831 7.10077 88.3696 9.11758 88.3277 11.4705H80.6194C80.787 12.8991 81.4572 13.6554 82.6721 13.6554C83.3843 13.6554 84.0127 13.3193 84.2641 12.563H88.1601C87.4898 15.21 85.4371 16.5125 82.5465 16.5125C78.9856 16.4705 76.5977 14.0335 76.5977 10.3781ZM80.6194 9.15959H84.306C84.2222 7.77304 83.4681 7.05875 82.5046 7.05875C81.3735 7.01674 80.7451 7.81506 80.6194 9.15959Z" fill="#D2D6E7"/>
<path id="Vector_8" d="M92.8952 6.59676H92.9789C93.8168 5.00012 94.906 4.36987 96.2885 4.36987C96.6236 4.36987 96.8331 4.41189 96.9588 4.49592V8.02533H96.875C94.4871 7.60517 93.1046 8.73962 93.1046 11.3447V16.1766H89.041V4.62197H92.8952V6.59676Z" fill="#D2D6E7"/>
<path id="Vector_9" d="M97.3774 16.1764H101.273C101.441 16.6806 101.944 17.1428 102.907 17.1428C104.206 17.1428 104.667 16.3445 104.667 15.126V14.2857H104.583C103.955 15.042 103.075 15.5882 101.818 15.5882C99.3464 15.5882 97.168 13.7394 97.168 10.126C97.168 6.80668 98.9275 4.24365 101.609 4.24365C103.159 4.24365 104.08 4.8739 104.709 5.84029H104.792V4.57979H108.647V14.5798C108.647 16.4285 108.018 17.8571 107.055 18.6974C106.049 19.5798 104.625 19.9579 102.991 19.9579C99.891 20 97.7545 18.7394 97.3774 16.1764ZM104.834 9.95794C104.834 8.52937 104.164 7.3529 102.991 7.3529C101.86 7.3529 101.148 8.3613 101.148 9.95794C101.148 11.5126 101.86 12.605 102.991 12.605C104.122 12.605 104.834 11.4705 104.834 9.95794Z" fill="#D2D6E7"/>
</g>
</g>
<defs>
<clipPath id="clip0_4634_93154">
<rect width="108" height="20" fill="white" transform="translate(0.646484)"/>
</clipPath>
</defs>
</svg>
