<svg width="108" height="20" viewBox="0 0 108 20" fill="none" xmlns="http://www.w3.org/2000/svg">
<path d="M0.0996094 0H7.94837C9.44338 0 10.5646 0.378152 11.3952 1.0084C12.3088 1.76471 12.8071 2.85714 12.8071 4.20168C12.8071 5.7563 12.1842 6.72269 10.9384 7.31093V7.39496C12.5995 7.94118 13.5546 9.45378 13.5546 11.2605C13.5546 12.9832 12.8902 14.3277 11.8105 15.1681C10.8969 15.8403 9.73407 16.1345 8.15601 16.1345H0.0996094V0ZM7.15935 6.30252C7.9899 6.30252 8.61282 5.84034 8.61282 4.87395C8.61282 3.94958 7.9899 3.4874 7.11782 3.4874H4.41851V6.26051H7.15935V6.30252ZM7.53309 12.563C8.48823 12.563 9.19421 11.9748 9.19421 10.9244C9.19421 9.78992 8.44671 9.28572 7.53309 9.28572H4.46003V12.605H7.53309V12.563Z" fill="#D2D6E7"/>
<path d="M14.2607 0H18.372V16.1765H14.2607V0Z" fill="#D2D6E7"/>
<path d="M19.2026 10.4202C19.2026 6.76473 21.5282 4.32776 25.1411 4.32776C28.754 4.32776 31.0381 6.80675 31.0381 10.4202C31.0381 14.0757 28.754 16.5126 25.1411 16.5126C21.5282 16.5126 19.2026 14.0757 19.2026 10.4202ZM26.9268 10.4202C26.9268 8.40339 26.3039 7.14289 25.0581 7.14289C23.8122 7.14289 23.2308 8.40339 23.2308 10.4202C23.2308 12.437 23.8122 13.7395 25.0581 13.7395C26.3039 13.6975 26.9268 12.437 26.9268 10.4202Z" fill="#D2D6E7"/>
<path d="M31.7114 10.4674C31.7114 6.81198 34.037 4.375 37.6499 4.375C41.2628 4.375 43.5053 6.81198 43.5053 10.4674C43.5053 14.1229 41.2213 16.5599 37.6084 16.5599C34.037 16.5599 31.7114 14.1229 31.7114 10.4674ZM39.4356 10.4674C39.4356 8.45063 38.8127 7.19013 37.5669 7.19013C36.321 7.19013 35.7396 8.45063 35.7396 10.4674C35.7396 12.4842 36.321 13.7868 37.5669 13.7868C38.8127 13.7447 39.4356 12.4842 39.4356 10.4674Z" fill="#D2D6E7"/>
<path d="M44.1191 4.6219H47.9397V6.34459H48.0228C48.7703 5.00005 49.8085 4.28577 51.4696 4.28577C52.923 4.28577 54.0028 5.00005 54.5426 6.26056H54.6257C55.5393 4.74795 56.7436 4.28577 58.1556 4.28577C60.8133 4.28577 61.9346 6.26056 61.9346 8.90761V16.1345H57.9479V9.6219C57.9479 8.44543 57.5742 7.68913 56.5775 7.68913C55.5808 7.68913 55.0825 8.6135 55.0825 9.874V16.1345H51.0958V9.6219C51.0958 8.44543 50.7221 7.68913 49.7254 7.68913C48.7287 7.68913 48.2304 8.6135 48.2304 9.874V16.1345H44.1191V4.6219Z" fill="#D2D6E7"/>
<path d="M66.9593 14.6219H66.9177V16.1345H63.0972V0H67.0838V5.79832H67.1669C67.9144 4.78992 68.9526 4.2437 70.4061 4.2437C73.2715 4.2437 74.9326 6.84874 74.9326 10.3361C74.9326 14.2437 73.1469 16.5126 70.1569 16.5126C68.9111 16.5126 67.6237 15.9244 66.9593 14.6219ZM70.8213 10.2941C70.8213 8.44538 70.1569 7.22689 68.9526 7.22689C67.7067 7.22689 66.9593 8.44538 66.9593 10.2941C66.9593 12.1429 67.7483 13.3613 68.9526 13.3613C70.1569 13.3613 70.8213 12.1849 70.8213 10.2941Z" fill="#D2D6E7"/>
<path d="M75.3896 10.3782C75.3896 6.76476 77.7567 4.28577 81.162 4.28577C82.8647 4.28577 84.152 4.83198 85.1487 5.79837C86.4776 7.10089 87.059 9.1177 87.0174 11.4706H79.3763C79.5424 12.8992 80.2069 13.6555 81.4112 13.6555C82.1172 13.6555 82.7401 13.3194 82.9893 12.5631H86.8513C86.1869 15.2101 84.152 16.5127 81.2866 16.5127C77.7567 16.4706 75.3896 14.0337 75.3896 10.3782ZM79.3763 9.15972H83.0308C82.9477 7.77316 82.2002 7.05888 81.2451 7.05888C80.1238 7.01686 79.5009 7.81518 79.3763 9.15972Z" fill="#D2D6E7"/>
<path d="M91.5442 6.59664H91.6272C92.4578 5 93.5375 4.36975 94.9079 4.36975C95.2402 4.36975 95.4478 4.41177 95.5724 4.4958V8.02521H95.4893C93.1222 7.60504 91.7518 8.7395 91.7518 11.3445V16.1765H87.7236V4.62185H91.5442V6.59664Z" fill="#D2D6E7"/>
<path d="M95.9874 16.1764H99.8495C100.016 16.6806 100.514 17.1428 101.469 17.1428C102.756 17.1428 103.213 16.3445 103.213 15.126V14.2857H103.13C102.507 15.042 101.635 15.5882 100.389 15.5882C97.9392 15.5882 95.7798 13.7394 95.7798 10.126C95.7798 6.80668 97.524 4.24365 100.182 4.24365C101.718 4.24365 102.632 4.8739 103.255 5.84029H103.338V4.57979H107.158V14.5798C107.158 16.4285 106.536 17.8571 105.58 18.6974C104.584 19.5798 103.172 19.9579 101.552 19.9579C98.4791 20 96.3612 18.7394 95.9874 16.1764ZM103.379 9.95794C103.379 8.52937 102.715 7.3529 101.552 7.3529C100.431 7.3529 99.7249 8.3613 99.7249 9.95794C99.7249 11.5126 100.431 12.605 101.552 12.605C102.673 12.605 103.379 11.4705 103.379 9.95794Z" fill="#D2D6E7"/>
</svg>
