<svg width="160" height="32" viewBox="0 0 160 32" fill="none" xmlns="http://www.w3.org/2000/svg">
<g id="Cardano 1" clip-path="url(#clip0_4668_94707)">
<g id="Layer 2">
<g id="Layer 1">
<path id="Vector" d="M9.86574 15.8795C9.83025 16.4978 10.0416 17.1049 10.4535 17.5674C10.8653 18.0299 11.444 18.31 12.0622 18.3461H12.1896C12.6449 18.3456 13.0901 18.2118 13.4703 17.9612C13.8504 17.7106 14.1489 17.3541 14.3288 16.9359C14.5087 16.5176 14.5622 16.0558 14.4827 15.6075C14.4032 15.1592 14.1942 14.7439 13.8814 14.413C13.5686 14.0822 13.1658 13.8501 12.7227 13.7455C12.2795 13.6409 11.8155 13.6683 11.3877 13.8244C10.96 13.9805 10.5874 14.2584 10.3158 14.6238C10.0442 14.9893 9.8855 15.4263 9.85938 15.8808L9.86574 15.8795Z" fill="#D2D6E7"/>
<path id="Vector_2" d="M1.17199 15.2885C1.02335 15.2802 0.875577 15.3161 0.747352 15.3918C0.619126 15.4674 0.516201 15.5794 0.451582 15.7135C0.386963 15.8476 0.363552 15.9979 0.384307 16.1453C0.405062 16.2927 0.469051 16.4307 0.568188 16.5417C0.667324 16.6528 0.797159 16.732 0.941284 16.7693C1.08541 16.8066 1.23735 16.8003 1.37792 16.7512C1.51848 16.7022 1.64136 16.6126 1.73101 16.4938C1.82067 16.3749 1.87308 16.2322 1.88162 16.0835C1.88748 15.9847 1.87374 15.8856 1.8412 15.7921C1.80867 15.6986 1.75797 15.6124 1.69203 15.5385C1.62609 15.4647 1.5462 15.4046 1.45695 15.3617C1.36771 15.3187 1.27086 15.2939 1.17199 15.2885Z" fill="#D2D6E7"/>
<path id="Vector_3" d="M9.71791 2.34802C9.8503 2.28003 9.95961 2.17441 10.0321 2.04443C10.1046 1.91446 10.137 1.76595 10.1253 1.61759C10.1135 1.46923 10.0581 1.32767 9.96613 1.21071C9.87411 1.09375 9.74954 1.00663 9.60811 0.960312C9.46669 0.913994 9.31472 0.910551 9.17134 0.950415C9.02796 0.990279 8.89957 1.07167 8.80235 1.18434C8.70512 1.29701 8.6434 1.43592 8.62496 1.58359C8.60651 1.73127 8.63216 1.88109 8.69868 2.01422C8.7434 2.10333 8.80531 2.1827 8.88085 2.24777C8.95638 2.31284 9.04405 2.36231 9.1388 2.39334C9.23354 2.42437 9.33349 2.43634 9.43289 2.42856C9.53228 2.42078 9.62915 2.39341 9.71791 2.34802Z" fill="#D2D6E7"/>
<path id="Vector_4" d="M12.0835 6.47344C12.2891 6.36973 12.4593 6.20739 12.5726 6.00694C12.686 5.8065 12.7374 5.57694 12.7203 5.3473C12.7032 5.11767 12.6184 4.89825 12.4766 4.7168C12.3348 4.53535 12.1424 4.4 11.9237 4.32788C11.705 4.25575 11.4699 4.25009 11.248 4.3116C11.0261 4.3731 10.8274 4.49902 10.677 4.67343C10.5267 4.84785 10.4314 5.06292 10.4033 5.29147C10.3751 5.52002 10.4154 5.75178 10.5189 5.95745C10.5877 6.0941 10.6828 6.21585 10.7987 6.31574C10.9146 6.41564 11.049 6.49172 11.1943 6.53964C11.3396 6.58755 11.4929 6.60637 11.6455 6.59501C11.798 6.58366 11.9469 6.54234 12.0835 6.47344Z" fill="#D2D6E7"/>
<path id="Vector_5" d="M4.12169 9.31072C4.28028 9.415 4.46623 9.46991 4.65602 9.46848C4.84582 9.46705 5.03092 9.40936 5.18792 9.3027C5.34491 9.19604 5.46674 9.04521 5.53799 8.86929C5.60924 8.69338 5.62671 8.50028 5.58819 8.31443C5.54966 8.12858 5.45688 7.95834 5.32157 7.82524C5.18626 7.69214 5.01451 7.60216 4.82806 7.5667C4.6416 7.53124 4.44881 7.55188 4.27409 7.62601C4.09937 7.70015 3.95056 7.82444 3.8465 7.98317C3.70713 8.19576 3.65783 8.45497 3.70943 8.70388C3.76102 8.95279 3.9093 9.17105 4.12169 9.31072Z" fill="#D2D6E7"/>
<path id="Vector_6" d="M5.54062 14.8642C5.31073 14.8512 5.08215 14.9067 4.88378 15.0236C4.68541 15.1405 4.52615 15.3136 4.42614 15.521C4.32612 15.7284 4.28984 15.9608 4.32187 16.1888C4.35391 16.4168 4.45283 16.6302 4.60612 16.802C4.75942 16.9738 4.96021 17.0963 5.18312 17.1541C5.40602 17.2118 5.64104 17.2021 5.85846 17.1263C6.07587 17.0505 6.26593 16.9119 6.40461 16.7281C6.54329 16.5443 6.62436 16.3235 6.63757 16.0936C6.65496 15.7851 6.5492 15.4824 6.34352 15.2519C6.13784 15.0213 5.84906 14.8819 5.54062 14.8642Z" fill="#D2D6E7"/>
<path id="Vector_7" d="M4.24928 22.6932C4.07997 22.7788 3.93983 22.9126 3.84657 23.0778C3.75332 23.243 3.71114 23.4322 3.72536 23.6214C3.73958 23.8105 3.80956 23.9912 3.92647 24.1406C4.04337 24.29 4.20195 24.4014 4.38215 24.4607C4.56235 24.52 4.75608 24.5246 4.93886 24.4738C5.12164 24.423 5.28526 24.3191 5.40903 24.1754C5.53281 24.0316 5.61118 23.8544 5.63424 23.6661C5.6573 23.4778 5.62402 23.2869 5.53861 23.1175C5.48185 23.0049 5.40347 22.9047 5.30794 22.8224C5.21241 22.7402 5.10161 22.6776 4.98187 22.6382C4.86213 22.5988 4.73579 22.5833 4.61009 22.5928C4.48439 22.6022 4.36179 22.6364 4.24928 22.6932Z" fill="#D2D6E7"/>
<path id="Vector_8" d="M8.77619 12.4574C9.00295 12.606 9.26868 12.684 9.53978 12.6816C9.81089 12.6792 10.0752 12.5965 10.2993 12.4439C10.5234 12.2912 10.6972 12.0756 10.7987 11.8242C10.9002 11.5728 10.925 11.297 10.8697 11.0316C10.8145 10.7661 10.6818 10.523 10.4884 10.333C10.2951 10.143 10.0497 10.0146 9.78333 9.96401C9.51697 9.91343 9.2416 9.94297 8.99203 10.0489C8.74247 10.1548 8.52991 10.3324 8.38124 10.5591C8.28233 10.7096 8.21409 10.8781 8.18041 11.0551C8.14673 11.232 8.14828 11.4138 8.18496 11.5901C8.22165 11.7665 8.29275 11.9338 8.3942 12.0827C8.49565 12.2315 8.62546 12.3588 8.77619 12.4574Z" fill="#D2D6E7"/>
<path id="Vector_9" d="M23.1368 6.38164C23.3298 6.50757 23.5559 6.57344 23.7864 6.57092C24.0169 6.5684 24.2415 6.49759 24.4318 6.36746C24.622 6.23732 24.7695 6.0537 24.8554 5.8398C24.9413 5.6259 24.9619 5.39132 24.9145 5.16573C24.8672 4.94013 24.754 4.73364 24.5893 4.57236C24.4246 4.41107 24.2158 4.30224 23.9892 4.25961C23.7627 4.21698 23.5286 4.24247 23.3166 4.33286C23.1045 4.42325 22.924 4.57448 22.7979 4.76743C22.7139 4.8956 22.656 5.03908 22.6276 5.18965C22.5992 5.34022 22.6008 5.49492 22.6323 5.64488C22.6637 5.79484 22.7245 5.93711 22.8111 6.06353C22.8977 6.18996 23.0083 6.29806 23.1368 6.38164Z" fill="#D2D6E7"/>
<path id="Vector_10" d="M25.5283 2.26906C25.653 2.35086 25.7993 2.3938 25.9485 2.39246C26.0977 2.39112 26.2432 2.34555 26.3665 2.26152C26.4898 2.17749 26.5854 2.05877 26.6412 1.92039C26.697 1.78201 26.7105 1.63018 26.68 1.48411C26.6495 1.33805 26.5764 1.20431 26.4699 1.09982C26.3634 0.995333 26.2282 0.92479 26.0816 0.897117C25.935 0.869445 25.7834 0.885886 25.6462 0.944361C25.5089 1.00284 25.392 1.10072 25.3104 1.22562C25.2011 1.39292 25.1626 1.59677 25.2034 1.79242C25.2443 1.98806 25.3611 2.15949 25.5283 2.26906Z" fill="#D2D6E7"/>
<path id="Vector_11" d="M23.3214 13.6601C23.0156 13.6425 22.7094 13.6854 22.4202 13.7861C22.131 13.8869 21.8645 14.0437 21.6358 14.2474C21.1741 14.659 20.8948 15.2371 20.8593 15.8546C20.8238 16.4721 21.0351 17.0784 21.4467 17.5402C21.8582 18.0019 22.4363 18.2812 23.0538 18.3167C23.0984 18.3167 23.1443 18.3167 23.1889 18.3167C23.6387 18.3165 24.0789 18.1861 24.4563 17.9414C24.8337 17.6966 25.1323 17.3479 25.316 16.9373C25.4997 16.5267 25.5607 16.0717 25.4916 15.6272C25.4225 15.1827 25.2263 14.7677 24.9267 14.4322C24.7238 14.2033 24.4773 14.0172 24.2017 13.8847C23.9261 13.7521 23.6268 13.6758 23.3214 13.6601Z" fill="#D2D6E7"/>
<path id="Vector_12" d="M12.8505 12.2957C13.0441 12.6824 13.3417 13.0074 13.71 13.234C14.0782 13.4607 14.5024 13.58 14.9349 13.5787C15.3335 13.5788 15.7256 13.4767 16.0735 13.2822C16.4215 13.0877 16.7139 12.8072 16.9227 12.4676C17.1314 12.128 17.2497 11.7405 17.2661 11.3422C17.2826 10.9439 17.1967 10.548 17.0166 10.1923C16.8217 9.80736 16.5235 9.4843 16.1554 9.25928C15.7873 9.03427 15.3638 8.91618 14.9323 8.91824C14.5349 8.91892 14.1442 9.02112 13.7973 9.21517C13.4505 9.40921 13.159 9.68865 12.9504 10.027C12.7419 10.3653 12.6233 10.7513 12.6058 11.1484C12.5883 11.5454 12.6725 11.9404 12.8505 12.2957Z" fill="#D2D6E7"/>
<path id="Vector_13" d="M31.1318 9.30801C31.3011 9.22255 31.4413 9.08881 31.5347 8.9237C31.6281 8.75858 31.6704 8.56949 31.6563 8.38034C31.6422 8.19118 31.5724 8.01044 31.4556 7.86096C31.3388 7.71148 31.1804 7.59997 31.0003 7.54052C30.8201 7.48107 30.6264 7.47636 30.4436 7.52696C30.2608 7.57757 30.0971 7.68124 29.9732 7.82485C29.8493 7.96847 29.7708 8.1456 29.7475 8.33384C29.7242 8.52209 29.7573 8.71301 29.8425 8.88248C29.9571 9.10978 30.1573 9.28226 30.3991 9.36205C30.6408 9.44184 30.9044 9.4224 31.1318 9.30801Z" fill="#D2D6E7"/>
<path id="Vector_14" d="M25.2191 10.0508C24.9769 10.1727 24.7764 10.3637 24.6428 10.5997C24.5092 10.8356 24.4486 11.1059 24.4686 11.3763C24.4886 11.6467 24.5883 11.905 24.7552 12.1188C24.922 12.3325 25.1485 12.4919 25.406 12.5769C25.6635 12.6619 25.9403 12.6686 26.2016 12.5962C26.4629 12.5239 26.6969 12.3756 26.8739 12.1703C27.051 11.9649 27.1632 11.7117 27.1963 11.4426C27.2294 11.1735 27.182 10.9006 27.0601 10.6585C26.9792 10.4976 26.8674 10.3542 26.7311 10.2365C26.5948 10.1189 26.4366 10.0293 26.2656 9.97284C26.0946 9.91639 25.9141 9.89422 25.7346 9.90759C25.555 9.92096 25.3798 9.96961 25.2191 10.0508Z" fill="#D2D6E7"/>
<path id="Vector_15" d="M17.604 1.91739C17.7935 1.92818 17.9819 1.88254 18.1454 1.78623C18.3089 1.68993 18.4402 1.54728 18.5227 1.37635C18.6051 1.20542 18.635 1.01388 18.6086 0.825955C18.5821 0.638031 18.5006 0.46217 18.3742 0.320616C18.2478 0.179063 18.0822 0.0781779 17.8985 0.0307228C17.7147 -0.0167323 17.521 -0.00862543 17.3419 0.054018C17.1628 0.116662 17.0062 0.231027 16.8921 0.382648C16.778 0.534268 16.7114 0.716331 16.7007 0.905807C16.6865 1.15971 16.7736 1.40889 16.943 1.59857C17.1124 1.78826 17.3501 1.90293 17.604 1.91739Z" fill="#D2D6E7"/>
<path id="Vector_16" d="M17.5929 7.95516C17.8635 7.97033 18.1326 7.90493 18.366 7.76724C18.5995 7.62954 18.7869 7.42572 18.9046 7.18154C19.0223 6.93736 19.0649 6.66378 19.0271 6.39537C18.9893 6.12696 18.8728 5.87578 18.6923 5.67357C18.5118 5.47135 18.2754 5.32719 18.013 5.25929C17.7506 5.19139 17.474 5.2028 17.2181 5.29209C16.9621 5.38137 16.7384 5.54453 16.5752 5.76092C16.412 5.97732 16.3166 6.23724 16.301 6.50785C16.2805 6.87106 16.4051 7.22756 16.6473 7.49896C16.8896 7.77036 17.2297 7.93445 17.5929 7.95516Z" fill="#D2D6E7"/>
<path id="Vector_17" d="M10.1657 21.9492C10.4079 21.8271 10.6084 21.636 10.7418 21.4C10.8753 21.164 10.9358 20.8936 10.9157 20.6232C10.8955 20.3528 10.7956 20.0945 10.6286 19.8809C10.4616 19.6672 10.235 19.5079 9.97751 19.4231C9.71996 19.3382 9.44305 19.3317 9.18178 19.4042C8.92051 19.4768 8.68663 19.6252 8.50972 19.8307C8.3328 20.0362 8.2208 20.2895 8.18788 20.5587C8.15496 20.8278 8.20259 21.1007 8.32476 21.3428C8.48853 21.6673 8.77446 21.9134 9.11969 22.0272C9.46492 22.1409 9.84118 22.1128 10.1657 21.9492Z" fill="#D2D6E7"/>
<path id="Vector_18" d="M18.479 9.95524C18.1947 10.3891 18.0632 10.9055 18.1054 11.4225C18.1475 11.9395 18.3609 12.4277 18.7117 12.8099C19.0625 13.192 19.5308 13.4462 20.0423 13.5323C20.5539 13.6183 21.0795 13.5313 21.5361 13.285C21.9927 13.0388 22.354 12.6472 22.563 12.1724C22.772 11.6977 22.8167 11.1667 22.69 10.6637C22.5633 10.1607 22.2725 9.71423 21.8636 9.39508C21.4546 9.07593 20.9509 8.90228 20.4321 8.90161C20.0447 8.90134 19.6633 8.99752 19.3224 9.18146C18.9814 9.3654 18.6916 9.63132 18.479 9.95524Z" fill="#D2D6E7"/>
<path id="Vector_19" d="M22.5324 19.7055C22.3456 19.3351 22.0634 19.0212 21.7148 18.7963C21.3662 18.5714 20.9639 18.4435 20.5494 18.4259C20.135 18.4083 19.7233 18.5017 19.3569 18.6963C18.9906 18.8909 18.6827 19.1797 18.4653 19.533C18.2478 19.8862 18.1285 20.2911 18.1197 20.7059C18.1109 21.1206 18.2129 21.5302 18.4152 21.8924C18.6175 22.2546 18.9128 22.5562 19.2706 22.7662C19.6284 22.9761 20.0358 23.0868 20.4506 23.0868C20.8156 23.0843 21.1749 22.9971 21.5004 22.832C22.051 22.5533 22.4687 22.0678 22.6621 21.4819C22.8555 20.8959 22.8089 20.2572 22.5324 19.7055Z" fill="#D2D6E7"/>
<path id="Vector_20" d="M26.6075 19.5425C26.3809 19.3937 26.1152 19.3155 25.8441 19.3177C25.573 19.3199 25.3086 19.4024 25.0844 19.5549C24.8602 19.7074 24.6862 19.9229 24.5845 20.1742C24.4828 20.4255 24.4579 20.7014 24.5129 20.9669C24.568 21.2323 24.7005 21.4755 24.8938 21.6657C25.0871 21.8558 25.3324 21.9844 25.5987 22.0351C25.8651 22.0859 26.1405 22.0565 26.3901 21.9507C26.6398 21.8449 26.8524 21.6675 27.0012 21.4408C27.2001 21.1367 27.2703 20.7661 27.1965 20.4103C27.1227 20.0545 26.9109 19.7425 26.6075 19.5425Z" fill="#D2D6E7"/>
<path id="Vector_21" d="M31.0712 16.0401C31.0842 15.8102 31.0287 15.5817 30.9118 15.3833C30.7949 15.1849 30.6218 15.0257 30.4144 14.9256C30.207 14.8256 29.9746 14.7893 29.7466 14.8214C29.5186 14.8534 29.3052 14.9523 29.1334 15.1056C28.9615 15.2589 28.839 15.4597 28.7813 15.6826C28.7236 15.9055 28.7333 16.1406 28.8091 16.358C28.8849 16.5754 29.0235 16.7654 29.2073 16.9041C29.3911 17.0428 29.6119 17.1239 29.8418 17.1371C30.1502 17.1545 30.453 17.0487 30.6835 16.843C30.914 16.6373 31.0535 16.3486 31.0712 16.0401Z" fill="#D2D6E7"/>
<path id="Vector_22" d="M34.2976 15.2107C34.1487 15.2021 34.0005 15.2379 33.8719 15.3135C33.7433 15.3892 33.6401 15.5012 33.5751 15.6355C33.5102 15.7698 33.4866 15.9204 33.5073 16.0681C33.5279 16.2158 33.5919 16.3541 33.6912 16.4655C33.7904 16.5769 33.9205 16.6563 34.0649 16.6938C34.2092 16.7312 34.3615 16.725 34.5024 16.6759C34.6432 16.6269 34.7664 16.5371 34.8563 16.418C34.9461 16.299 34.9987 16.1559 35.0072 16.007C35.0184 15.8074 34.9499 15.6115 34.8169 15.4622C34.6839 15.313 34.4971 15.2225 34.2976 15.2107Z" fill="#D2D6E7"/>
<path id="Vector_23" d="M31.2604 22.6893C31.1017 22.5853 30.9157 22.5308 30.726 22.5325C30.5363 22.5342 30.3514 22.5922 30.1946 22.699C30.0378 22.8058 29.9162 22.9567 29.8452 23.1326C29.7742 23.3085 29.7569 23.5015 29.7955 23.6872C29.8341 23.873 29.927 24.0431 30.0623 24.176C30.1976 24.309 30.3693 24.3989 30.5557 24.4343C30.742 24.4697 30.9347 24.4491 31.1094 24.375C31.284 24.3009 31.4328 24.1767 31.5368 24.0181C31.606 23.9127 31.6537 23.7947 31.6772 23.6709C31.7008 23.5471 31.6997 23.4198 31.674 23.2964C31.6483 23.173 31.5986 23.0559 31.5276 22.9517C31.4566 22.8475 31.3658 22.7584 31.2604 22.6893Z" fill="#D2D6E7"/>
<path id="Vector_24" d="M9.85552 29.7308C9.73081 29.649 9.58464 29.606 9.43549 29.6072C9.28634 29.6084 9.14091 29.6539 9.01757 29.7377C8.89424 29.8216 8.79854 29.9402 8.74259 30.0785C8.68663 30.2167 8.67293 30.3685 8.7032 30.5145C8.73348 30.6606 8.80639 30.7944 8.9127 30.899C9.01901 31.0036 9.15395 31.0744 9.30046 31.1023C9.44698 31.1302 9.59849 31.1141 9.73584 31.0559C9.87319 30.9978 9.99021 30.9002 10.0721 30.7755C10.1265 30.6927 10.1641 30.6 10.1826 30.5027C10.2012 30.4053 10.2004 30.3053 10.1803 30.2083C10.1601 30.1113 10.1211 30.0192 10.0654 29.9372C10.0097 29.8553 9.93835 29.7852 9.85552 29.7308Z" fill="#D2D6E7"/>
<path id="Vector_25" d="M25.6648 29.652C25.5315 29.7191 25.4212 29.8242 25.3478 29.9541C25.2743 30.0839 25.241 30.2327 25.2521 30.3814C25.2631 30.5302 25.3181 30.6723 25.4099 30.7899C25.5018 30.9074 25.6265 30.9951 25.7682 31.0418C25.9098 31.0885 26.0622 31.0921 26.2059 31.0522C26.3497 31.0123 26.4784 30.9307 26.5757 30.8176C26.6731 30.7046 26.7347 30.5652 26.7529 30.4172C26.771 30.2691 26.7448 30.1189 26.6776 29.9858C26.6331 29.8972 26.5716 29.8183 26.4966 29.7536C26.4216 29.6889 26.3346 29.6396 26.2405 29.6086C26.1464 29.5776 26.0471 29.5655 25.9483 29.5729C25.8495 29.5804 25.7532 29.6072 25.6648 29.652Z" fill="#D2D6E7"/>
<path id="Vector_26" d="M16.9046 22.0407C17.189 21.6068 17.3205 21.0904 17.2783 20.5733C17.2361 20.0563 17.0227 19.568 16.6718 19.1859C16.3209 18.8038 15.8525 18.5496 15.3409 18.4636C14.8292 18.3777 14.3036 18.4648 13.847 18.7112C13.3905 18.9577 13.0292 19.3494 12.8203 19.8243C12.6115 20.2992 12.567 20.8302 12.6939 21.3332C12.8208 21.8363 13.1119 22.2826 13.521 22.6016C13.9302 22.9206 14.434 23.094 14.9528 23.0944C15.3403 23.0957 15.7219 23 16.0628 22.8159C16.4037 22.6319 16.6932 22.3654 16.9046 22.0407Z" fill="#D2D6E7"/>
<path id="Vector_27" d="M12.2453 25.6197C12.0526 25.4936 11.8269 25.4275 11.5966 25.4297C11.3664 25.432 11.142 25.5024 10.9517 25.6321C10.7615 25.7619 10.614 25.9451 10.5279 26.1586C10.4418 26.3722 10.4209 26.6065 10.4679 26.8319C10.5149 27.0573 10.6277 27.2637 10.792 27.425C10.9563 27.5864 11.1647 27.6954 11.3909 27.7382C11.6172 27.7811 11.851 27.756 12.063 27.666C12.2749 27.576 12.4554 27.4252 12.5817 27.2326C12.7508 26.9741 12.8103 26.659 12.7473 26.3566C12.6842 26.0541 12.5037 25.7891 12.2453 25.6197Z" fill="#D2D6E7"/>
<path id="Vector_28" d="M17.6818 30.0826C17.4924 30.0718 17.304 30.1175 17.1406 30.2137C16.9771 30.31 16.8458 30.4526 16.7633 30.6234C16.6809 30.7943 16.6509 30.9857 16.6773 31.1736C16.7036 31.3615 16.7851 31.5373 16.9113 31.6789C17.0376 31.8205 17.203 31.9215 17.3867 31.9691C17.5703 32.0167 17.764 32.0087 17.9431 31.9463C18.1223 31.8838 18.2789 31.7697 18.3931 31.6182C18.5074 31.4668 18.5742 31.2849 18.5851 31.0955C18.5923 30.9696 18.5747 30.8436 18.5332 30.7246C18.4917 30.6056 18.4272 30.4959 18.3433 30.4019C18.2594 30.3078 18.1578 30.2312 18.0443 30.1764C17.9308 30.1216 17.8076 30.0898 17.6818 30.0826Z" fill="#D2D6E7"/>
<path id="Vector_29" d="M17.6904 24.0462C17.4195 24.0298 17.1498 24.0941 16.9155 24.231C16.6812 24.3679 16.4929 24.5713 16.3742 24.8153C16.2556 25.0594 16.2121 25.3332 16.2492 25.602C16.2863 25.8708 16.4024 26.1226 16.5826 26.3254C16.7629 26.5282 16.9994 26.6729 17.262 26.7413C17.5246 26.8096 17.8016 26.7984 18.0579 26.7092C18.3142 26.62 18.5382 26.4567 18.7016 26.2401C18.865 26.0235 18.9605 25.7632 18.9759 25.4923C18.9967 25.1301 18.8731 24.7745 18.6321 24.5034C18.3911 24.2323 18.0524 24.0679 17.6904 24.0462Z" fill="#D2D6E7"/>
<path id="Vector_30" d="M23.2984 25.5267C23.0927 25.6311 22.9226 25.7941 22.8096 25.9953C22.6966 26.1964 22.6458 26.4265 22.6637 26.6565C22.6815 26.8865 22.7672 27.106 22.9098 27.2873C23.0525 27.4685 23.2458 27.6034 23.4651 27.6748C23.6845 27.7462 23.9201 27.7509 24.1421 27.6883C24.3641 27.6257 24.5626 27.4987 24.7124 27.3233C24.8622 27.1479 24.9566 26.9319 24.9836 26.7028C25.0106 26.4737 24.9691 26.2418 24.8642 26.0363C24.795 25.8999 24.6995 25.7785 24.5833 25.6791C24.4671 25.5797 24.3324 25.5041 24.187 25.4568C24.0416 25.4094 23.8882 25.3912 23.7358 25.4032C23.5833 25.4152 23.4347 25.4572 23.2984 25.5267Z" fill="#D2D6E7"/>
<path id="Vector_31" d="M49.0254 10.4917C51.283 10.4917 52.8641 11.7326 52.8641 14.0361H55.8211C55.8211 9.99483 52.8411 8.0481 48.9808 8.0481C44.2388 8.0481 41.4844 10.6229 41.4844 16.0643C41.4844 21.6408 44.2388 24.0793 48.9808 24.0793C52.887 24.0793 55.8211 22.1835 55.8211 18.141H52.9762C52.9762 20.3986 51.418 21.6408 49.0267 21.6408C45.8874 21.6408 44.4401 19.9017 44.4401 16.2898V15.8388C44.4427 12.297 45.9091 10.4917 49.0254 10.4917Z" fill="#D2D6E7"/>
<path id="Vector_32" d="M63.6401 8.32324L57.6113 23.813H60.5926L61.8335 20.4483H68.9184L70.1924 23.813H73.3087L67.2762 8.32324H63.6401ZM62.7368 18.0059L64.3179 13.7596C64.6338 12.9251 65.1982 11.1185 65.3116 10.8025H65.4237C65.5371 11.1185 66.1015 12.9467 66.4175 13.7596L67.9973 18.0047L62.7368 18.0059Z" fill="#D2D6E7"/>
<path id="Vector_33" d="M89.4314 13.0193C89.4314 10.1528 87.7828 8.32324 84.3734 8.32324H76.1992V23.813H79.09V17.825H83.8982L86.8285 23.813H89.9894L86.6769 17.3778C88.5051 16.6554 89.4314 15.1202 89.4314 13.0193ZM84.1467 15.3903H79.09V10.7847H84.1467C85.7048 10.7847 86.5176 11.6205 86.5176 13.0193C86.5176 14.4883 85.6373 15.3903 84.1467 15.3903Z" fill="#D2D6E7"/>
<path id="Vector_34" d="M99.5701 8.32324H93.3809V23.813H99.5676C104.241 23.813 107.084 21.3745 107.084 16.0681C107.084 10.7617 104.243 8.32324 99.5701 8.32324ZM104.131 16.2936C104.108 19.6813 102.506 21.3515 99.5701 21.3515H96.2742V10.7847H99.5701C102.5 10.7847 104.131 12.4562 104.131 15.8426V16.2936Z" fill="#D2D6E7"/>
<path id="Vector_35" d="M114.656 8.32324L108.625 23.813H111.605L112.847 20.4483H119.937L121.201 23.813H124.317L118.289 8.32324H114.656ZM113.753 18.0059L115.332 13.7596C115.647 12.9251 116.212 11.1185 116.325 10.8025H116.44C116.552 11.1185 117.118 12.9467 117.434 13.7596L119.014 18.0047L113.753 18.0059Z" fill="#D2D6E7"/>
<path id="Vector_36" d="M137.531 17.5358C137.531 17.8288 137.576 18.6187 137.576 18.7551L137.464 18.7997C137.396 18.7105 136.944 17.9193 136.699 17.5587L129.971 8.32324H127.213V23.813H129.99V14.5329C129.99 14.1507 129.944 13.4041 129.944 13.2907L130.058 13.2232C130.125 13.3136 130.464 13.9685 130.822 14.4883L137.596 23.813H140.305V8.32324H137.529V17.5358H137.531Z" fill="#D2D6E7"/>
<path id="Vector_37" d="M151.819 8.05322C146.965 8.05322 144.029 10.6268 144.029 16.0682C144.029 21.5096 146.96 24.0832 151.819 24.0832C156.678 24.0832 159.631 21.5096 159.631 16.0682C159.631 10.6268 156.673 8.05322 151.819 8.05322ZM156.673 16.3166C156.673 19.861 154.98 21.6447 151.819 21.6447C148.681 21.6447 146.988 19.861 146.988 16.3166V15.8427C146.988 12.297 148.704 10.4917 151.819 10.4917C154.958 10.4917 156.673 12.297 156.673 15.8427V16.3166Z" fill="#D2D6E7"/>
</g>
</g>
</g>
<defs>
<clipPath id="clip0_4668_94707">
<rect width="159.255" height="32" fill="white" transform="translate(0.375)"/>
</clipPath>
</defs>
</svg>
