<svg width="69" height="32" viewBox="0 0 69 32" fill="none" xmlns="http://www.w3.org/2000/svg">
<g id="CNN 1" clip-path="url(#clip0_4634_93178)">
<path id="path1607" d="M29.0184 0.000621015C26.0347 -0.0444478 23.3866 2.36778 23.3866 5.85876V21.5788C23.3897 22.1447 22.967 22.6466 22.3517 22.6466H17.4378C6.80462 22.6593 7.75477 9.05298 16.8056 9.04021C20.8292 9.0345 22.2356 9.04021 22.2356 9.04021V5.22798H16.6126C13.0891 5.23368 10.4217 6.57547 8.62738 8.5759C6.83307 10.5764 5.91446 13.2405 5.91589 15.8881C5.91728 18.4369 6.78662 21.0822 8.60255 23.0871C10.4185 25.092 13.1796 26.463 16.9956 26.463H26.2705C26.8067 26.463 27.2613 26.0089 27.2613 25.4792V6.27353C27.2554 5.26921 27.7763 4.46178 28.6139 4.19452H28.614C29.4265 3.936 30.3188 4.2727 30.8567 5.03774L30.8591 5.04116L30.8612 5.0447C32.1646 7.18051 35.4215 12.4199 38.3633 17.1429C39.8342 19.5044 41.2265 21.737 42.2566 23.3884C42.7717 24.2141 43.1963 24.8945 43.4949 25.373C43.7912 25.8479 43.9558 26.1117 43.9742 26.1415C44.1911 26.4481 44.4642 26.5633 44.6917 26.4916H44.6918L44.6921 26.4915C44.8211 26.4514 44.9226 26.3605 44.9986 26.2109C45.0746 26.0613 45.1196 25.8535 45.1196 25.6039V6.27629C45.1164 5.27515 45.6341 4.46604 46.4745 4.2003C47.282 3.94139 48.1771 4.27811 48.7096 5.04392L48.7118 5.04694L48.7136 5.05009C50.0199 7.18454 53.2782 12.424 56.2207 17.147C59.1615 21.8673 61.7909 26.0784 61.8321 26.144C61.8323 26.1441 61.8323 26.1443 61.8324 26.1444C62.045 26.4491 62.3354 26.5707 62.5779 26.4943C62.7091 26.4527 62.8141 26.36 62.8923 26.2102C62.9705 26.0605 63.0172 25.8542 63.0172 25.6068V0.119655V0.118341H59.1708V15.0019C59.1708 15.0019 56.789 10.9628 52.7285 3.99166C48.7559 -2.83767 41.2589 -0.0149885 41.2559 5.86152V14.9991C41.2559 14.9991 38.9311 10.9572 34.8734 3.98601C33.2584 1.21272 31.0598 0.0314575 29.0184 0.000621015ZM17.3075 0.118341C-4.7953 0.11559 -4.58562 31.6053 17.6052 31.6197H26.276C30.0075 31.6224 32.4037 29.4092 32.4007 25.3302V17.354C32.4007 17.354 37.2638 25.4169 39.1721 28.5729C42.4189 33.9391 50.2758 32.884 50.256 26.1809V17.3597C50.256 17.3597 55.1189 25.4196 57.0299 28.5799C60.2767 33.9445 68.1341 32.8882 68.1141 26.1835V0.118341H64.2736V25.6065V25.6068C64.2763 26.8112 63.6011 27.4844 62.9578 27.6878L62.9574 27.6879C62.1727 27.938 61.3191 27.6033 60.7883 26.843L60.7864 26.8403L60.7847 26.8377C60.675 26.6624 50.2671 9.9956 47.6649 5.73749C47.449 5.43092 47.1327 5.30496 46.8521 5.39366C46.5608 5.48698 46.3756 5.79535 46.3756 6.27577V25.6007V25.601C46.3787 26.8103 45.7149 27.4815 45.0744 27.6878L45.074 27.6879L45.0736 27.688C44.3004 27.931 43.4603 27.5969 42.9328 26.8372L42.9315 26.8353L42.9303 26.8335C42.9093 26.8008 42.7414 26.5321 42.4411 26.0515C42.1407 25.5709 41.7148 24.8888 41.1984 24.0616C40.1658 22.4072 38.7722 20.1728 37.3007 17.8107C34.3591 13.0889 31.109 7.86047 29.8097 5.73184C29.5941 5.42575 29.2749 5.30203 28.9938 5.39103V5.3909C28.6992 5.48439 28.5122 5.7927 28.5149 6.26933V6.26972V25.4791C28.5149 26.7119 27.5043 27.7164 26.2705 27.7164H16.9955C12.7755 27.7164 9.68548 26.1845 7.6583 23.9375C5.63111 21.6906 4.66524 18.7351 4.66235 15.8881C4.65947 12.934 5.68253 9.96043 7.69062 7.72073C9.6987 5.48102 12.6944 3.98018 16.6097 3.97445H16.6099H22.2356V0.118341H17.3075Z" fill="#D2D6E7"/>
</g>
<defs>
<clipPath id="clip0_4634_93178">
<rect width="68" height="32" fill="white" transform="translate(0.845703)"/>
</clipPath>
</defs>
</svg>
