<svg width="139" height="32" viewBox="0 0 139 32" fill="none" xmlns="http://www.w3.org/2000/svg">
<g id="cointelegraph-logo-vector 1">
<g id="Page 1">
<g id="CT logo BlackYellow tag">
<g id="Atoms x2F Icons x2F logos x2F CT GY icon">
<g id="Group">
<path id="Shape" d="M20.449 23.277L14.699 25.7596V25.509C13.595 25.7823 12.353 25.9418 11.203 26.0101C5.77501 25.9645 1.49702 23.1403 1.42802 19.8151V18.5852C3.19901 21.1361 6.83301 22.867 11.203 22.7987C12.675 22.867 14.193 22.6393 15.458 22.2976L15.964 21.0677C14.469 21.5233 12.813 21.8193 11.203 21.8193C5.77501 21.8193 1.49702 19.0179 1.42802 15.6243V14.6222C3.19901 16.9909 6.83301 18.6991 11.203 18.5852C13.181 18.6991 15.09 18.2891 16.723 17.583L16.976 16.3532C15.389 17.1731 13.342 17.6514 11.226 17.583C5.79801 17.6514 1.52002 14.8499 1.45102 11.388V10.3859C3.22201 12.8001 6.85601 14.5311 11.226 14.5994C13.71 14.5311 16.056 13.8706 17.988 12.8685L18.241 11.388C16.493 12.6635 13.94 13.5062 11.226 13.6201C5.79801 13.5062 1.52002 10.682 1.45102 7.1745C1.49702 3.82645 5.79801 1.02503 11.226 0.979479C14.446 1.02503 17.459 2.14105 19.23 3.96311L19.414 4.2592H20.679L20.495 3.96311C18.724 1.57165 15.159 0.000118734 11.226 0.000118734C5.20001 -0.0226571 0.416016 3.23429 0.416016 7.15173V7.40226V20.0428C0.623016 23.8692 5.29201 26.9895 11.18 26.9895C15.067 27.0122 18.586 25.4863 20.449 23.277Z" fill="#D2D6E7"/>
<path id="Shape 1" d="M18.102 31.9999L20.126 23.4818L14.307 25.9871L17.849 11.2284H11.041L12.812 3.96289H34.547L32.776 11.2284H25.692L24.174 15.2369L32.017 11.98L18.102 31.9999ZM21.644 21.7508L20.632 26.7615L28.981 14.2576L22.15 17.264L25.186 10.249H32.017L33.282 4.9878H13.548L12.283 10.249H19.114L15.825 24.2561L21.644 21.7508Z" fill="#D2D6E7"/>
</g>
</g>
<path id="Shape 2" d="M48.969 16.9683V16.9911C48.992 17.7882 48.739 18.4032 48.233 18.8587C47.727 19.3142 47.037 19.542 46.14 19.542C45.243 19.542 44.507 19.2459 43.955 18.6765C43.403 18.1071 43.127 17.3555 43.127 16.4445V14.964C43.127 14.053 43.403 13.3014 43.932 12.732C44.484 12.1626 45.197 11.8665 46.071 11.8665C46.991 11.8665 47.704 12.0943 48.233 12.527C48.762 12.9825 49.015 13.5975 48.992 14.3946V14.4174H47.52C47.52 13.9391 47.405 13.5747 47.175 13.347C46.945 13.1192 46.577 13.0053 46.094 13.0053C45.634 13.0053 45.289 13.1875 45.036 13.5519C44.783 13.9163 44.645 14.3719 44.645 14.9413V16.4445C44.645 17.0139 44.783 17.4921 45.036 17.8566C45.312 18.221 45.68 18.4032 46.163 18.4032C46.623 18.4032 46.945 18.2893 47.175 18.0615C47.405 17.8338 47.52 17.4694 47.52 16.9911H48.969V16.9683ZM57.2949 16.3761C57.2949 17.2872 56.9959 18.0615 56.4209 18.6537C55.846 19.2459 55.087 19.542 54.144 19.542C53.201 19.542 52.465 19.2459 51.867 18.6537C51.292 18.0615 50.9929 17.2872 50.9929 16.3761V15.0324C50.9929 14.1213 51.292 13.3697 51.867 12.7548C52.4419 12.1626 53.201 11.8438 54.121 11.8438C55.064 11.8438 55.8229 12.1398 56.3979 12.7548C56.9959 13.347 57.272 14.1213 57.272 15.0324V16.3761H57.2949ZM55.777 15.0096C55.777 14.4174 55.6389 13.9619 55.3399 13.5747C55.0409 13.2103 54.65 13.0053 54.121 13.0053C53.615 13.0053 53.201 13.1875 52.925 13.5747C52.649 13.9391 52.4879 14.4174 52.4879 15.0096V16.3534C52.4879 16.9455 52.626 17.4238 52.925 17.811C53.201 18.1754 53.615 18.3804 54.121 18.3804C54.65 18.3804 55.0409 18.1982 55.3399 17.811C55.6389 17.4466 55.777 16.9455 55.777 16.3534V15.0096ZM61.2049 19.4281H59.687V11.9576H61.2049V19.4281ZM69.9219 19.4281H68.4039L65.3679 14.3946H65.3449V19.4281H63.827V11.9576H65.3449L68.3809 16.9911H68.4039V11.9576H69.9219V19.4281ZM77.5349 13.1192H75.3729V19.4281H73.8549V13.1192H71.7389V11.9576H77.5349V13.1192ZM83.7909 16.1484H80.9849V18.2893H84.3199V19.4281H79.4899V11.9576H84.3199V13.1192H81.0079V14.9868H83.8139V16.1484H83.7909ZM87.9999 18.2893H91.3809V19.4281H86.4819V11.9576H87.9999V18.2893ZM97.8209 16.1484H95.0149V18.2893H98.3499V19.4281H93.5199V11.9576H98.3499V13.1192H95.0379V14.9868H97.8439V16.1484H97.8209ZM106.308 18.426C106.078 18.722 105.733 18.9954 105.25 19.2231C104.79 19.4509 104.192 19.5647 103.456 19.5647C102.536 19.5647 101.8 19.2914 101.225 18.722C100.65 18.1526 100.351 17.4238 100.351 16.5128V14.9413C100.351 14.0302 100.627 13.3014 101.202 12.732C101.754 12.1626 102.49 11.8665 103.364 11.8665C104.284 11.8665 104.997 12.0943 105.48 12.527C105.963 12.9598 106.216 13.5292 106.193 14.258V14.2808H104.767C104.767 13.8936 104.652 13.5747 104.422 13.347C104.192 13.1192 103.847 13.0053 103.41 13.0053C102.95 13.0053 102.582 13.1875 102.283 13.5292C102.007 13.8936 101.869 14.3491 101.869 14.8957V16.4672C101.869 17.0366 102.007 17.4921 102.306 17.8566C102.605 18.221 102.996 18.3804 103.479 18.3804C103.847 18.3804 104.123 18.3349 104.33 18.2665C104.537 18.1982 104.698 18.1071 104.813 17.9932V16.5356H103.364V15.4879H106.331V18.426H106.308ZM110.218 16.4445V19.4281H108.7V11.9576H111.322C112.173 11.9576 112.863 12.1626 113.346 12.5498C113.829 12.937 114.082 13.4836 114.082 14.1669C114.082 14.5541 113.99 14.8729 113.783 15.169C113.576 15.4423 113.277 15.6701 112.886 15.8523C113.323 15.9889 113.645 16.1939 113.852 16.5128C114.036 16.8089 114.151 17.1961 114.151 17.6516V18.1982C114.151 18.4032 114.174 18.6309 114.243 18.8587C114.289 19.0865 114.404 19.2459 114.542 19.3598V19.4736H112.978C112.84 19.3598 112.748 19.1776 112.702 18.927C112.656 18.6765 112.633 18.426 112.633 18.1982V17.6744C112.633 17.3099 112.541 17.0139 112.334 16.8089C112.127 16.6039 111.828 16.49 111.46 16.49H110.218V16.4445ZM110.218 15.3057H111.299C111.713 15.3057 112.035 15.2146 112.242 15.0324C112.449 14.8502 112.564 14.5996 112.564 14.2352C112.564 13.8936 112.449 13.6203 112.242 13.4153C112.035 13.2103 111.736 13.1192 111.322 13.1192H110.218V15.3057ZM120.499 17.8338H118.061L117.555 19.4509H115.968L118.521 11.9804H120.062L122.592 19.4509H121.005L120.499 17.8338ZM118.429 16.6494H120.131L119.303 14.0075H119.28L118.429 16.6494ZM125.95 16.7178V19.4281H124.432V11.9576H127.33C128.204 11.9576 128.871 12.1854 129.377 12.6181C129.883 13.0509 130.113 13.643 130.113 14.3491C130.113 15.0551 129.86 15.6473 129.377 16.0801C128.871 16.5128 128.204 16.7405 127.33 16.7405H125.95V16.7178ZM125.95 15.579H127.33C127.744 15.579 128.066 15.4651 128.296 15.2373C128.503 15.0096 128.618 14.7135 128.618 14.3719C128.618 14.0075 128.503 13.7114 128.296 13.4836C128.089 13.2558 127.767 13.142 127.33 13.142H125.95V15.579ZM138.416 19.4281H136.898V16.3306H133.816V19.4281H132.298V11.9576H133.816V15.169H136.898V11.9576H138.416V19.4281Z" fill="#D2D6E7"/>
</g>
</g>
</g>
</svg>
