<svg width="50" height="32" viewBox="0 0 50 32" fill="none" xmlns="http://www.w3.org/2000/svg">
  <path
    d="M10.5891 0.0243931C9.24993 0.104698 7.73857 0.421192 6.57157 0.865229C4.51018 1.64938 2.90316 2.9248 1.8079 4.64426C0.573936 6.58574 0 8.82482 0 11.7299C0 14.2619 0.401755 16.1514 1.32005 17.9654C1.82703 18.9715 2.4201 19.7698 3.22839 20.5398C4.9215 22.1506 7.09767 23.067 9.99127 23.3977C10.9335 23.5016 17.2707 23.5016 18.2177 23.3977C20.7621 23.1096 22.68 22.4104 24.3301 21.1681C24.5692 20.9886 24.751 20.8799 24.7845 20.9035C24.8179 20.9224 24.9614 21.0311 25.1049 21.1492C26.358 22.1554 28.2472 22.949 30.1747 23.2749C31.3943 23.478 31.71 23.4922 35.5314 23.4922C38.7455 23.4922 39.2716 23.478 39.8599 23.4072C41.7873 23.1662 42.94 22.8545 44.26 22.2168C45.4222 21.6594 46.1779 21.1256 47.0388 20.2517C48.0289 19.2408 48.7176 18.1212 49.2389 16.6663C49.5833 15.7216 49.7459 14.9894 49.9372 13.5958C50.0233 12.9818 50.0185 10.5159 49.9372 9.86405C49.7555 8.45164 49.5642 7.66749 49.0907 6.37317C48.9615 6.01888 48.4067 4.97493 48.115 4.53561C47.3449 3.38301 46.2688 2.36267 45.0731 1.65882C43.6287 0.808542 42.1173 0.336164 40.0272 0.076355C39.3098 -0.0133972 32.1404 -0.0133972 31.4182 0.076355C29.9929 0.251135 29.0125 0.463707 28.0463 0.808542C26.5493 1.34233 25.3488 2.0698 24.3349 3.06179C22.8379 4.53089 21.8861 6.41096 21.4509 8.77758C21.2835 9.68455 21.2213 10.4262 21.2069 11.7772L21.1878 13.1471L21.0443 13.5392C20.9678 13.7517 20.8243 14.0682 20.7287 14.243C20.5039 14.6351 19.9299 15.235 19.509 15.509C18.9351 15.8869 18.0933 16.1609 17.2611 16.2412C16.6633 16.2979 11.5744 16.2979 11.0196 16.2412C9.31689 16.0617 8.07337 15.2586 7.43725 13.9218C6.84419 12.6842 6.84897 10.823 7.44682 9.557C7.91553 8.56028 8.72861 7.85172 9.83344 7.47854C10.5365 7.24235 10.8426 7.20928 12.6218 7.18566C14.1427 7.16677 14.3197 7.15732 14.3675 7.08646C14.3962 7.04395 14.5923 6.64243 14.798 6.20311C15.0036 5.75908 15.2763 5.17805 15.4054 4.90407C15.5393 4.63009 15.6971 4.28998 15.7641 4.14826C15.8311 4.00655 16.1324 3.36884 16.4385 2.73113C16.7398 2.09341 17.1129 1.29509 17.2707 0.959703C17.4285 0.619591 17.5864 0.284203 17.6246 0.208622C17.6629 0.133041 17.6916 0.0527363 17.6916 0.0291176C17.6916 -0.00394821 11.1678 -0.0133972 10.5891 0.0243931ZM39.1233 7.34627C40.6968 7.7289 41.773 8.62642 42.2226 9.93963C42.4665 10.6482 42.4856 10.7899 42.4856 11.8008C42.4856 12.6653 42.4713 12.8117 42.3756 13.1707C42.1747 13.884 41.9739 14.2855 41.529 14.8288C41.0556 15.4145 40.2855 15.868 39.329 16.1325L38.8555 16.2648H35.7227C32.2791 16.2648 32.2839 16.2648 31.4134 15.9625C30.3516 15.5893 29.4907 14.8004 29.0651 13.8037C28.7877 13.1613 28.7159 12.7503 28.7159 11.7772C28.7159 10.8324 28.7446 10.6104 28.9694 9.95853C29.309 8.96181 30.0121 8.16349 30.9782 7.69583C31.3513 7.5116 31.6478 7.41713 32.1595 7.3132C32.5565 7.2329 32.8339 7.22345 35.651 7.23762C38.5733 7.24707 38.7311 7.25179 39.1233 7.34627Z"
    fill="#D2D6E7" />
  <path
    d="M9.21626 26.9691C7.4514 27.2005 6.50919 29.0948 7.35096 30.7292C7.48966 30.9937 7.88664 31.4142 8.1736 31.5937C8.93885 32.0802 9.91933 32.1322 10.7372 31.7354C11.1342 31.5464 11.555 31.1874 11.689 30.9323C11.7559 30.8048 11.7559 30.7953 11.6029 30.7009L11.4498 30.6017L11.3829 30.7103C11.3446 30.767 11.2011 30.9229 11.0672 31.0552C10.2541 31.8535 8.88146 31.8299 8.04447 30.9985C7.56619 30.5261 7.33183 29.7939 7.44662 29.1231C7.69054 27.6824 9.22104 26.8935 10.5507 27.517C10.8089 27.6351 11.1868 27.9563 11.3446 28.1878L11.4211 28.3059L11.5885 28.2162L11.7559 28.1264L11.6746 27.9894C11.5359 27.7579 11.0768 27.3611 10.7707 27.2053C10.3115 26.9785 9.77584 26.8982 9.21626 26.9691Z"
    fill="#D2D6E7" />
  <path
    d="M14.5829 26.9641C13.7507 27.0728 12.9807 27.6207 12.6267 28.3482C12.4402 28.7356 12.3876 28.9812 12.3828 29.4677C12.3828 30.1952 12.5789 30.6818 13.0859 31.2203C13.5929 31.7493 14.1859 31.9903 14.9655 31.9855C15.9412 31.9808 16.7782 31.4754 17.2087 30.6298C17.3713 30.3133 17.5004 29.8031 17.5004 29.4677C17.5004 29.3497 17.4669 29.104 17.4287 28.9245C17.156 27.6444 15.9125 26.7894 14.5829 26.9641ZM15.4342 27.3657C15.8503 27.4649 16.0895 27.5924 16.4291 27.9136C16.7447 28.2159 16.9313 28.5324 17.046 28.9717C17.4478 30.5164 15.9747 31.9666 14.4155 31.5698C13.4015 31.3053 12.7654 30.4975 12.7654 29.4677C12.7654 28.0506 14.0472 27.0444 15.4342 27.3657Z"
    fill="#D2D6E7" />
  <path
    d="M26.9702 26.9454C26.2862 27.0493 25.7936 27.276 25.3823 27.6823C25.0236 28.0366 24.7414 28.5987 24.6696 29.0994C24.464 30.4835 25.454 31.7872 26.8458 31.9762C28.118 32.1463 29.309 31.3904 29.6677 30.1812C29.7681 29.841 29.7681 29.0947 29.6677 28.7546C29.419 27.9279 28.7494 27.2666 27.9267 27.0446C27.6445 26.9643 27.1615 26.917 26.9702 26.9454ZM27.7115 27.3658C28.1324 27.4744 28.3811 27.6067 28.6968 27.8996C29.2085 28.3625 29.4668 29.1041 29.3616 29.7844C29.1607 31.0692 27.8837 31.8959 26.6306 31.5558C26.2097 31.4424 25.9466 31.2818 25.6405 30.9606C25.1623 30.4599 24.9375 29.7655 25.057 29.1325C25.2818 27.8712 26.5062 27.0587 27.7115 27.3658Z"
    fill="#D2D6E7" />
  <path
    d="M40.1006 26.9642C39.058 27.1012 38.1875 27.8901 37.9771 28.8915C37.6901 30.2567 38.4362 31.518 39.7658 31.9053C40.1724 32.0234 40.952 32.014 41.3729 31.8817C41.7555 31.7636 42.2051 31.4849 42.4107 31.2345C42.7216 30.8708 42.9464 30.2473 42.9464 29.7607V29.6568H41.679H40.4115V29.8221V29.9874H41.4637H42.5159V30.1055C42.5159 30.337 42.3198 30.7433 42.0759 31.0078C41.3107 31.8297 39.8758 31.8581 38.9958 31.0597C38.5367 30.6441 38.3071 30.1197 38.3071 29.4678C38.3071 28.8159 38.5367 28.2916 38.9958 27.8712C39.9571 27.0067 41.435 27.139 42.1811 28.1546L42.3103 28.3247L42.4585 28.2302C42.6355 28.1216 42.6403 28.1121 42.5303 27.9562C42.0472 27.2382 41.0668 26.8414 40.1006 26.9642Z"
    fill="#D2D6E7" />
  <path d="M18.457 29.4679V31.9243H18.6483H18.8397V29.4679V27.0116H18.6483H18.457V29.4679Z" fill="#D2D6E7" />
  <path
    d="M20.0352 29.4679V31.9243H20.2265H20.4178V29.8317C20.4226 27.8524 20.4273 27.7485 20.5039 27.843C20.5469 27.8949 21.2069 28.835 21.9674 29.9309C23.3257 31.8818 23.3544 31.9243 23.5123 31.9243H23.6701V29.4679V27.0116H23.5027H23.3353V29.09C23.3353 30.2332 23.3209 31.1685 23.3018 31.1638C23.2779 31.1638 22.6179 30.2285 21.8287 29.09L20.3939 27.0163L20.2169 27.0116H20.0352V29.4679Z"
    fill="#D2D6E7" />
  <path
    d="M29.9824 27.2005V27.3895H30.7716H31.5607V29.6569V31.9243H31.7521H31.9434V29.6569V27.3895H32.7086H33.4739V27.2005V27.0116H31.7281H29.9824V27.2005Z"
    fill="#D2D6E7" />
  <path
    d="M34.3559 29.4679L33.3945 31.9243H33.6002H33.8011L33.9828 31.4614C34.0785 31.211 34.1885 30.9323 34.222 30.8473L34.2841 30.6961L35.5324 30.7056L36.7855 30.7197L37.0103 31.3102L37.2399 31.9007L37.436 31.9149C37.546 31.9243 37.6369 31.9149 37.6369 31.8912C37.6369 31.8724 37.2112 30.767 36.6899 29.4443L35.7429 27.0352L35.5324 27.021L35.3172 27.0116L34.3559 29.4679ZM36.0968 28.9483L36.6181 30.2946L36.0777 30.3088C35.7764 30.3135 35.2885 30.3135 34.9872 30.3088L34.442 30.2946L34.9776 28.9153C35.2694 28.1595 35.5229 27.5501 35.542 27.569C35.5611 27.5879 35.8098 28.2067 36.0968 28.9483Z"
    fill="#D2D6E7" />
</svg>