<svg width="170" height="32" viewBox="0 0 170 32" fill="none" xmlns="http://www.w3.org/2000/svg">
<g id="CoinDesk_logo 1" clip-path="url(#clip0_4668_94679)">
<path id="Vector" d="M47.6763 22.6333C44.5603 22.6333 42.6294 19.8367 42.6294 15.9674C42.6294 12.1364 44.2544 9.28233 47.6571 9.28233C49.8936 9.28233 51.3656 10.719 51.6336 12.6153H56.8334C56.5654 10.2592 55.5141 8.19053 53.679 6.81137C52.1878 5.66206 50.1232 4.95337 47.6763 4.95337C41.4059 4.95337 37.334 9.70375 37.334 15.9674C37.334 22.2693 41.5397 26.8857 47.7147 26.8857C50.6774 26.8857 52.8376 26.062 54.4436 24.4913C55.8772 23.1122 56.8334 21.1967 56.9669 19.1088H51.7671C51.538 21.1584 50.0084 22.6333 47.6763 22.6333Z" fill="#D2D6E7"/>
<path id="Vector_2" d="M66.5638 10.9487C61.7463 10.9487 58.5156 14.3966 58.5156 18.9363C58.5156 23.476 61.7463 26.9239 66.5638 26.9239C71.4193 26.9239 74.5929 23.476 74.5929 18.9363C74.5929 14.3966 71.4193 10.9487 66.5638 10.9487ZM66.5446 23.4952C64.4608 23.4952 63.3711 21.6755 63.3711 18.9363C63.3711 16.1972 64.4608 14.3392 66.5446 14.3392C68.6285 14.3392 69.7562 16.1972 69.7562 18.9363C69.7374 21.6755 68.6285 23.4952 66.5446 23.4952Z" fill="#D2D6E7"/>
<path id="Vector_3" d="M81.3948 9.34548C82.4175 8.32067 82.4175 6.65914 81.3948 5.63433C80.3716 4.60952 78.7136 4.60952 77.6909 5.63433C76.6681 6.65914 76.6681 8.32067 77.6909 9.34548C78.7136 10.3703 80.3716 10.3703 81.3948 9.34548Z" fill="#D2D6E7"/>
<path id="Vector_4" d="M75.377 14.7415H77.384V26.4451H82.1635V11.3511H75.377V14.7415Z" fill="#D2D6E7"/>
<path id="Vector_5" d="M93.9201 10.9104C91.8367 10.9104 90.3835 11.7915 89.275 13.4197H89.1794V11.351H84.5723V26.4258H89.3706V18.0935C89.3706 16.2355 90.4219 14.9138 92.0086 14.9138C93.5762 14.9138 94.36 16.0056 94.36 17.5955V26.4258H99.1583V16.6186C99.1583 13.2665 97.2084 10.9104 93.9201 10.9104Z" fill="#D2D6E7"/>
<path id="Vector_6" d="M110.397 5.37476H101.432V26.426H110.073C112.711 26.426 114.832 25.7556 116.477 24.5105C118.828 22.7099 120.128 19.7409 120.128 16.0249C120.128 9.58881 116.209 5.37476 110.397 5.37476ZM109.69 22.0587H106.631V9.74207H109.747C113.017 9.74207 114.871 12.213 114.871 16.044C114.852 19.8941 113.093 22.0587 109.69 22.0587Z" fill="#D2D6E7"/>
<path id="Vector_7" d="M134.333 12.9026C133.033 11.7341 131.331 11.0254 129.19 11.0254C124.602 11.0254 121.467 14.4732 121.467 18.9747C121.467 23.5335 124.526 26.9814 129.496 26.9814C131.408 26.9814 132.937 26.4834 134.199 25.6022C135.518 24.6828 136.397 23.3994 136.722 22.0394H132.058C131.637 22.978 130.815 23.5335 129.553 23.5335C127.584 23.5335 126.475 22.2693 126.17 20.2389H136.99C137.009 17.1549 136.13 14.5499 134.333 12.9026ZM126.189 17.3657C126.514 15.5651 127.45 14.4158 129.267 14.4158C130.815 14.4158 131.943 15.5651 132.115 17.3657H126.189Z" fill="#D2D6E7"/>
<path id="Vector_8" d="M146.433 17.0016C144.521 16.6568 142.82 16.5035 142.82 15.45C142.82 14.5114 143.737 14.0709 144.903 14.0709C146.222 14.0709 147.14 14.4923 147.312 15.8331H151.728C151.499 12.8641 149.205 11.0061 144.942 11.0061C141.386 11.0061 138.442 12.6534 138.442 15.8331C138.442 19.3767 141.233 20.0663 143.852 20.5069C145.859 20.8517 147.675 21.005 147.675 22.3649C147.675 23.3418 146.758 23.859 145.324 23.859C143.737 23.859 142.743 23.1311 142.552 21.6179H138.021C138.174 24.9509 140.927 26.9812 145.343 26.9812C149.281 26.9812 152.187 25.2765 152.187 21.9818C152.206 18.1317 149.09 17.4421 146.433 17.0016Z" fill="#D2D6E7"/>
<path id="Vector_9" d="M163.468 17.0209L168.763 11.3511H163.238L158.765 16.4463V5.37476H154.043V26.4451H158.765V21.8096L160.218 20.2772L163.831 26.4451H169.375L163.468 17.0209Z" fill="#D2D6E7"/>
<path id="Vector_10" d="M16.2673 17.3656C17.0698 17.3656 17.7202 16.7139 17.7202 15.9098C17.7202 15.1058 17.0698 14.4541 16.2673 14.4541C15.4649 14.4541 14.8145 15.1058 14.8145 15.9098C14.8145 16.7139 15.4649 17.3656 16.2673 17.3656Z" fill="#D2D6E7"/>
<path id="Vector_11" d="M27.8513 17.3656C28.6537 17.3656 29.3042 16.7139 29.3042 15.9098C29.3042 15.1058 28.6537 14.4541 27.8513 14.4541C27.0489 14.4541 26.3984 15.1058 26.3984 15.9098C26.3984 16.7139 27.0489 17.3656 27.8513 17.3656Z" fill="#D2D6E7"/>
<path id="Vector_12" d="M27.8513 28.9926C28.6537 28.9926 29.3042 28.3408 29.3042 27.5368C29.3042 26.7328 28.6537 26.0811 27.8513 26.0811C27.0489 26.0811 26.3984 26.7328 26.3984 27.5368C26.3984 28.3408 27.0489 28.9926 27.8513 28.9926Z" fill="#D2D6E7"/>
<path id="Vector_13" d="M32.1145 4.01471C31.9615 1.88852 30.2601 0.164584 28.1381 0.0113453C26.7808 -0.0844292 25.5573 0.432751 24.6971 1.31388C24.0471 1.98429 23.1677 2.38655 22.231 2.38655H21.8869C20.9311 2.38655 20.0325 1.98429 19.3634 1.29472C18.5797 0.490214 17.49 0.0113453 16.2856 0.0113453C15.0812 0.0113453 13.9916 0.509372 13.2078 1.29472C12.5387 1.98429 11.6402 2.38655 10.6844 2.38655H10.3594C9.42266 2.38655 8.52414 2.0226 7.87416 1.35219C7.74036 1.2181 7.60651 1.08402 7.47271 0.969088C5.84779 -0.352597 3.45815 -0.314288 1.89057 1.08402C-0.0020096 2.75049 -0.0784772 5.66204 1.68028 7.42426C1.6994 7.44341 1.71851 7.46257 1.73763 7.48173C2.42584 8.13299 2.78906 9.05246 2.78906 9.99104V10.3167C2.78906 11.2744 2.38761 12.1747 1.6994 12.8451C0.896486 13.6305 0.418564 14.7223 0.418564 15.929C0.418564 17.1358 0.915605 18.2276 1.6994 19.013C2.38761 19.6834 2.78906 20.5837 2.78906 21.5414V21.982C2.78906 22.9206 2.38761 23.8017 1.71851 24.4529C0.877371 25.2766 0.361213 26.4451 0.418564 27.7284C0.514148 29.9887 2.34937 31.8084 4.58606 31.8851C5.88602 31.9234 7.05214 31.4062 7.87416 30.5442C8.52414 29.8738 9.4035 29.4524 10.3402 29.4524H10.7035C11.6402 29.4524 12.5196 29.8546 13.1696 30.5442C14.0298 31.4445 15.2724 31.9616 16.6297 31.8659C18.7517 31.7126 20.4722 29.9887 20.6252 27.8434C20.7972 25.2958 18.8091 23.1887 16.3048 23.1887C15.1195 23.1887 14.0298 23.6676 13.246 24.4529C12.5769 25.1234 11.6784 25.5256 10.7417 25.5256H10.3402C9.4035 25.5256 8.48591 25.1617 7.81681 24.4721C7.7977 24.4529 7.7977 24.4529 7.77858 24.4338C7.09037 23.7634 6.68892 22.8631 6.68892 21.9054V21.5223C6.68892 20.5645 7.09037 19.6643 7.77858 18.9938C8.58149 18.2085 9.05944 17.1166 9.05944 15.9099C9.05944 14.7031 8.56237 13.6113 7.77858 12.8259C7.09037 12.1555 6.68892 11.2553 6.68892 10.2975V9.95273C6.68892 8.99499 7.09037 8.09468 7.75947 7.42426C7.77858 7.40514 7.77859 7.40514 7.7977 7.38598C7.81681 7.36683 7.81681 7.36683 7.83593 7.34767C8.50503 6.67725 9.4035 6.27499 10.3594 6.27499H10.7035C11.6593 6.27499 12.5578 6.67725 13.2269 7.36683C14.0107 8.17131 15.1004 8.6502 16.3048 8.6502C17.5091 8.6502 18.5988 8.15215 19.3826 7.36683C20.0517 6.67725 20.9502 6.27499 21.906 6.27499H22.2119C23.1677 6.27499 24.0662 6.67725 24.7353 7.36683C25.5191 8.17131 26.6088 8.6502 27.8131 8.6502C30.2984 8.66935 32.2865 6.5623 32.1145 4.01471Z" fill="#D2D6E7"/>
</g>
<defs>
<clipPath id="clip0_4668_94679">
<rect width="168.96" height="32" fill="white" transform="translate(0.414062)"/>
</clipPath>
</defs>
</svg>
