<svg width="128" height="24" viewBox="0 0 128 24" fill="none" xmlns="http://www.w3.org/2000/svg">
<g id="CoinDesk_logo 1" clip-path="url(#clip0_4668_94679)">
<path id="Vector" d="M36.0614 16.975C33.7244 16.975 32.2762 14.8776 32.2762 11.9756C32.2762 9.10239 33.495 6.96181 36.047 6.96181C37.7244 6.96181 38.8284 8.03928 39.0294 9.46152H42.9292C42.7283 7.69448 41.9398 6.14296 40.5635 5.10859C39.4451 4.24661 37.8966 3.71509 36.0614 3.71509C31.3586 3.71509 28.3047 7.27787 28.3047 11.9756C28.3047 16.7021 31.459 20.1643 36.0902 20.1643C38.3123 20.1643 39.9324 19.5466 41.1369 18.3685C42.2121 17.3342 42.9292 15.8976 43.0294 14.3317H39.1296C38.9577 15.8688 37.8105 16.975 36.0614 16.975Z" fill="#D2D6E7"/>
<path id="Vector_2" d="M50.2276 8.21167C46.6144 8.21167 44.1914 10.7976 44.1914 14.2024C44.1914 17.6071 46.6144 20.193 50.2276 20.193C53.8692 20.193 56.2493 17.6071 56.2493 14.2024C56.2493 10.7976 53.8692 8.21167 50.2276 8.21167ZM50.2132 17.6215C48.6503 17.6215 47.833 16.2567 47.833 14.2024C47.833 12.148 48.6503 10.7545 50.2132 10.7545C51.776 10.7545 52.6218 12.148 52.6218 14.2024C52.6077 16.2567 51.776 17.6215 50.2132 17.6215Z" fill="#D2D6E7"/>
<path id="Vector_3" d="M61.3512 7.00923C62.1183 6.24062 62.1183 4.99448 61.3512 4.22587C60.5839 3.45726 59.3404 3.45726 58.5733 4.22587C57.8063 4.99448 57.8063 6.24062 58.5733 7.00923C59.3404 7.77784 60.5839 7.77784 61.3512 7.00923Z" fill="#D2D6E7"/>
<path id="Vector_4" d="M56.8359 11.056H58.3412V19.8337H61.9259V8.51318H56.8359V11.056Z" fill="#D2D6E7"/>
<path id="Vector_5" d="M70.7433 8.18286C69.1807 8.18286 68.0908 8.84369 67.2595 10.0648H67.1878V8.51329H63.7324V19.8194H67.3311V13.5702C67.3311 12.1767 68.1196 11.1854 69.3097 11.1854C70.4854 11.1854 71.0732 12.0042 71.0732 13.1967V19.8194H74.6719V12.464C74.6719 9.9499 73.2095 8.18286 70.7433 8.18286Z" fill="#D2D6E7"/>
<path id="Vector_6" d="M83.1031 4.03101H76.3789V19.8194H82.8596C84.8381 19.8194 86.4295 19.3166 87.6627 18.3828C89.4263 17.0324 90.401 14.8056 90.401 12.0186C90.401 7.19155 87.4618 4.03101 83.1031 4.03101ZM82.5728 16.5439H80.2788V7.30649H82.6157C85.0676 7.30649 86.4583 9.15971 86.4583 12.033C86.4439 14.9205 85.1248 16.5439 82.5728 16.5439Z" fill="#D2D6E7"/>
<path id="Vector_7" d="M101.054 9.67692C100.079 8.8006 98.8027 8.26904 97.1969 8.26904C93.7557 8.26904 91.4043 10.8549 91.4043 14.231C91.4043 17.6501 93.6984 20.2361 97.4264 20.2361C98.86 20.2361 100.007 19.8625 100.953 19.2017C101.943 18.5121 102.602 17.5496 102.846 16.5296H99.3473C99.0321 17.2335 98.4155 17.6501 97.4693 17.6501C95.9925 17.6501 95.1608 16.702 94.9313 15.1792H103.047C103.061 12.8662 102.401 10.9124 101.054 9.67692ZM94.9457 13.0242C95.1896 11.6738 95.892 10.8119 97.2542 10.8119C98.4155 10.8119 99.2616 11.6738 99.3905 13.0242H94.9457Z" fill="#D2D6E7"/>
<path id="Vector_8" d="M110.131 12.7512C108.697 12.4927 107.421 12.3777 107.421 11.5876C107.421 10.8836 108.109 10.5532 108.984 10.5532C109.973 10.5532 110.661 10.8693 110.79 11.8749H114.102C113.93 9.64814 112.21 8.25464 109.012 8.25464C106.345 8.25464 104.137 9.49013 104.137 11.8749C104.137 14.5326 106.231 15.0498 108.195 15.3802C109.701 15.6388 111.063 15.7538 111.063 16.7737C111.063 17.5064 110.375 17.8943 109.299 17.8943C108.109 17.8943 107.363 17.3484 107.22 16.2135H103.822C103.937 18.7132 106.001 20.236 109.313 20.236C112.267 20.236 114.446 18.9574 114.446 16.4864C114.461 13.5988 112.124 13.0816 110.131 12.7512Z" fill="#D2D6E7"/>
<path id="Vector_9" d="M122.904 12.7656L126.876 8.51325H122.732L119.377 12.3347V4.03101H115.836V19.8338H119.377V16.3572L120.467 15.2079L123.177 19.8338H127.335L122.904 12.7656Z" fill="#D2D6E7"/>
<path id="Vector_10" d="M12.5037 13.0242C13.1056 13.0242 13.5934 12.5354 13.5934 11.9324C13.5934 11.3294 13.1056 10.8406 12.5037 10.8406C11.9019 10.8406 11.4141 11.3294 11.4141 11.9324C11.4141 12.5354 11.9019 13.0242 12.5037 13.0242Z" fill="#D2D6E7"/>
<path id="Vector_11" d="M21.1932 13.0242C21.795 13.0242 22.2828 12.5354 22.2828 11.9324C22.2828 11.3294 21.795 10.8406 21.1932 10.8406C20.5914 10.8406 20.1035 11.3294 20.1035 11.9324C20.1035 12.5354 20.5914 13.0242 21.1932 13.0242Z" fill="#D2D6E7"/>
<path id="Vector_12" d="M21.1932 21.7444C21.795 21.7444 22.2828 21.2556 22.2828 20.6526C22.2828 20.0496 21.795 19.5608 21.1932 19.5608C20.5914 19.5608 20.1035 20.0496 20.1035 20.6526C20.1035 21.2556 20.5914 21.7444 21.1932 21.7444Z" fill="#D2D6E7"/>
<path id="Vector_13" d="M24.3905 3.01103C24.2758 1.41639 22.9998 0.123438 21.4083 0.00850894C20.3903 -0.0633219 19.4727 0.324563 18.8275 0.985408C18.34 1.48822 17.6805 1.78991 16.9779 1.78991H16.7198C16.003 1.78991 15.3291 1.48822 14.8273 0.97104C14.2394 0.367661 13.4222 0.00850894 12.5189 0.00850894C11.6156 0.00850894 10.7984 0.382029 10.2105 0.97104C9.70871 1.48822 9.03485 1.78991 8.31795 1.78991H8.07421C7.37168 1.78991 6.69779 1.51695 6.21031 1.01414C6.10995 0.913578 6.00957 0.813015 5.90922 0.726816C4.69053 -0.264448 2.8983 -0.235716 1.72261 0.813014C0.30318 2.06287 0.24583 4.24653 1.5649 5.56819C1.57924 5.58256 1.59357 5.59693 1.60791 5.6113C2.12407 6.09974 2.39649 6.78934 2.39649 7.49328V7.7375C2.39649 8.45581 2.09539 9.13101 1.57923 9.63382C0.977052 10.2228 0.61861 11.0417 0.61861 11.9468C0.61861 12.8518 0.991391 13.6707 1.57923 14.2597C2.09539 14.7626 2.39649 15.4378 2.39649 16.1561V16.4865C2.39649 17.1904 2.09539 17.8513 1.59357 18.3397C0.962716 18.9575 0.575597 19.8338 0.61861 20.7963C0.690299 22.4915 2.06672 23.8563 3.74423 23.9138C4.7192 23.9425 5.59379 23.5546 6.21031 22.9082C6.69779 22.4053 7.35731 22.0893 8.05987 22.0893H8.33229C9.03485 22.0893 9.69437 22.391 10.1819 22.9082C10.827 23.5834 11.759 23.9712 12.777 23.8994C14.3685 23.7845 15.6589 22.4915 15.7736 20.8825C15.9026 18.9718 14.4115 17.3916 12.5333 17.3916C11.6443 17.3916 10.827 17.7507 10.2392 18.3397C9.73738 18.8425 9.06352 19.1442 8.36096 19.1442H8.05987C7.35731 19.1442 6.66912 18.8713 6.1673 18.3541C6.15296 18.3397 6.15296 18.3397 6.13863 18.3253C5.62247 17.8225 5.32138 17.1473 5.32138 16.429V16.1417C5.32138 15.4234 5.62247 14.7482 6.13863 14.2454C6.7408 13.6564 7.09927 12.8375 7.09927 11.9324C7.09927 11.0274 6.72647 10.2085 6.13863 9.61946C5.62247 9.11664 5.32138 8.44144 5.32138 7.72314V7.46454C5.32138 6.74624 5.62247 6.07101 6.12429 5.56819C6.13863 5.55386 6.13863 5.55386 6.15296 5.53949C6.1673 5.52512 6.1673 5.52512 6.18163 5.51075C6.68346 5.00794 7.35731 4.70624 8.07421 4.70624H8.33229C9.04919 4.70624 9.72304 5.00794 10.2249 5.52512C10.8127 6.12848 11.63 6.48765 12.5333 6.48765C13.4365 6.48765 14.2538 6.11411 14.8416 5.52512C15.3434 5.00794 16.0173 4.70624 16.7342 4.70624H16.9636C17.6805 4.70624 18.3543 5.00794 18.8562 5.52512C19.444 6.12848 20.2612 6.48765 21.1645 6.48765C23.0285 6.50202 24.5196 4.92173 24.3905 3.01103Z" fill="#D2D6E7"/>
</g>
<defs>
<clipPath id="clip0_4668_94679">
<rect width="126.72" height="24" fill="white" transform="translate(0.615234)"/>
</clipPath>
</defs>
</svg>
