<svg width="138" height="32" viewBox="0 0 138 32" fill="none" xmlns="http://www.w3.org/2000/svg">
<path d="M20.6079 23.277L14.8908 25.7596V25.509C13.7931 25.7823 12.5582 25.9418 11.4148 26.0101C6.01781 25.9645 1.76427 23.1403 1.69567 19.8151V18.5852C3.45654 21.1361 7.06976 22.867 11.4148 22.7987C12.8783 22.867 14.3877 22.6393 15.6454 22.2976L16.1485 21.0677C14.6621 21.5233 13.0156 21.8193 11.4148 21.8193C6.01781 21.8193 1.76427 19.0179 1.69567 15.6243V14.6222C3.45654 16.9909 7.06976 18.6991 11.4148 18.5852C13.3815 18.6991 15.2795 18.2891 16.9032 17.583L17.1548 16.3532C15.5768 17.1731 13.5415 17.6514 11.4376 17.583C6.04067 17.6514 1.78714 14.8499 1.71853 11.388V10.3859C3.47941 12.8001 7.09262 14.5311 11.4376 14.5994C13.9074 14.5311 16.24 13.8706 18.161 12.8685L18.4125 11.388C16.6745 12.6635 14.1361 13.5062 11.4376 13.6201C6.04067 13.5062 1.78714 10.682 1.71853 7.1745C1.76427 3.82645 6.04067 1.02503 11.4376 0.979479C14.6392 1.02503 17.635 2.14105 19.3959 3.96311L19.5788 4.2592H20.8366L20.6536 3.96311C18.8928 1.57165 15.3481 0.000118734 11.4376 0.000118734C5.44609 -0.0226571 0.689453 3.23429 0.689453 7.15173V7.40226V20.0428C0.895269 23.8692 5.53757 26.9895 11.3919 26.9895C15.2567 27.0122 18.7555 25.4863 20.6079 23.277Z" fill="#D2D6E7"/>
<path d="M18.2755 31.9999L20.2879 23.4818L14.5022 25.9871L18.024 11.2284H11.2549L13.0158 3.96289H34.6265L32.8656 11.2284H25.8221L24.3128 15.2369L32.1109 11.98L18.2755 31.9999ZM21.7972 21.7508L20.791 26.7615L29.0923 14.2576L22.3004 17.264L25.319 10.249H32.1109L33.3687 4.9878H13.7475L12.4898 10.249H19.2817L16.0115 24.2561L21.7972 21.7508Z" fill="#FABF2C"/>
<path d="M48.9648 16.9683V16.9911C48.9877 17.7882 48.7362 18.4032 48.233 18.8587C47.7299 19.3142 47.0439 19.542 46.152 19.542C45.2602 19.542 44.5284 19.2459 43.9795 18.6765C43.4307 18.1071 43.1562 17.3555 43.1562 16.4445V14.964C43.1562 14.053 43.4307 13.3014 43.9566 12.732C44.5055 12.1626 45.2144 11.8665 46.0834 11.8665C46.9982 11.8665 47.7071 12.0943 48.233 12.527C48.759 12.9825 49.0106 13.5975 48.9877 14.3946V14.4174H47.5241C47.5241 13.9391 47.4098 13.5747 47.1811 13.347C46.9524 13.1192 46.5865 13.0053 46.1063 13.0053C45.6489 13.0053 45.3059 13.1875 45.0543 13.5519C44.8028 13.9163 44.6656 14.3719 44.6656 14.9413V16.4445C44.6656 17.0139 44.8028 17.4921 45.0543 17.8566C45.3288 18.221 45.6946 18.4032 46.1749 18.4032C46.6323 18.4032 46.9524 18.2893 47.1811 18.0615C47.4098 17.8338 47.5241 17.4694 47.5241 16.9911H48.9648V16.9683ZM57.2432 16.3761C57.2432 17.2872 56.9459 18.0615 56.3742 18.6537C55.8025 19.2459 55.0479 19.542 54.1102 19.542C53.1726 19.542 52.4408 19.2459 51.8463 18.6537C51.2746 18.0615 50.9773 17.2872 50.9773 16.3761V15.0324C50.9773 14.1213 51.2746 13.3697 51.8463 12.7548C52.418 12.1626 53.1726 11.8438 54.0874 11.8438C55.025 11.8438 55.7796 12.1398 56.3514 12.7548C56.9459 13.347 57.2204 14.1213 57.2204 15.0324V16.3761H57.2432ZM55.7339 15.0096C55.7339 14.4174 55.5967 13.9619 55.2994 13.5747C55.0021 13.2103 54.6134 13.0053 54.0874 13.0053C53.5843 13.0053 53.1726 13.1875 52.8982 13.5747C52.6238 13.9391 52.4637 14.4174 52.4637 15.0096V16.3534C52.4637 16.9455 52.6009 17.4238 52.8982 17.811C53.1726 18.1754 53.5843 18.3804 54.0874 18.3804C54.6134 18.3804 55.0021 18.1982 55.2994 17.811C55.5967 17.4466 55.7339 16.9455 55.7339 16.3534V15.0096ZM61.1309 19.4281H59.6215V11.9576H61.1309V19.4281ZM69.798 19.4281H68.2887L65.2701 14.3946H65.2472V19.4281H63.7379V11.9576H65.2472L68.2658 16.9911H68.2887V11.9576H69.798V19.4281ZM77.3675 13.1192H75.2178V19.4281H73.7085V13.1192H71.6046V11.9576H77.3675V13.1192ZM83.5877 16.1484H80.7977V18.2893H84.1137V19.4281H79.3113V11.9576H84.1137V13.1192H80.8206V14.9868H83.6106V16.1484H83.5877ZM87.7726 18.2893H91.1343V19.4281H86.2633V11.9576H87.7726V18.2893ZM97.5375 16.1484H94.7475V18.2893H98.0634V19.4281H93.2611V11.9576H98.0634V13.1192H94.7704V14.9868H97.5603V16.1484H97.5375ZM105.976 18.426C105.747 18.722 105.404 18.9954 104.924 19.2231C104.467 19.4509 103.872 19.5647 103.14 19.5647C102.225 19.5647 101.494 19.2914 100.922 18.722C100.35 18.1526 100.053 17.4238 100.053 16.5128V14.9413C100.053 14.0302 100.327 13.3014 100.899 12.732C101.448 12.1626 102.18 11.8665 103.049 11.8665C103.964 11.8665 104.672 12.0943 105.153 12.527C105.633 12.9598 105.884 13.5292 105.862 14.258V14.2808H104.444C104.444 13.8936 104.329 13.5747 104.101 13.347C103.872 13.1192 103.529 13.0053 103.094 13.0053C102.637 13.0053 102.271 13.1875 101.974 13.5292C101.7 13.8936 101.562 14.3491 101.562 14.8957V16.4672C101.562 17.0366 101.7 17.4921 101.997 17.8566C102.294 18.221 102.683 18.3804 103.163 18.3804C103.529 18.3804 103.803 18.3349 104.009 18.2665C104.215 18.1982 104.375 18.1071 104.489 17.9932V16.5356H103.049V15.4879H105.999V18.426H105.976ZM109.864 16.4445V19.4281H108.354V11.9576H110.961C111.807 11.9576 112.493 12.1626 112.974 12.5498C113.454 12.937 113.705 13.4836 113.705 14.1669C113.705 14.5541 113.614 14.8729 113.408 15.169C113.202 15.4423 112.905 15.6701 112.516 15.8523C112.951 15.9889 113.271 16.1939 113.477 16.5128C113.66 16.8089 113.774 17.1961 113.774 17.6516V18.1982C113.774 18.4032 113.797 18.6309 113.866 18.8587C113.911 19.0865 114.026 19.2459 114.163 19.3598V19.4736H112.608C112.471 19.3598 112.379 19.1776 112.333 18.927C112.288 18.6765 112.265 18.426 112.265 18.1982V17.6744C112.265 17.3099 112.173 17.0139 111.967 16.8089C111.762 16.6039 111.464 16.49 111.098 16.49H109.864V16.4445ZM109.864 15.3057H110.938C111.35 15.3057 111.67 15.2146 111.876 15.0324C112.082 14.8502 112.196 14.5996 112.196 14.2352C112.196 13.8936 112.082 13.6203 111.876 13.4153C111.67 13.2103 111.373 13.1192 110.961 13.1192H109.864V15.3057ZM120.086 17.8338H117.662L117.159 19.4509H115.581L118.119 11.9804H119.651L122.167 19.4509H120.589L120.086 17.8338ZM118.028 16.6494H119.72L118.897 14.0075H118.874L118.028 16.6494ZM125.506 16.7178V19.4281H123.996V11.9576H126.878C127.747 11.9576 128.41 12.1854 128.913 12.6181C129.416 13.0509 129.645 13.643 129.645 14.3491C129.645 15.0551 129.393 15.6473 128.913 16.0801C128.41 16.5128 127.747 16.7405 126.878 16.7405H125.506V16.7178ZM125.506 15.579H126.878C127.289 15.579 127.609 15.4651 127.838 15.2373C128.044 15.0096 128.158 14.7135 128.158 14.3719C128.158 14.0075 128.044 13.7114 127.838 13.4836C127.632 13.2558 127.312 13.142 126.878 13.142H125.506V15.579ZM137.9 19.4281H136.391V16.3306H133.327V19.4281H131.817V11.9576H133.327V15.169H136.391V11.9576H137.9V19.4281Z" fill="#D2D6E7"/>
</svg>
