<svg width="102" height="16" viewBox="0 0 102 16" fill="none" xmlns="http://www.w3.org/2000/svg">
<g id="kraken-vector-logo 1" clip-path="url(#clip0_4668_94747)">
<path id="_x23_0da8ffff_1_" d="M10.0214 0.117875C11.773 -1.99303e-05 13.5583 0.35366 15.1246 1.14524C17.4488 2.2905 19.3014 4.34524 20.1604 6.77051C20.5477 7.8484 20.7498 8.97682 20.7498 10.1221V14.3495C20.7498 14.5179 20.7498 14.7031 20.7162 14.8716C20.6151 15.2926 20.3119 15.68 19.9077 15.8652C19.6214 16 19.3014 16.0168 19.0151 15.9663C18.3751 15.8484 17.8698 15.2421 17.8698 14.5852C17.8698 13.2716 17.8698 11.9579 17.8698 10.6442C17.8867 10.2737 17.8867 9.86945 17.6846 9.54945C17.3646 8.94314 16.5562 8.65682 15.933 8.90945C15.3941 9.09471 15.0067 9.65051 14.9898 10.2231C14.9898 11.5537 14.9898 12.8842 14.9898 14.2147C14.9898 14.4673 15.0067 14.72 14.9225 14.9558C14.7877 15.4273 14.4004 15.7979 13.9288 15.9326C13.3056 16.101 12.5983 15.8316 12.2951 15.2589C12.0762 14.9221 12.093 14.501 12.1098 14.1137C12.1098 12.7831 12.1098 11.4695 12.1098 10.1389C12.093 9.46524 11.5372 8.85893 10.8804 8.77472C10.4425 8.70735 9.98774 8.85892 9.66774 9.16208C9.38142 9.43156 9.22985 9.81893 9.22985 10.2063V14.0631C9.22985 14.3831 9.26353 14.72 9.14563 15.0231C8.96037 15.5789 8.40458 15.9831 7.81511 15.9663C7.20879 16 6.61932 15.5789 6.43405 15.0231C6.333 14.7368 6.34984 14.4505 6.34984 14.1473C6.34984 12.8168 6.34984 11.4863 6.34984 10.1558C6.34984 9.49892 5.82774 8.89261 5.18774 8.77472C4.59826 8.65682 3.95827 8.94313 3.65511 9.48208C3.53721 9.70103 3.46984 9.95366 3.46984 10.2063V14.5347C3.46984 14.9558 3.28458 15.3768 2.96458 15.6463C2.47616 16.0673 1.68458 16.101 1.17932 15.7137C0.808791 15.461 0.589844 15.0231 0.589844 14.5684V10.1895C0.589844 8.53893 1.0109 6.8884 1.80248 5.42314C2.44248 4.22735 3.33511 3.16629 4.39616 2.32419C5.96248 1.0105 7.96669 0.23577 10.0214 0.117875Z" fill="#D2D6E7"/>
<path id="Vector" d="M49.382 5.18731H47.1925C47.2767 3.65468 47.5967 2.27362 48.9946 1.39783C50.3925 0.538887 51.9251 0.336782 53.5251 0.471519C54.3841 0.538887 55.243 0.724152 56.0346 1.09468C57.4325 1.73468 58.123 2.82941 58.123 4.36205C58.123 7.07363 58.123 9.78521 58.123 12.4968C58.123 13.4905 58.3251 13.6757 59.3188 13.5747C59.4199 13.5578 59.5378 13.541 59.6388 13.5242C59.6556 13.5747 59.6557 13.6252 59.6557 13.6589V15.3094C58.8641 15.5789 58.0556 15.6631 57.2641 15.4442C56.6746 15.2757 56.3041 14.8547 56.102 14.2989C56.0009 14.0126 55.9335 13.7094 55.8493 13.3894C55.7651 13.4905 55.6978 13.5747 55.6135 13.6589C53.8788 15.4105 51.8241 16.1515 49.3988 15.5284C47.6809 15.0905 46.502 13.5242 46.4514 11.7389C46.4346 11.1663 46.4851 10.5936 46.6199 10.0378C46.9399 8.75784 47.8493 7.9831 48.9946 7.46099C49.803 7.09047 50.6788 6.98941 51.5546 6.87152C52.582 6.73678 53.5925 6.61889 54.6199 6.46731C55.3104 6.36626 55.6641 5.99573 55.7651 5.3052C55.9841 3.90731 55.3609 2.981 54.0135 2.64415C53.2051 2.44205 52.3799 2.40836 51.5546 2.55994C50.342 2.77889 49.6683 3.46942 49.4325 4.66521C49.4493 4.83363 49.4156 5.00205 49.382 5.18731ZM55.8325 7.88205C54.822 8.42099 53.8451 8.55573 52.8514 8.70731C52.0262 8.84205 51.1841 8.95994 50.3756 9.21258C49.3146 9.56626 48.8262 10.442 48.9272 11.621C49.0114 12.5978 49.6683 13.3894 50.7293 13.5578C52.363 13.8273 53.8114 13.3726 54.9567 12.1599C55.2935 11.8063 55.563 11.301 55.6304 10.8294C55.782 9.88626 55.7651 8.92626 55.8325 7.88205ZM87.0409 10.7115C86.9904 10.9473 86.9567 11.1494 86.9062 11.3347C85.963 14.2147 84.043 15.4442 81.7188 15.7136C77.6935 16.1515 75.3862 13.5242 74.7967 10.7284C74.3251 8.50521 74.3925 6.29889 75.3693 4.21047C76.2957 2.23994 77.7778 0.943097 79.9841 0.555729C82.6283 0.0841501 86.3672 1.39783 86.9904 5.52415C87.1588 6.5852 87.1925 7.67994 87.2935 8.79152H77.0535C77.1378 10.3073 77.3735 11.722 78.4851 12.8168C78.9399 13.2715 79.5293 13.4905 80.1693 13.6084C82.2409 13.9789 83.9588 12.9852 84.6325 10.981C84.6999 10.762 84.8009 10.6947 85.0199 10.7115C85.6767 10.7115 86.3335 10.7115 87.0409 10.7115ZM77.1378 6.83784H84.8009C84.7167 5.94521 84.5651 5.11994 84.1441 4.3452C83.7399 3.60415 83.1504 3.06521 82.342 2.79573C79.6978 1.88626 76.9693 3.99152 77.1378 6.83784ZM92.5483 15.2252H90.2241V0.77468H92.4304V2.79573C92.5988 2.61047 92.6999 2.49257 92.8009 2.37468C94.3841 0.572574 96.3714 0.100993 98.6283 0.656783C100.195 1.04415 101.07 2.15573 101.374 3.7052C101.491 4.3452 101.576 5.00205 101.576 5.64205C101.592 8.74099 101.592 11.8399 101.592 14.9389C101.592 15.0231 101.576 15.1073 101.576 15.2084H99.2009V14.821C99.2009 11.9242 99.2178 9.02731 99.1841 6.13047C99.1841 5.49047 99.083 4.83363 98.8978 4.21047C98.5946 3.19994 97.7862 2.66099 96.7251 2.61047C94.7883 2.5431 93.2557 3.57047 92.7841 5.28836C92.6157 5.91152 92.5651 6.56836 92.5651 7.2252C92.5483 9.76836 92.5483 12.2947 92.5483 14.8042V15.2252ZM61.9125 0.77468H64.1525V6.9052C64.2872 6.77047 64.3714 6.7031 64.4557 6.61889C66.2914 4.74941 68.1272 2.8631 69.963 0.993625C70.1146 0.825204 70.2662 0.757836 70.502 0.757836C71.3609 0.774678 72.2367 0.757836 73.1799 0.757836C73.0451 0.892573 72.9778 0.976782 72.8935 1.06099C71.2767 2.67783 69.6767 4.31152 68.043 5.91152C67.8578 6.09679 67.8578 6.21468 67.9757 6.41678C69.7441 9.22942 71.4956 12.042 73.2472 14.8547C73.3146 14.9557 73.3651 15.0568 73.4493 15.2084C73.3314 15.2252 73.2472 15.2252 73.1462 15.2252C72.3378 15.2252 71.5462 15.2252 70.7378 15.2252C70.5188 15.2252 70.4178 15.141 70.2999 14.9726C68.9525 12.7157 67.6051 10.4589 66.2578 8.18521C66.1904 8.08415 66.1399 7.9831 66.0556 7.86521C65.4325 8.48837 64.8262 9.07784 64.2199 9.701C64.1356 9.78521 64.1188 9.93679 64.1188 10.0547C64.1188 11.6378 64.1188 13.221 64.1188 14.8042V15.2084C63.6809 15.2084 63.243 15.2084 62.822 15.2084C62.5188 15.2084 62.0978 15.2926 61.9293 15.1242C61.7778 14.9894 61.862 14.5515 61.862 14.2484V1.16205C61.9125 1.07784 61.9125 0.943101 61.9125 0.77468ZM36.0599 0.757836C34.2409 2.55994 32.4725 4.32836 30.6872 6.09679C32.6072 9.16205 34.4767 12.1599 36.3799 15.2252C36.2283 15.2252 36.1272 15.242 36.0262 15.242C35.2514 15.242 34.4599 15.242 33.6851 15.242C33.4662 15.242 33.3314 15.1578 33.2135 14.9726C31.8662 12.7157 30.5188 10.4589 29.1714 8.18521C29.1209 8.08415 29.0535 7.99994 28.9693 7.86521C28.6325 8.21889 28.3293 8.60626 27.9588 8.87573C27.2009 9.44837 26.982 10.1557 27.0325 11.0989C27.1167 12.3284 27.0493 13.5747 27.0493 14.8042V15.2084H24.8262V0.77468H27.0493V6.80415C27.0999 6.83784 27.1504 6.87152 27.1841 6.9052C27.2514 6.80415 27.2851 6.68626 27.3525 6.60205C29.1714 4.73258 31.0072 2.87994 32.8262 0.993625C32.9946 0.825204 33.1462 0.740994 33.3988 0.757836C34.1567 0.774678 34.9146 0.757836 35.6725 0.757836C35.7904 0.757836 35.8914 0.757836 36.0599 0.757836ZM40.5062 3.16626C41.6346 1.51573 42.8304 0.134681 45.0535 0.538891V3.01468C44.4641 3.04836 43.8746 3.03152 43.3188 3.14942C41.9546 3.43573 40.8935 4.68204 40.6746 6.19783C40.6409 6.50099 40.6072 6.80415 40.6072 7.10731C40.6072 9.68415 40.6072 12.261 40.6072 14.8378V15.242H38.3167V0.808361H40.5062C40.5062 1.56626 40.5062 2.32415 40.5062 3.16626Z" fill="#D2D6E7"/>
</g>
<defs>
<clipPath id="clip0_4668_94747">
<rect width="101.053" height="16" fill="white" transform="translate(0.589844)"/>
</clipPath>
</defs>
</svg>
