<svg width="203" height="32" viewBox="0 0 203 32" fill="none" xmlns="http://www.w3.org/2000/svg">
<g id="kraken-vector-logo 1" clip-path="url(#clip0_4668_94747)">
<path id="_x23_0da8ffff_1_" d="M19.4921 0.23575C22.9952 -3.98606e-05 26.5658 0.70732 29.6984 2.29048C34.3468 4.581 38.0521 8.69049 39.77 13.541C40.5447 15.6968 40.9489 17.9536 40.9489 20.2442V28.6989C40.9489 29.0357 40.9489 29.4063 40.8815 29.7431C40.6794 30.5852 40.0731 31.36 39.2647 31.7305C38.6921 32 38.0521 32.0336 37.4794 31.9326C36.1994 31.6968 35.1889 30.4842 35.1889 29.1705C35.1889 26.5431 35.1889 23.9157 35.1889 21.2884C35.2226 20.5473 35.2226 19.7389 34.8184 19.0989C34.1784 17.8863 32.5615 17.3136 31.3152 17.8189C30.2373 18.1894 29.4626 19.301 29.4289 20.4463C29.4289 23.1073 29.4289 25.7684 29.4289 28.4294C29.4289 28.9347 29.4626 29.44 29.2942 29.9115C29.0247 30.8547 28.25 31.5957 27.3068 31.8652C26.0605 32.2021 24.6458 31.6631 24.0394 30.5179C23.6015 29.8442 23.6352 29.0021 23.6689 28.2273C23.6689 25.5663 23.6689 22.9389 23.6689 20.2779C23.6352 18.9305 22.5236 17.7179 21.21 17.5494C20.3342 17.4147 19.4247 17.7178 18.7847 18.3242C18.2121 18.8631 17.9089 19.6379 17.9089 20.4126V28.1263C17.9089 28.7663 17.9763 29.44 17.7405 30.0463C17.37 31.1579 16.2584 31.9663 15.0794 31.9326C13.8668 32 12.6879 31.1579 12.3173 30.0463C12.1152 29.4736 12.1489 28.901 12.1489 28.2947C12.1489 25.6336 12.1489 22.9726 12.1489 20.3115C12.1489 18.9978 11.1047 17.7852 9.8247 17.5494C8.64575 17.3136 7.36575 17.8863 6.75943 18.9642C6.52364 19.4021 6.38891 19.9073 6.38891 20.4126V29.0694C6.38891 29.9115 6.01838 30.7536 5.37838 31.2926C4.40154 32.1347 2.81838 32.2021 1.80785 31.4273C1.0668 30.9221 0.628906 30.0463 0.628906 29.1368V20.3789C0.628906 17.0779 1.47101 13.7768 3.05417 10.8463C4.33417 8.4547 6.11943 6.33258 8.24154 4.64837C11.3742 2.021 15.3826 0.471539 19.4921 0.23575Z" fill="#D2D6E7"/>
<path id="Vector" d="M98.2112 10.3746H93.8322C94.0007 7.30935 94.6407 4.54725 97.4365 2.79567C100.232 1.07777 103.298 0.673563 106.498 0.943037C108.215 1.07777 109.933 1.4483 111.516 2.18936C114.312 3.46936 115.693 5.65883 115.693 8.72409C115.693 14.1473 115.693 19.5704 115.693 24.9936C115.693 26.9809 116.098 27.3515 118.085 27.1494C118.287 27.1157 118.523 27.082 118.725 27.0483C118.759 27.1494 118.759 27.2504 118.759 27.3178V30.6188C117.175 31.1578 115.559 31.3262 113.975 30.8883C112.796 30.5515 112.055 29.7094 111.651 28.5978C111.449 28.0251 111.314 27.4188 111.146 26.7788C110.978 26.9809 110.843 27.1494 110.674 27.3178C107.205 30.8209 103.095 32.303 98.2449 31.0567C94.8091 30.1809 92.4512 27.0483 92.3501 23.4778C92.3165 22.3325 92.4175 21.1873 92.687 20.0757C93.327 17.5157 95.1459 15.9662 97.4365 14.922C99.0533 14.1809 100.805 13.9788 102.556 13.743C104.611 13.4736 106.632 13.2378 108.687 12.9346C110.068 12.7325 110.775 11.9915 110.978 10.6104C111.415 7.81462 110.169 5.96199 107.474 5.28831C105.858 4.8841 104.207 4.81673 102.556 5.11989C100.131 5.55778 98.7838 6.93883 98.3122 9.33041C98.3459 9.66726 98.2786 10.0041 98.2112 10.3746ZM111.112 15.7641C109.091 16.842 107.138 17.1115 105.15 17.4146C103.5 17.6841 101.815 17.9199 100.199 18.4252C98.0765 19.1325 97.0996 20.8841 97.3017 23.242C97.4701 25.1957 98.7838 26.7788 100.906 27.1157C104.173 27.6546 107.07 26.7452 109.361 24.3199C110.034 23.6125 110.573 22.602 110.708 21.6588C111.011 19.7725 110.978 17.8525 111.112 15.7641ZM173.529 21.423C173.428 21.8946 173.361 22.2988 173.26 22.6694C171.373 28.4294 167.533 30.8883 162.885 31.4272C154.834 32.303 150.22 27.0483 149.041 21.4567C148.098 17.0104 148.232 12.5978 150.186 8.42094C152.039 4.47988 155.003 1.88619 159.415 1.11146C164.704 0.1683 172.182 2.79567 173.428 11.0483C173.765 13.1704 173.832 15.3599 174.034 17.583H153.554C153.723 20.6146 154.194 23.4441 156.418 25.6336C157.327 26.543 158.506 26.9809 159.786 27.2167C163.929 27.9578 167.365 25.9704 168.712 21.962C168.847 21.5241 169.049 21.3894 169.487 21.423C170.801 21.423 172.114 21.423 173.529 21.423ZM153.723 13.6757H169.049C168.881 11.8904 168.577 10.2399 167.735 8.69041C166.927 7.2083 165.748 6.13041 164.131 5.59146C158.843 3.77252 153.386 7.98304 153.723 13.6757ZM184.544 30.4504H179.895V1.54936H184.308V5.59146C184.645 5.22094 184.847 4.98515 185.049 4.74936C188.215 1.14515 192.19 0.201986 196.704 1.31357C199.836 2.0883 201.588 4.31146 202.194 7.41041C202.43 8.69041 202.599 10.0041 202.599 11.2841C202.632 17.482 202.632 23.6799 202.632 29.8778C202.632 30.0462 202.599 30.2146 202.599 30.4167H197.849V29.642C197.849 23.8483 197.883 18.0546 197.815 12.2609C197.815 10.9809 197.613 9.66725 197.243 8.42094C196.636 6.39988 195.02 5.32199 192.898 5.22094C189.024 5.0862 185.959 7.14093 185.015 10.5767C184.679 11.823 184.577 13.1367 184.577 14.4504C184.544 19.5367 184.544 24.5894 184.544 29.6083V30.4504ZM123.272 1.54936H127.752V13.8104C128.022 13.5409 128.19 13.4062 128.359 13.2378C132.03 9.49883 135.702 5.7262 139.373 1.98725C139.676 1.65041 139.98 1.51567 140.451 1.51567C142.169 1.54936 143.921 1.51567 145.807 1.51567C145.538 1.78515 145.403 1.95356 145.234 2.12198C142.001 5.35567 138.801 8.62304 135.533 11.823C135.163 12.1936 135.163 12.4294 135.399 12.8336C138.935 18.4588 142.439 24.0841 145.942 29.7094C146.076 29.9115 146.178 30.1136 146.346 30.4167C146.11 30.4504 145.942 30.4504 145.74 30.4504C144.123 30.4504 142.54 30.4504 140.923 30.4504C140.485 30.4504 140.283 30.282 140.047 29.9451C137.352 25.4315 134.658 20.9178 131.963 16.3704C131.828 16.1683 131.727 15.9662 131.559 15.7304C130.312 16.9767 129.1 18.1557 127.887 19.402C127.719 19.5704 127.685 19.8736 127.685 20.1094C127.685 23.2757 127.685 26.442 127.685 29.6083V30.4167C126.809 30.4167 125.933 30.4167 125.091 30.4167C124.485 30.4167 123.643 30.5851 123.306 30.2483C123.003 29.9788 123.171 29.103 123.171 28.4967V2.32409C123.272 2.15567 123.272 1.8862 123.272 1.54936ZM71.567 1.51567C67.9291 5.11988 64.3922 8.65673 60.8217 12.1936C64.6617 18.3241 68.4007 24.3199 72.207 30.4504C71.9038 30.4504 71.7017 30.4841 71.4996 30.4841C69.9501 30.4841 68.367 30.4841 66.8175 30.4841C66.3796 30.4841 66.1101 30.3157 65.8743 29.9451C63.1796 25.4315 60.4849 20.9178 57.7901 16.3704C57.6891 16.1683 57.5543 15.9999 57.3859 15.7304C56.7122 16.4378 56.1059 17.2125 55.3649 17.7515C53.8491 18.8967 53.4112 20.3115 53.5122 22.1978C53.6807 24.6567 53.5459 27.1494 53.5459 29.6083V30.4167H49.0996V1.54936H53.5459V13.6083C53.647 13.6757 53.748 13.743 53.8154 13.8104C53.9501 13.6083 54.0175 13.3725 54.1522 13.2041C57.7901 9.46515 61.4617 5.75988 65.0996 1.98725C65.4365 1.65041 65.7396 1.48199 66.2449 1.51567C67.7607 1.54936 69.2765 1.51567 70.7922 1.51567C71.028 1.51567 71.2301 1.51567 71.567 1.51567ZM80.4596 6.33251C82.7165 3.03146 85.108 0.269361 89.5544 1.07778V6.02936C88.3754 6.09672 87.1965 6.06305 86.0849 6.29883C83.3565 6.87147 81.2343 9.36409 80.7965 12.3957C80.7291 13.002 80.6617 13.6083 80.6617 14.2146C80.6617 19.3683 80.6617 24.522 80.6617 29.6757V30.4841H76.0807V1.61672H80.4596C80.4596 3.13251 80.4596 4.6483 80.4596 6.33251Z" fill="#D2D6E7"/>
</g>
<defs>
<clipPath id="clip0_4668_94747">
<rect width="202.105" height="32" fill="white" transform="translate(0.628906)"/>
</clipPath>
</defs>
</svg>
