<svg width="141" height="32" viewBox="0 0 141 32" fill="none" xmlns="http://www.w3.org/2000/svg">
<g id="KUCOIN 1" clip-path="url(#clip0_4668_94750)">
<g id="&#233;&#161;&#181;&#233;&#157;&#162;-1">
<g id="&#229;&#175;&#188;&#232;&#136;&#170;&#230;&#160;&#143;&#228;&#184;&#139;&#230;&#139;&#137;&#230;&#156;&#128;&#229;&#176;&#143;&#229;&#174;&#189;&#229;&#186;&#166;&#229;&#164;&#135;&#228;&#187;&#189;-4">
<g id="&#231;&#188;&#150;&#231;&#187;&#132;-27&#229;&#164;&#135;&#228;&#187;&#189;-2">
<g id="kucoin-logo">
<g id="KUCOIN-logo-3.0">
<path id="&#229;&#189;&#162;&#231;&#138;&#182;" d="M109.688 15.9853C109.688 15.1692 109.688 14.4015 109.662 13.6925C109.644 13.0236 109.578 12.357 109.464 11.6976C109.357 11.0956 109.169 10.5109 108.905 9.95965C108.625 9.39132 108.252 8.87421 107.801 8.43011C107.16 7.77415 106.399 7.24915 105.558 6.88442C104.648 6.51593 103.674 6.33326 102.692 6.34717C101.707 6.33445 100.729 6.51704 99.8153 6.88442C98.9696 7.24417 98.203 7.76689 97.5592 8.42277C97.1086 8.8666 96.7369 9.38382 96.4597 9.95231C96.1974 10.5037 96.0122 11.0885 95.9093 11.6903C95.7979 12.3498 95.7341 13.0165 95.7185 13.6852C95.7008 14.3941 95.692 15.1619 95.6964 15.978C95.7008 16.7941 95.6964 17.556 95.7185 18.2694C95.7341 18.938 95.7979 19.6047 95.9093 20.2642C96.0122 20.8661 96.1974 21.4509 96.4597 22.0022C96.738 22.5701 97.1096 23.0871 97.5592 23.5318C98.2019 24.1882 98.9689 24.7101 99.8153 25.0672C100.729 25.437 101.707 25.6206 102.692 25.6074C103.674 25.6218 104.649 25.4381 105.558 25.0672C106.399 24.7073 107.161 24.1856 107.801 23.5318C108.251 23.0868 108.624 22.5699 108.905 22.0022C109.169 21.451 109.357 20.8663 109.464 20.2642C109.576 19.6068 109.642 18.9421 109.659 18.2752C109.681 17.5619 109.691 16.7986 109.685 15.9839L109.688 15.9853ZM105.989 15.9853C105.989 16.8896 105.976 17.6426 105.945 18.2415C105.928 18.7334 105.879 19.2237 105.798 19.7094C105.743 20.0329 105.645 20.3475 105.505 20.6444C105.391 20.8837 105.243 21.1049 105.065 21.3006C104.789 21.616 104.447 21.8666 104.063 22.0345C103.632 22.2193 103.166 22.3132 102.697 22.3105C102.225 22.3126 101.757 22.2187 101.323 22.0345C100.93 21.8698 100.579 21.619 100.295 21.3006C100.116 21.1058 99.9672 20.8844 99.855 20.6444C99.7191 20.3472 99.6252 20.0325 99.5761 19.7094C99.4977 19.2235 99.4487 18.7333 99.4293 18.2415C99.4029 17.6426 99.3896 16.8905 99.3896 15.9853C99.3896 15.0811 99.4029 14.3266 99.4293 13.7277C99.4487 13.2359 99.4978 12.7457 99.5761 12.2598C99.6252 11.9367 99.7191 11.622 99.855 11.3248C99.9675 11.085 100.116 10.8637 100.295 10.6686C100.579 10.3507 100.93 10.1 101.323 9.9347C101.757 9.74846 102.225 9.65448 102.697 9.65873C103.167 9.65386 103.632 9.74788 104.063 9.9347C104.447 10.1031 104.789 10.3536 105.065 10.6686C105.243 10.8646 105.391 11.0857 105.505 11.3248C105.645 11.6217 105.743 11.9363 105.798 12.2598C105.879 12.7455 105.928 13.2358 105.945 13.7277C105.978 14.3252 105.989 15.0797 105.989 15.9853Z" fill="#D2D6E7"/>
<path id="&#232;&#183;&#175;&#229;&#190;&#132;" d="M139.163 6.83759C139.162 6.65909 139.017 6.51478 138.839 6.51318H135.787C135.608 6.51399 135.464 6.65876 135.463 6.83759V18.111L128.021 6.60419C127.971 6.52639 127.927 6.51318 127.817 6.51318H124.987C124.808 6.51555 124.664 6.65942 124.662 6.83759V25.1304C124.664 25.3084 124.809 25.4518 124.987 25.4534H128.037C128.215 25.4526 128.359 25.3085 128.36 25.1304V13.8277L135.803 25.3609C135.855 25.4387 135.896 25.4519 136.007 25.4519H138.836C139.014 25.4511 139.159 25.3072 139.16 25.129L139.163 6.83759Z" fill="#D2D6E7"/>
<path id="&#232;&#183;&#175;&#229;&#190;&#132;_2" d="M118.707 6.83759C118.707 6.65876 118.562 6.51399 118.383 6.51318H115.334C115.155 6.51399 115.011 6.65876 115.01 6.83759V25.129C115.011 25.3078 115.155 25.4526 115.334 25.4534H118.383C118.562 25.4526 118.707 25.3078 118.707 25.129V6.83759Z" fill="#D2D6E7"/>
<path id="&#232;&#183;&#175;&#229;&#190;&#132;_3" d="M82.2099 15.9855C82.2099 15.0754 82.2202 14.3179 82.2466 13.7146C82.2645 13.2227 82.3136 12.7325 82.3934 12.2468C82.6752 10.6174 83.9229 9.65593 85.5156 9.65593C86.5548 9.66473 87.4972 10.0493 88.0991 10.9242C88.3716 11.3326 88.5703 11.7857 88.6862 12.2629C88.6951 12.3132 88.7411 12.3482 88.7919 12.3436H92.3809C92.4323 12.3436 92.4513 12.3084 92.4425 12.2585C92.0506 10.0376 90.866 8.04271 88.7728 7.05482C87.7441 6.57851 86.6212 6.34019 85.4877 6.35758C83.4669 6.35758 81.7646 7.04944 80.3809 8.43317C79.5909 9.20312 79.0516 10.1936 78.8337 11.275C78.6224 12.3397 78.5157 13.9094 78.5137 15.984C78.5118 18.0586 78.6184 19.6278 78.8337 20.6915C79.0498 21.7743 79.5875 22.7668 80.3765 23.5392C81.7592 24.922 83.4615 25.6134 85.4833 25.6134C86.6166 25.6305 87.7393 25.3927 88.7684 24.9176C90.8616 23.9297 92.0462 21.9348 92.4381 19.7139C92.4469 19.6625 92.4279 19.6288 92.3765 19.6288H88.786C88.735 19.6234 88.6886 19.6588 88.6803 19.7095C88.5642 20.1861 88.3655 20.6387 88.0932 21.0468C87.4913 21.9275 86.549 22.3077 85.5097 22.315C83.917 22.315 82.6693 21.355 82.3875 19.7257C82.3078 19.2399 82.2587 18.7497 82.2407 18.2578C82.2201 17.6515 82.2099 16.8926 82.2099 15.9855Z" fill="#D2D6E7"/>
<path id="&#232;&#183;&#175;&#229;&#190;&#132;_4" d="M44.3031 6.83759C44.3023 6.65876 44.1575 6.51399 43.9787 6.51318H40.9299C40.751 6.51399 40.6063 6.65876 40.6055 6.83759V25.1304C40.6071 25.3087 40.7516 25.4526 40.9299 25.4535H43.9787C44.1569 25.4526 44.3015 25.3087 44.3031 25.1304V19.7609L46.7501 16.8354L51.7761 25.3565C51.8148 25.4193 51.8844 25.4564 51.9581 25.4535H55.6631C55.8334 25.4535 55.8642 25.3477 55.779 25.2024L49.1985 14.0464L55.2359 6.80383C55.3578 6.65704 55.3064 6.51759 55.1156 6.51759H51.0657C51.0164 6.51469 50.9689 6.53675 50.9394 6.5763L44.3031 14.5352V6.83759Z" fill="#D2D6E7"/>
<path id="&#232;&#183;&#175;&#229;&#190;&#132;_5" d="M66.5145 22.315C64.7985 22.315 63.2425 20.7268 63.2425 18.8302V6.83759C63.2417 6.65876 63.097 6.51399 62.9181 6.51318H59.8693C59.6905 6.51399 59.5457 6.65876 59.5449 6.83759V18.7833C59.5449 22.9594 62.6686 25.6134 66.5145 25.6134C70.3603 25.6134 73.484 22.9594 73.484 18.7833V6.83759C73.4824 6.65909 73.3381 6.51478 73.1596 6.51318H70.1093C69.9311 6.51479 69.7872 6.65933 69.7864 6.83759V18.8302C69.7864 20.7253 68.229 22.315 66.5145 22.315Z" fill="#D2D6E7"/>
<path id="&#229;&#189;&#162;&#231;&#138;&#182;_2" fill-rule="evenodd" clip-rule="evenodd" d="M9.9586 15.9854L19.4235 25.4518L25.3979 19.4775C26.4662 18.5156 28.1005 18.5584 29.117 19.5749C30.1335 20.5914 30.1763 22.2257 29.2144 23.294L21.3303 31.1795C20.2713 32.221 18.5728 32.221 17.5138 31.1795L6.13915 19.8019V26.5645C6.13915 28.0569 4.92925 29.2668 3.43676 29.2668C1.94427 29.2668 0.734375 28.0569 0.734375 26.5645V5.39749C0.734375 3.905 1.94427 2.6951 3.43676 2.6951C4.92925 2.6951 6.13915 3.905 6.13915 5.39749V12.1601L17.5124 0.785375C18.571 -0.256909 20.2702 -0.256909 21.3289 0.785375L29.2188 8.66941C30.1807 9.7377 30.1379 11.3721 29.1214 12.3886C28.1049 13.405 26.4706 13.4478 25.4023 12.4859L19.428 6.51161L9.9586 15.9854ZM19.428 13.2801C18.3336 13.2795 17.3467 13.9382 16.9275 14.9491C16.5083 15.9599 16.7394 17.1238 17.513 17.8978C18.2866 18.6718 19.4503 18.9036 20.4614 18.4849C21.4725 18.0663 22.1318 17.0797 22.1318 15.9854C22.1322 15.2679 21.8475 14.5796 21.3405 14.072C20.8334 13.5644 20.1454 13.279 19.428 13.2786V13.2801Z" fill="#D2D6E7"/>
</g>
</g>
</g>
</g>
</g>
</g>
<defs>
<clipPath id="clip0_4668_94750">
<rect width="139.429" height="32" fill="white" transform="translate(0.734375)"/>
</clipPath>
</defs>
</svg>
