<svg width="173" height="32" viewBox="0 0 173 32" fill="none" xmlns="http://www.w3.org/2000/svg">
<g id="maker-makerdao-com-logo-vector 1" clip-path="url(#clip0_4668_94698)">
<path id="Vector" d="M160.374 8.00003C160.145 8.00003 160.031 8.11431 159.803 8.22859C159.66 8.40002 159.574 8.60002 159.574 8.8286V26.2857C159.574 26.5143 159.688 26.6286 159.803 26.8857C159.917 27 160.145 27.1143 160.374 27.1143C160.603 27.1143 160.717 27 160.945 26.8857C161.088 26.7143 161.174 26.5143 161.174 26.2857V18.3429H165.631L169.717 26.7715C169.831 27 170.06 27.2572 170.431 27.2572C170.545 27.2572 170.66 27.2572 170.774 27.1429C171.003 27.0286 171.117 26.9143 171.117 26.6572C171.231 26.4286 171.117 26.3143 171.117 26.0572L167.374 18.3429C168.66 18.1143 169.831 17.5143 170.66 16.5715C171.603 15.6286 171.945 14.5429 171.945 13.2572C171.945 11.8286 171.374 10.6572 170.317 9.57145C169.26 8.6286 167.974 8.0286 166.46 8.0286C166.46 8.00003 160.374 8.00003 160.374 8.00003ZM169.145 15.6C168.431 16.3143 167.517 16.6572 166.46 16.6572H161.203V9.54288H166.345C167.403 9.54288 168.345 9.88574 169.145 10.6C169.974 11.3143 170.317 12.1429 170.317 13.0857C170.317 14.0572 169.86 14.8857 169.145 15.6ZM152.431 27.1143C152.66 27.1143 152.774 27 153.003 26.8857C153.145 26.7143 153.231 26.5143 153.231 26.2857C153.231 26.0572 153.117 25.9429 153.003 25.6857C152.831 25.5429 152.631 25.4572 152.431 25.4572H142.717V18.3429H149.974C150.203 18.3429 150.317 18.2286 150.545 18.1143C150.688 17.9429 150.774 17.7429 150.774 17.5143C150.774 17.2857 150.66 17.1715 150.545 16.9143C150.374 16.7715 150.174 16.6857 149.974 16.6857H142.717V9.57145H152.431C152.66 9.57145 152.774 9.45717 153.003 9.34289C153.145 9.17146 153.231 8.97146 153.231 8.74288C153.231 8.51431 153.117 8.40003 153.003 8.14288C152.831 8.00003 152.631 7.91432 152.431 7.91432H141.917C141.688 7.91432 141.574 8.0286 141.345 8.14288C141.203 8.31431 141.117 8.51431 141.117 8.74288V26.2857C141.117 26.5143 141.231 26.6286 141.345 26.8857C141.46 27 141.688 27.1143 141.917 27.1143H152.431ZM123.317 26.7715C123.46 26.6 123.545 26.4 123.545 26.1715V21.0572L125.888 18.5715L133.717 26.8857C133.831 27 134.06 27.1143 134.288 27.1143C134.517 27.1143 134.631 27 134.86 26.8857C135.003 26.7143 135.088 26.5143 135.088 26.2857C135.088 26.0572 134.974 25.9429 134.86 25.6857L127.031 17.2572L134.631 9.31431C134.774 9.14288 134.86 8.94288 134.86 8.71431C134.86 8.48574 134.745 8.37145 134.631 8.11431C134.46 7.97145 134.26 7.88574 134.031 7.88574C133.803 7.88574 133.688 8.00002 133.46 8.11431L123.517 18.8V8.71431C123.517 8.48574 123.403 8.37145 123.288 8.11431C123.117 7.97145 122.917 7.88574 122.717 7.88574C122.488 7.88574 122.374 8.00002 122.145 8.11431C122.145 8.34288 122.031 8.45717 122.031 8.71431V26.1715C122.031 26.4 122.145 26.5143 122.26 26.7715C122.374 26.8857 122.603 27 122.831 27C122.945 27 123.203 26.8857 123.317 26.7715ZM101.088 27.1143C101.431 27.1143 101.66 27 101.803 26.6286L103.431 22.6H113.031L114.66 26.6286C114.774 26.9715 115.003 27.1143 115.374 27.1143C115.488 27.1143 115.603 27.1143 115.717 27C115.917 26.9143 116.088 26.7429 116.174 26.5143C116.288 26.2857 116.288 26.1715 116.174 25.9143L114.317 21.4L108.945 8.34289C108.945 8.34289 108.945 8.22859 108.831 8.22859V8.11431H108.717C108.603 8.00002 108.488 8.00003 108.488 8.00003H108.26H108.031C107.917 8.00003 107.803 8.00002 107.803 8.11431H107.688V8.22859C107.688 8.22859 107.688 8.34289 107.574 8.34289L102.145 21.4286L100.26 25.9429C100.145 26.1714 100.145 26.2857 100.26 26.5429C100.374 26.7715 100.488 26.8857 100.717 27.0286C100.86 27.1143 100.974 27.1143 101.088 27.1143ZM104.003 21.0572L108.203 10.8572L112.403 21.0572H104.003ZM76.774 11.6857L83.9169 23.5429V23.6572H85.3169V23.5429L92.4598 11.6857V26.4C92.4598 26.6286 92.5741 26.7429 92.6883 27C92.8026 27.1143 93.0312 27.2286 93.2598 27.2286C93.4883 27.2286 93.6026 27.1143 93.8312 27C93.9741 26.8286 94.0598 26.6286 94.0598 26.4V8.8286C94.0598 8.48574 93.8312 8.11431 93.4883 8.11431C93.1455 8.00002 92.7741 8.11431 92.5455 8.45717L84.6026 21.5143L76.774 8.34289C76.5455 8.00003 76.2026 7.85717 75.8312 8.00003C75.4883 8.11431 75.2598 8.34288 75.2598 8.8286V26.4C75.2598 26.6286 75.374 26.7429 75.4883 27C75.6026 27 75.8312 27.1143 76.0598 27.1143C76.2883 27.1143 76.4026 27 76.6312 26.8857C76.774 26.7143 76.8598 26.5143 76.8598 26.2857V11.6857H76.774Z" fill="#D2D6E7" stroke="#D2D6E7" stroke-width="0.523828"/>
<path id="Vector_2" d="M22.7465 29.7428V15.7142C22.7465 14.7142 22.2608 13.7999 21.4036 13.2285L4.46077 1.99993C3.77506 1.54278 2.86077 1.74278 2.40363 2.4285C2.2322 2.68564 2.14648 2.97135 2.14648 3.25707V29.7714" stroke="#D2D6E7" stroke-width="3.29266"/>
<path id="Vector_3" d="M30.6895 29.7428V15.7142C30.6895 14.7142 31.1752 13.7999 32.0323 13.2285L48.9752 1.99993C49.6609 1.54278 50.5752 1.74278 51.0323 2.4285C51.2037 2.68564 51.2895 2.97135 51.2895 3.25707V29.7714" stroke="#D2D6E7" stroke-width="3.29266"/>
<path id="Vector_4" d="M2.17545 27.5427C3.08973 27.5427 3.80402 28.2856 3.80402 29.1713V30.3713C3.80402 31.2856 3.06116 31.9999 2.17545 31.9999C1.26116 31.9999 0.546875 31.257 0.546875 30.3713V29.1713C0.546875 28.257 1.26116 27.5427 2.17545 27.5427Z" fill="#D2D6E7"/>
<path id="Vector_5" d="M30.6899 27.5427C31.6042 27.5427 32.3185 28.2856 32.3185 29.1713V30.3713C32.3185 31.2856 31.5756 31.9999 30.6899 31.9999C29.7756 31.9999 29.0613 31.257 29.0613 30.3713V29.1713C29.0328 28.257 29.7756 27.5427 30.6899 27.5427Z" fill="#D2D6E7"/>
<path id="Vector_6" d="M51.2321 27.5427C52.1464 27.5427 52.8607 28.2856 52.8607 29.1713V30.3713C52.8607 31.2856 52.1178 31.9999 51.2321 31.9999C50.3178 31.9999 49.6035 31.257 49.6035 30.3713V29.1713C49.6035 28.257 50.3464 27.5427 51.2321 27.5427Z" fill="#D2D6E7"/>
<path id="Vector_7" d="M22.7466 27.5427C23.6608 27.5427 24.3751 28.2856 24.3751 29.1713V30.3713C24.3751 31.2856 23.6323 31.9999 22.7466 31.9999C21.8323 31.9999 21.118 31.257 21.118 30.3713V29.1713C21.0894 28.257 21.8323 27.5427 22.7466 27.5427Z" fill="#D2D6E7"/>
</g>
<defs>
<clipPath id="clip0_4668_94698">
<rect width="172" height="32" fill="white" transform="translate(0.375)"/>
</clipPath>
</defs>
</svg>
