<svg width="114" height="32" viewBox="0 0 114 32" fill="none" xmlns="http://www.w3.org/2000/svg">
<g id="NASDAQ_Logo 1" clip-path="url(#clip0_4634_93180)">
<g id="Group">
<path id="Vector" d="M83.9723 24.2386C80.1228 24.2386 77.7308 22.0088 77.7308 18.4146C77.7308 14.6845 79.9381 12.3637 83.4923 12.3637H83.7905C84.2363 12.3637 84.8501 12.3783 85.6886 12.483V7.98047H88.1992V23.8328C88.1992 23.8328 85.8137 24.2386 83.9723 24.2386ZM83.9497 14.3405C81.5177 14.3405 80.3352 15.6532 80.3352 18.3521C80.3352 20.7754 81.7621 22.2816 84.0545 22.2816C84.4952 22.2816 84.9999 22.2525 85.6879 22.1936V14.5019C85.0006 14.3914 84.4465 14.3405 83.9497 14.3405ZM49.5832 23.875L42.8014 12.0401L42.7992 23.875H40.4355V8.89247H43.7446L50.5265 20.6219L50.5235 8.89247H52.9185V23.875H49.5832ZM71.1854 24.1056C70.0435 24.1056 68.853 23.9776 67.4355 23.7048L67.2821 23.6757V21.5827L67.5061 21.6307C68.7563 21.8976 69.8355 22.1252 70.9155 22.1252C71.7875 22.1252 73.8188 21.9885 73.8188 20.7048C73.8188 19.6285 72.4152 19.3579 71.2879 19.1419L71.2166 19.1274C71.0057 19.0881 70.8072 19.0481 70.6399 19.0059C68.9861 18.5768 67.2217 17.9317 67.2217 15.7157C67.2217 13.5543 68.9323 12.3157 71.9155 12.3157C73.3475 12.3157 74.3868 12.4685 75.2225 12.5936L75.6283 12.6532V14.6845L75.4123 14.6452C74.4668 14.4714 73.3585 14.2925 72.293 14.2925C71.1083 14.2925 69.7025 14.5143 69.7025 15.5681C69.7025 16.443 70.853 16.6932 72.1854 16.9834C74.0486 17.3863 76.3585 17.8925 76.3585 20.435C76.3585 22.7674 74.4748 24.1056 71.1854 24.1056ZM95.2472 24.1056C92.6486 24.1056 90.2421 23.6474 90.2421 20.3296C90.2421 16.7186 93.9635 16.7187 96.1883 16.7187C96.4094 16.7187 97.4552 16.7674 97.7759 16.7812C97.773 14.7557 97.7475 14.2728 94.8101 14.2728C93.6457 14.2728 92.3526 14.5027 91.2108 14.7077L90.9926 14.747V12.747L91.1395 12.7157C92.4632 12.4467 93.7396 12.3157 95.0406 12.3157C97.8872 12.3157 100.299 12.6023 100.299 16.1339V23.8357L100.126 23.8554C98.1541 24.0765 96.5883 24.1056 95.2472 24.1056ZM96.1257 18.5056C93.9803 18.5056 92.6508 18.8212 92.6508 20.3921C92.6508 22.2103 94.3468 22.3608 95.9381 22.3608C96.5315 22.3608 97.5999 22.2845 97.9264 22.2612V18.5681C97.4668 18.5485 96.2705 18.5056 96.1257 18.5056ZM60.0203 24.1056C57.4181 24.1056 55.0123 23.6474 55.0123 20.3296C55.0123 16.7186 58.7337 16.7187 60.9577 16.7187C61.1795 16.7187 62.2275 16.7674 62.549 16.7812C62.5461 14.7557 62.5177 14.2728 59.5803 14.2728C58.4152 14.2728 57.1221 14.5027 55.9803 14.7077L55.7621 14.747V12.747L55.9126 12.7157C57.1951 12.4506 58.5012 12.3165 59.8108 12.3157C62.6566 12.3157 65.069 12.6023 65.069 16.1339V23.8357L64.8952 23.8554C62.9243 24.0765 61.3585 24.1056 60.0203 24.1056ZM60.8952 18.5056C58.7505 18.5056 57.4239 18.8212 57.4239 20.3921C57.4239 22.2103 59.117 22.3608 60.7083 22.3608C61.3046 22.3608 62.373 22.2845 62.6995 22.2612V18.5681C62.2363 18.5485 61.0399 18.5056 60.8952 18.5056Z" fill="#D2D6E7"/>
<g id="Group_2">
<g id="Mask group">
<mask id="mask0_4634_93180" style="mask-type:luminance" maskUnits="userSpaceOnUse" x="101" y="11" width="12" height="19">
<g id="Group_3">
<path id="Vector_2" d="M101.938 11.6365H112.866V29.091H101.938V11.6365Z" fill="#231F20"/>
</g>
</mask>
<g mask="url(#mask0_4634_93180)">
<path id="Vector_3" d="M110.295 28.9659V24.051C109.315 24.1877 108.795 24.1877 108.375 24.1877C107.38 24.1877 106.275 23.9717 105.42 23.611C103.505 22.8146 102.363 20.7928 102.363 18.1986C102.363 16.9041 102.679 14.5368 104.789 13.2612C105.849 12.6285 107.099 12.3579 108.98 12.3579C109.653 12.3579 110.562 12.4088 111.44 12.4597L112.866 12.5339V27.827L110.295 28.9659ZM108.792 14.3354C106.241 14.3346 104.948 15.6365 104.948 18.1986C104.948 21.4975 106.877 22.1906 108.499 22.1906C108.893 22.1906 109.337 22.1906 110.32 22.0655V14.4066C109.55 14.3557 109.195 14.3354 108.792 14.3354Z" fill="#D2D6E7"/>
</g>
</g>
</g>
<g id="Group_4">
<g id="Mask group_2">
<mask id="mask1_4634_93180" style="mask-type:luminance" maskUnits="userSpaceOnUse" x="19" y="0" width="20" height="24">
<g id="Group_5">
<path id="Vector_4" d="M19.0273 0.0117188H38.6637V24.0001H19.0273V0.0117188Z" fill="#0996C7"/>
</g>
</mask>
<g mask="url(#mask1_4634_93180)">
<path id="Vector_5" d="M29.2174 0.0117188L20.9134 22.8263C20.8107 23.1072 20.631 23.3535 20.3949 23.537C20.1587 23.7206 19.8757 23.8339 19.5781 23.8641V23.875H28.3563C29.0436 23.875 29.6319 23.4379 29.8509 22.827L38.1578 0.0117188H29.2174Z" fill="#D2D6E7"/>
</g>
</g>
</g>
<path id="Vector_6" d="M18.8635 23.5287C19.3726 23.5287 19.8185 23.2757 20.0912 22.8924C20.1195 22.8524 20.2192 22.7127 20.2897 22.5229L23.3355 14.1506L21.5537 9.26111C21.4499 9.01352 21.2818 8.79818 21.0668 8.63741C20.8518 8.47665 20.5977 8.3763 20.3309 8.34678C20.064 8.31725 19.7942 8.35962 19.5492 8.46949C19.3042 8.57936 19.0931 8.75274 18.9377 8.97166C18.9086 9.01166 18.7901 9.18984 18.7392 9.34111L15.6934 17.7106L17.4832 22.6197C17.5993 22.8895 17.7919 23.1194 18.0372 23.2809C18.2825 23.4425 18.5698 23.5287 18.8635 23.5287Z" fill="#D2D6E7"/>
<g id="Group_6">
<g id="Mask group_3">
<mask id="mask2_4634_93180" style="mask-type:luminance" maskUnits="userSpaceOnUse" x="0" y="7" width="20" height="25">
<g id="Group_7">
<path id="Vector_7" d="M0.119141 7.27271H19.7555V31.8523H0.119141V7.27271Z" fill="#0996C7"/>
</g>
</mask>
<g mask="url(#mask2_4634_93180)">
<path id="Vector_8" d="M19.5143 7.98828H10.6393C9.95207 7.98828 9.36371 8.42319 9.14189 9.03701L0.837891 31.8516H9.77825L18.083 9.03774C18.1907 8.74093 18.3844 8.4829 18.6393 8.29653C18.8942 8.11015 19.1987 8.00386 19.5143 7.99119V7.98828Z" fill="#D2D6E7"/>
</g>
</g>
</g>
</g>
</g>
<defs>
<clipPath id="clip0_4634_93180">
<rect width="112.727" height="32" fill="white" transform="translate(0.845703)"/>
</clipPath>
</defs>
</svg>
