<svg width="82" height="32" viewBox="0 0 82 32" fill="none" xmlns="http://www.w3.org/2000/svg">
<g id="ripple-ar21 1" clip-path="url(#clip0_4634_93201)">
<path id="Vector" d="M42.2086 13.829C42.0461 13.7751 41.7016 13.7389 41.3665 13.7389C40.3349 13.7389 39.2309 14.5743 39.2309 15.6058V20.5237H36.8789V11.7473H39.1416V12.634C39.6663 11.9823 40.6254 11.5663 41.6932 11.5663C41.9602 11.5679 42.2263 11.5915 42.4899 11.6387L42.2086 13.829ZM44.868 7.13257C45.7101 7.13257 46.4065 7.78436 46.4065 8.63488C46.4065 9.48541 45.7185 10.1364 44.868 10.1364C44.0174 10.1364 43.3294 9.48457 43.3294 8.63488C43.3294 7.7852 44.0174 7.13257 44.868 7.13257ZM46.0444 20.522H43.6924V11.7473H46.0444V20.5237V20.522ZM52.9943 11.5663C52.0607 11.5545 51.1523 11.8684 50.425 12.4538V11.7465H48.1513V24.8665H50.5042V19.909C51.1731 20.438 52.0043 20.7194 52.857 20.7056C54.1597 20.7056 55.4086 20.1263 56.1867 19.221C56.8747 18.4244 57.2814 17.3397 57.2814 16.1448C57.2814 13.557 55.3631 11.5663 52.9757 11.5663H52.9943ZM52.708 18.5692C51.2469 18.5692 50.2861 17.5612 50.2861 16.1524C50.2861 14.7435 51.2461 13.7355 52.708 13.7355C53.9543 13.7355 54.9665 14.8176 54.9665 16.1524C54.9665 17.4871 53.956 18.5692 52.708 18.5692ZM71.577 20.5229H69.2242V7.67657H71.577V20.5246V20.5229ZM81.1686 19.1309C80.3265 20.1439 78.9244 20.7056 77.5677 20.7056C74.9437 20.7056 72.9715 18.8951 72.9715 16.1456C72.9715 13.7035 74.6364 11.5671 77.241 11.5671C79.6663 11.5671 81.3842 13.6117 81.3842 16.0555C81.3859 16.2795 81.3673 16.5035 81.3294 16.725H75.2494C75.3758 17.9545 76.3711 18.805 77.62 18.805C78.6153 18.805 79.4111 18.2441 79.828 17.7919L81.1686 19.1309ZM78.9791 15.0046C78.9271 14.5803 78.7218 14.1897 78.4018 13.9063C78.0818 13.623 77.6693 13.4664 77.2419 13.466C76.265 13.466 75.4684 14.2071 75.3597 15.0046H78.9791ZM63.5265 11.5663C62.5929 11.5545 61.6845 11.8684 60.9572 12.4538V11.7465H58.6945V24.8665H61.0473V19.909C61.7163 20.438 62.5475 20.7194 63.4002 20.7056C64.7029 20.7056 65.9517 20.1263 66.7299 19.221C67.4179 18.4244 67.8246 17.3397 67.8246 16.1448C67.8246 13.557 65.9063 11.5663 63.5189 11.5663H63.5265ZM63.2402 18.5692C61.7791 18.5692 60.8183 17.5612 60.8183 16.1524C60.8183 14.7435 61.7783 13.7355 63.2402 13.7355C64.4865 13.7355 65.4987 14.8176 65.4987 16.1524C65.4987 17.4871 64.4882 18.5692 63.2402 18.5692Z" fill="#D2D6E7"/>
<path id="Vector_2" d="M25.9196 19.4141C24.8242 18.7822 23.5923 18.6006 22.3706 18.557C21.3464 18.5207 19.8166 17.864 19.8166 16.0002C19.8166 14.6113 20.9425 13.4942 22.3706 13.4433C23.5909 13.3998 24.8257 13.2167 25.9196 12.5862C28.6362 11.0173 29.8377 7.72244 28.7641 4.77337C27.6905 1.8243 24.6528 0.0708372 21.5628 0.615616C18.4729 1.16039 16.2167 3.84652 16.2167 6.98589C16.2167 8.23961 16.6627 9.39164 17.2308 10.4623C17.7102 11.363 17.9513 13.0308 16.3112 13.978C15.0909 14.6825 13.5684 14.2365 12.8071 13.0191C12.165 11.9906 11.3893 11.0289 10.3026 10.3998C7.58599 8.83088 4.13137 9.44103 2.11496 11.8439C0.0985504 14.2467 0.0956449 17.7536 2.11496 20.1579C4.13427 22.5622 7.58454 23.1709 10.3026 21.6019C11.3878 20.9744 12.1621 20.0126 12.8057 18.9841C13.333 18.1415 14.6507 17.0665 16.3097 18.0253C17.53 18.7299 17.9048 20.2712 17.2293 21.5409C16.6627 22.6102 16.2153 23.7636 16.2153 25.0159C16.2153 28.1538 18.467 30.8414 21.5614 31.3847C24.6557 31.9281 27.6891 30.1789 28.7626 27.227C29.8362 24.275 28.6377 20.9831 25.9196 19.4141Z" fill="#D2D6E7"/>
</g>
<defs>
<clipPath id="clip0_4634_93201">
<rect width="80.8421" height="32" fill="white" transform="translate(0.572266)"/>
</clipPath>
</defs>
</svg>
