<svg width="81" height="32" viewBox="0 0 81 32" fill="none" xmlns="http://www.w3.org/2000/svg">
<g id="Wired_logo 1" clip-path="url(#clip0_4668_94666)">
<path id="Vector" d="M68.2135 9.52004V20.56H73.6535C75.1735 20.56 76.0535 20.32 76.6935 19.76C77.4935 19.04 77.8935 17.76 77.8935 15.04C77.8935 12.32 77.4935 11.04 76.6935 10.32C76.0535 9.76004 75.1735 9.52004 73.6535 9.52004H68.2135ZM75.6535 15.04C75.6535 17.44 75.4935 18 75.0135 18.32C74.6935 18.56 74.2935 18.64 73.4935 18.64H70.4535V11.36H73.4935C74.2935 11.36 74.6935 11.36 75.0135 11.68C75.4935 12.08 75.6535 12.64 75.6535 15.04ZM80.6935 23.0004H64.7332V7.04004H80.6935V23.0004ZM51.6938 11.36V9.52004H61.1338V13.04H59.1332V11.36H55.2932V14H58.3332V15.76H55.2932V18.72H59.2138V16.8H61.2132V20.56H51.6945V18.72H53.2138V11.36H51.6938ZM43.1338 17.68C43.1338 18.88 43.2132 19.76 43.3732 20.48H45.5338C45.4532 19.92 45.3738 18.88 45.3738 17.52C45.2932 15.92 44.8132 15.68 43.6932 15.44C44.9732 15.2 45.5338 14.64 45.5338 12.64C45.5338 11.04 45.2932 10.4 44.8132 10C44.4932 9.68004 43.9338 9.52004 43.0532 9.52004H36.3332V20.56H38.5732V16.24H41.6938C42.3338 16.24 42.5732 16.32 42.8138 16.48C43.0545 16.64 43.1338 16.88 43.1338 17.68ZM38.5732 14.48V11.44H42.1738C42.6538 11.44 42.8138 11.52 42.8932 11.6C43.0532 11.76 43.2132 12 43.2132 12.96C43.2132 13.92 43.0532 14.24 42.8932 14.4C42.8138 14.48 42.6538 14.56 42.1738 14.56L38.5732 14.48ZM48.7338 23.0004H32.7338V7.04004H48.6935V23.0004H48.7338ZM28.5738 18.72V20.56H20.9732V18.72H23.6932V11.36H20.9732V9.52004H28.5732V11.36H25.8532V18.72H28.5738ZM15.7335 9.52004H13.6535L12.1335 18.24L10.3735 10.16C10.2935 9.60004 10.0535 9.52004 9.57352 9.52004H8.45352C7.97352 9.52004 7.73352 9.68004 7.65352 10.16L5.89352 18.24L4.37352 9.52004H2.13352L4.29352 20C4.37352 20.48 4.53352 20.56 5.09352 20.56H6.61352C7.09352 20.56 7.25352 20.48 7.41352 20L9.09352 12.4L10.7735 20C10.8535 20.48 11.0135 20.56 11.5735 20.56H13.0135C13.4935 20.56 13.7335 20.48 13.8135 20L15.7335 9.52004ZM16.8535 23.0004H0.853516V7.04004H16.8138V23.0004H16.8535Z" fill="#D2D6E7"/>
</g>
<defs>
<clipPath id="clip0_4668_94666">
<rect width="80" height="32" fill="white" transform="translate(0.773438)"/>
</clipPath>
</defs>
</svg>
