<svg width="81" height="32" viewBox="0 0 81 32" fill="none" xmlns="http://www.w3.org/2000/svg">
<g id="Wired_logo 1" clip-path="url(#clip0_4634_93199)">
<path id="Vector" d="M68.0123 9.52004V20.56H73.4523C74.9723 20.56 75.8523 20.32 76.4923 19.76C77.2923 19.04 77.6923 17.76 77.6923 15.04C77.6923 12.32 77.2923 11.04 76.4923 10.32C75.8523 9.76004 74.9723 9.52004 73.4523 9.52004H68.0123ZM75.4523 15.04C75.4523 17.44 75.2923 18 74.8123 18.32C74.4923 18.56 74.0923 18.64 73.2923 18.64H70.2523V11.36H73.2923C74.0923 11.36 74.4923 11.36 74.8123 11.68C75.2923 12.08 75.4523 12.64 75.4523 15.04ZM80.4923 23.0004H64.532V7.04004H80.4923V23.0004ZM51.4927 11.36V9.52004H60.9327V13.04H58.932V11.36H55.092V14H58.132V15.76H55.092V18.72H59.0127V16.8H61.012V20.56H51.4933V18.72H53.0127V11.36H51.4927ZM42.9327 17.68C42.9327 18.88 43.012 19.76 43.172 20.48H45.3327C45.252 19.92 45.1727 18.88 45.1727 17.52C45.092 15.92 44.612 15.68 43.492 15.44C44.772 15.2 45.3327 14.64 45.3327 12.64C45.3327 11.04 45.092 10.4 44.612 10C44.292 9.68004 43.7327 9.52004 42.852 9.52004H36.132V20.56H38.372V16.24H41.4927C42.1327 16.24 42.372 16.32 42.6127 16.48C42.8533 16.64 42.9327 16.88 42.9327 17.68ZM38.372 14.48V11.44H41.9727C42.4527 11.44 42.6127 11.52 42.692 11.6C42.852 11.76 43.012 12 43.012 12.96C43.012 13.92 42.852 14.24 42.692 14.4C42.6127 14.48 42.4527 14.56 41.9727 14.56L38.372 14.48ZM48.5327 23.0004H32.5327V7.04004H48.4923V23.0004H48.5327ZM28.3727 18.72V20.56H20.772V18.72H23.492V11.36H20.772V9.52004H28.372V11.36H25.652V18.72H28.3727ZM15.5323 9.52004H13.4523L11.9323 18.24L10.1723 10.16C10.0923 9.60004 9.85234 9.52004 9.37234 9.52004H8.25234C7.77234 9.52004 7.53234 9.68004 7.45234 10.16L5.69234 18.24L4.17234 9.52004H1.93234L4.09234 20C4.17234 20.48 4.33234 20.56 4.89234 20.56H6.41234C6.89234 20.56 7.05234 20.48 7.21234 20L8.89234 12.4L10.5723 20C10.6523 20.48 10.8123 20.56 11.3723 20.56H12.8123C13.2923 20.56 13.5323 20.48 13.6123 20L15.5323 9.52004ZM16.6523 23.0004H0.652344V7.04004H16.6127V23.0004H16.6523Z" fill="#D2D6E7"/>
</g>
<defs>
<clipPath id="clip0_4634_93199">
<rect width="80" height="32" fill="white" transform="translate(0.572266)"/>
</clipPath>
</defs>
</svg>
