<svg width="46" height="41" viewBox="0 0 46 41" fill="none" xmlns="http://www.w3.org/2000/svg">
<path d="M2.4966 10.751C4.45594 7.16851 7.32113 5.55924 10.0103 4.04816C11.6386 3.13328 16.2377 0.625005 22.358 0.873128C31.046 1.22591 39.3357 6.9933 43.1651 15.102C44.3168 17.5403 46.5699 22.3117 44.899 26.2734C43.5014 29.5872 39.775 31.3446 35.4412 33.3878C33.3253 34.3856 32.0433 34.7149 29.2937 36.2689C26.5236 37.8346 25.8106 38.6384 24.5122 39.3851C20.3419 41.7828 14.4444 41.1073 10.0103 38.3856C3.65098 34.482 1.96329 27.3888 1.44574 25.215C0.902439 22.9314 -0.634449 16.4755 2.4966 10.751Z" fill="#14C393"/>
</svg>
