<svg width="50" height="44" viewBox="0 0 50 44" fill="none" xmlns="http://www.w3.org/2000/svg">
<path d="M47.8022 32.466C45.721 36.4212 42.5935 38.2543 39.6583 39.9756C37.8809 41.0177 32.8592 43.8788 26.0934 43.7828C16.489 43.6461 7.19917 37.6045 2.78174 28.8875C1.45312 26.2663 -1.14595 21.137 0.607834 16.7772C2.07484 13.1306 6.15003 11.1116 10.8895 8.76436C13.2035 7.6181 14.6119 7.22323 17.613 5.45352C20.6363 3.67043 21.4053 2.77529 22.822 1.92557C27.3728 -0.80294 33.9024 -0.235432 38.863 2.60084C45.9775 6.66869 48.0059 14.3414 48.6279 16.6926C49.2809 19.1629 51.1279 26.1461 47.8022 32.466Z" fill="#FFCB47"/>
</svg>
