<svg width="104" height="20" viewBox="0 0 104 20" fill="none" xmlns="http://www.w3.org/2000/svg">
<path d="M45.7225 1.50441C45.7225 1.0586 45.8484 0.696673 46.1007 0.417849C46.3532 0.139024 46.6853 0 47.0963 0C47.5073 0 47.848 0.135141 48.1192 0.403869C48.3896 0.673373 48.5255 1.03996 48.5255 1.50441C48.5255 1.95022 48.3896 2.29817 48.1192 2.54903C47.848 2.7999 47.5073 2.92494 47.0963 2.92494C46.6853 2.92494 46.3539 2.79524 46.1015 2.53505C45.8491 2.27487 45.7225 1.93158 45.7225 1.50441Z" fill="#F8F9FF"/>
<path d="M48.1051 5.73804V19.6661H46.0875V5.73804H48.1051Z" fill="#F8F9FF"/>
<path d="M38.3524 5.73802H36.6427V7.54844H38.3524V16.1283C38.3524 17.4844 38.5533 18.4638 38.9549 19.0672C39.3566 19.6707 40.0239 19.9728 40.9585 19.9728C41.5 19.9728 42.0181 19.9123 42.5135 19.7919C43.009 19.6707 43.4622 19.5084 43.8732 19.3041L43.4809 17.7166C43.1629 17.8463 42.8683 17.9527 42.5979 18.0366C42.3268 18.1197 42.0048 18.1616 41.6313 18.1616C41.1835 18.1616 40.8608 17.9807 40.6647 17.6187C40.4685 17.2568 40.3701 16.6673 40.3701 15.8503V7.54922H43.3965V5.7388H40.3701V2.34009L38.3524 2.98084V5.73802Z" fill="#F8F9FF"/>
<path d="M4.83355 17.3818C5.20707 17.6047 5.65092 17.795 6.1651 17.9527C6.6785 18.1104 7.20674 18.1896 7.74827 18.1896C8.36482 18.1896 8.8876 18.0358 9.31738 17.7275C9.74717 17.4191 9.96206 16.9197 9.96206 16.2285C9.96206 15.6499 9.83078 15.1738 9.56979 14.8002C9.30801 14.4266 8.97668 14.0903 8.57503 13.7913C8.17337 13.493 7.7389 13.2181 7.2716 12.968C6.80431 12.7179 6.36983 12.4181 5.96818 12.0663C5.56653 11.7145 5.23442 11.2982 4.97342 10.8174C4.71164 10.3359 4.58114 9.72541 4.58114 8.98524C4.58114 7.80082 4.90309 6.90842 5.54777 6.3065C6.19245 5.70458 7.1036 5.40401 8.28043 5.40401C9.04623 5.40401 9.70966 5.47391 10.2699 5.61294C10.8302 5.75196 11.3163 5.94302 11.7273 6.18379L11.1952 7.85519C10.8404 7.66956 10.4286 7.51656 9.96206 7.3954C9.49477 7.27501 9.0181 7.21443 8.53283 7.21443C7.86002 7.21443 7.37006 7.35346 7.0614 7.63228C6.75273 7.91111 6.59879 8.3476 6.59879 8.94175C6.59879 9.4062 6.72929 9.80075 6.99107 10.1254C7.25285 10.4508 7.58417 10.7475 7.98583 11.017C8.38748 11.2865 8.82196 11.5599 9.28925 11.8387C9.75577 12.1176 10.1902 12.4469 10.5927 12.8274C10.9943 13.208 11.3257 13.6631 11.5874 14.192C11.8492 14.721 11.9797 15.3858 11.9797 16.1834C11.9797 16.7038 11.8953 17.1954 11.7273 17.6599C11.5593 18.1243 11.3022 18.5282 10.9568 18.8715C10.6106 19.2156 10.1816 19.4889 9.66746 19.6932C9.15328 19.8975 8.5508 20 7.86002 20C7.03796 20 6.32764 19.9208 5.72984 19.7631C5.13205 19.6054 4.62725 19.3965 4.21622 19.1363L4.83355 17.3818Z" fill="#F8F9FF"/>
<path d="M0 13.0636C0 12.5918 0.126196 12.2379 0.379373 12.0017C0.63255 11.7654 0.974299 11.6477 1.40541 11.6477C1.83651 11.6477 2.17826 11.7662 2.43144 12.0017C2.68461 12.2379 2.81081 12.5918 2.81081 13.0636C2.81081 13.5529 2.68461 13.9154 2.43144 14.1509C2.17826 14.3864 1.83651 14.5048 1.40541 14.5048C0.974299 14.5048 0.63255 14.3864 0.379373 14.1509C0.126196 13.9154 0 13.5529 0 13.0636Z" fill="#F8F9FF"/>
<path fill-rule="evenodd" clip-rule="evenodd" d="M16.3672 5.79396C15.5912 5.97959 14.9325 6.23977 14.391 6.57374L15.0583 8.15893C15.4662 7.91816 15.9749 7.71778 16.586 7.56011C17.1971 7.40245 17.7612 7.32323 18.2801 7.32323C19.1123 7.32323 19.6867 7.53681 20.0016 7.96398C20.3157 8.39115 20.4736 9.13365 20.4736 10.1922C20.4736 10.6381 20.4462 11.1491 20.3907 11.7246C20.186 11.706 19.9914 11.6967 19.8062 11.6967H19.2506C18.4169 11.6967 17.6612 11.7666 16.9853 11.9056C16.3086 12.0454 15.7248 12.2823 15.2341 12.6162C14.7426 12.951 14.3628 13.3875 14.094 13.9257C13.8244 14.4639 13.6908 15.1326 13.6908 15.9311C13.6908 17.1566 14.0104 18.1174 14.6504 18.8141C15.2904 19.5107 16.1109 19.8587 17.1127 19.8587C18.0215 19.8587 18.7451 19.6824 19.2827 19.3298C19.8203 18.9772 20.2282 18.5593 20.5064 18.0762H20.6173L21.1073 19.7197H22.6873C22.5561 19.1807 22.467 18.6098 22.4185 18.0063C22.3701 17.4036 22.3466 16.7489 22.3466 16.0429C22.3466 15.0961 22.3701 14.0935 22.4185 13.0349C22.4662 11.9763 22.4904 10.8905 22.4904 9.77595C22.4904 9.21908 22.449 8.68551 22.3646 8.17446C22.281 7.66419 22.1028 7.20906 21.8325 6.80985C21.5613 6.41142 21.1878 6.09531 20.7111 5.86309C20.2345 5.63164 19.6038 5.51514 18.8193 5.51514C17.9597 5.51514 17.1423 5.60834 16.3672 5.79396ZM19.8625 13.2733C20.0477 13.2826 20.2313 13.2966 20.4165 13.3152H20.4157V16.2674C20.2493 16.7132 19.9547 17.1217 19.5296 17.4929C19.1053 17.8642 18.5052 18.0498 17.73 18.0498C17.158 18.0498 16.6922 17.8456 16.332 17.437C15.9718 17.0285 15.792 16.453 15.792 15.7097C15.792 15.2274 15.8889 14.8282 16.0827 14.5121C16.2765 14.1968 16.5399 13.9459 16.872 13.7603C17.2041 13.5746 17.5823 13.4449 18.0074 13.3704C18.4325 13.2966 18.8662 13.2593 19.3092 13.2593C19.4937 13.2593 19.6781 13.264 19.8625 13.2733Z" fill="#F8F9FF"/>
<path d="M32.9149 19.666V11.17C32.9149 9.77744 32.7508 8.7701 32.4241 8.14799C32.0967 7.52588 31.513 7.21521 30.6722 7.21521C29.9244 7.21521 29.3078 7.43811 28.8226 7.88392C28.3365 8.32973 27.9818 8.87728 27.7575 9.52735V19.6668H25.7399V5.73798H27.1972L27.5614 7.21443H27.6458C28.0005 6.7127 28.4819 6.28631 29.089 5.93292C29.6962 5.58032 30.4206 5.40401 31.2614 5.40401C31.8592 5.40401 32.3866 5.48789 32.8445 5.65488C33.3025 5.82186 33.6853 6.10534 33.994 6.50455C34.3019 6.90376 34.5355 7.43733 34.6949 8.10605C34.8536 8.77476 34.9333 9.61978 34.9333 10.6411V19.666H32.9149Z" fill="#F8F9FF"/>
<path d="M58.3907 11.393V19.6653H60.4083V9.63772C60.5764 8.89522 60.871 8.30573 61.2914 7.86924C61.7118 7.43275 62.2767 7.21451 62.9871 7.21451C63.8279 7.21451 64.3647 7.51197 64.5984 8.10613C64.8312 8.70106 64.9484 9.60122 64.9484 10.8082V19.6653H66.9661V10.5565C66.9661 9.55384 66.9004 8.7228 66.77 8.06341C66.6395 7.40479 66.4378 6.8751 66.1675 6.4759C65.8963 6.07669 65.5415 5.79786 65.1024 5.6402C64.6632 5.48253 64.1358 5.40331 63.5192 5.40331C62.7714 5.40331 62.0853 5.58894 61.4594 5.96019C60.8334 6.33221 60.3521 6.84248 60.0161 7.49256C59.7543 6.71278 59.3948 6.16911 58.9369 5.8631C58.4782 5.55632 57.8945 5.40331 57.185 5.40331C56.3441 5.40331 55.6526 5.57107 55.111 5.90504C54.5695 6.23979 54.1022 6.67628 53.7099 7.21451H53.6256L53.2614 5.73806H51.8322V19.6653H53.8498V9.63772C54.0186 9.00629 54.3218 8.44475 54.761 7.95235C55.1993 7.46071 55.737 7.21451 56.3723 7.21451C56.8021 7.21451 57.1474 7.29373 57.4092 7.45139C57.671 7.60906 57.8757 7.85526 58.0258 8.18923C58.175 8.52398 58.2735 8.9558 58.3204 9.48472C58.3673 10.0144 58.3907 10.6505 58.3907 11.393Z" fill="#F8F9FF"/>
<path fill-rule="evenodd" clip-rule="evenodd" d="M78.4565 18.7185C78.008 19.1271 77.4375 19.4432 76.7468 19.6653C76.0552 19.8882 75.3269 19.9993 74.5611 19.9993C73.6828 19.9993 72.9217 19.8276 72.277 19.4843C71.6323 19.1411 71.1002 18.6487 70.6798 18.0079C70.2593 17.3671 69.9515 16.6013 69.7553 15.7097C69.5592 14.8181 69.4607 13.8154 69.4607 12.7017C69.4607 10.3251 69.8999 8.51388 70.7782 7.26965C71.6565 6.02543 72.8982 5.40331 74.5056 5.40331C75.0284 5.40331 75.5473 5.46855 76.0614 5.59826C76.5749 5.72874 77.0375 5.98815 77.4485 6.37804C77.8595 6.76792 78.1908 7.31625 78.4432 8.02147C78.6956 8.72746 78.8214 9.64704 78.8214 10.7794C78.8214 11.0955 78.8074 11.4342 78.7793 11.7961C78.7511 12.158 78.7183 12.5339 78.6816 12.9246H71.5628C71.5628 13.723 71.6276 14.4476 71.7589 15.0977C71.8894 15.7478 72.0949 16.3 72.3755 16.7551C72.656 17.2103 73.0154 17.5629 73.4546 17.8137C73.8938 18.0646 74.44 18.1896 75.094 18.1896C75.5988 18.1896 76.0982 18.0972 76.5936 17.9108C77.0882 17.7252 77.4665 17.5023 77.729 17.2421L78.4565 18.7185ZM76.8874 11.254C76.9249 9.8614 76.7288 8.84008 76.299 8.19001C75.8692 7.53993 75.28 7.21529 74.5338 7.21529C73.6742 7.21529 72.992 7.54071 72.488 8.19001C71.9832 8.84008 71.6847 9.8614 71.5909 11.254H76.8874Z" fill="#F8F9FF"/>
<path d="M88.8262 11.17V19.666H90.8431V10.6411C90.8431 9.61978 90.7633 8.77476 90.6047 8.10605C90.4453 7.43733 90.2124 6.90376 89.9038 6.50455C89.5959 6.10534 89.213 5.82186 88.7551 5.65488C88.2972 5.48789 87.7697 5.40401 87.1719 5.40401C86.3319 5.40401 85.6075 5.58032 85.0003 5.93292C84.3932 6.28631 83.9118 6.7127 83.557 7.21443H83.4726L83.1085 5.73798H81.6511V19.6668H83.6688V9.52735C83.893 8.87728 84.2478 8.32973 84.7338 7.88392C85.2191 7.43811 85.8357 7.21521 86.5835 7.21521C87.4243 7.21521 88.008 7.52588 88.3355 8.14799C88.6621 8.7701 88.8262 9.77744 88.8262 11.17Z" fill="#F8F9FF"/>
<path d="M92.5532 5.73802H94.263V2.98084L96.2806 2.34009V5.7388H99.3071V7.54922H96.2806V15.8503C96.2806 16.6673 96.3783 17.2568 96.5752 17.6187C96.7714 17.9807 97.0933 18.1616 97.5419 18.1616C97.9154 18.1616 98.2373 18.1197 98.5085 18.0366C98.7789 17.9527 99.0735 17.8463 99.3915 17.7166L99.7838 19.3041C99.3727 19.5084 98.9195 19.6707 98.4249 19.7919C97.9295 19.9123 97.4114 19.9728 96.869 19.9728C95.9345 19.9728 95.2671 19.6707 94.8655 19.0672C94.4638 18.4638 94.263 17.4844 94.263 16.1283V7.54844H92.5532V5.73802Z" fill="#F8F9FF"/>
<path d="M101.569 11.7825C101.315 12.0188 101.189 12.3727 101.189 12.8445C101.189 13.3338 101.315 13.6962 101.569 13.9318C101.822 14.1673 102.163 14.2857 102.595 14.2857C103.026 14.2857 103.367 14.1673 103.621 13.9318C103.874 13.6962 104 13.3338 104 12.8445C104 12.3727 103.874 12.0188 103.621 11.7825C103.367 11.547 103.026 11.4286 102.595 11.4286C102.163 11.4286 101.822 11.5463 101.569 11.7825Z" fill="#F8F9FF"/>
</svg>
