<svg width="50" height="50" viewBox="0 0 50 50" fill="none" xmlns="http://www.w3.org/2000/svg">
  <g id="Illust / LP lamp ">
    <path id="Back"
      d="M7.99057 10.2442C15.2276 3.4327 27.1493 1.2163 37.6853 4.48608C58.3955 10.9133 50.423 43.0867 32.6457 47.4183C23.9814 49.5293 16.0869 45.3126 13.6674 44.0207C-1.49848 35.9198 -4.98203 19.9526 7.99057 10.2442Z"
      fill="#181B2B" />
    <path id="Vector"
      d="M38.7642 34.5781C38.9824 34.4451 39.0601 34.1737 38.951 33.9491C37.1024 30.1442 36.9835 25.792 37.288 22.5151C37.6031 19.1245 38.2401 15.6039 36.883 12.4013C32.8605 2.91213 20.4333 -1.23962 12 4.8848C9.56331 6.52304 7.80028 8.82478 6.61384 11.184C3.64096 17.0954 4.70681 24.5449 10.3821 29.8986C12.511 31.9078 15.3678 32.847 18.0509 33.9823C20.9762 35.2194 24.8647 37.3706 27.6887 40.8142C27.8479 41.0083 28.1329 41.0586 28.351 40.9256L38.7642 34.5781Z"
      fill="#8AFFCE" />
    <path id="Rectangle 3616"
      d="M30.0932 42.8225C29.9053 42.4841 30.0105 42.0471 30.3282 41.8466L38.2864 37.268C38.6041 37.0675 39 36.6755 39.2019 37.5177L42.9068 43.3458C43.0947 43.6842 42.9895 44.1212 42.6718 44.3217L34.7123 48.9004C34.3945 49.1009 33.9846 48.9891 33.7967 48.6507L30.0932 42.8225Z"
      fill="#14C393" />
    <g id="Union">
      <path fill-rule="evenodd" clip-rule="evenodd"
        d="M11.3349 3.73714C19.9522 -2.16321 33.1102 1.95935 37.071 11.4754C37.7902 13.2039 37.9744 15.0033 37.9446 16.79C37.9229 18.0869 37.7866 19.4058 37.6538 20.6902C37.605 21.1622 37.5566 21.63 37.5146 22.0899C37.2111 25.4167 37.3368 29.7823 39.1455 33.5735C39.361 34.0254 39.2081 34.5741 38.7749 34.843L28.2784 41.3593C27.8485 41.6262 27.2906 41.525 26.9782 41.1369C24.2017 37.6888 20.3629 35.5197 17.4492 34.2647C17.0212 34.0803 16.5839 33.8993 16.1423 33.7166C13.852 32.7689 11.4424 31.7718 9.57474 29.9766C3.70478 24.3371 2.58421 16.4609 5.67726 10.1972C6.91051 7.69968 8.8107 5.46552 11.3349 3.73714ZM38.2645 34.0156L28.1907 40.2694C28.5185 36.3737 25.8391 30.0102 23.1382 23.5955C21.3976 19.4617 19.6481 15.3067 18.6887 11.7772C17.4255 7.12999 17.4378 3.42728 20.4551 2.00525C27.0004 1.84117 33.4719 5.35392 36.1759 11.8503C36.8246 13.4095 37.0033 15.0611 36.9747 16.7737C36.9538 18.0252 36.824 19.2805 36.6927 20.5508C36.643 21.0319 36.593 21.5152 36.5487 22.0012C36.2383 25.4024 36.3524 29.9728 38.2705 33.9936C38.2713 33.9953 38.2719 33.9971 38.2721 33.9988C38.2726 34.0014 38.2724 34.0039 38.2716 34.0065C38.271 34.0086 38.2701 34.0103 38.2692 34.0115C38.269 34.0119 38.2686 34.0123 38.2681 34.0128C38.2678 34.0132 38.2674 34.0135 38.2669 34.0139L38.2645 34.0156Z"
        fill="#181B2B" />
      <path fill-rule="evenodd" clip-rule="evenodd"
        d="M29.4994 41.655C29.1198 41.8908 29.0056 42.3887 29.2443 42.7672L33.5666 49.6195C33.8053 49.9979 34.3065 50.1136 34.686 49.8778L43.6203 44.3279C43.9998 44.0921 44.114 43.5942 43.8753 43.2157L39.553 36.3634C39.3143 35.985 38.8131 35.8693 38.4336 36.1051L29.4994 41.655ZM30.1555 42.3919L31.9776 45.2807L40.6369 39.9015L38.8148 37.0128L30.1555 42.3919ZM34.3048 48.9701L32.4963 46.1029L41.1556 40.7238L42.9641 43.591L34.3048 48.9701Z"
        fill="#181B2B" />
    </g>
    <path id="Vector (Stroke)" fill-rule="evenodd" clip-rule="evenodd"
      d="M12.2102 3.22082C12.365 3.45167 12.3066 3.76655 12.0798 3.92412C3.52022 9.87103 2.41979 21.8695 10.4027 29.6514C12.1694 31.3745 14.4338 32.328 16.781 33.3162C17.245 33.5116 17.7123 33.7084 18.1797 33.9127C19.859 34.6467 21.846 35.6796 23.7901 37.0809C24.0142 37.2424 24.0672 37.5583 23.9085 37.7864C23.7498 38.0145 23.4395 38.0684 23.2154 37.9069C21.3418 36.5564 19.4196 35.5562 17.7873 34.8428C17.3485 34.6509 16.9002 34.4627 16.4475 34.2726C14.0996 33.2868 11.6295 32.2497 9.71484 30.3824C1.28744 22.1672 2.42432 9.40694 11.5192 3.08814C11.746 2.93057 12.0554 2.98997 12.2102 3.22082Z"
      fill="#FFCB47" />
  </g>
</svg>