<svg width="50" height="50" viewBox="0 0 50 50" fill="none" xmlns="http://www.w3.org/2000/svg">
  <g id="Illust / LP coube">
    <path id="Back"
      d="M20.3879 46.7474C11.5513 43.2711 6.3904 38.0457 4.00193 32.3401C-5.02027 10.7892 18.2334 -10.335 38.2038 5.54797C51.5179 16.1371 56.0176 55.4717 20.3879 46.7474Z"
      fill="#181B2B" />
    <path id="Vector 1103" d="M22.8592 3.5L48.5 14.8544L38 42.5L12.5 31.1456L22.8592 3.5Z" fill="#8AFFCE" />
    <path id="Vector 1114" d="M12.2317 7L23.5 3.5L13.2561 31L2.5 32.5L12.2317 7Z" fill="#1FAC85" />
    <path id="Union" fill-rule="evenodd" clip-rule="evenodd"
      d="M49 14.8353L23.1358 3L11.8881 6.67213L2 33.0058L24.532 43.5266L25.3146 43.9175L25.3623 43.9143L25.5458 44L38.4223 43.3885L49 14.8353ZM15.9307 16.2766C15.6938 13.5152 14.6186 10.8504 12.344 7.86484L3.18359 32.2605L12.4149 30.8408L14.1716 26.144C15.4829 22.3428 16.1841 19.2308 15.9307 16.2766ZM37.885 42.4034L13.2949 31.0192C18.0743 21.3392 22.3927 15.7486 27.6377 13.3898C32.8588 11.0418 39.1163 11.8467 47.9264 15.2977L37.885 42.4034ZM27.2905 12.6187C31.2467 10.8394 35.7075 10.7953 41.154 12.175L23.3472 4.02675L15.43 25.1945C19.175 18.707 22.8819 14.6013 27.2905 12.6187ZM16.7293 19.3054L22.406 4.12785L12.9195 7.22502C15.3333 10.3572 16.5166 13.2071 16.7737 16.2044C16.8609 17.2207 16.841 18.249 16.7293 19.3054Z"
      fill="#181B2B" />
    <path id="Vector 1115 (Stroke)" fill-rule="evenodd" clip-rule="evenodd"
      d="M33.9994 43.4268C34.0111 43.6253 33.8505 43.7951 33.6409 43.8061L25.2197 44L9.21442 36.6838C9.02547 36.597 8.94657 36.3818 9.03818 36.2029C9.1298 36.0241 9.35725 35.9494 9.5462 36.0361L25.3742 43.271L33.5987 43.0875C33.8083 43.0764 33.9878 43.2284 33.9994 43.4268Z"
      fill="#FFCB47" />
  </g>
</svg>