<svg width="1440" height="527" fill="none" xmlns="http://www.w3.org/2000/svg">
  <path fill="url(#paint0_linear)" d="M0 54h1440v419H0z"/>
  <g clip-path="url(#clip0)">
    <g clip-path="url(#clip1)" fill="#E7EAF3">
      <rect width="4" height="308" rx="2" transform="matrix(-1 0 0 1 1427 225)"/>
      <rect width="4" height="268" rx="2" transform="matrix(-1 0 0 1 1409 265)"/>
      <rect width="4" height="284" rx="2" transform="matrix(-1 0 0 1 1391 249)"/>
      <rect width="4" height="244" rx="2" transform="matrix(-1 0 0 1 1373 289)"/>
      <rect width="4" height="262" rx="2" transform="matrix(-1 0 0 1 1355 271)"/>
      <rect width="4" height="278" rx="2" transform="matrix(-1 0 0 1 1337 255)"/>
      <rect width="4" height="271" rx="2" transform="matrix(-1 0 0 1 1319 262)"/>
      <rect width="4" height="272" rx="2" transform="matrix(-1 0 0 1 1301 261)"/>
      <rect width="4" height="247" rx="2" transform="matrix(-1 0 0 1 1283 286)"/>
      <rect width="4" height="263" rx="2" transform="matrix(-1 0 0 1 1265 270)"/>
      <rect width="4" height="220" rx="2" transform="matrix(-1 0 0 1 1247 313)"/>
      <rect width="4" height="233" rx="2" transform="matrix(-1 0 0 1 1229 300)"/>
      <rect width="4" height="203" rx="2" transform="matrix(-1 0 0 1 1211 330)"/>
      <rect width="4" height="186" rx="2" transform="matrix(-1 0 0 1 1193 347)"/>
      <rect width="4" height="190" rx="2" transform="matrix(-1 0 0 1 1175 343)"/>
      <rect width="4" height="185" rx="2" transform="matrix(-1 0 0 1 1157 348)"/>
      <rect width="4" height="233" rx="2" transform="matrix(-1 0 0 1 1139 300)"/>
      <rect width="4" height="247" rx="2" transform="matrix(-1 0 0 1 1121 286)"/>
      <rect width="4" height="199" rx="2" transform="matrix(-1 0 0 1 1103 334)"/>
      <rect width="4" height="179" rx="2" transform="matrix(-1 0 0 1 1085 354)"/>
      <rect width="4" height="189" rx="2" transform="matrix(-1 0 0 1 1067 344)"/>
      <rect width="4" height="189" rx="2" transform="matrix(-1 0 0 1 1049 344)"/>
      <rect width="4" height="122" rx="2" transform="matrix(-1 0 0 1 1031 411)"/>
      <rect width="4" height="121" rx="2" transform="matrix(-1 0 0 1 1013 412)"/>
      <rect width="4" height="139" rx="2" transform="matrix(-1 0 0 1 995 394)"/>
      <rect width="4" height="110" rx="2" transform="matrix(-1 0 0 1 977 423)"/>
      <rect width="4" height="117" rx="2" transform="matrix(-1 0 0 1 959 416)"/>
      <rect width="4" height="116" rx="2" transform="matrix(-1 0 0 1 941 417)"/>
      <rect width="4" height="116" rx="2" transform="matrix(-1 0 0 1 923 417)"/>
      <rect width="4" height="130" rx="2" transform="matrix(-1 0 0 1 905 403)"/>
      <rect width="4" height="116" rx="2" transform="matrix(-1 0 0 1 887 417)"/>
      <rect width="4" height="108" rx="2" transform="matrix(-1 0 0 1 869 425)"/>
      <rect width="4" height="99" rx="2" transform="matrix(-1 0 0 1 851 434)"/>
      <rect width="4" height="121" rx="2" transform="matrix(-1 0 0 1 833 412)"/>
      <rect width="4" height="112" rx="2" transform="matrix(-1 0 0 1 815 421)"/>
      <rect width="4" height="111" rx="2" transform="matrix(-1 0 0 1 797 422)"/>
      <rect width="4" height="116" rx="2" transform="matrix(-1 0 0 1 779 417)"/>
      <rect width="4" height="99" rx="2" transform="matrix(-1 0 0 1 761 434)"/>
      <rect width="4" height="99" rx="2" transform="matrix(-1 0 0 1 743 434)"/>
      <rect width="4" height="111" rx="2" transform="matrix(-1 0 0 1 725 422)"/>
      <rect width="4" height="95" rx="2" transform="matrix(-1 0 0 1 707 438)"/>
      <rect width="4" height="122" rx="2" transform="matrix(-1 0 0 1 689 411)"/>
      <rect width="4" height="112" rx="2" transform="matrix(-1 0 0 1 671 421)"/>
      <rect width="4" height="99" rx="2" transform="matrix(-1 0 0 1 653 434)"/>
      <rect width="4" height="103" rx="2" transform="matrix(-1 0 0 1 635 430)"/>
      <rect width="4" height="100" rx="2" transform="matrix(-1 0 0 1 617 433)"/>
      <rect width="4" height="92" rx="2" transform="matrix(-1 0 0 1 599 441)"/>
      <rect width="4" height="89" rx="2" transform="matrix(-1 0 0 1 581 444)"/>
      <rect width="4" height="89" rx="2" transform="matrix(-1 0 0 1 563 444)"/>
      <rect width="4" height="100" rx="2" transform="matrix(-1 0 0 1 545 433)"/>
      <rect width="4" height="104" rx="2" transform="matrix(-1 0 0 1 527 429)"/>
      <rect width="4" height="81" rx="2" transform="matrix(-1 0 0 1 509 452)"/>
      <rect width="4" height="103" rx="2" transform="matrix(-1 0 0 1 491 430)"/>
      <rect width="4" height="110" rx="2" transform="matrix(-1 0 0 1 473 423)"/>
      <rect width="4" height="136" rx="2" transform="matrix(-1 0 0 1 455 397)"/>
      <rect width="4" height="154" rx="2" transform="matrix(-1 0 0 1 437 379)"/>
      <rect width="4" height="154" rx="2" transform="matrix(-1 0 0 1 419 379)"/>
      <rect width="4" height="138" rx="2" transform="matrix(-1 0 0 1 401 395)"/>
      <rect width="4" height="136" rx="2" transform="matrix(-1 0 0 1 383 397)"/>
      <rect width="4" height="172" rx="2" transform="matrix(-1 0 0 1 365 361)"/>
      <rect width="4" height="180" rx="2" transform="matrix(-1 0 0 1 347 353)"/>
      <rect width="4" height="168" rx="2" transform="matrix(-1 0 0 1 329 365)"/>
      <rect width="4" height="253" rx="2" transform="matrix(-1 0 0 1 311 280)"/>
      <rect width="4" height="222" rx="2" transform="matrix(-1 0 0 1 293 311)"/>
      <rect width="4" height="186" rx="2" transform="matrix(-1 0 0 1 275 347)"/>
      <rect width="4" height="179" rx="2" transform="matrix(-1 0 0 1 257 354)"/>
      <rect width="4" height="204" rx="2" transform="matrix(-1 0 0 1 239 329)"/>
      <rect width="4" height="161" rx="2" transform="matrix(-1 0 0 1 221 372)"/>
      <rect width="4" height="183" rx="2" transform="matrix(-1 0 0 1 203 350)"/>
      <rect width="4" height="204" rx="2" transform="matrix(-1 0 0 1 185 329)"/>
      <rect width="4" height="189" rx="2" transform="matrix(-1 0 0 1 167 344)"/>
      <rect width="4" height="194" rx="2" transform="matrix(-1 0 0 1 149 339)"/>
      <rect width="4" height="208" rx="2" transform="matrix(-1 0 0 1 131 325)"/>
      <rect width="4" height="189" rx="2" transform="matrix(-1 0 0 1 113 344)"/>
      <rect width="4" height="179" rx="2" transform="matrix(-1 0 0 1 95 354)"/>
      <rect width="4" height="204" rx="2" transform="matrix(-1 0 0 1 77 329)"/>
      <rect width="4" height="193" rx="2" transform="matrix(-1 0 0 1 59 340)"/>
      <rect width="4" height="213" rx="2" transform="matrix(-1 0 0 1 41 320)"/>
      <rect width="4" height="229" rx="2" transform="matrix(-1 0 0 1 23 304)"/>
    </g>
    <g clip-path="url(#clip2)" fill="#68DBF4">
      <rect width="4" height="274" rx="2" transform="matrix(-1 0 0 1 1427 253)"/>
      <rect width="4" height="198" rx="2" transform="matrix(-1 0 0 1 1409 329)"/>
      <rect width="4" height="210" rx="2" transform="matrix(-1 0 0 1 1391 317)"/>
      <rect width="4" height="190" rx="2" transform="matrix(-1 0 0 1 1373 337)"/>
      <rect width="4" height="174" rx="2" transform="matrix(-1 0 0 1 1355 353)"/>
      <rect width="4" height="178" rx="2" transform="matrix(-1 0 0 1 1337 349)"/>
      <rect width="4" height="173" rx="2" transform="matrix(-1 0 0 1 1319 354)"/>
      <rect width="4" height="204" rx="2" transform="matrix(-1 0 0 1 1301 323)"/>
      <rect width="4" height="145" rx="2" transform="matrix(-1 0 0 1 1283 382)"/>
      <rect width="4" height="152" rx="2" transform="matrix(-1 0 0 1 1265 375)"/>
      <rect width="4" height="131" rx="2" transform="matrix(-1 0 0 1 1247 396)"/>
      <rect width="4" height="139" rx="2" transform="matrix(-1 0 0 1 1229 388)"/>
      <rect width="4" height="120.81" rx="2" transform="matrix(-1 0 0 1 1211 406.186)"/>
      <rect width="4" height="110.7" rx="2" transform="matrix(-1 0 0 1 1193 416.304)"/>
      <rect width="4" height="113.08" rx="2" transform="matrix(-1 0 0 1 1175 413.923)"/>
      <rect width="4" height="110.1" rx="2" transform="matrix(-1 0 0 1 1157 416.899)"/>
      <rect width="4" height="138.67" rx="2" transform="matrix(-1 0 0 1 1139 388.332)"/>
      <rect width="4" height="147" rx="2" transform="matrix(-1 0 0 1 1121 380)"/>
      <rect width="4" height="147" rx="2" transform="matrix(-1 0 0 1 1103 380)"/>
      <rect width="4" height="106.53" rx="2" transform="matrix(-1 0 0 1 1085 420.47)"/>
      <rect width="4" height="112.48" rx="2" transform="matrix(-1 0 0 1 1067 414.518)"/>
      <rect width="4" height="112.48" rx="2" transform="matrix(-1 0 0 1 1049 414.518)"/>
      <rect width="4" height="103.56" rx="2" transform="matrix(-1 0 0 1 1031 423.445)"/>
      <rect width="4" height="124.39" rx="2" transform="matrix(-1 0 0 1 1013 402.615)"/>
      <rect width="4" height="115" rx="2" transform="matrix(-1 0 0 1 995 412)"/>
      <rect width="4" height="76" rx="2" transform="matrix(-1 0 0 1 977 451)"/>
      <rect width="4" height="78" rx="2" transform="matrix(-1 0 0 1 959 449)"/>
      <rect width="4" height="76" rx="2" transform="matrix(-1 0 0 1 941 451)"/>
      <rect width="4" height="75" rx="2" transform="matrix(-1 0 0 1 923 452)"/>
      <rect width="4" height="85" rx="2" transform="matrix(-1 0 0 1 905 442)"/>
      <rect width="4" height="81" rx="2" transform="matrix(-1 0 0 1 887 446)"/>
      <rect width="4" height="76" rx="2" transform="matrix(-1 0 0 1 869 451)"/>
      <rect width="4" height="70" rx="2" transform="matrix(-1 0 0 1 851 457)"/>
      <rect width="4" height="85" rx="2" transform="matrix(-1 0 0 1 833 442)"/>
      <rect width="4" height="79" rx="2" transform="matrix(-1 0 0 1 815 448)"/>
      <rect width="4" height="78" rx="2" transform="matrix(-1 0 0 1 797 449)"/>
      <rect width="4" height="97" rx="2" transform="matrix(-1 0 0 1 779 430)"/>
      <rect width="4" height="70" rx="2" transform="matrix(-1 0 0 1 761 457)"/>
      <rect width="4" height="70" rx="2" transform="matrix(-1 0 0 1 743 457)"/>
      <rect width="4" height="78" rx="2" transform="matrix(-1 0 0 1 725 449)"/>
      <rect width="4" height="91" rx="2" transform="matrix(-1 0 0 1 707 436)"/>
      <rect width="4" height="86" rx="2" transform="matrix(-1 0 0 1 689 441)"/>
      <rect width="4" height="78" rx="2" transform="matrix(-1 0 0 1 671 449)"/>
      <rect width="4" height="94" rx="2" transform="matrix(-1 0 0 1 653 433)"/>
      <rect width="4" height="72" rx="2" transform="matrix(-1 0 0 1 635 455)"/>
      <rect width="4" height="71" rx="2" transform="matrix(-1 0 0 1 617 456)"/>
      <rect width="4" height="88" rx="2" transform="matrix(-1 0 0 1 599 439)"/>
      <rect width="4" height="62" rx="2" transform="matrix(-1 0 0 1 581 465)"/>
      <rect width="4" height="62" rx="2" transform="matrix(-1 0 0 1 563 465)"/>
      <rect width="4" height="71" rx="2" transform="matrix(-1 0 0 1 545 456)"/>
      <rect width="4" height="73" rx="2" transform="matrix(-1 0 0 1 527 454)"/>
      <rect width="4" height="57" rx="2" transform="matrix(-1 0 0 1 509 470)"/>
      <rect width="4" height="73" rx="2" transform="matrix(-1 0 0 1 491 454)"/>
      <rect width="4" height="62" rx="2" transform="matrix(-1 0 0 1 473 465)"/>
      <rect width="4" height="77" rx="2" transform="matrix(-1 0 0 1 455 450)"/>
      <rect width="4" height="91" rx="2" transform="matrix(-1 0 0 1 437 436)"/>
      <rect width="4" height="91" rx="2" transform="matrix(-1 0 0 1 419 436)"/>
      <rect width="4" height="81" rx="2" transform="matrix(-1 0 0 1 401 446)"/>
      <rect width="4" height="81" rx="2" transform="matrix(-1 0 0 1 383 446)"/>
      <rect width="4" height="101" rx="2" transform="matrix(-1 0 0 1 365 426)"/>
      <rect width="4" height="107" rx="2" transform="matrix(-1 0 0 1 347 420)"/>
      <rect width="4" height="100" rx="2" transform="matrix(-1 0 0 1 329 427)"/>
      <rect width="4" height="91" rx="2" transform="matrix(-1 0 0 1 311 436)"/>
      <rect width="4" height="87" rx="2" transform="matrix(-1 0 0 1 293 440)"/>
      <rect width="4" height="66" rx="2" transform="matrix(-1 0 0 1 275 461)"/>
      <rect width="4" height="64" rx="2" transform="matrix(-1 0 0 1 257 463)"/>
      <rect width="4" height="81" rx="2" transform="matrix(-1 0 0 1 239 446)"/>
      <rect width="4" height="57" rx="2" transform="matrix(-1 0 0 1 221 470)"/>
      <rect width="4" height="57" rx="2" transform="matrix(-1 0 0 1 203 470)"/>
      <rect width="4" height="90" rx="2" transform="matrix(-1 0 0 1 185 437)"/>
      <rect width="4" height="96" rx="2" transform="matrix(-1 0 0 1 167 431)"/>
      <rect width="4" height="113" rx="2" transform="matrix(-1 0 0 1 149 414)"/>
      <rect width="4" height="141" rx="2" transform="matrix(-1 0 0 1 131 386)"/>
      <rect width="4" height="127" rx="2" transform="matrix(-1 0 0 1 113 400)"/>
      <rect width="4" height="131" rx="2" transform="matrix(-1 0 0 1 95 396)"/>
      <rect width="4" height="156" rx="2" transform="matrix(-1 0 0 1 77 371)"/>
      <rect width="4" height="147" rx="2" transform="matrix(-1 0 0 1 59 380)"/>
      <rect width="4" height="168" rx="2" transform="matrix(-1 0 0 1 41 359)"/>
      <rect width="4" height="181" rx="2" transform="matrix(-1 0 0 1 23 346)"/>
    </g>
  </g>
  <path fill="url(#paint1_linear)" d="M0 0h1440v527H0z"/>
  <circle cx="291" cy="314" r="9" fill="#FFE6E6"/>
  <circle cx="1335" cy="312" r="9" fill="#FFE6E6"/>
  <circle cx="1173" cy="347" r="9" fill="#FFF3E4"/>
  <circle cx="291" cy="314" r="3" fill="#fff" stroke="#FF5B5B" stroke-width="2"/>
  <circle cx="111" cy="380" r="9" fill="#FFF3E4"/>
  <circle cx="111" cy="380" r="3" fill="#fff" stroke="#FFCB47" stroke-width="2"/>
  <circle cx="1335" cy="312" r="3" fill="#fff" stroke="#FF5B5B" stroke-width="2"/>
  <circle cx="1173" cy="347" r="3" fill="#fff" stroke="#FD9317" stroke-width="2"/>
  <defs>
    <clipPath id="clip0">
      <path d="M9 201h1422v326H9V201z" fill="#fff"/>
    </clipPath>
    <clipPath id="clip1">
      <path transform="matrix(-1 0 0 1 1427 225)" fill="#fff" d="M0 0h1408v308H0z"/>
    </clipPath>
    <clipPath id="clip2">
      <path transform="matrix(-1 0 0 1 1427 225)" fill="#fff" d="M0 0h1408v302H0z"/>
    </clipPath>
    <linearGradient id="paint0_linear" x1="720" y1="99.26" x2="720" y2="436.14" gradientUnits="userSpaceOnUse">
      <stop stop-color="#fff" stop-opacity="0"/>
      <stop offset="1" stop-color="#fff"/>
    </linearGradient>
    <linearGradient id="paint1_linear" x1="720" y1="0" x2="720" y2="527" gradientUnits="userSpaceOnUse">
      <stop stop-color="#fff" stop-opacity="0"/>
      <stop offset="1" stop-color="#fff"/>
    </linearGradient>
  </defs>
</svg>
