<svg width="121" height="24" viewBox="0 0 121 24" fill="none" xmlns="http://www.w3.org/2000/svg">
<g id="Binance_logo 1" clip-path="url(#clip0_4668_94632)">
<path id="Vector" d="M7.85717 10.085L12.5023 5.42436L17.15 10.0875L19.8528 7.37547L12.5023 0L5.1543 7.37301L7.85717 10.085Z" fill="#D2D6E7"/>
<path id="Vector_2" d="M5.94892 11.9995L3.24609 9.2876L0.543131 11.9997L3.24596 14.7116L5.94892 11.9995Z" fill="#D2D6E7"/>
<path id="Vector_3" d="M7.85723 13.9151L12.5024 18.5758L17.1498 13.9128L19.8542 16.6233L19.8529 16.6248L12.5024 24.0001L5.15417 16.6273L5.15039 16.6235L7.85723 13.9151Z" fill="#D2D6E7"/>
<path id="Vector_4" d="M21.7599 14.7128L24.4629 12.0007L21.7601 9.28879L19.0571 12.0009L21.7599 14.7128Z" fill="#D2D6E7"/>
<path id="Vector_5" d="M15.2454 11.9986H15.2466L12.5038 9.24658L10.4769 11.2803H10.4767L10.244 11.5141L9.76354 11.9961L9.75977 11.9999L9.76354 12.0039L12.5038 14.7534L15.2466 12.0014L15.2479 11.9999L15.2454 11.9986Z" fill="#D2D6E7"/>
<path id="Vector_6" d="M28.6758 5.81543H34.5544C36.0134 5.81543 37.1167 6.19113 37.8645 6.94254C38.4431 7.52448 38.7324 8.24574 38.7324 9.10614V9.14253C38.7324 9.5061 38.6876 9.8274 38.5975 10.1061C38.5075 10.3851 38.3874 10.6362 38.2372 10.8605C38.0874 11.0849 37.9132 11.2819 37.7152 11.4513C37.517 11.6212 37.3041 11.7668 37.0761 11.8877C37.8095 12.1667 38.3868 12.5453 38.8077 13.0241C39.2285 13.5031 39.4391 14.1667 39.4391 15.015V15.0512C39.4391 15.6332 39.3277 16.1421 39.1045 16.5787C38.8814 17.0148 38.5618 17.3786 38.1456 17.6696C37.7294 17.9605 37.2289 18.1785 36.644 18.3241C36.0591 18.4695 35.411 18.5421 34.6997 18.5421H28.6758V5.81543ZM33.9667 10.9606C34.5829 10.9606 35.0722 10.8548 35.4344 10.6425C35.7967 10.4304 35.9779 10.0879 35.9779 9.61529V9.57889C35.9779 9.15486 35.8207 8.83071 35.5067 8.60628C35.1926 8.38203 34.7395 8.26981 34.1478 8.26981H31.3936V10.9606H33.9667ZM34.7097 16.0879C35.3258 16.0879 35.8086 15.9761 36.1593 15.7516C36.5095 15.5274 36.6849 15.1788 36.6849 14.706V14.6698C36.6849 14.2456 36.5216 13.9093 36.1955 13.6606C35.8693 13.4125 35.3439 13.2881 34.619 13.2881H31.3936V16.0881L34.7097 16.0879Z" fill="#D2D6E7"/>
<path id="Vector_7" d="M42.9414 5.81543H45.7321V18.5425H42.9414V5.81543Z" fill="#D2D6E7"/>
<path id="Vector_8" d="M49.959 5.81543H52.5317L58.4753 13.6517V5.81543H61.2296V18.5425H58.856L52.7131 10.4518V18.5425H49.959V5.81543Z" fill="#D2D6E7"/>
<path id="Vector_9" d="M69.6768 5.72461H72.2497L77.686 18.5425H74.7686L73.6088 15.6881H68.2451L67.0856 18.5425H64.2402L69.6768 5.72461ZM72.6122 13.2151L70.9269 9.08811L69.2421 13.2151H72.6122Z" fill="#D2D6E7"/>
<path id="Vector_10" d="M80.6992 5.81543H83.2725L89.2157 13.6517V5.81543H91.97V18.5425H89.5964L83.4535 10.4518V18.5425H80.6992V5.81543Z" fill="#D2D6E7"/>
<path id="Vector_11" d="M102.013 18.7604C101.082 18.7604 100.219 18.5905 99.4217 18.2514C98.6242 17.9123 97.9358 17.4485 97.356 16.8605C96.776 16.2726 96.3228 15.5787 95.9971 14.7787C95.6709 13.9786 95.5078 13.1241 95.5078 12.215V12.1788C95.5078 11.2697 95.6709 10.4184 95.9971 9.62431C96.323 8.83044 96.776 8.13344 97.356 7.53349C97.9356 6.93354 98.6305 6.4606 99.4396 6.11523C100.249 5.76985 101.143 5.59717 102.122 5.59717C102.713 5.59717 103.254 5.64588 103.743 5.74256C104.232 5.8398 104.676 5.97287 105.075 6.14252C105.474 6.31237 105.842 6.51841 106.181 6.76067C106.518 7.0033 106.833 7.26982 107.123 7.56079L105.347 9.61521C104.851 9.1669 104.347 8.81509 103.834 8.5607C103.32 8.30632 102.744 8.17893 102.103 8.17893C101.572 8.17893 101.079 8.28205 100.627 8.4881C100.174 8.69415 99.784 8.97886 99.4578 9.34243C99.1319 9.706 98.8781 10.1274 98.6966 10.606C98.5158 11.085 98.4253 11.597 98.4253 12.1424V12.1786C98.4253 12.7239 98.5158 13.2393 98.6966 13.7239C98.8781 14.2089 99.1283 14.633 99.4489 14.9965C99.7687 15.3601 100.155 15.6482 100.608 15.8604C101.062 16.0727 101.56 16.1784 102.103 16.1784C102.828 16.1784 103.441 16.0452 103.942 15.7785C104.444 15.5121 104.942 15.1484 105.437 14.6876L107.213 16.4876C106.887 16.8392 106.548 17.1545 106.199 17.4329C105.848 17.7119 105.465 17.9512 105.048 18.1513C104.631 18.3511 104.175 18.503 103.68 18.6057C103.184 18.7086 102.629 18.7604 102.013 18.7604Z" fill="#D2D6E7"/>
<path id="Vector_12" d="M110.498 5.81543H120.047V8.3064H113.253V10.8882H119.232V13.3789H113.253V16.0517H120.138V18.5425H110.498V5.81543Z" fill="#D2D6E7"/>
</g>
<defs>
<clipPath id="clip0_4668_94632">
<rect width="119.4" height="24" fill="white" transform="translate(0.646484)"/>
</clipPath>
</defs>
</svg>
