<svg width="122" height="22" viewBox="0 0 122 22" fill="none" xmlns="http://www.w3.org/2000/svg">
<g id="bitcoin-magazine-vector-logo 1" clip-path="url(#clip0_4668_94764)">
<g id="Group">
<g id="Group_2">
<g id="Group_3">
<g id="Group_4">
<g id="Group_5">
<path id="Vector" d="M14.1586 16.774L11.4746 18.0927V8.19213L14.1586 6.87345V16.774ZM17.8024 14.9844L15.1183 16.303V6.4025L17.8024 5.08383V14.9844ZM18.7621 14.5134V4.61287L21.4461 3.29419V13.1947L18.7621 14.5134Z" fill="#D2D6E7"/>
</g>
<g id="Group_6">
<path id="Vector_2" d="M10.5365 15.4239V18.0874L0.570312 13.1947V10.5312L10.5365 15.4239ZM10.5365 11.8028V14.4663L0.570312 9.5736V6.91008L10.5365 11.8028ZM10.5365 8.1869V10.8504L0.570312 5.95771V3.29419L10.5365 8.1869Z" fill="#D2D6E7"/>
</g>
</g>
<g id="Group_7">
<g id="Group_8">
<path id="Vector_3" d="M27.7852 0.156006V15.446H35.6085C39.2781 15.446 41.6226 13.7896 41.6226 11.1648C41.6226 9.22807 40.4249 7.69908 38.5391 7.31683C40.1191 6.85813 41.1384 5.55848 41.1384 4.02948C41.1384 1.68502 38.8449 0.181514 35.2772 0.181514H27.7852V0.156006ZM32.2957 3.57077H35.0479C35.9398 3.57077 36.5004 4.05495 36.5004 4.84493C36.5004 5.6604 35.9398 6.17008 35.0479 6.17008H32.2957V3.57077ZM32.2957 9.25355H35.0479C36.1946 9.25355 36.9336 9.7632 36.9336 10.6041C36.9336 11.4961 36.2201 12.0567 35.0479 12.0567H32.2957V9.25355Z" fill="#D2D6E7"/>
</g>
<g id="Group_9">
<path id="Vector_4" d="M48.8856 0.156006H44.3496V15.446H48.8856V0.156006Z" fill="#D2D6E7"/>
</g>
<g id="Group_10">
<path id="Vector_5" d="M63.3865 3.77465V0.156006H51.6387V3.77465H55.2318V15.446H59.7933V3.77465H63.3865Z" fill="#D2D6E7"/>
</g>
<g id="Group_11">
<g id="Group_12">
<path id="Vector_6" d="M73.2096 0.0285645C68.4697 0.0285645 64.9785 3.31591 64.9785 7.77548C64.9785 12.286 68.3933 15.6498 73.0567 15.6498C75.3757 15.6498 77.873 14.5031 79.5295 12.6938L76.9047 9.89061C75.8599 10.9609 74.4328 11.649 73.2606 11.649C71.1964 11.649 69.6165 9.94158 69.6165 7.69905C69.6165 5.45652 71.1964 3.77462 73.2606 3.77462C74.5347 3.77462 75.9363 4.59009 76.9047 5.81328L79.5295 2.72982C77.975 1.0734 75.5031 0.0285645 73.2096 0.0285645Z" fill="#D2D6E7"/>
</g>
<g id="Group_13">
<path id="Vector_7" d="M88.9834 0.0285645C84.1926 0.0285645 80.6504 3.29042 80.6504 7.80096C80.6504 12.3115 84.1926 15.6498 88.9834 15.6498C93.7743 15.6498 97.3164 12.286 97.3164 7.80096C97.3164 3.31591 93.7743 0.0285645 88.9834 0.0285645ZM89.0599 3.82558C91.073 3.82558 92.6785 5.50749 92.6785 7.82647C92.6785 10.1454 91.073 11.8528 89.0599 11.8528C87.0467 11.8528 85.3138 10.12 85.3138 7.82647C85.3138 5.53297 87.0212 3.82558 89.0599 3.82558Z" fill="#D2D6E7"/>
</g>
<g id="Group_14">
<path id="Vector_8" d="M104.427 0.156006H99.8906V15.446H104.427V0.156006Z" fill="#D2D6E7"/>
</g>
<g id="Group_15">
<path id="Vector_9" d="M121.664 15.446V0.156006H117.51V8.6929L111.038 0.156006H107.164V15.446H111.318V6.93458L117.791 15.446H121.664Z" fill="#D2D6E7"/>
</g>
</g>
</g>
<g id="Group_16">
<path id="Vector_10" d="M32.1108 21.9382V18.1311H30.7731L29.9353 20.1155L29.0974 18.1311H27.7598V21.9382H28.8622V19.8509L29.509 21.5708H30.3322L30.9789 19.8509V21.9382H32.1108Z" fill="#D2D6E7"/>
<path id="Vector_11" d="M35.4613 21.409L35.6523 21.9529H36.99L35.4465 18.1458H34.153L32.5508 21.9529H33.8443L34.0354 21.409H35.4613ZM35.1526 20.4976H34.3588L34.7557 19.3805L35.1526 20.4976Z" fill="#D2D6E7"/>
<path id="Vector_12" d="M39.7846 19.939V20.821C39.5935 20.8945 39.4171 20.9533 39.2848 20.9533C38.785 20.9533 38.4322 20.5711 38.4322 20.0419C38.4322 19.5275 38.785 19.1453 39.2848 19.1453C39.5935 19.1453 39.9756 19.307 40.2255 19.5422L40.9311 18.6749C40.5195 18.3221 39.8728 18.0869 39.2848 18.0869C38.0353 18.0869 37.1387 18.9101 37.1387 20.0272C37.1387 21.1591 38.0059 21.9822 39.1966 21.9822C39.7405 21.9822 40.446 21.7765 40.8576 21.4972V19.9243H39.7846V19.939Z" fill="#D2D6E7"/>
<path id="Vector_13" d="M44.1351 21.409L44.3262 21.9529H45.6638L44.1204 18.1458H42.8268L41.2246 21.9529H42.5182L42.7092 21.409H44.1351ZM43.8264 20.4976H43.0326L43.4295 19.3805L43.8264 20.4976Z" fill="#D2D6E7"/>
<path id="Vector_14" d="M49.3968 18.9249V18.1311H46.0012V19.1013H47.7064L45.9277 21.1592V21.9529H49.4262V20.9828H47.6182L49.3968 18.9249Z" fill="#D2D6E7"/>
<path id="Vector_15" d="M51.2934 18.1311H50.0293V21.9382H51.2934V18.1311Z" fill="#D2D6E7"/>
<path id="Vector_16" d="M55.7481 21.9382V18.1311H54.6163V20.0861L53.1169 18.1311H52.0586V21.9382H53.2052V19.9979L54.7045 21.9382H55.7481Z" fill="#D2D6E7"/>
<path id="Vector_17" d="M59.7309 19.0866V18.1311H56.5117V21.9382H59.7897V20.9828H57.7759V20.5124H59.5545V19.5569H57.7759V19.0866H59.7309Z" fill="#D2D6E7"/>
</g>
</g>
</g>
</g>
</g>
<defs>
<clipPath id="clip0_4668_94764">
<rect width="121.303" height="22" fill="white" transform="translate(0.5)"/>
</clipPath>
</defs>
</svg>
