<svg width="139" height="32" viewBox="0 0 139 32" fill="none" xmlns="http://www.w3.org/2000/svg">
<g id="cointelegraph-logo-vector 1">
<g id="Page 1">
<g id="CT logo BlackYellow tag">
<g id="Atoms x2F Icons x2F logos x2F CT GY icon">
<g id="Group">
<path id="Shape" d="M20.6482 23.277L14.8982 25.7596V25.509C13.7942 25.7823 12.5522 25.9418 11.4022 26.0101C5.97423 25.9645 1.69623 23.1403 1.62723 19.8151V18.5852C3.39823 21.1361 7.03223 22.867 11.4022 22.7987C12.8742 22.867 14.3922 22.6393 15.6572 22.2976L16.1632 21.0677C14.6682 21.5233 13.0122 21.8193 11.4022 21.8193C5.97423 21.8193 1.69623 19.0179 1.62723 15.6243V14.6222C3.39823 16.9909 7.03223 18.6991 11.4022 18.5852C13.3802 18.6991 15.2892 18.2891 16.9222 17.583L17.1752 16.3532C15.5882 17.1731 13.5412 17.6514 11.4252 17.583C5.99723 17.6514 1.71923 14.8499 1.65023 11.388V10.3859C3.42123 12.8001 7.05523 14.5311 11.4252 14.5994C13.9092 14.5311 16.2552 13.8706 18.1872 12.8685L18.4402 11.388C16.6922 12.6635 14.1392 13.5062 11.4252 13.6201C5.99723 13.5062 1.71923 10.682 1.65023 7.1745C1.69623 3.82645 5.99723 1.02503 11.4252 0.979479C14.6452 1.02503 17.6582 2.14105 19.4292 3.96311L19.6132 4.2592H20.8782L20.6942 3.96311C18.9232 1.57165 15.3582 0.000118734 11.4252 0.000118734C5.39923 -0.0226571 0.615234 3.23429 0.615234 7.15173V7.40226V20.0428C0.822234 23.8692 5.49123 26.9895 11.3792 26.9895C15.2662 27.0122 18.7852 25.4863 20.6482 23.277Z" fill="#D2D6E7"/>
<path id="Shape 1" d="M18.3012 31.9999L20.3252 23.4818L14.5062 25.9871L18.0482 11.2284H11.2402L13.0112 3.96289H34.7462L32.9752 11.2284H25.8912L24.3732 15.2369L32.2162 11.98L18.3012 31.9999ZM21.8432 21.7508L20.8312 26.7615L29.1802 14.2576L22.3492 17.264L25.3852 10.249H32.2162L33.4812 4.9878H13.7472L12.4822 10.249H19.3132L16.0242 24.2561L21.8432 21.7508Z" fill="#D2D6E7"/>
</g>
</g>
<path id="Shape 2" d="M49.1682 16.9683V16.9911C49.1912 17.7882 48.9382 18.4032 48.4322 18.8587C47.9262 19.3142 47.2362 19.542 46.3392 19.542C45.4422 19.542 44.7062 19.2459 44.1542 18.6765C43.6022 18.1071 43.3262 17.3555 43.3262 16.4445V14.964C43.3262 14.053 43.6022 13.3014 44.1312 12.732C44.6832 12.1626 45.3962 11.8665 46.2702 11.8665C47.1902 11.8665 47.9032 12.0943 48.4322 12.527C48.9612 12.9825 49.2142 13.5975 49.1912 14.3946V14.4174H47.7192C47.7192 13.9391 47.6042 13.5747 47.3742 13.347C47.1442 13.1192 46.7762 13.0053 46.2932 13.0053C45.8332 13.0053 45.4882 13.1875 45.2352 13.5519C44.9822 13.9163 44.8442 14.3719 44.8442 14.9413V16.4445C44.8442 17.0139 44.9822 17.4921 45.2352 17.8566C45.5112 18.221 45.8792 18.4032 46.3622 18.4032C46.8222 18.4032 47.1442 18.2893 47.3742 18.0615C47.6042 17.8338 47.7192 17.4694 47.7192 16.9911H49.1682V16.9683ZM57.4942 16.3761C57.4942 17.2872 57.1952 18.0615 56.6202 18.6537C56.0452 19.2459 55.2862 19.542 54.3432 19.542C53.4002 19.542 52.6642 19.2459 52.0662 18.6537C51.4912 18.0615 51.1922 17.2872 51.1922 16.3761V15.0324C51.1922 14.1213 51.4912 13.3697 52.0662 12.7548C52.6412 12.1626 53.4002 11.8438 54.3202 11.8438C55.2632 11.8438 56.0222 12.1398 56.5972 12.7548C57.1952 13.347 57.4712 14.1213 57.4712 15.0324V16.3761H57.4942ZM55.9762 15.0096C55.9762 14.4174 55.8382 13.9619 55.5392 13.5747C55.2402 13.2103 54.8492 13.0053 54.3202 13.0053C53.8142 13.0053 53.4002 13.1875 53.1242 13.5747C52.8482 13.9391 52.6872 14.4174 52.6872 15.0096V16.3534C52.6872 16.9455 52.8252 17.4238 53.1242 17.811C53.4002 18.1754 53.8142 18.3804 54.3202 18.3804C54.8492 18.3804 55.2402 18.1982 55.5392 17.811C55.8382 17.4466 55.9762 16.9455 55.9762 16.3534V15.0096ZM61.4042 19.4281H59.8862V11.9576H61.4042V19.4281ZM70.1212 19.4281H68.6032L65.5672 14.3946H65.5442V19.4281H64.0262V11.9576H65.5442L68.5802 16.9911H68.6032V11.9576H70.1212V19.4281ZM77.7342 13.1192H75.5722V19.4281H74.0542V13.1192H71.9382V11.9576H77.7342V13.1192ZM83.9902 16.1484H81.1842V18.2893H84.5192V19.4281H79.6892V11.9576H84.5192V13.1192H81.2072V14.9868H84.0132V16.1484H83.9902ZM88.1992 18.2893H91.5802V19.4281H86.6812V11.9576H88.1992V18.2893ZM98.0202 16.1484H95.2142V18.2893H98.5492V19.4281H93.7192V11.9576H98.5492V13.1192H95.2372V14.9868H98.0432V16.1484H98.0202ZM106.507 18.426C106.277 18.722 105.932 18.9954 105.449 19.2231C104.989 19.4509 104.391 19.5647 103.655 19.5647C102.735 19.5647 101.999 19.2914 101.424 18.722C100.849 18.1526 100.55 17.4238 100.55 16.5128V14.9413C100.55 14.0302 100.826 13.3014 101.401 12.732C101.953 12.1626 102.689 11.8665 103.563 11.8665C104.483 11.8665 105.196 12.0943 105.679 12.527C106.162 12.9598 106.415 13.5292 106.392 14.258V14.2808H104.966C104.966 13.8936 104.851 13.5747 104.621 13.347C104.391 13.1192 104.046 13.0053 103.609 13.0053C103.149 13.0053 102.781 13.1875 102.482 13.5292C102.206 13.8936 102.068 14.3491 102.068 14.8957V16.4672C102.068 17.0366 102.206 17.4921 102.505 17.8566C102.804 18.221 103.195 18.3804 103.678 18.3804C104.046 18.3804 104.322 18.3349 104.529 18.2665C104.736 18.1982 104.897 18.1071 105.012 17.9932V16.5356H103.563V15.4879H106.53V18.426H106.507ZM110.417 16.4445V19.4281H108.899V11.9576H111.521C112.372 11.9576 113.062 12.1626 113.545 12.5498C114.028 12.937 114.281 13.4836 114.281 14.1669C114.281 14.5541 114.189 14.8729 113.982 15.169C113.775 15.4423 113.476 15.6701 113.085 15.8523C113.522 15.9889 113.844 16.1939 114.051 16.5128C114.235 16.8089 114.35 17.1961 114.35 17.6516V18.1982C114.35 18.4032 114.373 18.6309 114.442 18.8587C114.488 19.0865 114.603 19.2459 114.741 19.3598V19.4736H113.177C113.039 19.3598 112.947 19.1776 112.901 18.927C112.855 18.6765 112.832 18.426 112.832 18.1982V17.6744C112.832 17.3099 112.74 17.0139 112.533 16.8089C112.326 16.6039 112.027 16.49 111.659 16.49H110.417V16.4445ZM110.417 15.3057H111.498C111.912 15.3057 112.234 15.2146 112.441 15.0324C112.648 14.8502 112.763 14.5996 112.763 14.2352C112.763 13.8936 112.648 13.6203 112.441 13.4153C112.234 13.2103 111.935 13.1192 111.521 13.1192H110.417V15.3057ZM120.698 17.8338H118.26L117.754 19.4509H116.167L118.72 11.9804H120.261L122.791 19.4509H121.204L120.698 17.8338ZM118.628 16.6494H120.33L119.502 14.0075H119.479L118.628 16.6494ZM126.149 16.7178V19.4281H124.631V11.9576H127.529C128.403 11.9576 129.07 12.1854 129.576 12.6181C130.082 13.0509 130.312 13.643 130.312 14.3491C130.312 15.0551 130.059 15.6473 129.576 16.0801C129.07 16.5128 128.403 16.7405 127.529 16.7405H126.149V16.7178ZM126.149 15.579H127.529C127.943 15.579 128.265 15.4651 128.495 15.2373C128.702 15.0096 128.817 14.7135 128.817 14.3719C128.817 14.0075 128.702 13.7114 128.495 13.4836C128.288 13.2558 127.966 13.142 127.529 13.142H126.149V15.579ZM138.615 19.4281H137.097V16.3306H134.015V19.4281H132.497V11.9576H134.015V15.169H137.097V11.9576H138.615V19.4281Z" fill="#D2D6E7"/>
</g>
</g>
</g>
</svg>
