<svg width="130" height="24" viewBox="0 0 130 24" fill="none" xmlns="http://www.w3.org/2000/svg">
<g id="maker-makerdao-com-logo-vector 1" clip-path="url(#clip0_4668_94698)">
<path id="Vector" d="M120.336 6.00002C120.164 6.00002 120.079 6.08573 119.907 6.17145C119.8 6.30002 119.736 6.45002 119.736 6.62145V19.7143C119.736 19.8857 119.821 19.9714 119.907 20.1643C119.993 20.25 120.164 20.3357 120.336 20.3357C120.507 20.3357 120.593 20.25 120.764 20.1643C120.871 20.0357 120.936 19.8857 120.936 19.7143V13.7572H124.279L127.343 20.0786C127.429 20.25 127.6 20.4429 127.879 20.4429C127.964 20.4429 128.05 20.4429 128.136 20.3572C128.307 20.2714 128.393 20.1857 128.393 19.9929C128.479 19.8214 128.393 19.7357 128.393 19.5429L125.586 13.7572C126.55 13.5857 127.429 13.1357 128.05 12.4286C128.757 11.7214 129.014 10.9072 129.014 9.94288C129.014 8.87145 128.586 7.99288 127.793 7.17859C127 6.47145 126.036 6.02145 124.9 6.02145C124.9 6.00002 120.336 6.00002 120.336 6.00002ZM126.914 11.7C126.379 12.2357 125.693 12.4929 124.9 12.4929H120.957V7.15716H124.814C125.607 7.15716 126.314 7.41431 126.914 7.95002C127.536 8.48573 127.793 9.10716 127.793 9.8143C127.793 10.5429 127.45 11.1643 126.914 11.7ZM114.379 20.3357C114.55 20.3357 114.636 20.25 114.807 20.1643C114.914 20.0357 114.979 19.8857 114.979 19.7143C114.979 19.5429 114.893 19.4572 114.807 19.2643C114.679 19.1572 114.529 19.0929 114.379 19.0929H107.093V13.7572H112.536C112.707 13.7572 112.793 13.6714 112.964 13.5857C113.071 13.4572 113.136 13.3072 113.136 13.1357C113.136 12.9643 113.05 12.8786 112.964 12.6857C112.836 12.5786 112.686 12.5143 112.536 12.5143H107.093V7.17859H114.379C114.55 7.17859 114.636 7.09288 114.807 7.00717C114.914 6.87859 114.979 6.72859 114.979 6.55716C114.979 6.38574 114.893 6.30002 114.807 6.10716C114.679 6.00002 114.529 5.93574 114.379 5.93574H106.493C106.321 5.93574 106.236 6.02145 106.064 6.10716C105.957 6.23573 105.893 6.38574 105.893 6.55716V19.7143C105.893 19.8857 105.979 19.9714 106.064 20.1643C106.15 20.25 106.321 20.3357 106.493 20.3357H114.379ZM92.5429 20.0786C92.65 19.95 92.7143 19.8 92.7143 19.6286V15.7929L94.4714 13.9286L100.343 20.1643C100.429 20.25 100.6 20.3357 100.771 20.3357C100.943 20.3357 101.029 20.25 101.2 20.1643C101.307 20.0357 101.371 19.8857 101.371 19.7143C101.371 19.5429 101.286 19.4572 101.2 19.2643L95.3286 12.9429L101.029 6.98574C101.136 6.85716 101.2 6.70716 101.2 6.53573C101.2 6.36431 101.114 6.27859 101.029 6.08573C100.9 5.97859 100.75 5.91431 100.579 5.91431C100.407 5.91431 100.321 6.00002 100.15 6.08573L92.6929 14.1V6.53573C92.6929 6.36431 92.6071 6.27859 92.5214 6.08573C92.3929 5.97859 92.2429 5.91431 92.0929 5.91431C91.9214 5.91431 91.8357 6.00002 91.6643 6.08573C91.6643 6.25716 91.5786 6.34288 91.5786 6.53573V19.6286C91.5786 19.8 91.6643 19.8857 91.75 20.0786C91.8357 20.1643 92.0071 20.25 92.1786 20.25C92.2643 20.25 92.4571 20.1643 92.5429 20.0786ZM75.8714 20.3357C76.1286 20.3357 76.3 20.25 76.4071 19.9714L77.6286 16.95H84.8286L86.05 19.9714C86.1357 20.2286 86.3071 20.3357 86.5857 20.3357C86.6714 20.3357 86.7571 20.3357 86.8429 20.25C86.9929 20.1857 87.1214 20.0572 87.1857 19.8857C87.2714 19.7143 87.2714 19.6286 87.1857 19.4357L85.7929 16.05L81.7643 6.25717C81.7643 6.25717 81.7643 6.17145 81.6786 6.17145V6.08573H81.5929C81.5071 6.00002 81.4214 6.00002 81.4214 6.00002H81.25H81.0786C80.9929 6.00002 80.9071 6.00002 80.9071 6.08573H80.8214V6.17145C80.8214 6.17145 80.8214 6.25717 80.7357 6.25717L76.6643 16.0714L75.25 19.4572C75.1643 19.6286 75.1643 19.7143 75.25 19.9072C75.3357 20.0786 75.4214 20.1643 75.5929 20.2714C75.7 20.3357 75.7857 20.3357 75.8714 20.3357ZM78.0571 15.7929L81.2071 8.14288L84.3571 15.7929H78.0571ZM57.6357 8.7643L62.9929 17.6572V17.7429H64.0429V17.6572L69.4 8.7643V19.8C69.4 19.9714 69.4857 20.0572 69.5714 20.25C69.6571 20.3357 69.8286 20.4214 70 20.4214C70.1714 20.4214 70.2571 20.3357 70.4286 20.25C70.5357 20.1214 70.6 19.9714 70.6 19.8V6.62145C70.6 6.3643 70.4286 6.08573 70.1714 6.08573C69.9143 6.00002 69.6357 6.08574 69.4643 6.34288L63.5071 16.1357L57.6357 6.25717C57.4643 6.00002 57.2071 5.89288 56.9286 6.00002C56.6714 6.08573 56.5 6.25716 56.5 6.62145V19.8C56.5 19.9714 56.5857 20.0572 56.6714 20.25C56.7571 20.25 56.9286 20.3357 57.1 20.3357C57.2714 20.3357 57.3571 20.25 57.5286 20.1643C57.6357 20.0357 57.7 19.8857 57.7 19.7143V8.7643H57.6357Z" fill="#D2D6E7" stroke="#D2D6E7" stroke-width="0.523828"/>
<path id="Vector_2" d="M17.1141 22.3073V11.7858C17.1141 11.0358 16.7498 10.3501 16.1069 9.92155L3.39978 1.50013C2.88549 1.15727 2.19978 1.30727 1.85692 1.82156C1.72835 2.01441 1.66406 2.2287 1.66406 2.44298V22.3287" stroke="#D2D6E7" stroke-width="3.29266"/>
<path id="Vector_3" d="M23.0723 22.3073V11.7858C23.0723 11.0358 23.4366 10.3501 24.0794 9.92155L36.7866 1.50013C37.3008 1.15727 37.9866 1.30727 38.3294 1.82156C38.458 2.01441 38.5223 2.2287 38.5223 2.44298V22.3287" stroke="#D2D6E7" stroke-width="3.29266"/>
<path id="Vector_4" d="M1.68627 20.6572C2.37199 20.6572 2.9077 21.2144 2.9077 21.8787V22.7787C2.9077 23.4644 2.35056 24.0001 1.68627 24.0001C1.00056 24.0001 0.464844 23.4429 0.464844 22.7787V21.8787C0.464844 21.1929 1.00056 20.6572 1.68627 20.6572Z" fill="#D2D6E7"/>
<path id="Vector_5" d="M23.0716 20.6572C23.7573 20.6572 24.2931 21.2144 24.2931 21.8787V22.7787C24.2931 23.4644 23.7359 24.0001 23.0716 24.0001C22.3859 24.0001 21.8502 23.4429 21.8502 22.7787V21.8787C21.8288 21.1929 22.3859 20.6572 23.0716 20.6572Z" fill="#D2D6E7"/>
<path id="Vector_6" d="M38.4792 20.6572C39.165 20.6572 39.7007 21.2144 39.7007 21.8787V22.7787C39.7007 23.4644 39.1435 24.0001 38.4792 24.0001C37.7935 24.0001 37.2578 23.4429 37.2578 22.7787V21.8787C37.2578 21.1929 37.815 20.6572 38.4792 20.6572Z" fill="#D2D6E7"/>
<path id="Vector_7" d="M17.1146 20.6572C17.8003 20.6572 18.336 21.2144 18.336 21.8787V22.7787C18.336 23.4644 17.7789 24.0001 17.1146 24.0001C16.4289 24.0001 15.8932 23.4429 15.8932 22.7787V21.8787C15.8717 21.1929 16.4289 20.6572 17.1146 20.6572Z" fill="#D2D6E7"/>
</g>
<defs>
<clipPath id="clip0_4668_94698">
<rect width="129" height="24" fill="white" transform="translate(0.335938)"/>
</clipPath>
</defs>
</svg>
