<svg width="82" height="32" viewBox="0 0 82 32" fill="none" xmlns="http://www.w3.org/2000/svg">
<g id="ripple-ar21 1" clip-path="url(#clip0_4668_94668)">
<path id="Vector" d="M42.4098 13.829C42.2472 13.7751 41.9028 13.7389 41.5677 13.7389C40.5361 13.7389 39.4321 14.5743 39.4321 15.6058V20.5237H37.0801V11.7473H39.3428V12.634C39.8674 11.9823 40.8266 11.5663 41.8944 11.5663C42.1613 11.5679 42.4274 11.5915 42.691 11.6387L42.4098 13.829ZM45.0691 7.13257C45.9112 7.13257 46.6077 7.78436 46.6077 8.63488C46.6077 9.48541 45.9197 10.1364 45.0691 10.1364C44.2186 10.1364 43.5306 9.48457 43.5306 8.63488C43.5306 7.7852 44.2186 7.13257 45.0691 7.13257ZM46.2456 20.522H43.8936V11.7473H46.2456V20.5237V20.522ZM53.1954 11.5663C52.2619 11.5545 51.3534 11.8684 50.6262 12.4538V11.7465H48.3525V24.8665H50.7053V19.909C51.3743 20.438 52.2055 20.7194 53.0582 20.7056C54.3609 20.7056 55.6098 20.1263 56.3879 19.221C57.0759 18.4244 57.4826 17.3397 57.4826 16.1448C57.4826 13.557 55.5643 11.5663 53.1769 11.5663H53.1954ZM52.9091 18.5692C51.4481 18.5692 50.4872 17.5612 50.4872 16.1524C50.4872 14.7435 51.4472 13.7355 52.9091 13.7355C54.1555 13.7355 55.1677 14.8176 55.1677 16.1524C55.1677 17.4871 54.1571 18.5692 52.9091 18.5692ZM71.7782 20.5229H69.4253V7.67657H71.7782V20.5246V20.5229ZM81.3698 19.1309C80.5277 20.1439 79.1256 20.7056 77.7689 20.7056C75.1449 20.7056 73.1727 18.8951 73.1727 16.1456C73.1727 13.7035 74.8376 11.5671 77.4422 11.5671C79.8674 11.5671 81.5853 13.6117 81.5853 16.0555C81.587 16.2795 81.5685 16.5035 81.5306 16.725H75.4506C75.5769 17.9545 76.5723 18.805 77.8211 18.805C78.8165 18.805 79.6123 18.2441 80.0291 17.7919L81.3698 19.1309ZM79.1803 15.0046C79.1283 14.5803 78.923 14.1897 78.603 13.9063C78.283 13.623 77.8705 13.4664 77.443 13.466C76.4662 13.466 75.6696 14.2071 75.5609 15.0046H79.1803ZM63.7277 11.5663C62.7941 11.5545 61.8856 11.8684 61.1584 12.4538V11.7465H58.8957V24.8665H61.2485V19.909C61.9174 20.438 62.7487 20.7194 63.6013 20.7056C64.9041 20.7056 66.1529 20.1263 66.931 19.221C67.619 18.4244 68.0258 17.3397 68.0258 16.1448C68.0258 13.557 66.1074 11.5663 63.7201 11.5663H63.7277ZM63.4413 18.5692C61.9803 18.5692 61.0194 17.5612 61.0194 16.1524C61.0194 14.7435 61.9794 13.7355 63.4413 13.7355C64.6877 13.7355 65.6999 14.8176 65.6999 16.1524C65.6999 17.4871 64.6893 18.5692 63.4413 18.5692Z" fill="#D2D6E7"/>
<path id="Vector_2" d="M26.1208 19.4141C25.0254 18.7822 23.7935 18.6006 22.5717 18.557C21.5475 18.5207 20.0178 17.864 20.0178 16.0002C20.0178 14.6113 21.1437 13.4942 22.5717 13.4433C23.792 13.3998 25.0269 13.2167 26.1208 12.5862C28.8374 11.0173 30.0388 7.72244 28.9653 4.77337C27.8917 1.8243 24.854 0.0708372 21.764 0.615616C18.674 1.16039 16.4179 3.84652 16.4179 6.98589C16.4179 8.23961 16.8639 9.39164 17.4319 10.4623C17.9113 11.363 18.1525 13.0308 16.5123 13.978C15.292 14.6825 13.7696 14.2365 13.0083 13.0191C12.3662 11.9906 11.5904 11.0289 10.5038 10.3998C7.78716 8.83088 4.33254 9.44103 2.31613 11.8439C0.299722 14.2467 0.296817 17.7536 2.31613 20.1579C4.33544 22.5622 7.78571 23.1709 10.5038 21.6019C11.589 20.9744 12.3633 20.0126 13.0069 18.9841C13.5342 18.1415 14.8519 17.0665 16.5109 18.0253C17.7312 18.7299 18.106 20.2712 17.4305 21.5409C16.8639 22.6102 16.4165 23.7636 16.4165 25.0159C16.4165 28.1538 18.6682 30.8414 21.7626 31.3847C24.8569 31.9281 27.8902 30.1789 28.9638 27.227C30.0374 24.275 28.8389 20.9831 26.1208 19.4141Z" fill="#D2D6E7"/>
</g>
<defs>
<clipPath id="clip0_4668_94668">
<rect width="80.8421" height="32" fill="white" transform="translate(0.773438)"/>
</clipPath>
</defs>
</svg>
