<svg width="659" height="157" fill="none" xmlns="http://www.w3.org/2000/svg">
  <path d="M777.84-375.3l.2 1.62c72.88-9.3 149.44-8.7 234.06 1.81 71.03 8.83 128.91 35.98 172.03 80.7 38.99 40.44 65.23 94.27 78.01 160 20.27 104.3 4.48 232.94-43.33 352.93-47.83 120.07-120.92 214.32-200.53 258.56-55.71 30.97-110.46 49.56-167.37 56.82-52.46 6.69-106.91 3.49-166.45-9.8-52.65-11.74-102.67-29.68-151.03-47.02l-.02-.01h-.02c-65.14-23.37-126.67-45.44-187.36-49.9-63.4-4.65-128.68-37.48-183.81-92.46-51.58-51.44-89.46-117.7-103.92-181.81-4.53-20.09-6.67-39.7-6.42-58.36a7 7 0 01-1.7-.02C48.34 241.39 188.4 420.5 345.91 432.06c60.47 4.43 122.1 26.54 186.94 49.8 96.7 34.68 200.54 71.93 318.27 56.9 52.96-6.75 108.76-24.1 167.96-57 263.47-146.44 407.58-803.77-6.78-855.26-88.26-10.97-165.33-10.63-234.51-1.8C585.47-350.75 454.48-260.6 316.1-165.34 258.3-125.56 199.22-84.9 133.85-47.75 80.48-17.43 55.09 30.15 50.82 83.83c.58-.03 1.14.02 1.69.13A178.73 178.73 0 0161.2 40.6c12.6-37.15 37.32-66.4 73.46-86.93C200.1-83.5 259.55-124.42 317.04-164 455.38-259.22 586.07-349.17 778-373.67l-.16-1.64z" fill="#E7EAF3"/>
  <path d="M1077.1-178.82c-27.28-59.06-83.03-126.5-193.71-112.39h-.01c-4.71.6-9.54 1.36-14.37 2.25-187.08 34.4-314.64 71.5-413.59 120.34-111.16 54.86-188.47 125.94-243.3 223.68a165.6 165.6 0 00-13.1 29.65c-.5-.2-1.04-.35-1.6-.43a167.15 167.15 0 0113.26-30.03c112.7-200.87 318.67-282.44 658.04-344.83 4.9-.9 9.72-1.65 14.45-2.26 299.33-38.2 275.17 507.8 115.22 653.13-61.76 56.11-124.44 82.08-186.98 90.06-95.04 12.13-189.8-17.26-280.71-45.47-23.3-7.22-46.33-14.37-69.06-20.72-163.61-45.71-295.43-165.45-267.91-286.5.5.22 1.03.37 1.59.46-1.95 8.56-3.1 17.2-3.47 25.88-.94 22.3 3.32 45.02 12.66 67.52 16.96 40.82 50.46 80.4 96.87 114.49 45.54 33.44 101.11 59.92 160.7 76.57 22.75 6.36 46.32 13.67 69.1 20.74 91.12 28.26 185.33 57.48 280.02 45.4 68.43-8.73 129.3-38.05 186.08-89.65 51.02-46.35 91.35-138.2 107.87-245.7 8-52.02 9.97-105.5 5.68-154.62-4.59-52.76-15.95-99.05-33.73-137.57z" fill="#E7EAF3"/>
  <path d="M799.21-239.5c21.3-2.71 41.93 1.3 61.31 11.9 18.01 9.88 35.07 25.5 50.7 46.43 36.88 49.36 65.14 127.76 77.56 215.09 11.83 83.22 7.13 159.57-12.58 204.23C938.5 323.54 874.5 374.3 791.1 384.94c-65.9 8.4-141.52-9.39-212.92-50.1-52.8-30.1-99.9-41.87-141.45-52.25-68.19-17.04-118.29-29.55-144.22-114.6a7 7 0 01-1.57.5c26.18 85.91 76.7 98.53 145.4 115.7 40.97 10.23 88.42 22.09 141.02 52.08 69.48 39.61 145.2 59.07 213.95 50.3 77.19-9.85 145.57-55.3 186.38-147.75 56.43-127.86-14.84-500.86-178.7-479.95-22.86 2.92-47.51 13.5-73.87 33.47-90.22 68.35-183 101.56-260.54 129.31C334.62-31.83 247.5-.65 287.2 155.05c.48-.18.99-.3 1.51-.37h.03l.07-.01C249.46.39 335.33-30.34 465.14-76.8h.01c75.99-27.2 170.56-61.05 260.98-129.56 25.08-19 49.66-30.15 73.08-33.14z" fill="#E7EAF3"/>
  <path d="M749.91-153.2c31.93-4.08 63.04 10.44 89.99 41.96 27.9 32.66 51.02 83.63 63.4 139.83 12.1 54.86 12.76 107.82 1.8 145.29-18.34 62.78-60.78 97.58-129.74 106.38-47.92 6.11-101.03-.94-147.9-7.15l-9.04-1.2c-13.58-1.78-27.1-3.32-40.19-4.8-91.86-10.43-171.2-19.43-193.03-105.73-9.4-36-7.44-64.79 5.57-88.88a7 7 0 01-1.2-.51c-12.36 22.8-15.3 51.23-5.17 89.6 19.67 87.08 99.56 95.94 191.5 106.14 13.92 1.54 28.11 3.12 42.4 5l4.7.61 4.35.58h.01c46.75 6.2 100.08 13.28 148.1 7.15 58.6-7.48 109.3-34.61 130.44-106.96C938 64.27 867.69-169.06 749.8-154.02c-21.88 2.8-45.4 14.15-70.2 36.43C625.4-68.9 565.3-40.2 513.11-15.27c-50 23.9-92.73 44.3-116.01 75.5.33.25.64.52.92.82 2.56-3.48 5.38-6.86 8.46-10.15 24.26-25.97 62.55-44.82 107.26-66 52.54-24.89 112.09-53.1 166.39-101.88 23.52-21.13 47-33.31 69.77-36.22z" fill="#E7EAF3"/>
  <path d="M773.3-47.82c-21.53-20.24-45.23-29.36-68.55-26.39-24.46 3.12-47.8 19.17-69.39 47.68-20.73 27.4-48.41 49.81-75.19 71.5-5.6 4.93-11.27 9.73-16.84 14.46-16.66 14.12-32.55 27.59-44 42.26l-.02.05a7.03 7.03 0 00-1.4-.9c15.06-19.76 37.56-37.98 61.23-57.15 26.42-21.4 54.3-43.97 74.91-71.2 23.24-30.7 47.37-45.37 70.48-48.33 72.68-9.28 135.42 97.27 129.56 185.24-3.8 57.22-44.32 63.45-89.3 70.37-29.65 4.57-61.26 9.43-85.54 29.41-18.4 15.14-38.07 22.94-57.37 25.4-57.82 7.38-112.44-33.11-120.6-67.67-4.8-20.37-.75-38.13 8.89-54.57.4.36.85.69 1.34.95-10.26 17.55-13 34.73-8.63 53.24 1.95 8.25 6.73 17.07 13.82 25.51 7.17 8.54 16.55 16.5 27.12 23.03 24.08 14.87 51.73 21.22 77.85 17.89 20.49-2.62 39.51-11.05 56.53-25.05 24.64-20.27 56-25.1 86.34-29.76h.01c45.17-6.96 84.18-12.96 87.9-68.86 3.75-56.22-20.58-120.83-59.16-157.11z" fill="#E7EAF3"/>
  <path d="M680.48-8.56c15.22-1.94 30.5 3.62 44.21 16.08 22.9 20.82 37.55 57.3 36.45 90.8-1.22 37.34-27.29 44.53-57.47 52.86-15.9 4.38-32.32 8.91-46.63 18.21a71.25 71.25 0 01-30 11.19c-17.6 2.24-35.98-2.3-51.75-12.78-14.4-9.57-24.59-23-27.26-35.91-6.03-29.21 14.23-51.1 39.93-72.6a7 7 0 01-.96-1.35c-26 21.76-46.8 44.18-40.58 74.28 5.57 26.93 42.04 54.94 80.83 49.99a72.86 72.86 0 0030.68-11.44c14.1-9.16 30.54-13.7 46.17-18 30.24-8.34 57.43-15.84 58.69-54.4 1.76-53.77-36.67-114.4-82.51-108.56-13 1.66-26.6 8.66-40.04 22.68-11.07 11.54-24.32 22.13-37.36 32.57l-5.22 4.18c.42.35.8.75 1.13 1.2l5.1-4.09h.01v-.01c12.98-10.37 26.39-21.1 37.53-32.71C653.9.62 667.04-6.85 680.48-8.56z" fill="#E7EAF3"/>
  <path fill-rule="evenodd" clip-rule="evenodd" d="M667.12 56.04c-21.91 2.8-44.4 27.38-41.6 49.3 2.8 21.9 18.44 34.57 40.35 31.77 21.92-2.8 27.58-28.76 24.79-50.67-.28-2.2-.52-4.27-.75-6.25-2.04-17.78-3.07-26.67-22.79-24.15zm.2 1.62c18.33-2.34 19.17 5.5 20.87 21.5v.04c.25 2.31.51 4.8.85 7.44 2.68 20.99-2.39 46.18-23.38 48.85-20.98 2.68-35.84-9.38-38.51-30.37-2.68-20.98 19.2-44.79 40.18-47.46z" fill="#E7EAF3"/>
  <path fill-rule="evenodd" clip-rule="evenodd" d="M51.45 93.8a3.05 3.05 0 10-.77-6.04 3.05 3.05 0 00.77 6.04z" fill="#E7EAF3"/>
  <path fill-rule="evenodd" clip-rule="evenodd" d="M196.8 94.43a3.05 3.05 0 10-.78-6.05 3.05 3.05 0 00.77 6.05z" fill="#E7EAF3"/>
  <path fill-rule="evenodd" clip-rule="evenodd" d="M394.8 69.43a3.05 3.05 0 10-.78-6.05 3.05 3.05 0 00.77 6.05z" fill="#E7EAF3"/>
  <path fill-rule="evenodd" clip-rule="evenodd" d="M593.8 58.43a3.05 3.05 0 10-.78-6.05 3.05 3.05 0 00.77 6.05z" fill="#E7EAF3"/>
  <path fill-rule="evenodd" clip-rule="evenodd" d="M494.8 109.43a3.05 3.05 0 10-.78-6.05 3.05 3.05 0 00.77 6.05z" fill="#E7EAF3"/>
</svg>
