<svg width="310" height="296" viewBox="0 0 310 296" fill="none" xmlns="http://www.w3.org/2000/svg">
<g clip-path="url(#clip0_3426_91732)">
<path d="M272.101 46.0736C251.918 100.325 201.684 138.125 132.164 89.6544C146.068 25.1725 174.325 -6.84351 272.101 46.0736Z" fill="white"/>
<path d="M241.05 67.9754C241.05 94.3252 219.73 115.686 193.432 115.686C167.134 115.686 145.814 94.3252 145.814 67.9754C145.814 41.6256 167.134 20.2649 193.432 20.2649C219.73 20.2649 241.05 41.6256 241.05 67.9754Z" fill="#8358FF"/>
<path d="M169.347 68.2119C160.147 60.973 149.27 63.3439 146.041 72.2498C148.218 88.7015 152.594 97.0167 166.676 107.788C190.929 116.538 205.889 113.337 227.32 100.639C236.515 91.7375 241.763 79.3909 240.395 59.5147C223.142 46.4739 206.466 55.1787 200.271 64.1823L169.347 68.2119Z" fill="#6339DD"/>
<path d="M291.313 291.651C295.875 291.633 297.655 291.393 300.051 290.751C302.167 289.484 303.171 288.603 304.086 286.251C309.297 272.611 309.744 263.3 307.102 239.808C303.325 206.216 302.253 189.663 301.283 165.808C300.199 156.859 299.423 151.441 291.333 144.874C278.465 134.427 261.694 133.405 235.518 130.755L234.177 112.544C257.536 92.1124 266.188 77.6989 272.044 45.7156C251.781 85.9947 231.937 97.9179 200.567 106.918L191.381 134.819L160.908 142.02L142.816 185.282C138.364 181.575 135.356 180.378 130.883 179.371C125.617 181.751 130.659 196.472 136.273 200.072L127.298 221.223C107.779 202.211 95.0952 191.287 74.8655 177.228C68.6966 172.941 61.6585 170.088 54.2867 168.664L30.5017 164.071C22.4346 164.41 18.0697 164.41 7.64703 165.196L5.85451 166.996C5.5653 173.877 10.9404 177.339 17.73 178.246C20.8945 178.669 24.8924 176.57 27.8129 177.571C36.9996 180.721 36.7326 184.658 34.0868 190.397L28.9333 197.822C25.2871 200.519 22.2383 203.946 19.9796 207.885L19.2984 209.073C15.8837 217.849 13.2946 221.488 8.85493 229.673C9.38851 237.016 7.04523 243.116 5.34113 249.263C3.09137 253.572 1.85322 256.706 1.60157 258.989C1.45837 265.816 9.20894 264.204 12.8587 260.506C16.035 256.566 17.9786 253.645 20.408 248.29C23.6915 256.299 22.9196 256.459 25.3445 264.425C26.3098 270.124 30.7866 271.178 33.1906 268.635C37.4692 261.33 36.4992 255.485 33.1906 241.249L39.4644 229.999L40.1366 245.974C45.2264 262.876 43.6509 265.071 43.2735 272.976C47.0427 277.089 49.4608 273.834 53.8046 266.9C61.1988 259.925 60.4111 236.566 62.5431 234.049C64.6752 231.532 73.8432 222.367 73.8432 222.367L101.926 265.816C94.9424 271.86 98.0925 279.35 101.304 278.151C99.3997 279.813 98.7226 281.316 98.7598 282.738C98.8621 286.646 104.251 287.503 107.871 286.058C106.744 288.598 108.298 289.683 110.94 290.976L123.039 289.626L146.79 295.026C157.664 292.306 163.593 290.95 175.695 289.626C189.366 269.202 198.97 261.33 211.283 250.807L216.027 255.2L230.494 271.557L242.242 282.426L247.954 285.681L259.108 291.651L269.778 293.961L283.022 293.226L291.313 291.651Z" fill="#14C393"/>
<path d="M175.688 27.9419C174.541 17.1663 174.831 11.4002 181.738 2.96582C199.136 -1.32189 227.2 8.5078 246.715 21.6411C257.79 29.0943 263.52 36.0413 271.586 45.2672C214.706 25.1093 197.653 24.1298 175.688 27.9419Z" fill="#14C393"/>
<path fill-rule="evenodd" clip-rule="evenodd" d="M240.077 68.3368C240.077 52.7108 232.565 38.8601 220.991 30.2746L222.143 28.6963C234.195 37.6361 242.02 52.0628 242.02 68.3368C242.02 77.6297 239.468 86.3229 235.033 93.7353L233.369 92.7231C237.626 85.6078 240.077 77.2633 240.077 68.3368ZM154.074 43.0052C149.46 50.3222 146.785 59.0121 146.785 68.3368C146.785 81.6562 152.243 93.6845 161.021 102.263L159.668 103.67C150.527 94.737 144.842 82.2071 144.842 68.3368C144.842 58.629 147.627 49.576 152.434 41.9538L154.074 43.0052Z" fill="#181B2B"/>
<path d="M278.88 236.123C266.727 192.829 271.305 180.464 276.473 162.475C258.049 189.458 254.166 216.785 252.369 228.478C262.558 232.215 268.378 233.815 278.88 236.123Z" fill="#181B2B"/>
<path d="M142.726 234.327C138.681 239.274 135.623 243.495 132.162 245.171C116.529 220.389 98.2391 201.512 78.6914 179.911L107.226 202.397L127.447 221.96L135.614 200.037C143.927 206.333 147.669 203.296 149.916 205.095C160.344 209.829 162.973 224.422 146.77 231.628L142.726 234.327Z" fill="#181B2B"/>
<path d="M205.858 142.814C184.389 148.505 162.944 172.721 162.944 192.508C155.801 191.636 146.985 188.087 140.963 183.976C147.127 167.033 150.137 157.88 159.574 143.714C162.72 139.442 172.507 137.369 189.984 134.261L189.007 124.151C164.966 120.778 149.899 109.078 132.612 90.1973C153.542 104.102 176.719 108.976 201.365 106.387C202.14 114.254 203.099 117.011 208.934 122.587L204.075 123.073L205.858 142.814Z" fill="#181B2B"/>
<path d="M175.982 28.8071C176.302 17.8989 177.971 12.2311 182.948 2.72339C150.665 10.8384 135.764 44.997 133.068 85.9214C142.502 52.419 151.941 36.902 175.982 28.8071Z" fill="#181B2B"/>
<path d="M191.325 91.6528C201.973 90.2869 209.278 78.802 207.642 66.0005C206.006 53.1989 196.049 43.9285 185.401 45.2944C174.754 46.6603 167.449 58.1453 169.085 70.9468C170.721 83.7483 180.678 93.0187 191.325 91.6528Z" fill="#181B2B"/>
<path fill-rule="evenodd" clip-rule="evenodd" d="M134.481 79.1989C143.295 48.9318 156.131 32.5037 176.25 27.0816C187.402 24.0764 200.678 24.4903 216.547 27.648C231.41 30.6054 248.612 35.9834 268.569 43.2857C230.191 5.13566 197.985 -3.68007 174.796 6.60622C153.105 16.2278 138.745 42.783 134.481 79.1989ZM270.974 46.2457C249.734 38.3777 231.641 32.6365 216.169 29.5579C200.443 26.4287 187.5 26.0662 176.755 28.962C155.54 34.6794 142.45 53.247 133.648 89.9652C162.851 106.163 189.418 110.087 212.525 102.578C235.561 95.0918 255.361 76.1778 270.974 46.2457ZM269.546 52.9406C254.285 79.848 235.251 97.2396 213.125 104.43C190.538 111.77 164.913 108.42 137.09 94.0193C153.201 111.005 170.332 120.264 187.986 122.322C203.07 124.08 218.631 120.593 234.383 112.036C244.419 102.3 251.672 94.1172 257.41 84.1856C262.283 75.7501 266.086 66.0151 269.546 52.9406ZM234.077 114.407C218.458 122.64 202.916 126.023 187.761 124.256C168.099 121.964 149.239 111.025 131.801 91.099L131.538 90.7993L131.561 90.4013C133.995 47.9819 149.099 15.8748 174.009 4.82571C198.99 -6.25535 233.159 4.11106 273.039 45.0356L273.411 45.4179L273.29 45.9381C269.297 62.9916 264.98 74.9704 259.092 85.1611C253.266 95.2454 245.932 103.527 235.958 113.218L236.859 129.458C250.459 130.957 261.62 132.51 270.681 134.706C279.922 136.947 287.059 139.874 292.4 144.166C294.219 145.627 295.827 147.245 297.238 149.043C301.821 154.887 302.585 162.594 302.923 169.655C304.286 198.153 305.958 218.926 309.02 248.621C310.106 259.151 310.663 270.12 307.584 280.45C306.322 284.684 304.806 287.626 302.766 289.523C300.719 291.426 298.253 292.178 295.31 292.277C271.22 299.133 253.706 291.961 240.433 281.557C233.806 276.364 228.236 270.367 223.434 264.94C222.543 263.932 221.68 262.947 220.843 261.992C217.391 258.05 214.384 254.617 211.635 252.202C201.232 260.416 194.723 266.476 189.785 272.157C184.75 277.948 181.324 283.371 177.051 290.357L176.818 290.738L146.088 295.704L122.735 290.15C119.568 290.329 116.335 290.763 112.606 291.448C111.351 291.678 109.907 291.685 108.603 291.04C107.431 290.46 106.58 289.706 106.319 288.572C106.212 288.105 106.218 287.62 106.3 287.125C105.367 287.431 104.412 287.75 103.43 288.085C101.794 288.643 99.8149 288.092 98.9491 286.404C98.3294 285.195 97.9678 284.053 97.9124 282.805C97.8629 281.691 98.0601 280.551 98.4594 279.27C95.5767 274.251 97.2548 269.007 100.711 265.117L72.9711 223.856L67.8204 229.897C67.5479 230.217 67.2749 230.533 67.0035 230.847C65.9408 232.077 64.9029 233.278 64.0182 234.556C62.9186 236.145 62.1153 237.775 61.8622 239.57C61.6243 241.257 61.4604 243.221 61.2828 245.349C61.2371 245.897 61.1905 246.456 61.1414 247.024C60.9038 249.775 60.6113 252.709 60.0903 255.497C59.0979 260.809 57.2092 265.988 52.8541 268.168C52.1833 270.548 51.2305 272.297 50.0081 273.426C48.6756 274.656 47.093 275.081 45.4483 274.855C44.165 274.679 43.2391 273.892 42.6818 272.917C42.1339 271.958 41.918 270.79 42.0047 269.687C42.3378 265.451 42.4977 262.017 42.0554 258.524C41.6149 255.046 40.5709 251.468 38.4456 246.984L38.3516 246.785V232.413L34.0408 240.386C36.0009 249.111 36.9038 255.377 36.7564 259.981C36.6058 264.684 35.353 267.775 32.9047 269.956C31.5113 271.198 29.7734 271.265 28.3278 270.619C26.9103 269.986 25.7337 268.661 25.2574 267.02L20.2191 249.659C18.7775 253.056 16.8425 256.003 14.3295 259.207C12.4224 261.639 9.81814 263.929 6.52591 264.495C5.45569 264.679 4.41497 264.666 3.49138 264.238C2.54353 263.8 1.87003 262.996 1.4053 261.906C0.100466 258.847 1.35766 255.52 2.61464 252.975C6.19566 245.725 7.46795 240.034 7.28246 229.562L7.27707 229.258L7.44554 229.005C10.6585 224.177 12.6443 219.665 14.5399 215.357C15.1907 213.878 15.8309 212.424 16.5065 210.989C19.1265 205.424 22.2282 200.303 28.4517 195.764C30.3406 193.392 31.8124 191.312 32.8117 189.466C33.829 187.586 34.3145 186.025 34.3092 184.699C34.2994 182.272 32.5982 180.11 27.6189 178.052C21.8057 179.706 16.144 179.436 11.9217 177.72C7.62191 175.973 4.65052 172.623 4.93741 168.199C5.12367 165.327 7.85775 163.824 10.2568 163.677L30.6692 162.425L55.0778 168.216C63.5356 170.223 71.4892 173.954 78.4415 179.178L99.1324 194.723C99.5617 195.046 99.6488 195.656 99.3268 196.087C99.0048 196.517 98.3957 196.604 97.9663 196.281L77.2755 180.736C70.5369 175.673 62.8278 172.056 54.6299 170.111L30.5011 164.386L10.3756 165.62C8.44753 165.739 6.97154 166.866 6.87689 168.325C6.66311 171.622 8.82085 174.359 12.6521 175.916C16.4811 177.472 21.8177 177.745 27.3963 176.089L27.7204 175.993L28.0341 176.119C33.3969 178.274 36.2377 180.937 36.2527 184.692C36.2599 186.482 35.6111 188.379 34.5202 190.394C33.4256 192.417 31.8431 194.635 29.8876 197.083L29.8051 197.187L29.698 197.264C23.7726 201.554 20.8268 206.377 18.2643 211.82C17.6249 213.178 17.006 214.584 16.3682 216.034C14.4906 220.301 12.4484 224.943 9.23072 229.831C9.3906 240.371 8.06181 246.337 4.35659 253.838C3.09569 256.391 2.26648 258.97 3.19251 261.141C3.52374 261.917 3.90861 262.287 4.30664 262.471C4.72892 262.666 5.32158 262.726 6.19735 262.576C8.79562 262.129 11.0173 260.279 12.8013 258.004C15.8938 254.061 18.0031 250.627 19.4087 246.267C20.3465 243.357 20.9803 240.006 21.3646 235.779L21.3873 235.529L21.5273 235.322C25.7752 229.025 28.0031 225.622 29.1408 218.688L29.2746 217.872H35.4398C35.9765 217.872 36.4115 218.308 36.4115 218.846C36.4115 219.384 35.9765 219.819 35.4398 219.819H30.9171C29.6761 226.588 27.2999 230.24 23.2771 236.205C22.894 240.283 22.2736 243.625 21.3492 246.579L27.1237 266.477C27.4438 267.58 28.2352 268.445 29.1197 268.841C29.9762 269.224 30.8743 269.159 31.6132 268.501C33.537 266.787 34.6741 264.284 34.8138 259.918C34.9548 255.515 34.075 249.345 32.0647 240.459L31.9839 240.102L38.7446 227.599H42.7216C43.2583 227.599 43.6934 228.034 43.6934 228.572C43.6934 229.11 43.2583 229.546 42.7216 229.546H40.166C40.2482 229.689 40.2952 229.854 40.2952 230.031V246.348C42.4298 250.892 43.5194 254.614 43.9835 258.279C44.4527 261.984 44.2766 265.589 43.9423 269.84C43.8819 270.608 44.0407 271.376 44.3685 271.949C44.6869 272.507 45.1379 272.847 45.7117 272.926C46.8148 273.077 47.8088 272.808 48.6912 271.994C49.6086 271.147 50.4678 269.649 51.093 267.233C51.938 263.968 52.3153 259.183 51.9479 252.49C51.8535 251.749 51.7546 251.041 51.6589 250.356C51.3588 248.207 51.0897 246.281 51.0858 244.218C51.0806 241.442 51.5484 238.417 52.964 234.104L53.077 233.76L55.8145 232.114C56.2748 231.838 56.8717 231.987 57.1478 232.448C57.4239 232.909 57.2746 233.507 56.8144 233.784L54.6988 235.056C53.4201 239.034 53.0248 241.763 53.0294 244.215C53.033 246.132 53.2769 247.88 53.5709 249.988C53.6707 250.703 53.7763 251.46 53.8803 252.279L53.8846 252.313L53.8866 252.348C54.1886 257.818 54.0089 262.135 53.4501 265.461C55.9491 263.371 57.3417 259.625 58.1799 255.139C58.6821 252.452 58.9681 249.599 59.2051 246.856C59.2526 246.306 59.2982 245.759 59.3433 245.218C59.5214 243.083 59.6913 241.046 59.9378 239.298C60.2488 237.091 61.226 235.174 62.421 233.447C63.3713 232.074 64.4972 230.771 65.5668 229.534C65.83 229.23 66.0897 228.929 66.3426 228.633L82.2758 209.946C82.6244 209.537 83.2378 209.489 83.6459 209.838C84.0539 210.187 84.1022 210.802 83.7536 211.211L74.2813 222.32L102.094 263.689C106.87 259.043 112.086 256.294 117.419 253.484C118.55 252.888 119.686 252.29 120.825 251.669C127.666 247.943 134.795 243.355 141.949 233.823L142.117 233.599L142.377 233.499C148.51 231.136 154.49 226.061 156.745 220.65C157.86 217.975 158.045 215.275 156.974 212.759C155.908 210.257 153.534 207.785 149.229 205.682C143.855 204.834 139.408 203.021 135.939 200.629L133.937 206.515C133.764 207.024 133.211 207.296 132.703 207.123C132.195 206.95 131.924 206.396 132.097 205.887L134.303 199.4C127.908 194.167 125.566 186.746 127.965 180.651C128.459 179.396 129.489 178.643 130.635 178.38C131.763 178.121 133.01 178.329 134.064 178.953C136.262 180.255 138.323 181.423 140.273 182.472L145.703 168.404C145.897 167.902 146.46 167.653 146.96 167.847C147.461 168.041 147.71 168.604 147.516 169.106L142.004 183.386C153.732 189.472 161.434 191.115 170.963 191.79C174.903 192.07 178.785 193.084 182.296 194.973L209.419 209.573C213.119 209.11 215.874 209.216 218.279 210.049C220.715 210.894 222.682 212.447 224.864 214.646C242.096 223.503 257.423 228.776 270.019 233.11L270.283 233.201C276.614 235.379 282.276 237.332 287.117 239.39C291.956 241.447 296.037 243.635 299.186 246.31C299.596 246.657 299.646 247.272 299.299 247.682C298.952 248.092 298.339 248.143 297.93 247.795C294.998 245.306 291.124 243.209 286.358 241.183C281.593 239.157 276 237.227 269.652 235.042L269.363 234.943C256.736 230.599 241.251 225.271 223.839 216.307L223.701 216.236L223.592 216.126C221.438 213.942 219.699 212.602 217.644 211.89C215.584 211.176 213.09 211.052 209.36 211.544L209.05 211.585L181.376 196.688C178.137 194.945 174.528 193.995 170.826 193.733C160.836 193.025 152.745 191.256 140.331 184.708C138.068 183.514 135.661 182.162 133.075 180.629C132.424 180.244 131.684 180.137 131.069 180.278C130.474 180.415 130.005 180.775 129.773 181.366C127.702 186.627 129.732 193.43 136.037 198.293C139.388 200.877 143.937 202.897 149.67 203.78L149.813 203.802L149.944 203.865C154.603 206.114 157.444 208.901 158.761 211.995C160.084 215.1 159.806 218.359 158.538 221.4C156.062 227.344 149.737 232.672 143.336 235.215C136.01 244.9 128.679 249.607 121.753 253.38C120.57 254.025 119.404 254.64 118.257 255.245C112.62 258.219 107.413 260.966 102.645 265.891C99.3587 269.286 97.8605 273.582 99.8036 277.65C110.98 270.965 117.406 268.244 128.251 267.501C134.571 261.875 138.454 258.666 148.629 253.95L148.94 253.805L155.098 255.348C155.619 255.478 155.935 256.007 155.805 256.528C155.675 257.05 155.147 257.367 154.627 257.237L149.134 255.861C139.29 260.453 135.61 263.549 129.294 269.178L129.044 269.4L128.71 269.422C117.995 270.11 111.843 272.697 100.505 279.498C100.474 279.517 100.444 279.533 100.412 279.547C99.9837 280.837 99.8145 281.829 99.854 282.719C99.8939 283.618 100.15 284.484 100.678 285.514C101.029 286.199 101.917 286.544 102.804 286.242C104.425 285.689 105.978 285.176 107.48 284.7C119.445 280.911 128.1 279.521 141.919 279.156C145.127 276.877 147.879 275.258 151.002 274.051C154.199 272.816 157.741 272.03 162.498 271.376C163.029 271.303 163.52 271.676 163.593 272.208C163.666 272.741 163.294 273.232 162.762 273.305C158.078 273.949 154.701 274.709 151.701 275.868C148.707 277.025 146.044 278.596 142.805 280.914L142.563 281.088L142.265 281.095C128.607 281.439 120.138 282.768 108.51 286.417C108.195 287.276 108.133 287.788 108.213 288.135C108.285 288.445 108.525 288.83 109.464 289.294C110.249 289.682 111.22 289.722 112.256 289.532C116.092 288.828 119.452 288.378 122.77 288.198C128.621 287.88 134.289 288.407 142.159 289.817C151.978 286.339 158.905 285.22 172.252 284.015C172.786 283.967 173.259 284.362 173.307 284.898C173.355 285.433 172.961 285.907 172.426 285.955C159.045 287.162 152.296 288.271 142.566 291.738L142.323 291.825L142.068 291.779C138.227 291.086 134.94 290.607 131.923 290.334L146.16 293.719L175.627 288.958C179.799 282.145 183.263 276.694 188.319 270.878C193.468 264.956 200.242 258.682 211.061 250.177L211.679 249.691L212.283 250.195C215.321 252.731 218.643 256.525 222.351 260.76C223.177 261.704 224.023 262.669 224.889 263.648C229.675 269.057 235.149 274.944 241.63 280.024C254.55 290.151 271.469 297.076 294.893 290.371L295.011 290.337L295.134 290.334C297.818 290.261 299.815 289.61 301.444 288.095C303.108 286.548 304.498 283.999 305.722 279.892C308.683 269.96 308.17 259.324 307.087 248.821C304.022 219.097 302.346 198.288 300.982 169.748C300.642 162.656 299.867 155.547 295.71 150.246C294.543 148.759 293.23 147.401 291.756 146.156C280.407 154.574 275.19 166.401 269.863 181.719C269.686 182.227 269.132 182.495 268.625 182.319C268.119 182.142 267.851 181.587 268.028 181.079C273.3 165.917 278.607 153.687 290.176 144.909C285.259 141.28 278.741 138.664 270.224 136.599C261.112 134.39 249.793 132.83 235.829 131.303L235.009 131.214L234.077 114.407ZM234.898 136.304C235.093 136.805 234.845 137.369 234.345 137.565C224.345 141.474 216.698 143.342 210.041 143.467C203.356 143.592 197.739 141.958 191.808 138.988C191.328 138.747 191.134 138.162 191.374 137.681C191.614 137.2 192.197 137.005 192.677 137.246C198.398 140.111 203.704 141.638 210.005 141.52C216.333 141.402 223.735 139.622 233.639 135.751C234.139 135.555 234.702 135.803 234.898 136.304ZM38.6496 187.02C39.0364 186.647 39.6515 186.659 40.0237 187.046C42.926 190.068 45.5247 192.064 48.6164 193.605C51.7263 195.156 55.3764 196.268 60.4234 197.473C60.9455 197.598 61.2679 198.123 61.1434 198.646C61.019 199.169 60.4949 199.492 59.9728 199.367C54.89 198.154 51.0645 197.001 47.7504 195.348C44.4181 193.687 41.6444 191.542 38.6232 188.396C38.251 188.009 38.2629 187.393 38.6496 187.02ZM65.0527 198.906C65.5894 198.906 66.0245 199.342 66.0245 199.879V208.147C66.0245 208.684 65.5894 209.12 65.0527 209.12C64.516 209.12 64.0809 208.684 64.0809 208.147V199.879C64.0809 199.342 64.516 198.906 65.0527 198.906Z" fill="#181B2B"/>
<g style="mix-blend-mode:color-dodge" opacity="0.7" filter="url(#filter0_f_3426_91732)">
<path d="M224.238 68.6661C223.827 88.5586 207.4 104.351 187.546 103.94C167.692 103.529 151.93 87.0691 152.341 67.1766C152.751 47.284 169.179 31.4914 189.032 31.9027C208.886 32.314 224.648 48.7735 224.238 68.6661Z" fill="#8358FF"/>
</g>
<path d="M177.789 3.58779C177.949 4.10118 177.665 4.64832 177.154 4.80986C164.567 8.78679 153.691 19.3563 145.878 34.4259C138.112 49.4061 133.419 68.7569 133.106 90.2338C147.993 109.067 168.092 120.957 188.113 123.557C188.615 123.623 188.977 124.062 188.958 124.559C189.026 124.671 189.072 124.798 189.091 124.936C189.312 126.584 189.513 128.061 189.713 129.538L189.713 129.538L189.715 129.549C189.916 131.027 190.117 132.505 190.338 134.156L190.47 135.137L189.491 135.254C186.79 135.576 182.988 136.113 178.477 137.044L178.423 137.055C169.918 138.809 165.74 139.688 161.968 142.3C158.324 144.82 156.369 148.049 152.979 155.426C152.634 156.176 152.275 156.952 151.903 157.755L151.899 157.762C149.079 163.85 145.543 171.481 142.381 181.072C142.213 181.583 141.664 181.86 141.155 181.691C140.646 181.521 140.37 180.97 140.538 180.459C143.738 170.754 147.32 163.023 150.141 156.936C150.514 156.132 150.873 155.357 151.216 154.61C154.607 147.231 156.745 143.546 160.867 140.695C164.997 137.834 169.58 136.889 177.828 135.188L178.086 135.135C182.143 134.298 185.634 133.775 188.283 133.439C188.112 132.173 187.952 130.995 187.792 129.816L187.791 129.808L187.791 129.805L187.791 129.805C187.598 128.388 187.406 126.97 187.194 125.4C166.73 122.537 146.381 110.293 131.368 91.1702L131.156 90.8994L131.16 90.5547C131.431 68.6852 136.187 48.8985 144.157 33.526C152.121 18.1627 163.341 7.13107 176.572 2.95071C177.083 2.78917 177.628 3.0744 177.789 3.58779Z" fill="#14C393"/>
<path d="M98.3708 195.255C98.7109 194.839 99.3224 194.779 99.7367 195.12C110.194 203.741 118.397 212.115 126.448 220.402C127.323 218.084 128.103 215.853 128.887 213.609L128.887 213.608L128.889 213.604C129.83 210.91 130.777 208.199 131.896 205.328C132.091 204.827 132.654 204.58 133.153 204.776C133.652 204.972 133.899 205.538 133.703 206.039C132.599 208.872 131.663 211.552 130.72 214.249L130.714 214.267C129.775 216.955 128.83 219.661 127.714 222.525L127.166 223.932L125.897 222.626L125.897 222.626C117.57 214.054 109.233 205.47 98.5051 196.627C98.0908 196.285 98.0307 195.671 98.3708 195.255Z" fill="#14C393"/>
</g>
<defs>
<filter id="filter0_f_3426_91732" x="118.898" y="-1.53968" width="138.783" height="138.922" filterUnits="userSpaceOnUse" color-interpolation-filters="sRGB">
<feFlood flood-opacity="0" result="BackgroundImageFix"/>
<feBlend mode="normal" in="SourceGraphic" in2="BackgroundImageFix" result="shape"/>
<feGaussianBlur stdDeviation="16.7172" result="effect1_foregroundBlur_3426_91732"/>
</filter>
<clipPath id="clip0_3426_91732">
<rect width="310" height="296" fill="white"/>
</clipPath>
</defs>
</svg>
