<svg width="99" height="99" viewBox="0 0 99 99" fill="none" xmlns="http://www.w3.org/2000/svg">
<path d="M31.8765 60.7288L22.3506 54.8049C20.8858 53.8317 20.5285 51.7925 21.571 50.3564L28.6009 40.6727C29.3181 39.6847 30.722 39.5749 31.5762 40.4399L32.6277 41.5047C34.7525 43.6562 37.9362 44.8183 40.5373 43.3099C41.356 42.8351 42.0121 42.2856 42.3974 41.6625C42.6706 41.2206 43.0013 40.5583 43.3013 39.7684C44.3647 36.9683 42.6106 34.1699 40.0746 32.6647L38.0616 31.4699C36.9673 30.8205 36.7422 29.2992 37.5992 28.3453L45.1049 19.9911C46.1594 18.8175 47.9028 18.6358 49.165 19.568L60.7634 28.1345C61.7091 28.833 61.5782 30.3172 60.5595 30.8993C54.9839 34.0852 53.0707 37.3081 57.2385 41.3319C61.9407 44.7596 64.6476 43.2383 67.8117 36.7469C68.2892 35.7674 69.5618 35.5163 70.3258 36.2809L78.354 44.3154C79.5838 45.5461 79.5892 47.5716 78.366 48.8107L69.2087 58.0873C68.3242 58.9832 68.7898 60.5422 69.9803 60.9086C78.3254 63.477 76.9222 68.8034 73.791 71.9033C70.9091 74.7565 66.6911 75.7899 63.7843 69.2414C63.268 68.0782 61.693 67.7793 60.9277 68.789L55.1506 76.4117C54.3926 77.412 53.0319 77.6878 51.9602 77.0586C51.8163 76.9741 51.6811 76.875 51.5565 76.7628L42.8781 68.9467C41.9422 68.1039 40.4443 68.7167 40.1525 69.9585C36.9224 83.6999 19.8331 71.4764 31.7957 63.6591C32.8268 62.985 32.9216 61.3786 31.8765 60.7288Z" fill="#FFCB47"/>
<path fill-rule="evenodd" clip-rule="evenodd" d="M48.5874 20.3519C47.7309 19.7193 46.5488 19.8384 45.8262 20.6427L38.3205 28.9969C37.868 29.5005 37.9971 30.3007 38.5558 30.6323L40.5689 31.8271C43.3071 33.4523 45.5125 36.6814 44.2085 40.1148C43.8906 40.9519 43.5339 41.6718 43.2224 42.1755C42.7192 42.9892 41.9118 43.6374 41.0231 44.1527C37.8736 45.9792 34.2126 44.4951 31.9359 42.1896L30.8844 41.1248C30.4549 40.6899 29.7533 40.7393 29.3858 41.2456L22.3559 50.9293C21.6366 51.9201 21.8879 53.3209 22.8756 53.9861L32.388 59.9016C33.2539 60.44 33.618 61.3638 33.5847 62.2227C33.5518 63.0737 33.1303 63.9486 32.3257 64.4746C29.5231 66.3061 28.5948 68.2693 28.5712 69.888C28.547 71.5424 29.4603 73.0962 30.8471 74.1057C32.2354 75.1163 33.9692 75.4886 35.476 74.9531C36.9462 74.4307 38.4496 72.9514 39.2056 69.7355C39.4297 68.7817 40.1153 68.0732 40.9245 67.762C41.7444 67.4466 42.7503 67.5235 43.5267 68.2227L52.2052 76.0388C52.2812 76.1073 52.3634 76.1675 52.4505 76.2186C53.0918 76.5952 53.9109 76.4363 54.3757 75.823L60.1527 68.2003C61.444 66.4966 63.9093 67.1292 64.6712 68.8458C66.0567 71.9671 67.6156 72.9829 68.9063 73.1307C70.2601 73.2857 71.7578 72.5466 73.107 71.2108C74.5699 69.7625 75.4629 67.949 75.2269 66.3491C75.0052 64.8459 73.7017 63.073 69.694 61.8395C67.8763 61.2801 67.0677 58.8706 68.5167 57.4027L77.6741 48.1261C78.5216 47.2676 78.5171 45.8559 77.6663 45.0044L69.6381 36.97C69.3787 36.7104 68.8894 36.7528 68.6839 37.1744C67.104 40.4156 65.5104 42.7226 63.5062 43.6442C61.3571 44.6323 59.1082 43.8998 56.6658 42.1194L56.6115 42.0799L56.5632 42.0332C55.4552 40.9635 54.6831 39.8833 54.2965 38.7732C53.9014 37.6386 53.9272 36.5216 54.3371 35.4524C55.123 33.402 57.272 31.6565 60.0771 30.0536C60.5274 29.7963 60.5271 29.1705 60.1858 28.9184L48.5874 20.3519ZM44.3817 19.3398C45.7679 17.7968 48.0727 17.5525 49.7406 18.7844L61.339 27.3509C62.889 28.4957 62.627 30.8384 61.0399 31.7452C58.2694 33.3283 56.6741 34.7871 56.1514 36.1506C55.9069 36.7884 55.8875 37.4307 56.1316 38.1316C56.3801 38.8452 56.9177 39.6613 57.8638 40.5843C60.0925 42.1955 61.5341 42.4083 62.6956 41.8743C64.0114 41.2692 65.3533 39.5699 66.9375 36.3198C67.687 34.7822 69.7429 34.3225 71.0116 35.5922L79.0398 43.6266C80.6484 45.2365 80.6547 47.876 79.0559 49.4955L69.8986 58.7721C69.7351 58.9377 69.6778 59.1745 69.7504 59.4315C69.8248 59.6948 70.0167 59.9017 70.2647 59.978C74.602 61.3129 76.7695 63.4874 77.1496 66.0644C77.5155 68.5449 76.1413 70.9445 74.4731 72.5961C72.9404 74.1134 70.8881 75.3176 68.6857 75.0655C66.4203 74.8061 64.4167 73.0645 62.8954 69.6372C62.7771 69.3707 62.538 69.2032 62.2862 69.1605C62.0452 69.1196 61.8389 69.1955 61.7006 69.378L55.9236 77.0007C54.8723 78.3879 52.97 78.7807 51.4679 77.8988C51.2672 77.7809 51.079 77.643 50.9059 77.4871L42.2274 69.671C42.0679 69.5274 41.857 69.4892 41.6211 69.58C41.3743 69.6749 41.1651 69.8938 41.0974 70.1818C40.2384 73.8365 38.3943 75.9823 36.1257 76.7885C33.8936 77.5816 31.4971 76.9859 29.7047 75.6812C27.9107 74.3753 26.5927 72.2663 26.6278 69.8596C26.6635 67.4172 28.0851 64.9209 31.2638 62.8436C31.4902 62.6955 31.6317 62.4303 31.6426 62.1472C31.6533 61.8719 31.5423 61.6676 31.3631 61.5562L21.8247 55.6246L21.8125 55.6165C19.8799 54.3325 19.421 51.6615 20.7841 49.7838L27.814 40.1001C28.881 38.6304 30.9871 38.4601 32.266 39.7552L33.3175 40.8199C35.2903 42.8176 37.9968 43.6577 40.0495 42.4673C40.7983 42.0331 41.3029 41.5822 41.5703 41.1498C41.8054 40.7696 42.1099 40.165 42.392 39.4222C43.2149 37.2555 41.912 34.8877 39.5783 33.5026L37.5653 32.3078C35.9355 31.3405 35.6145 29.0981 36.8759 27.694L44.3817 19.3398Z" fill="#181B2B"/>
<g style="mix-blend-mode:color-dodge" opacity="0.7" filter="url(#filter0_f_3452_91679)">
<path d="M67.8315 49.9535C67.5271 59.8973 59.2351 67.711 49.3108 67.406C39.3864 67.1011 31.5879 58.7929 31.8923 48.8492C32.1966 38.9055 40.4886 31.0917 50.413 31.3967C60.3373 31.7016 68.1358 40.0098 67.8315 49.9535Z" fill="#FFCB47"/>
</g>
<defs>
<filter id="filter0_f_3452_91679" x="0.795923" y="0.30105" width="98.1308" height="98.2006" filterUnits="userSpaceOnUse" color-interpolation-filters="sRGB">
<feFlood flood-opacity="0" result="BackgroundImageFix"/>
<feBlend mode="normal" in="SourceGraphic" in2="BackgroundImageFix" result="shape"/>
<feGaussianBlur stdDeviation="15.5434" result="effect1_foregroundBlur_3452_91679"/>
</filter>
</defs>
</svg>
