<svg width="99" height="100" viewBox="0 0 99 100" fill="none" xmlns="http://www.w3.org/2000/svg">
<path d="M31.4092 29.4421C30.5196 28.4512 31.6076 26.988 32.5455 26.0434L41.2786 17.2493C42.6905 15.9931 46.5366 19.3461 47.735 20.8234L54.6966 29.4057C56.6763 31.8463 60.7118 30.754 61.7014 27.7656C62.7355 24.643 64.2288 21.8073 66.2371 21.8445C70.2812 21.9193 74.8088 26.0043 75.3417 30.0811C75.6015 32.0685 73.4876 33.621 70.9429 34.7544C68.0837 36.0278 67.1482 40.2257 69.6507 42.1402L77.3103 48.0001C78.8171 49.1528 79.0912 51.3405 77.9153 52.8299L71.7109 60.6881C70.0094 62.8431 71.2202 66.0721 73.9062 66.5428L75.2522 66.7787C77.6992 67.2074 79.5922 69.4321 78.9989 71.8786C77.833 76.6869 74.8209 78.4755 71.097 78.9525C68.9281 79.2303 67.0377 77.6043 66.4676 75.456L65.7793 72.8623C65.0688 70.1847 61.7904 69.2597 59.8387 71.1861L50.6221 80.2834C49.4719 81.4187 47.6853 81.5553 46.3729 80.6084L33.1342 71.0556C31.4458 69.8373 31.7087 67.1168 33.4292 65.9597C35.9504 64.2641 38.5533 61.7573 37.8865 58.8998C37.0103 55.145 33.5933 52.609 29.822 52.1767C27.2438 51.8811 25.3942 54.3304 24.185 56.873C23.2275 58.8862 20.3278 59.5178 18.9462 57.7677L15.6879 53.6401C12.5857 49.7103 20.3403 39.4683 23.8393 37.2519C25.2945 36.761 25.6399 37.9335 25.7749 38.2264C32.0718 51.8859 45.2692 33.8361 33.5247 30.4212C32.7963 30.1122 31.9078 29.9974 31.4092 29.4421Z" fill="#FFCB47"/>
<path fill-rule="evenodd" clip-rule="evenodd" d="M41.9342 17.97L33.2351 26.7301C32.7927 27.1756 32.3823 27.6802 32.1761 28.131C31.9734 28.5741 32.0614 28.7118 32.1324 28.7908C32.2168 28.8848 32.3758 28.9858 32.7134 29.1088C32.8428 29.1559 32.973 29.1978 33.1228 29.2461C33.1659 29.26 33.2106 29.2744 33.2575 29.2896C33.4386 29.3485 33.6441 29.4173 33.8495 29.5016C37.0595 30.4518 38.7322 32.4789 39.114 34.8468C39.4839 37.1401 38.6116 39.5615 37.1705 41.3402C35.7323 43.1154 33.5714 44.4331 31.2072 44.2193C28.7932 44.001 26.5495 42.2271 24.8934 38.6345C24.8749 38.5944 24.8481 38.5305 24.8315 38.4908C24.8264 38.4787 24.8223 38.4689 24.8197 38.4626C24.799 38.4143 24.7794 38.3707 24.7578 38.329C24.7129 38.2421 24.6718 38.187 24.6375 38.1548C24.6117 38.1305 24.591 38.119 24.5562 38.1124C24.5214 38.1057 24.4284 38.0965 24.2548 38.1428C23.5033 38.6445 22.479 39.5903 21.3836 40.8379C20.2487 42.1306 19.084 43.6939 18.1227 45.3033C17.1562 46.9215 16.4238 48.5389 16.1098 49.9456C15.7911 51.373 15.9411 52.3904 16.4507 53.0359L19.7091 57.1635C20.1341 57.702 20.8124 57.9121 21.5465 57.7744C22.2909 57.6348 22.9768 57.1511 23.3084 56.454C23.9362 55.1339 24.762 53.7657 25.8205 52.7554C26.8927 51.7321 28.2716 51.0187 29.9331 51.2092C34.0311 51.679 37.8465 54.4484 38.8334 58.678C39.2543 60.4814 38.6182 62.1125 37.6354 63.4443C36.6581 64.7684 35.2739 65.8921 33.9715 66.768C33.3854 67.1621 33.024 67.8439 32.9733 68.554C32.9232 69.2569 33.1794 69.8877 33.7028 70.2654L46.9415 79.8181C47.8704 80.4884 49.1289 80.391 49.9408 79.5896L59.1574 70.4924C61.6549 68.0272 65.8223 69.2323 66.7191 72.612L67.4074 75.2057C67.8861 77.0093 69.4081 78.1872 70.9744 77.9866C72.7223 77.7627 74.2155 77.2418 75.396 76.2832C76.5662 75.333 77.5131 73.8846 78.0553 71.6486C78.4826 69.8865 77.1289 68.0957 75.0854 67.7377L73.7395 67.5018C70.3162 66.902 68.7987 62.8079 70.9494 60.0839L77.1538 52.2256C77.9925 51.1634 77.7965 49.5964 76.7212 48.7738L69.0616 42.9139C67.4564 41.686 67.0001 39.7513 67.3326 38.0225C67.6632 36.3037 68.792 34.647 70.5489 33.8645C71.7791 33.3166 72.8272 32.6994 73.5238 32.0334C74.2145 31.3731 74.4533 30.777 74.3788 30.2075C74.1505 28.4611 73.0412 26.6179 71.4558 25.1849C69.8695 23.7511 67.9416 22.8497 66.2199 22.8179C65.7191 22.8086 65.1041 23.1568 64.4045 24.1729C63.728 25.1555 63.1306 26.5435 62.6244 28.0721C62.0137 29.9162 60.4733 31.1535 58.804 31.5667C57.124 31.9825 55.21 31.5815 53.9431 30.0197L46.9815 21.4374C46.4444 20.7752 45.2553 19.6327 44.046 18.8197C43.4387 18.4113 42.8881 18.1285 42.4552 18.0081C42.2425 17.9489 42.0995 17.9408 42.0148 17.9498C41.9683 17.9547 41.9454 17.9636 41.9342 17.97ZM45.129 17.2026C46.4954 18.1213 47.8286 19.394 48.4897 20.2091L55.4514 28.7915C56.1642 29.6702 57.2578 29.9434 58.3379 29.6761C59.4287 29.4062 60.4008 28.6031 60.7798 27.4588C61.3076 25.8648 61.9739 24.2737 62.8047 23.0671C63.6124 21.894 64.7482 20.8429 66.2557 20.8708C68.5781 20.9138 70.936 22.0924 72.7577 23.739C74.5804 25.3864 76.0013 27.6241 76.3059 29.9546C76.4913 31.3724 75.803 32.5462 74.8655 33.4424C73.934 34.3328 72.6528 35.0585 71.3383 35.644C70.2359 36.135 69.4674 37.2139 69.2411 38.391C69.0166 39.5581 69.3438 40.6797 70.2411 41.3662L77.9007 47.226C79.8391 48.709 80.1912 51.5174 78.6781 53.4338L72.4737 61.292C71.2215 62.8781 72.1255 65.2421 74.0743 65.5836L75.4202 65.8194C78.2708 66.3189 80.7031 68.9774 79.9439 72.1084C79.3202 74.6807 78.1781 76.5307 76.6197 77.7961C75.0717 79.0532 73.1969 79.6651 71.2209 79.9182C68.4493 80.2732 66.1907 78.199 65.5291 75.706L64.8408 73.1124C64.3166 71.1368 61.9272 70.492 60.5214 71.8796L51.3048 80.9769C49.8162 82.4461 47.5015 82.622 45.8057 81.3983L32.567 71.8456C31.4019 71.005 30.9454 69.6664 31.0347 68.4151C31.1235 67.1711 31.7538 65.9141 32.8883 65.1511C34.107 64.3315 35.2848 63.3539 36.0726 62.2864C36.8549 61.2265 37.1869 60.1755 36.9409 59.1214C36.1755 55.8413 33.1569 53.5388 29.7122 53.1439C28.7955 53.0388 27.9606 53.4023 27.1611 54.1654C26.3479 54.9415 25.6443 56.0693 25.0629 57.2917C24.437 58.6077 23.1943 59.4465 21.9041 59.6885C20.6036 59.9324 19.1412 59.5833 18.1847 58.3716L14.9263 54.244C13.8849 52.9246 13.8408 51.1881 14.2131 49.5206C14.5899 47.8324 15.4332 46.0139 16.4549 44.3033C17.4819 42.584 18.718 40.9256 19.9243 39.5517C21.1183 38.1917 22.3307 37.0558 23.3207 36.4288L23.4193 36.3663L23.5299 36.329C24.0155 36.1652 24.4815 36.1161 24.9185 36.1991C25.3619 36.2834 25.7089 36.4913 25.9682 36.7354C26.2191 36.9715 26.3805 37.2338 26.4838 37.4338C26.5602 37.5816 26.678 37.8617 26.6578 37.818C28.1501 41.0552 29.9174 42.1474 31.3819 42.2798C32.8962 42.4167 34.4813 41.5696 35.6615 40.1129C36.8388 38.6598 37.4574 36.7822 37.1954 35.1575C36.9475 33.6205 35.8821 32.1201 33.2546 31.3562L33.1994 31.3401L33.1466 31.3177C33.0058 31.258 32.8477 31.2037 32.6579 31.142C32.6225 31.1305 32.5854 31.1186 32.5469 31.1062C32.3924 31.0565 32.2168 30.9999 32.0495 30.939C31.6362 30.7885 31.1016 30.5545 30.6874 30.0932C29.8688 29.1813 30.056 28.0919 30.4093 27.3196C30.7591 26.5549 31.3617 25.8556 31.8573 25.3566L40.6115 16.541L40.634 16.521C41.3532 15.8812 42.2728 15.9363 42.9752 16.1317C43.698 16.3328 44.4485 16.7451 45.129 17.2026Z" fill="#181B2B"/>
<g style="mix-blend-mode:color-dodge" opacity="0.7" filter="url(#filter0_f_3452_91680)">
<path d="M67.0912 50.558C66.7869 60.5018 58.4949 68.3155 48.5705 68.0105C38.6462 67.7056 30.8476 59.3974 31.152 49.4537C31.4564 39.5099 39.7484 31.6962 49.6727 32.0012C59.5971 32.3061 67.3956 40.6143 67.0912 50.558Z" fill="#FFCB47"/>
</g>
<defs>
<filter id="filter0_f_3452_91680" x="0.0556889" y="0.905542" width="98.1308" height="98.2006" filterUnits="userSpaceOnUse" color-interpolation-filters="sRGB">
<feFlood flood-opacity="0" result="BackgroundImageFix"/>
<feBlend mode="normal" in="SourceGraphic" in2="BackgroundImageFix" result="shape"/>
<feGaussianBlur stdDeviation="15.5434" result="effect1_foregroundBlur_3452_91680"/>
</filter>
</defs>
</svg>
