<svg width="16" height="32" viewBox="0 0 16 32" fill="none" xmlns="http://www.w3.org/2000/svg">
<path fill-rule="evenodd" clip-rule="evenodd" d="M10.1237 12.1707C9.94188 12.3786 9.96293 12.6944 10.1707 12.8763L13.7418 16.0012L10.1707 19.1261C9.96293 19.308 9.94188 19.6239 10.1237 19.8317C10.3056 20.0395 10.6215 20.0605 10.8293 19.8787L14.8304 16.3775C14.9389 16.2825 15.0011 16.1454 15.0011 16.0012C15.0011 15.857 14.9389 15.7199 14.8304 15.6249L10.8293 12.1237C10.6215 11.9419 10.3056 11.9629 10.1237 12.1707Z" fill="#14C393"/>
<path fill-rule="evenodd" clip-rule="evenodd" d="M1 16C1 15.7239 1.22386 15.5 1.5 15.5L13.4959 15.5C13.7721 15.5 13.9959 15.7239 13.9959 16C13.9959 16.2761 13.7721 16.5 13.4959 16.5L1.5 16.5C1.22386 16.5 1 16.2761 1 16Z" fill="#14C393"/>
</svg>
