<svg xmlns="http://www.w3.org/2000/svg" width="166" height="212" fill="none">
    <path fill="#fff" d="M78.22 20.72c42.36 24.3 76.68 83.37 76.68 131.98 0 48.61-34.63 68.3-77.3 44C35.25 172.4.93 113.32.93 64.7c0-48.6 34.94-68.3 77.3-44z"/>
    <path fill="#FFF3E4" d="M63.63 13.05c34.68 19.99 62.7 68.3 62.36 107.94 0 39.64-28.35 55.63-62.7 35.64C28.61 136.66.6 88.34.93 48.7c0-39.65 28.01-55.64 62.7-35.65z"/>
    <path stroke="#FFAD4D" stroke-width="2" d="M75.13 25.58h0c20.49 11.72 39.05 31.97 52.45 55.22 13.4 23.25 21.58 49.4 21.42 72.83v0c0 23.44-8.34 39.6-21.5 47.07-13.18 7.47-31.54 6.44-52.04-5.29-20.32-11.71-38.8-31.97-52.2-55.22C9.87 116.94 1.6 90.79 1.6 67.35c0-23.43 8.33-39.68 21.5-47.18 13.17-7.51 31.54-6.48 52.03 5.4z" opacity=".5"/>
    <path fill="#5618B8" d="M95.64 121.32l2.33-1.33v.67l-2.33 1.66v-1zM89.64 104l-2.34 1.33c-.33.33-.66.33-1 .33l2.34-1.33c.33 0 .66 0 1-.33z"/>
    <path stroke="#FFAD4D" stroke-width="2" d="M88.64 172.3v12.9l-11-6.48v-13.34l-.52-.29-7.67-4.33-1.49-.84v13.29l-11-6.49V153.4l-.5-.29-24.52-14.03v-15.7l12.19 6.82 1.49.84V60.77l-.51-.29-13.17-7.37V37.43L55.46 50.9l1.5.85v-13.3l11 6.49v13.35l.52.28 3.67 2h.02l.01.02c.62.3 1.25.7 1.92 1.11l.02.02c.65.4 1.36.84 2.06 1.2l1.45.72V50.12l11 6.48v14.88l.36.3a84.62 84.62 0 0110.86 10.85c5.55 7.5 8.46 15.62 8.46 24.37 0 6.25-1.33 10.2-3.66 12.24l-.02.02-.02.02a6.59 6.59 0 01-3.92 2c-1.45.19-3.1-.1-5-.88l-1.38-.58V122.46l.36.3c5.91 4.92 9.81 9.8 12.4 15.31 2.6 5.5 3.58 11.34 3.58 17.9 0 9.2-2.95 14.55-8.27 16.03-3.47.94-7.6.95-12.43-.66l-1.31-.43v1.38zm1.91-39.4h0c-2.44-5.22-6.92-9.66-13.32-13.39-.25-.21-.48-.33-.63-.4l-.02-.02a.8.8 0 01-.24-.14l-.1-.1-.1-.06-12.01-7-1.5-.87V140.23l.5.29 13 7.32a27.4 27.4 0 006.79 3.1c1.85.5 3.54.56 5.04.1.46.12.93.08 1.36-.1.5-.22.87-.6 1.13-1.03 1.55-1.64 2.19-4.29 2.19-7.93 0-3.17-.71-5.97-2.09-9.07zM64.44 71.48l-1.48-.8V95.91l.5.28 11 6.33.03.02.03.01.9.47c.28.16.44.28.5.34l.1.1.14.08a30.75 30.75 0 005.78 2.53c1.69.5 3.23.62 4.64.21a5.3 5.3 0 003.32-2.79c.73-1.4 1.07-3.25 1.07-5.5 0-4.22-1.4-8.1-3.87-11.27a31.12 31.12 0 00-9.27-7.9l-.04-.02c-.93-.62-2-1.33-3.09-1.71l-10.26-5.63z"/>
    <path stroke="#FFAD4D" stroke-width="2" d="M134.54 210.94l7.06-4.03c14.69-8.97 23.75-28.01 23.14-54.7-1.73-52.94-40.86-116.35-87.26-141.05C54.5-1.16 33.68-1.86 19 7.11l-7.06 4.03" opacity=".5"/>
</svg>
