<svg xmlns="http://www.w3.org/2000/svg" width="177" height="166" fill="none">
    <g opacity=".9">
        <path fill="#fff" d="M121.64 1.1c41.26-5.42 58.1 42.04 42.39 80.43-15.72 38.39-61.9 73.82-103.16 79.23C19.6 166.18-10.97 141 4.75 102.61 20.47 64.23 80.37 6.51 121.64 1.1z"/>
        <path fill="#DAE0FD" d="M108.9 20.99c33.46-4.38 47.13 34 34.38 65.05-12.75 31.04-50.2 59.7-83.67 64.08-33.47 4.38-58.26-15.98-45.52-47.03C26.84 72.04 75.43 25.36 108.9 21z" opacity=".4"/>
        <path stroke="#5275FF" stroke-width="2" d="M175.55 33.5l-3.98-5.58c-8.77-11.54-25.5-17.5-47.81-14.72-44.23 5.97-94.03 44.18-110.77 85.18-8.36 20.3-7.17 37.8 1.6 49.35l3.98 5.57" opacity=".5"/>
        <path stroke="#5275FF" stroke-width="2" d="M123.49 31.3c19.7-2.55 34.23 2.6 42 12.66 7.78 10.07 9.06 25.38 1.57 43.69-7.49 18.3-22.4 35.98-40.42 49.78-18.03 13.8-39.09 23.67-58.8 26.43-19.7 2.55-34.33-2.6-42.15-12.66-7.82-10.07-9.1-25.37-1.42-43.68 7.7-18.31 22.6-36.1 40.58-49.95 17.98-13.85 38.93-23.7 58.64-26.26z" opacity=".5"/>
        <path stroke="#5275FF" stroke-width="2" d="M43.06 134.9l12.32-16.88 55.76-7.5.42-.06.25-.34 22.71-30.65 1.41-1.9-2.35.31-53.85 7.25 12.31-16.86 57.75-7.9h0l.02-.01c2.5-.38 4.3-.27 5.58.2 1.2.44 1.99 1.21 2.48 2.33.64 2.33-.34 5.95-3.46 10.63l-25.48 34.6v.01a56.03 56.03 0 01-14.08 12.9c-5.5 3.52-10.94 5.84-15.94 6.6l-55.85 7.27zm8.95-23.9l10.21-16.9 36.17-6.32-9.54 17.64L52 111z" opacity=".8"/>
    </g>
</svg>
