<svg width="154" height="137" viewBox="0 0 154 137" fill="none" xmlns="http://www.w3.org/2000/svg">
    <path d="M145.826 14.0342C153.9 24.545 155.177 40.2679 147.883 58.8958C132.847 96.0882 88.2838 130.257 48.1822 135.341C28.033 137.755 12.7121 132.393 4.44092 121.626" stroke="#76E5C2" stroke-width="2"/>
    <path d="M94.3542 1.4551C129.367 -2.8403 147.187 20.3316 134.366 53.0303C121.545 85.729 82.5723 115.222 47.5598 119.517C12.5472 123.812 -5.27289 100.64 7.54802 67.9418C20.3689 35.2431 59.3417 5.7505 94.3542 1.4551Z" fill="white"/>
    <path d="M89.4562 11.2228C119.736 7.51786 135.062 27.4465 123.699 55.2312C112.533 83.2713 78.8732 109.052 48.5932 112.757C18.3133 116.462 2.9876 96.5334 14.3504 68.7488C25.5168 40.7086 59.1762 14.9278 89.4562 11.2228Z" fill="#EDF8F5"/>
    <path d="M94.8812 4.05835C112.699 1.84331 125.874 6.62742 132.985 15.8126C140.096 24.9969 141.38 38.8843 134.753 55.3886C128.127 71.8915 114.858 87.8066 98.7295 100.16C82.6014 112.513 63.7001 121.239 45.8829 123.454C28.0654 125.669 14.8904 120.885 7.77872 111.699C0.667803 102.515 -0.615314 88.6277 6.01106 72.1234C12.6369 55.6205 25.906 39.7055 42.0347 27.352C58.1628 14.9989 77.0641 6.27333 94.8812 4.05835Z" stroke="#76E5C2" stroke-width="2"/>
    <path d="M61.2763 87.2281L61.7528 87.4823L62.2267 87.2233L99.1336 67.0537L52.2474 109.283L35.4948 73.4716L61.2763 87.2281ZM91.8332 12.6206L104.099 57.1078L64.5271 78.7425L40.1195 65.484L91.8332 12.6206Z" stroke="#14C393" stroke-width="2"/>
</svg>
