<svg xmlns="http://www.w3.org/2000/svg" width="145" height="115" fill="none">
    <g opacity=".8">
        <path fill="#fff" d="M41.18.72c34.46-1.23 77.23 21.82 95.38 51.02 18.15 29.2 4.62 53.8-29.84 55.02C72.25 108 38.72 95 20.88 65.8 2.73 36.29 6.72 1.64 41.18.72z"/>
        <path fill="#E7EAF3" d="M42.84 19.72c26.43-.94 59.09 16.77 72.77 38.83 13.68 22.37 3.42 41.01-22.7 41.94-26.43.93-58.78-16.46-72.77-38.83-14-22.37-3.73-41.01 22.7-41.94z" opacity=".8"/>
        <path stroke="#D2D6E7" stroke-width="2" d="M138.08 99.6l2.48-4.66c5.3-9.94 4.05-23.3-4.97-38.21C117.24 27.2 74 3.9 39.19 5.15c-17.42.62-29.86 7.15-35.15 17.4l-2.49 4.66"/>
        <path stroke="#D2D6E7" stroke-width="2" d="M38.9 18.89c15.49-.46 32.89 4.45 48.48 12.81 15.6 8.37 29.28 20.14 37.4 33.32 8.13 13.17 9 25.04 4.26 33.67-4.75 8.63-15.3 14.36-30.8 14.82-15.49.46-32.89-4.45-48.48-12.81-15.59-8.37-29.28-20.14-37.4-33.31C4.38 54.2 3.52 42.33 8.22 33.7c4.7-8.63 15.19-14.36 30.68-14.82z"/>
        <path stroke="#7A859E" stroke-width="2" d="M76.05 56.32l3.24 5.09-9.9 2.74-1.03.29.36 1 5.9 16.78.25.7.73-.03 32.86-.91 3.96 11.08-54.2 1.79-9.08-24.49-.32-.85-.88.23-7.35 1.98-2.98-5.04 8.35-2.15 1.07-.28-.38-1.03-11.33-30.7 21.2-.56L65.92 58l.3.86.89-.23 8.94-2.3z"/>
    </g>
</svg>
