<svg xmlns="http://www.w3.org/2000/svg" width="131" height="138" fill="none">
    <path fill="#fff" d="M58 10.28c32.78 10.4 64.52 46.9 70.93 80.95 6.4 34.05-14.82 53.73-47.53 43.02-32.79-10.4-64.53-46.9-70.94-80.94C4.06 19.25 25.21-.11 58 10.28z"/>
    <path fill="#E7E4FF" d="M48.4 21.51c22.1 7 43.88 31.73 48.14 54.91 4.26 23.19-10.25 36.37-32.27 29.1C42.17 98.5 20.4 73.77 16.14 50.6 11.8 27.69 26.3 14.5 48.4 21.5z" opacity=".5"/>
    <path stroke="#8358FF" stroke-width="2" d="M10.82 9.33c8.73-8.02 22.32-10.32 38.65-4.8m62.07 119.3c8.35-7.79 12.13-21.22 8.93-38.26-6.42-34.1-38.19-70.64-71-81.05" opacity=".5"/>
    <path stroke="#8358FF" stroke-width="2" d="M43.88 17.6c14.58 4.58 28.97 14.99 40.42 28.12C95.76 58.85 104.21 74.63 107 89.9c2.77 15.26-.57 26.9-7.98 33.62-7.4 6.7-19.14 8.73-33.72 4.14-14.53-4.73-28.9-15.22-40.36-28.35C13.47 86.16 5 70.46 2.18 55.36c-2.81-15.1.53-26.76 7.95-33.5C17.55 15.1 29.31 13 43.88 17.6z" opacity=".5"/>
    <path stroke="#8358FF" stroke-width="2" d="M47.7 32.63h0c4.18 1.3 8.31 4.23 11.62 7.98 3.3 3.76 5.72 8.26 6.56 12.65.7 3.73.03 6.58-1.43 8.4-1.44 1.8-3.81 2.79-6.95 2.49l-1.33-.13.26 1.32c.45 2.36.71 4.08.91 5.42l.18 1.21c.24 1.46.46 2.51 1.08 3.47.6.94 1.53 1.71 2.9 2.78l1.08.82c1.3 1 3 2.3 5.25 4.15l.74.6.64-.7c1.86-2.03 5.45-3.02 9.78-1.38h.03l.03.02c4.02 1.26 8.05 4.24 11.32 8.03 3.27 3.78 5.69 8.3 6.56 12.54.83 4.39-.15 7.48-2.07 9.19-1.9 1.7-5.04 2.29-9.09 1.02h0c-4.18-1.3-8.31-4.23-11.62-7.99-3.3-3.75-5.73-8.26-6.56-12.65v-.04l-.02-.05c-.44-1.55-.36-3-.27-4.61l.04-.5-.4-.33a311.3 311.3 0 01-3.61-3.07l-2.4-2.03c-1.4-1.13-2.5-1.91-3.65-2.19a6.12 6.12 0 00-3.36.28c-.52.16-1.08.36-1.72.58l-.26.1c-.75.26-1.6.55-2.63.87l-1.06.34.45 1.02c.8 1.81 1.56 3.55 2.03 5.2.82 4.38-.16 7.46-2.07 9.16-1.91 1.71-5.04 2.3-9.09 1.02h0c-4.18-1.3-8.32-4.23-11.62-7.99-3.3-3.75-5.73-8.26-6.56-12.64v-.01h0c-.86-4.23.1-7.33 2.04-9.08 1.93-1.76 5.1-2.4 9.12-1.13h0c4.45 1.37 9.04 4.95 12.35 8.91l.44.53L46 76a63.64 63.64 0 013.24-1.03c.54-.16 1.03-.3 1.45-.44 1.06-.35 2.08-.77 2.6-1.77.25-.48.34-1.02.35-1.58.01-.56-.06-1.2-.17-1.94-.13-.81-.32-1.83-.56-3.07-.18-.96-.4-2.06-.62-3.3l-.09-.5-.47-.23c-3.52-1.6-6.99-4.47-9.76-7.9-2.78-3.43-4.8-7.36-5.5-11.07h0c-.83-4.4.17-7.58 2.12-9.37 1.94-1.78 5.1-2.43 9.12-1.16z" opacity=".8"/>
</svg>
