<svg xmlns="http://www.w3.org/2000/svg" width="174" height="228" fill="none">
    <path fill="#fff" d="M81 7.61c42.96-24.4 84.24 22.27 85.23 72.98.99 50.7-33.05 111.5-76 135.89-42.97 24.4-88.74 9.2-89.73-41.5C-.5 124.26 38.04 32 81 7.6z"/>
    <path fill="#D2D6E7" d="M79.08 32.8c34.85-19.77 68.28 17.95 69.04 58.98.76 41.02-26.88 90.24-61.73 110-34.85 19.78-71.95 7.52-72.71-33.5-.77-41.03 30.55-115.7 65.4-135.48z" opacity=".3"/>
    <path stroke="#505573" stroke-width="2" d="M156.16 20.44l-7.07-4.6c-15.21-9.3-36.56-8.72-59.89 4.33C43.18 46.55 6.42 112.22 7.54 166.43 8 193.31 17.7 212.78 32.9 222.08l7.07 4.6" opacity=".5"/>
    <path stroke="#505573" stroke-width="2" d="M97.24 40.43c20.57-11.65 39.15-12.23 52.65-4.12 13.52 8.12 22.27 25.14 22.75 49.4.49 24.25-7.54 51.05-20.87 74.79-13.32 23.74-31.88 44.32-52.36 56.2-20.57 11.64-39.26 12.27-52.82 4.18-13.56-8.1-22.31-25.12-22.58-49.46-.27-24.34 7.72-51.26 20.96-75.04 13.25-23.77 31.7-44.3 52.27-55.95z" opacity=".5"/>
    <path stroke="#505573" stroke-width="2" d="M101.36 63.44l8.59-3.13-1.84 13.4-.23 1.64 1.56-.57 31.66-11.54-2.84 20.65-57.79 75.68-2.07 2.71 3.21-1.17 48.48-17.67-2.79 20.31-32.65 11.9-.56.21-.09.6-1.98 14.44-8.59 3.13 1.84-13.4.23-1.63-1.56.56-31.66 11.54 2.84-20.65 57.79-75.67 2.07-2.72-3.21 1.17-48.48 17.67 2.79-20.31 32.65-11.9.56-.21.09-.6 1.98-14.44z" opacity=".7"/>
</svg>
