<svg width="1440" height="842" viewBox="0 0 1440 842" fill="none" xmlns="http://www.w3.org/2000/svg">
  <g clip-path="url(#clip0_10093_1227)">
    <path d="M1190 710.779C1624 635.327 1831.5 -34.9922 1831.5 -34.9922C1831.5 -34.9922 1579.12 -310.022 1540.5 -229.09C1409 46.4739 1518 149.81 1200.5 463.647C883 777.483 459.5 554.408 100.5 776.39C-139.283 924.656 -223.5 1071.64 -223.5 1071.64L442 1054.14C687.8 933.028 756 786.231 1190 710.779Z" fill="#182833"/>
    <path d="M276.5 42.579C536.308 -30.4155 605.501 -269.071 605.501 -269.071C605.501 -269.071 730.002 -296.946 684.5 -220.409C364.001 318.689 137.384 346.344 -110.5 138.261C-358.383 -69.8221 -795 -74.6762 -795 -74.6762L-556.843 -129.805L-352.472 -81.0624L-337.607 -90.2528L-219.481 -58.2256L-159.138 -114.6L-81.8492 -79.9C-22.0954 3.63576 16.6919 115.573 276.5 42.579Z" fill="#182833"/>
  </g>
  <defs>
    <clipPath id="clip0_10093_1227">
      <rect width="1440" height="842" rx="12.0606" fill="white"/>
    </clipPath>
  </defs>
</svg>
