<svg width="50" height="50" viewBox="0 0 50 50" fill="none" xmlns="http://www.w3.org/2000/svg">
  <g id="Illust / LP rocket">
    <path id="Back"
      d="M49.5043 17.018C51.0575 26.7362 49.1606 37.0381 40.9555 43.2414C23.0199 56.8037 -5.19832 30.5322 0.828887 14.1316C7.28406 -3.43422 43.4641 -6.94663 49.5043 17.018Z"
      fill="#181B2B" />
    <path id="Vector 2408"
      d="M23.9281 40.5237L22.947 42C21.4755 37.571 14.6085 30.6814 8 27.4885L9.55872 26.8617C8.45095 24.9399 7.65258 23.2618 9.08623 22.5082C14.7122 17.4929 31.9393 1.43953 45.5102 3.12312C46.76 7.27316 45.5606 12.9083 42.5672 19.3627C37.9533 27.8986 35.0573 31.931 28.8331 40.0315C27.7823 41.2672 25.9602 41.4049 23.9281 40.5237Z"
      fill="#8AFFCE" />
    <path id="Subtract"
      d="M35.5 4.50019C41.0397 7.47064 42.0511 8.5 45.0747 13.5002C46.0825 10.0002 47.0904 6.5 46.0825 2.5002C41.5472 2.5 40.52 2.38454 35.5 4.50019Z"
      fill="#14C393" />
    <path id="Subtract_2"
      d="M32 35.5C36.0311 30.2512 40.6161 24.1456 43.2693 19C45.3456 26.8089 42.9048 36.663 37.118 43.9995C37.0666 44.075 32 35.5 32 35.5Z"
      fill="#14C393" />
    <path id="Union" fill-rule="evenodd" clip-rule="evenodd"
      d="M46.5478 2.30092L46.616 2.56331C47.7124 6.78148 46.4056 12.6436 43.4016 18.989C45.466 25.8392 43.2511 35.5469 38.3728 42.8195C38.112 43.2084 37.8435 43.5905 37.5674 43.9651L37.1662 44.5094L32.3653 36.2599C31.0754 37.8861 29.7297 39.4924 28.3404 41.0629C28.302 41.1063 28.2568 41.1403 28.2076 41.1649C27.7692 41.5335 27.1613 41.628 26.499 41.5495C25.8823 41.4765 25.1613 41.249 24.3536 40.8832L23.4288 42.3599L23.4122 42.3499C23.3948 42.3731 23.376 42.3951 23.3558 42.4159C22.9136 42.8704 21.8551 42.6795 20.4353 41.9885C19.3595 44.5776 17.0184 45.6447 14.1093 46.3851C15.7133 39.2826 6.51352 39.6632 3.2939 48C2.29695 44.6089 4.0586 41.2872 5.26397 39.0144C6.54463 36.5996 7.19737 35.3688 3.24652 36.4967C4.06271 33.9522 5.78319 31.6003 7.70821 30.4832C6.47584 28.6413 5.98284 27.2152 6.52641 26.6564C6.64313 26.5364 6.80278 26.4614 7.00069 26.4287L8.26611 25.8419C7.83731 25.0459 7.53909 24.3146 7.40663 23.6837C7.25744 22.9731 7.29732 22.2753 7.75726 21.8025C7.92978 21.6252 8.13713 21.504 8.36827 21.428C9.8832 20.0128 11.0823 18.9906 12.5859 17.7386L3.96459 13.4186L4.50006 13C4.86858 12.7119 5.2451 12.4309 5.6288 12.1572C12.806 7.0373 22.5864 4.41423 29.657 6.1182C35.9815 2.87741 41.9338 1.36867 46.2775 2.24631L46.5478 2.30092ZM13.8049 26.6223C13.9714 25.9704 14.2098 25.299 14.5124 24.6134C16.2842 25.7936 18.2512 27.3555 20.2149 29.1944C22.947 31.7528 25.1334 34.3423 26.4625 36.4525C27.1289 37.5104 27.5662 38.4265 27.7578 39.1444C27.9567 39.8896 27.8575 40.282 27.6829 40.4614C27.511 40.6381 27.1893 40.7593 26.6048 40.69C26.1338 40.6342 25.5426 40.4586 24.8352 40.1471C25.1048 39.7187 25.0814 39.156 24.9426 38.6139C24.7747 37.9583 24.403 37.1837 23.8818 36.346C22.8358 34.665 21.1324 32.6432 19.0234 30.6683C17.2203 28.9798 15.3961 27.5835 13.8049 26.6223ZM13.6185 27.5294C13.4972 28.3195 13.494 29.0751 13.6237 29.7857C14.6726 30.5961 15.7693 31.5286 16.867 32.5564C20.2196 35.6959 22.6655 38.8678 23.3688 40.802L24.0082 39.7811L24.0405 39.7479C24.1418 39.6438 24.2302 39.3849 24.0867 38.8249C23.9497 38.2896 23.6282 37.6 23.1286 36.7971C22.133 35.1971 20.4841 33.2329 18.4142 31.2945C16.7492 29.7354 15.0798 28.444 13.6185 27.5294ZM14.8887 23.818C18.3142 17.0237 27.5811 9.0764 35.492 4.98806C37.1384 5.77137 38.902 6.97351 40.5636 8.52948C42.3591 10.2109 43.7398 12.0285 44.6089 13.7151C44.0583 15.3359 43.3626 17.029 42.531 18.7722C40.2249 23.6063 36.9665 28.7952 33.12 33.859C32.775 34.3133 32.4252 34.7664 32.071 35.2182C30.9861 36.6022 29.8596 37.973 28.6992 39.3208C28.6765 39.1899 28.6468 39.0576 28.6114 38.9251C28.3882 38.0887 27.9009 37.0891 27.2132 35.9973C25.8342 33.8081 23.5944 31.1622 20.8242 28.5681C18.7905 26.6637 16.7417 25.0407 14.8887 23.818ZM36.4633 4.50234C37.1926 4.15005 37.9073 3.83342 38.6017 3.55657C41.326 2.87362 43.7807 2.68615 45.826 3.04283C46.4176 5.61259 46.0964 8.88005 44.9782 12.5669C44.0619 11.0088 42.7693 9.39824 41.1728 7.90319C39.6469 6.4743 38.0263 5.32228 36.4633 4.50234ZM32.9493 35.5174L37.2493 42.9062C37.38 42.7205 37.5088 42.5329 37.6357 42.3436C42.1883 35.5564 44.3151 26.6744 42.8121 20.1997C40.5177 24.789 37.4233 29.6426 33.8275 34.3764C33.538 34.7575 33.2452 35.1379 32.9493 35.5174ZM31.476 17.8667C33.4261 19.6929 36.3004 19.8438 37.8959 18.2037C39.4913 16.5637 39.2037 13.7537 37.2535 11.9275C35.3033 10.1013 32.429 9.95041 30.8336 11.5905C29.2382 13.2305 29.5258 16.0405 31.476 17.8667Z"
      fill="#181B2B" />
    <path id="Union_2" fill-rule="evenodd" clip-rule="evenodd"
      d="M17.3518 6.05068C21.8523 4.91085 26.3666 4.62876 29.9749 5.55067L31 5.81258L30.0868 6.33646C24.4171 9.58899 18.2596 13.7487 12.8636 18.1857L12.8575 18.1908L8.38666 21.4143C7.59719 21.9892 7.56504 22.8733 7.81505 23.7551C7.93738 24.1865 8.11973 24.5811 8.27399 24.8706C8.35064 25.0144 8.41918 25.1301 8.46794 25.209C8.49229 25.2483 8.51161 25.2784 8.52444 25.2979L8.5386 25.3193L8.54165 25.3238L8.82171 25.7309L7.09557 26.5639C6.83537 26.6895 6.72944 26.966 6.82131 27.1947C6.98705 27.6072 7.16891 27.9937 7.34929 28.3253L8.5 30.5C7.54976 30.9687 6.19183 32.1463 5.25949 33.2168C4.5241 34.0611 3.88443 35.0159 3.44712 35.9761C3.65838 35.9288 3.89254 35.8617 4.12176 35.7959C4.49807 35.6879 4.86109 35.5838 5.08762 35.578C5.83102 35.559 6.55759 35.9159 6.44255 36.746C6.41514 36.9438 6.34844 37.1533 6.26343 37.3643C5.94582 38.1527 5.53902 38.9471 5.12905 39.7477C4.59368 40.7932 4.0529 41.8492 3.69829 42.9162C3.35143 43.9598 3.14959 45.0564 3.23838 46.1684C5.03679 42.8728 7.68061 41.0155 10.2031 40.6999C11.6249 40.5221 12.9666 40.8337 13.8369 41.7348C14.5937 42.5184 14.7354 44.2119 14.5317 45.6677C15.9654 45.291 17.2771 44.3366 18.1357 43.6847C19.105 42.9487 19.7769 41.8697 20.0787 40.0487C20.1178 39.8128 20.3545 39.6512 20.6074 39.6876C20.8603 39.7241 21.0336 39.9449 20.9945 40.1807C20.6669 42.1575 19.9098 43.4522 18.7208 44.355C17.5561 45.2393 15.8391 46.2509 14.065 46.6802L13.3326 46.8574L13.4963 46.1684C13.8811 44.5484 13.7515 42.9377 13.1483 42.3133C12.5431 41.6866 11.5466 41.4039 10.3262 41.5566C7.88181 41.8623 5.05739 43.9129 3.48369 47.7866L2.99076 49L2.6052 47.7533C2.05356 45.9695 2.29458 44.2205 2.81314 42.6603C3.17124 41.5828 3.71623 40.516 4.25561 39.4602C4.66758 38.6538 5.07629 37.8538 5.39595 37.0603C5.46867 36.8798 5.50896 36.7401 5.52349 36.6353C5.52459 36.6274 5.52603 36.619 5.52752 36.6105C5.53639 36.5593 5.54673 36.4997 5.49207 36.4797C5.43503 36.4589 5.31987 36.4367 5.11298 36.442C4.82116 36.4494 4.28584 36.6057 3.66024 36.7883C3.39646 36.8653 3.11572 36.9473 2.83136 37.0244L2 37.2501L2.25992 36.4797C2.71066 35.1439 3.55405 33.8041 4.54022 32.6718C5.39439 31.6911 6.37507 30.844 7.33344 30.285L6.5645 28.7177C6.36094 28.3426 6.168 27.926 6 27.5078C5.72763 26.8298 6.06876 26.1006 6.70408 25.794L7.55487 25.3834C7.53433 25.3465 7.51304 25.3074 7.49121 25.2665C7.31927 24.9438 7.10885 24.4915 6.96492 23.9839C6.68273 22.9886 6.624 21.6281 7.85443 20.729L11.7907 17.9134L3 13.0219L3.51018 12.6272C3.88184 12.3397 4.26165 12.0592 4.64878 11.7862C8.31026 9.20383 12.8453 7.192 17.3518 6.05068ZM12.5307 17.3357L4.57538 12.909C4.77011 12.7648 4.96701 12.6225 5.16597 12.4822C8.73073 9.96806 13.1637 7.99918 17.5737 6.88229C21.5407 5.87759 25.4549 5.57078 28.6827 6.15065C23.3271 9.28856 17.6075 13.1854 12.5307 17.3357Z"
      fill="#FFCB47" />
  </g>
</svg>