<svg width="50" height="50" viewBox="0 0 50 50" fill="none" xmlns="http://www.w3.org/2000/svg">
  <g id="Illust / LP coin">
    <path id="Back"
      d="M6.35728 42.2962C12.0823 49.2506 23.0869 50.9203 33.7262 46.7134C54.6394 38.444 52.6441 3.9708 36.4137 0.365156C28.5034 -1.39203 20.2228 3.68028 17.685 5.23438C1.77719 14.9791 -4.34214 32.549 6.35728 42.2962Z"
      fill="#181B2B" />
    <path id="color"
      d="M44.1263 38.9825C44.3153 38.7614 44.4942 38.5372 44.663 38.3099C59.7372 25.2841 19.5424 -9.12252 7.57779 5.59205C7.57779 5.59205 4.40418 8.80286 3.59949 9.59568C-2.61897 15.7224 2.70574 23.889 15.4508 33.5382C22.2772 38.7064 33.2995 50.8046 44.1263 38.9825Z"
      fill="#8AFFCE" />
    <path id="Vector 3826"
      d="M43.5195 39.8304C43.6473 39.66 43.4625 39.4214 43.2675 39.507C34.7211 43.2608 22.7897 36.7706 15.3022 29.1604C15.2173 29.0742 15.0787 29.0784 15.0004 29.1706C14.3687 29.9145 11.8541 32.8733 11.1376 33.675C11.062 33.7596 11.0524 33.8752 11.1361 33.9519C12.9834 35.645 33.1842 53.621 43.5195 39.8304Z"
      fill="#14C393" />
    <path id="Union" fill-rule="evenodd" clip-rule="evenodd"
      d="M45.7485 37.6133C51.0081 31.7797 46.7387 19.7801 36.2127 10.8116C25.689 1.84509 12.8957 -0.697161 7.63391 5.13131L3.3393 9.63591C0.591731 12.6744 0.379732 17.1444 2.10159 21.8809C3.82707 26.6273 7.51885 31.7328 12.7529 36.1792C16.9902 39.7789 21.6772 42.3554 26.1167 43.7621C27.1348 44.0805 28.1663 44.3548 29.2145 44.5616C34.4139 45.5878 39.1183 44.8537 41.8872 41.9212C42.7192 41.036 43.5237 40.124 44.3278 39.2123C44.7996 38.6774 45.2714 38.1425 45.7485 37.6133ZM44.5383 37.6017C42.136 39.7569 38.2566 40.4163 33.6056 39.4926C28.608 38.5001 22.9119 35.7027 17.7423 31.298C12.5727 26.8933 8.97311 21.7706 7.30575 17.0842C5.73405 12.6668 5.92235 8.79946 7.87435 6.20037L8.27747 5.70967C11.091 2.581 15.8879 2.48435 19.7732 3.25595C24.7709 4.24846 30.4669 7.04591 35.6365 11.4506C40.8062 15.8553 44.4057 20.978 46.0731 25.6643C47.7498 30.3769 47.4235 34.4634 45.0897 37.0519C44.9156 37.245 44.7282 37.4237 44.5383 37.6017ZM12.9971 35.178C16.7702 38.4528 21.1638 41.1533 25.9608 42.754L28.91 39.0146C25.0048 37.5411 20.9396 35.152 17.1662 31.937C16.745 31.5781 16.3338 31.2143 15.9328 30.8463C17.541 32.5975 15.1547 35.6153 12.9971 35.178ZM35.0081 40.5842C33.3637 40.3735 31.6352 39.962 29.8657 39.358L26.9433 43.0635C27.7748 43.3098 28.5949 43.5127 29.3985 43.6713C30.2734 43.844 31.1253 43.9637 31.9488 44.0302L35.0081 40.5842ZM36.1895 40.7019C38.5466 40.8677 40.699 40.5936 42.5093 39.8522L41.2161 41.2866C39.4066 43.2161 36.5817 44.1436 33.1811 44.0904L36.1895 40.7019ZM20.3065 13.0692C20.5597 12.8143 20.8658 12.6015 21.2142 12.4308C22.0786 12.0092 23.2127 11.8613 24.4783 12.0359L25.0326 14.2917C24.0827 14.1634 23.2911 14.2871 22.7246 14.5612C22.4986 14.6724 22.3069 14.8074 22.1577 14.9583C21.646 15.4734 21.6356 16.1091 22.018 16.7784C22.4822 17.5895 23.0088 18.0294 23.6315 18.3443C24.3336 18.7015 25.1532 18.8945 26.1745 19.1018L26.3978 19.1466C27.2993 19.3269 28.3571 19.5386 29.3622 19.9571C30.5152 20.432 31.6936 21.2183 32.6627 22.5843C33.5235 23.8006 33.9227 24.9409 33.8314 25.9189C33.7429 26.8655 33.2096 27.4983 32.5576 27.9001C32.4539 27.9649 32.3448 28.0245 32.2304 28.0788C30.9565 28.6968 29.1272 28.7362 27.6396 28.2908L27.4594 26.1156C28.4644 26.4169 29.8237 26.3854 30.7226 25.951C30.7971 25.9148 30.8689 25.8733 30.9381 25.8318C31.3665 25.5648 31.5695 25.2363 31.6027 24.899C31.6304 24.5904 31.5339 24.1241 31.0085 23.3834C30.5411 22.724 29.9877 22.3258 29.2694 22.0287C28.5506 21.7302 27.7613 21.5693 26.8187 21.3772L26.5776 21.3279C25.6014 21.1314 24.4395 20.8841 23.3293 20.3231C22.137 19.7199 21.0256 18.7691 20.1738 17.2781C19.1479 15.4775 19.4138 13.9746 20.3065 13.0692ZM33.1118 14.6908C32.3246 15.0709 32.2698 16.2035 32.9854 17.2148C33.7037 18.2262 34.9203 18.7355 35.7075 18.3553C36.4948 17.9726 36.5521 16.8453 35.8339 15.8339C35.1156 14.8225 33.899 14.3107 33.1118 14.6908ZM17.2393 24.8536C16.5237 23.8422 16.5784 22.7123 17.3656 22.3295C18.1502 21.9468 19.3721 22.4587 20.0877 23.4726C20.806 24.484 20.7486 25.6139 19.9613 25.9941C19.1741 26.3768 17.9575 25.8649 17.2393 24.8536Z"
      fill="#181B2B" />
    <path id="accent" fill-rule="evenodd" clip-rule="evenodd"
      d="M3.33505 10.1246C3.54703 10.2986 3.56169 10.5899 3.36779 10.7753C0.830744 13.2012 0.401249 16.899 1.91215 21.1235C3.42055 25.341 6.84216 29.9996 11.8361 34.2083C12.0454 34.3847 12.0556 34.6761 11.8589 34.8591C11.6621 35.0422 11.3329 35.0475 11.1236 34.8711C6.0325 30.5805 2.49468 25.7922 0.920639 21.3912C-0.650901 16.9972 -0.285837 12.9049 2.60013 10.1454C2.79403 9.95996 3.12306 9.95067 3.33505 10.1246Z"
      fill="#FFCB47" />
  </g>
</svg>