<svg width="129" height="16" viewBox="0 0 129 16" fill="none" xmlns="http://www.w3.org/2000/svg">
<g id="Page-1">
<g id="Bitfinex">
<path id="Shape" d="M9.19764 12.917H3.00954V9.56578H9.19764C10.7501 9.56578 11.5263 10.3177 11.5263 11.2844C11.5263 12.2296 10.7716 12.917 9.19764 12.917ZM9.00359 7.78275H3.00954V4.96856H9.00359C10.6422 4.96856 11.2675 5.54858 11.2675 6.34343C11.2675 7.07383 10.5344 7.78275 9.00359 7.78275ZM10.5776 8.62056C13.1865 8.53463 14.1352 7.22421 14.1352 5.78489C14.1352 4.21667 12.9062 2.90625 9.90916 2.90625H0.335938V14.9149H10.1895C12.6475 14.9149 14.4802 13.8623 14.4802 11.6281C14.4802 10.0599 13.4452 8.70649 10.5776 8.62056ZM17.0675 2.92773V14.9364H19.7411V2.92773H17.0675ZM30.9961 5.18338H36.8824V2.90625H22.4363V5.18338H28.3225V14.9149H30.9961V5.18338ZM39.5991 2.92773V14.9364H42.2727V10.2532H48.547V8.27684H42.2727V4.99004H52.4712V2.92773H39.5991ZM55.3389 2.92773V14.9364H58.0125V2.92773H55.3389ZM63.4244 5.84933L72.2861 14.9364H75.3046V2.92773H72.6742V11.5851L64.1574 2.92773H60.7723V14.9364H63.4244V5.84933ZM78.0645 2.92773V14.9364H91.1307V12.917H80.7165V9.60875H86.9478V7.73978H80.7165V4.99004H91.1307V2.92773H78.0645ZM109.609 2.92773H106.073L101.588 7.13828L97.1247 2.90625H93.5455L99.8414 8.8139L93.3083 14.8934H96.8444L101.566 10.468L106.267 14.8934H109.867L103.313 8.8139L109.609 2.92773Z" fill="#D2D6E7"/>
<path id="Shape_2" d="M128.087 0.585073C128.044 0.563591 122.525 -0.209774 117.07 3.3563C113.685 5.56898 113.232 8.81282 113.404 10.9825C121.339 10.0803 127.915 0.842862 128.087 0.585073ZM113.943 13.3886C114.633 14.6131 119.765 17.3628 124.336 13.5604C128.885 9.75804 128.519 2.81924 128.109 0.585073C127.958 0.907309 122.977 11.9922 113.943 13.3886Z" fill="#D2D6E7"/>
<path id="Path" d="M128.087 0.585073C128.044 0.563591 122.525 -0.209774 117.07 3.3563C113.685 5.56898 113.232 8.81282 113.404 10.9825C121.339 10.0803 127.915 0.842862 128.087 0.585073Z" fill="#D2D6E7"/>
</g>
</g>
</svg>
