<svg width="160" height="32" viewBox="0 0 160 32" fill="none" xmlns="http://www.w3.org/2000/svg">
<g id="Cardano 1" clip-path="url(#clip0_4668_94707)">
<g id="Layer 2">
<g id="Layer 1">
<path id="Vector" d="M9.82668 15.8795C9.79119 16.4978 10.0026 17.1049 10.4144 17.5674C10.8263 18.0299 11.4049 18.31 12.0231 18.3461H12.1505C12.6058 18.3456 13.051 18.2118 13.4312 17.9612C13.8113 17.7106 14.1098 17.3541 14.2897 16.9359C14.4696 16.5176 14.5231 16.0558 14.4436 15.6075C14.3641 15.1592 14.1551 14.7439 13.8423 14.413C13.5296 14.0822 13.1267 13.8501 12.6836 13.7455C12.2405 13.6409 11.7764 13.6683 11.3487 13.8244C10.921 13.9805 10.5483 14.2584 10.2767 14.6238C10.0051 14.9893 9.84644 15.4263 9.82031 15.8808L9.82668 15.8795Z" fill="#D2D6E7"/>
<path id="Vector_2" d="M1.13292 15.2885C0.984284 15.2802 0.836514 15.3161 0.708289 15.3918C0.580064 15.4674 0.477138 15.5794 0.41252 15.7135C0.347901 15.8476 0.32449 15.9979 0.345244 16.1453C0.365999 16.2927 0.429988 16.4307 0.529125 16.5417C0.628262 16.6528 0.758097 16.732 0.902222 16.7693C1.04635 16.8066 1.19829 16.8003 1.33886 16.7512C1.47942 16.7022 1.60229 16.6126 1.69195 16.4938C1.7816 16.3749 1.83402 16.2322 1.84256 16.0835C1.84841 15.9847 1.83468 15.8856 1.80214 15.7921C1.7696 15.6986 1.71891 15.6124 1.65297 15.5385C1.58702 15.4647 1.50714 15.4046 1.41789 15.3617C1.32864 15.3187 1.2318 15.2939 1.13292 15.2885Z" fill="#D2D6E7"/>
<path id="Vector_3" d="M9.67885 2.34802C9.81124 2.28003 9.92055 2.17441 9.99303 2.04443C10.0655 1.91446 10.0979 1.76595 10.0862 1.61759C10.0745 1.46923 10.0191 1.32767 9.92706 1.21071C9.83504 1.09375 9.71048 1.00663 9.56905 0.960312C9.42762 0.913994 9.27565 0.910551 9.13227 0.950415C8.98889 0.990279 8.86051 1.07167 8.76329 1.18434C8.66606 1.29701 8.60434 1.43592 8.5859 1.58359C8.56745 1.73127 8.5931 1.88109 8.65962 2.01422C8.70434 2.10333 8.76625 2.1827 8.84178 2.24777C8.91732 2.31284 9.00499 2.36231 9.09973 2.39334C9.19448 2.42437 9.29443 2.43634 9.39382 2.42856C9.49322 2.42078 9.59009 2.39341 9.67885 2.34802Z" fill="#D2D6E7"/>
<path id="Vector_4" d="M12.0444 6.47344C12.25 6.36973 12.4202 6.20739 12.5336 6.00694C12.6469 5.8065 12.6983 5.57694 12.6812 5.3473C12.6641 5.11767 12.5793 4.89825 12.4375 4.7168C12.2957 4.53535 12.1034 4.4 11.8847 4.32788C11.666 4.25575 11.4308 4.25009 11.2089 4.3116C10.987 4.3731 10.7883 4.49902 10.638 4.67343C10.4876 4.84785 10.3923 5.06292 10.3642 5.29147C10.3361 5.52002 10.3763 5.75178 10.4799 5.95745C10.5487 6.0941 10.6437 6.21585 10.7596 6.31574C10.8755 6.41564 11.0099 6.49172 11.1552 6.53964C11.3005 6.58755 11.4538 6.60637 11.6064 6.59501C11.759 6.58366 11.9078 6.54234 12.0444 6.47344Z" fill="#D2D6E7"/>
<path id="Vector_5" d="M4.08263 9.31072C4.24121 9.415 4.42717 9.46991 4.61696 9.46848C4.80675 9.46705 4.99186 9.40936 5.14886 9.3027C5.30585 9.19604 5.42768 9.04521 5.49893 8.86929C5.57018 8.69338 5.58765 8.50028 5.54912 8.31443C5.5106 8.12858 5.41781 7.95834 5.28251 7.82524C5.1472 7.69214 4.97545 7.60216 4.78899 7.5667C4.60254 7.53124 4.40975 7.55188 4.23503 7.62601C4.06031 7.70015 3.9115 7.82444 3.80744 7.98317C3.66807 8.19576 3.61877 8.45497 3.67036 8.70388C3.72196 8.95279 3.87024 9.17105 4.08263 9.31072Z" fill="#D2D6E7"/>
<path id="Vector_6" d="M5.50156 14.8642C5.27167 14.8512 5.04309 14.9067 4.84472 15.0236C4.64635 15.1405 4.48709 15.3136 4.38707 15.521C4.28706 15.7284 4.25077 15.9608 4.28281 16.1888C4.31485 16.4168 4.41377 16.6302 4.56706 16.802C4.72036 16.9738 4.92115 17.0963 5.14406 17.1541C5.36696 17.2118 5.60198 17.2021 5.81939 17.1263C6.03681 17.0505 6.22687 16.9119 6.36555 16.7281C6.50422 16.5443 6.58529 16.3235 6.59851 16.0936C6.6159 15.7851 6.51014 15.4824 6.30446 15.2519C6.09877 15.0213 5.81 14.8819 5.50156 14.8642Z" fill="#D2D6E7"/>
<path id="Vector_7" d="M4.21022 22.6932C4.04091 22.7788 3.90077 22.9126 3.80751 23.0778C3.71426 23.243 3.67207 23.4322 3.68629 23.6214C3.70051 23.8105 3.7705 23.9912 3.8874 24.1406C4.00431 24.29 4.16289 24.4014 4.34309 24.4607C4.52329 24.52 4.71702 24.5246 4.8998 24.4738C5.08258 24.423 5.2462 24.3191 5.36997 24.1754C5.49374 24.0316 5.57211 23.8544 5.59518 23.6661C5.61824 23.4778 5.58496 23.2869 5.49954 23.1175C5.44279 23.0049 5.3644 22.9047 5.26887 22.8224C5.17334 22.7402 5.06254 22.6776 4.9428 22.6382C4.82306 22.5988 4.69673 22.5833 4.57103 22.5928C4.44533 22.6022 4.32272 22.6364 4.21022 22.6932Z" fill="#D2D6E7"/>
<path id="Vector_8" d="M8.73713 12.4574C8.96388 12.606 9.22962 12.684 9.50072 12.6816C9.77182 12.6792 10.0361 12.5965 10.2602 12.4439C10.4843 12.2912 10.6581 12.0756 10.7596 11.8242C10.8612 11.5728 10.8859 11.297 10.8307 11.0316C10.7754 10.7661 10.6428 10.523 10.4494 10.333C10.256 10.143 10.0106 10.0146 9.74427 9.96401C9.47791 9.91343 9.20254 9.94297 8.95297 10.0489C8.7034 10.1548 8.49085 10.3324 8.34217 10.5591C8.24327 10.7096 8.17503 10.8781 8.14135 11.0551C8.10767 11.232 8.10922 11.4138 8.1459 11.5901C8.18259 11.7665 8.25369 11.9338 8.35514 12.0827C8.45659 12.2315 8.5864 12.3588 8.73713 12.4574Z" fill="#D2D6E7"/>
<path id="Vector_9" d="M23.0977 6.38164C23.2908 6.50757 23.5169 6.57344 23.7474 6.57092C23.9779 6.5684 24.2024 6.49759 24.3927 6.36746C24.583 6.23732 24.7304 6.0537 24.8163 5.8398C24.9022 5.6259 24.9228 5.39132 24.8755 5.16573C24.8281 4.94013 24.7149 4.73364 24.5502 4.57236C24.3855 4.41107 24.1767 4.30224 23.9502 4.25961C23.7236 4.21698 23.4895 4.24247 23.2775 4.33286C23.0654 4.42325 22.8849 4.57448 22.7588 4.76743C22.6748 4.8956 22.617 5.03908 22.5886 5.18965C22.5601 5.34022 22.5617 5.49492 22.5932 5.64488C22.6247 5.79484 22.6855 5.93711 22.772 6.06353C22.8586 6.18996 22.9693 6.29806 23.0977 6.38164Z" fill="#D2D6E7"/>
<path id="Vector_10" d="M25.4892 2.26906C25.614 2.35086 25.7602 2.3938 25.9095 2.39246C26.0587 2.39112 26.2041 2.34555 26.3274 2.26152C26.4507 2.17749 26.5463 2.05877 26.6021 1.92039C26.658 1.78201 26.6715 1.63018 26.641 1.48411C26.6105 1.33805 26.5373 1.20431 26.4308 1.09982C26.3243 0.995333 26.1892 0.92479 26.0425 0.897117C25.8959 0.869445 25.7444 0.885886 25.6071 0.944361C25.4698 1.00284 25.353 1.10072 25.2713 1.22562C25.162 1.39292 25.1235 1.59677 25.1644 1.79242C25.2052 1.98806 25.322 2.15949 25.4892 2.26906Z" fill="#D2D6E7"/>
<path id="Vector_11" d="M23.2823 13.6601C22.9766 13.6425 22.6703 13.6854 22.3811 13.7861C22.0919 13.8869 21.8254 14.0437 21.5968 14.2474C21.1351 14.659 20.8557 15.2371 20.8202 15.8546C20.7848 16.4721 20.996 17.0784 21.4076 17.5402C21.8192 18.0019 22.3973 18.2812 23.0148 18.3167C23.0594 18.3167 23.1052 18.3167 23.1498 18.3167C23.5997 18.3165 24.0398 18.1861 24.4172 17.9414C24.7947 17.6966 25.0932 17.3479 25.2769 16.9373C25.4606 16.5267 25.5216 16.0717 25.4525 15.6272C25.3834 15.1827 25.1873 14.7677 24.8876 14.4322C24.6847 14.2033 24.4382 14.0172 24.1626 13.8847C23.887 13.7521 23.5878 13.6758 23.2823 13.6601Z" fill="#D2D6E7"/>
<path id="Vector_12" d="M12.8115 12.2957C13.005 12.6824 13.3027 13.0074 13.6709 13.234C14.0392 13.4607 14.4634 13.58 14.8958 13.5787C15.2945 13.5788 15.6865 13.4767 16.0345 13.2822C16.3825 13.0877 16.6748 12.8072 16.8836 12.4676C17.0924 12.128 17.2106 11.7405 17.2271 11.3422C17.2435 10.9439 17.1576 10.548 16.9776 10.1923C16.7827 9.80736 16.4844 9.4843 16.1163 9.25928C15.7482 9.03427 15.3247 8.91618 14.8932 8.91824C14.4958 8.91892 14.1051 9.02112 13.7583 9.21517C13.4114 9.40921 13.1199 9.68865 12.9114 10.027C12.7028 10.3653 12.5842 10.7513 12.5667 11.1484C12.5492 11.5454 12.6335 11.9404 12.8115 12.2957Z" fill="#D2D6E7"/>
<path id="Vector_13" d="M31.0927 9.30801C31.2621 9.22255 31.4023 9.08881 31.4956 8.9237C31.589 8.75858 31.6313 8.56949 31.6172 8.38034C31.6032 8.19118 31.5333 8.01044 31.4165 7.86096C31.2998 7.71148 31.1413 7.59997 30.9612 7.54052C30.7811 7.48107 30.5874 7.47636 30.4046 7.52696C30.2218 7.57757 30.0581 7.68124 29.9341 7.82485C29.8102 7.96847 29.7317 8.1456 29.7084 8.33384C29.6851 8.52209 29.7182 8.71301 29.8034 8.88248C29.9181 9.10978 30.1183 9.28226 30.36 9.36205C30.6018 9.44184 30.8653 9.4224 31.0927 9.30801Z" fill="#D2D6E7"/>
<path id="Vector_14" d="M25.18 10.0508C24.9379 10.1727 24.7373 10.3637 24.6037 10.5997C24.4701 10.8356 24.4095 11.1059 24.4295 11.3763C24.4495 11.6467 24.5493 11.905 24.7161 12.1188C24.883 12.3325 25.1095 12.4919 25.3669 12.5769C25.6244 12.6619 25.9013 12.6686 26.1626 12.5962C26.4239 12.5239 26.6578 12.3756 26.8349 12.1703C27.0119 11.9649 27.1241 11.7117 27.1572 11.4426C27.1904 11.1735 27.143 10.9006 27.021 10.6585C26.9401 10.4976 26.8284 10.3542 26.692 10.2365C26.5557 10.1189 26.3975 10.0293 26.2265 9.97284C26.0555 9.91639 25.8751 9.89422 25.6955 9.90759C25.5159 9.92096 25.3408 9.96961 25.18 10.0508Z" fill="#D2D6E7"/>
<path id="Vector_15" d="M17.565 1.91739C17.7544 1.92818 17.9428 1.88254 18.1064 1.78623C18.2699 1.68993 18.4012 1.54728 18.4836 1.37635C18.566 1.20542 18.5959 1.01388 18.5695 0.825955C18.5431 0.638031 18.4615 0.46217 18.3351 0.320616C18.2087 0.179063 18.0431 0.0781779 17.8594 0.0307228C17.6757 -0.0167323 17.482 -0.00862543 17.3028 0.054018C17.1237 0.116662 16.9672 0.231027 16.853 0.382648C16.7389 0.534268 16.6723 0.716331 16.6617 0.905807C16.6474 1.15971 16.7345 1.40889 16.9039 1.59857C17.0733 1.78826 17.3111 1.90293 17.565 1.91739Z" fill="#D2D6E7"/>
<path id="Vector_16" d="M17.5538 7.95516C17.8245 7.97033 18.0935 7.90493 18.327 7.76724C18.5604 7.62954 18.7479 7.42572 18.8655 7.18154C18.9832 6.93736 19.0258 6.66378 18.988 6.39537C18.9503 6.12696 18.8338 5.87578 18.6533 5.67357C18.4728 5.47135 18.2364 5.32719 17.974 5.25929C17.7116 5.19139 17.4349 5.2028 17.179 5.29209C16.9231 5.38137 16.6994 5.54453 16.5361 5.76092C16.3729 5.97732 16.2775 6.23724 16.262 6.50785C16.2414 6.87106 16.366 7.22756 16.6082 7.49896C16.8505 7.77036 17.1906 7.93445 17.5538 7.95516Z" fill="#D2D6E7"/>
<path id="Vector_17" d="M10.1267 21.9492C10.3688 21.8271 10.5693 21.636 10.7028 21.4C10.8363 21.164 10.8968 20.8936 10.8766 20.6232C10.8565 20.3528 10.7566 20.0945 10.5896 19.8809C10.4226 19.6672 10.196 19.5079 9.93844 19.4231C9.6809 19.3382 9.40399 19.3317 9.14272 19.4042C8.88145 19.4768 8.64757 19.6252 8.47065 19.8307C8.29374 20.0362 8.18174 20.2895 8.14881 20.5587C8.11589 20.8278 8.16353 21.1007 8.2857 21.3428C8.44947 21.6673 8.7354 21.9134 9.08063 22.0272C9.42586 22.1409 9.80212 22.1128 10.1267 21.9492Z" fill="#D2D6E7"/>
<path id="Vector_18" d="M18.44 9.95524C18.1557 10.3891 18.0242 10.9055 18.0663 11.4225C18.1084 11.9395 18.3218 12.4277 18.6726 12.8099C19.0235 13.192 19.4917 13.4462 20.0033 13.5323C20.5148 13.6183 21.0405 13.5313 21.497 13.285C21.9536 13.0388 22.315 12.6472 22.524 12.1724C22.733 11.6977 22.7777 11.1667 22.651 10.6637C22.5243 10.1607 22.2334 9.71423 21.8245 9.39508C21.4155 9.07593 20.9118 8.90228 20.3931 8.90161C20.0057 8.90134 19.6243 8.99752 19.2833 9.18146C18.9423 9.3654 18.6525 9.63132 18.44 9.95524Z" fill="#D2D6E7"/>
<path id="Vector_19" d="M22.4933 19.7055C22.3065 19.3351 22.0243 19.0212 21.6757 18.7963C21.3271 18.5714 20.9249 18.4435 20.5104 18.4259C20.0959 18.4083 19.6842 18.5017 19.3179 18.6963C18.9515 18.8909 18.6437 19.1797 18.4262 19.533C18.2087 19.8862 18.0894 20.2911 18.0806 20.7059C18.0718 21.1206 18.1738 21.5302 18.3762 21.8924C18.5785 22.2546 18.8738 22.5562 19.2316 22.7662C19.5894 22.9761 19.9967 23.0868 20.4116 23.0868C20.7765 23.0843 21.1359 22.9971 21.4614 22.832C22.0119 22.5533 22.4296 22.0678 22.623 21.4819C22.8164 20.8959 22.7698 20.2572 22.4933 19.7055Z" fill="#D2D6E7"/>
<path id="Vector_20" d="M26.5685 19.5425C26.3418 19.3937 26.0761 19.3155 25.805 19.3177C25.5339 19.3199 25.2695 19.4024 25.0453 19.5549C24.8211 19.7074 24.6472 19.9229 24.5454 20.1742C24.4437 20.4255 24.4188 20.7014 24.4739 20.9669C24.5289 21.2323 24.6615 21.4755 24.8547 21.6657C25.048 21.8558 25.2933 21.9844 25.5597 22.0351C25.826 22.0859 26.1014 22.0565 26.3511 21.9507C26.6007 21.8449 26.8134 21.6675 26.9622 21.4408C27.161 21.1367 27.2312 20.7661 27.1575 20.4103C27.0837 20.0545 26.8719 19.7425 26.5685 19.5425Z" fill="#D2D6E7"/>
<path id="Vector_21" d="M31.0322 16.0401C31.0451 15.8102 30.9897 15.5817 30.8728 15.3833C30.7558 15.1849 30.5828 15.0257 30.3753 14.9256C30.1679 14.8256 29.9355 14.7893 29.7075 14.8214C29.4795 14.8534 29.2661 14.9523 29.0943 15.1056C28.9225 15.2589 28.8 15.4597 28.7423 15.6826C28.6845 15.9055 28.6942 16.1406 28.77 16.358C28.8458 16.5754 28.9844 16.7654 29.1682 16.9041C29.352 17.0428 29.5728 17.1239 29.8027 17.1371C30.1112 17.1545 30.4139 17.0487 30.6444 16.843C30.875 16.6373 31.0144 16.3486 31.0322 16.0401Z" fill="#D2D6E7"/>
<path id="Vector_22" d="M34.2585 15.2107C34.1096 15.2021 33.9615 15.2379 33.8329 15.3135C33.7043 15.3892 33.601 15.5012 33.5361 15.6355C33.4712 15.7698 33.4475 15.9204 33.4682 16.0681C33.4888 16.2158 33.5528 16.3541 33.6521 16.4655C33.7513 16.5769 33.8814 16.6563 34.0258 16.6938C34.1702 16.7312 34.3224 16.725 34.4633 16.6759C34.6042 16.6269 34.7273 16.5371 34.8172 16.418C34.9071 16.299 34.9596 16.1559 34.9682 16.007C34.9793 15.8074 34.9109 15.6115 34.7778 15.4622C34.6448 15.313 34.4581 15.2225 34.2585 15.2107Z" fill="#D2D6E7"/>
<path id="Vector_23" d="M31.2213 22.6893C31.0626 22.5853 30.8767 22.5308 30.687 22.5325C30.4973 22.5342 30.3123 22.5922 30.1555 22.699C29.9988 22.8058 29.8772 22.9567 29.8061 23.1326C29.7351 23.3085 29.7178 23.5015 29.7564 23.6872C29.7951 23.873 29.8879 24.0431 30.0232 24.176C30.1585 24.309 30.3302 24.3989 30.5166 24.4343C30.703 24.4697 30.8957 24.4491 31.0703 24.375C31.245 24.3009 31.3937 24.1767 31.4978 24.0181C31.5669 23.9127 31.6146 23.7947 31.6382 23.6709C31.6617 23.5471 31.6606 23.4198 31.6349 23.2964C31.6092 23.173 31.5595 23.0559 31.4885 22.9517C31.4176 22.8475 31.3268 22.7584 31.2213 22.6893Z" fill="#D2D6E7"/>
<path id="Vector_24" d="M9.81645 29.7308C9.69175 29.649 9.54558 29.606 9.39643 29.6072C9.24728 29.6084 9.10184 29.6539 8.97851 29.7377C8.85517 29.8216 8.75948 29.9402 8.70352 30.0785C8.64757 30.2167 8.63386 30.3685 8.66414 30.5145C8.69442 30.6606 8.76732 30.7944 8.87363 30.899C8.97994 31.0036 9.11489 31.0744 9.2614 31.1023C9.40792 31.1302 9.55943 31.1141 9.69678 31.0559C9.83412 30.9978 9.95114 30.9002 10.033 30.7755C10.0874 30.6927 10.125 30.6 10.1436 30.5027C10.1621 30.4053 10.1613 30.3053 10.1412 30.2083C10.1211 30.1113 10.082 30.0192 10.0263 29.9372C9.97061 29.8553 9.89929 29.7852 9.81645 29.7308Z" fill="#D2D6E7"/>
<path id="Vector_25" d="M25.6257 29.652C25.4925 29.7191 25.3822 29.8242 25.3087 29.9541C25.2352 30.0839 25.2019 30.2327 25.213 30.3814C25.2241 30.5302 25.279 30.6723 25.3709 30.7899C25.4627 30.9074 25.5874 30.9951 25.7291 31.0418C25.8708 31.0885 26.0231 31.0921 26.1669 31.0522C26.3106 31.0123 26.4393 30.9307 26.5367 30.8176C26.634 30.7046 26.6957 30.5652 26.7138 30.4172C26.7319 30.2691 26.7058 30.1189 26.6386 29.9858C26.5941 29.8972 26.5326 29.8183 26.4576 29.7536C26.3826 29.6889 26.2955 29.6396 26.2014 29.6086C26.1073 29.5776 26.008 29.5655 25.9092 29.5729C25.8104 29.5804 25.7141 29.6072 25.6257 29.652Z" fill="#D2D6E7"/>
<path id="Vector_26" d="M16.8656 22.0407C17.1499 21.6068 17.2814 21.0904 17.2392 20.5733C17.1971 20.0563 16.9836 19.568 16.6327 19.1859C16.2818 18.8038 15.8134 18.5496 15.3018 18.4636C14.7902 18.3777 14.2645 18.4648 13.808 18.7112C13.3514 18.9577 12.9901 19.3494 12.7813 19.8243C12.5724 20.2992 12.5279 20.8302 12.6548 21.3332C12.7817 21.8363 13.0728 22.2826 13.4819 22.6016C13.8911 22.9206 14.395 23.094 14.9138 23.0944C15.3012 23.0957 15.6828 23 16.0237 22.8159C16.3647 22.6319 16.6541 22.3654 16.8656 22.0407Z" fill="#D2D6E7"/>
<path id="Vector_27" d="M12.2063 25.6197C12.0136 25.4936 11.7878 25.4275 11.5576 25.4297C11.3273 25.432 11.1029 25.5024 10.9127 25.6321C10.7224 25.7619 10.5749 25.9451 10.4888 26.1586C10.4027 26.3722 10.3818 26.6065 10.4288 26.8319C10.4758 27.0573 10.5886 27.2637 10.7529 27.425C10.9172 27.5864 11.1256 27.6954 11.3519 27.7382C11.5781 27.7811 11.812 27.756 12.0239 27.666C12.2359 27.576 12.4164 27.4252 12.5426 27.2326C12.7117 26.9741 12.7713 26.659 12.7082 26.3566C12.6451 26.0541 12.4646 25.7891 12.2063 25.6197Z" fill="#D2D6E7"/>
<path id="Vector_28" d="M17.6427 30.0826C17.4533 30.0718 17.265 30.1175 17.1015 30.2137C16.938 30.31 16.8067 30.4526 16.7243 30.6234C16.6418 30.7943 16.6119 30.9857 16.6382 31.1736C16.6645 31.3615 16.746 31.5373 16.8723 31.6789C16.9985 31.8205 17.164 31.9215 17.3476 31.9691C17.5313 32.0167 17.7249 32.0087 17.904 31.9463C18.0832 31.8838 18.2398 31.7697 18.3541 31.6182C18.4683 31.4668 18.5351 31.2849 18.546 31.0955C18.5533 30.9696 18.5356 30.8436 18.4941 30.7246C18.4527 30.6056 18.3881 30.4959 18.3042 30.4019C18.2204 30.3078 18.1188 30.2312 18.0053 30.1764C17.8917 30.1216 17.7686 30.0898 17.6427 30.0826Z" fill="#D2D6E7"/>
<path id="Vector_29" d="M17.6513 24.0462C17.3804 24.0298 17.1108 24.0941 16.8765 24.231C16.6422 24.3679 16.4538 24.5713 16.3352 24.8153C16.2166 25.0594 16.173 25.3332 16.2101 25.602C16.2472 25.8708 16.3633 26.1226 16.5436 26.3254C16.7239 26.5282 16.9603 26.6729 17.2229 26.7413C17.4856 26.8096 17.7625 26.7984 18.0188 26.7092C18.2751 26.62 18.4991 26.4567 18.6626 26.2401C18.826 26.0235 18.9214 25.7632 18.9368 25.4923C18.9577 25.1301 18.8341 24.7745 18.5931 24.5034C18.3521 24.2323 18.0134 24.0679 17.6513 24.0462Z" fill="#D2D6E7"/>
<path id="Vector_30" d="M23.2594 25.5267C23.0536 25.6311 22.8835 25.7941 22.7705 25.9953C22.6575 26.1964 22.6067 26.4265 22.6246 26.6565C22.6424 26.8865 22.7281 27.106 22.8708 27.2873C23.0135 27.4685 23.2067 27.6034 23.4261 27.6748C23.6454 27.7462 23.881 27.7509 24.103 27.6883C24.3251 27.6257 24.5236 27.4987 24.6734 27.3233C24.8232 27.1479 24.9175 26.9319 24.9446 26.7028C24.9716 26.4737 24.93 26.2418 24.8252 26.0363C24.7559 25.8999 24.6605 25.7785 24.5443 25.6791C24.4281 25.5797 24.2934 25.5041 24.1479 25.4568C24.0025 25.4094 23.8492 25.3912 23.6967 25.4032C23.5442 25.4152 23.3956 25.4572 23.2594 25.5267Z" fill="#D2D6E7"/>
<path id="Vector_31" d="M48.9863 10.4917C51.2439 10.4917 52.825 11.7326 52.825 14.0361H55.7821C55.7821 9.99483 52.8021 8.0481 48.9417 8.0481C44.1998 8.0481 41.4453 10.6229 41.4453 16.0643C41.4453 21.6408 44.1998 24.0793 48.9417 24.0793C52.8479 24.0793 55.7821 22.1835 55.7821 18.141H52.9371C52.9371 20.3986 51.379 21.6408 48.9876 21.6408C45.8484 21.6408 44.4011 19.9017 44.4011 16.2898V15.8388C44.4036 12.297 45.87 10.4917 48.9863 10.4917Z" fill="#D2D6E7"/>
<path id="Vector_32" d="M63.601 8.32324L57.5723 23.813H60.5535L61.7944 20.4483H68.8793L70.1534 23.813H73.2697L67.2371 8.32324H63.601ZM62.6977 18.0059L64.2788 13.7596C64.5948 12.9251 65.1592 11.1185 65.2725 10.8025H65.3847C65.4981 11.1185 66.0625 12.9467 66.3784 13.7596L67.9582 18.0047L62.6977 18.0059Z" fill="#D2D6E7"/>
<path id="Vector_33" d="M89.3923 13.0193C89.3923 10.1528 87.7437 8.32324 84.3344 8.32324H76.1602V23.813H79.0509V17.825H83.8592L86.7895 23.813H89.9503L86.6378 17.3778C88.4661 16.6554 89.3923 15.1202 89.3923 13.0193ZM84.1076 15.3903H79.0509V10.7847H84.1076C85.6658 10.7847 86.4786 11.6205 86.4786 13.0193C86.4786 14.4883 85.5982 15.3903 84.1076 15.3903Z" fill="#D2D6E7"/>
<path id="Vector_34" d="M99.5311 8.32324H93.3418V23.813H99.5285C104.202 23.813 107.045 21.3745 107.045 16.0681C107.045 10.7617 104.204 8.32324 99.5311 8.32324ZM104.092 16.2936C104.069 19.6813 102.466 21.3515 99.5311 21.3515H96.2351V10.7847H99.5311C102.461 10.7847 104.092 12.4562 104.092 15.8426V16.2936Z" fill="#D2D6E7"/>
<path id="Vector_35" d="M114.617 8.32324L108.586 23.813H111.566L112.808 20.4483H119.898L121.162 23.813H124.278L118.25 8.32324H114.617ZM113.714 18.0059L115.292 13.7596C115.608 12.9251 116.173 11.1185 116.286 10.8025H116.401C116.513 11.1185 117.079 12.9467 117.395 13.7596L118.974 18.0047L113.714 18.0059Z" fill="#D2D6E7"/>
<path id="Vector_36" d="M137.492 17.5358C137.492 17.8288 137.537 18.6187 137.537 18.7551L137.425 18.7997C137.357 18.7105 136.905 17.9193 136.66 17.5587L129.932 8.32324H127.174V23.813H129.951V14.5329C129.951 14.1507 129.905 13.4041 129.905 13.2907L130.019 13.2232C130.086 13.3136 130.425 13.9685 130.783 14.4883L137.557 23.813H140.266V8.32324H137.49V17.5358H137.492Z" fill="#D2D6E7"/>
<path id="Vector_37" d="M151.78 8.05322C146.926 8.05322 143.99 10.6268 143.99 16.0682C143.99 21.5096 146.921 24.0832 151.78 24.0832C156.639 24.0832 159.592 21.5096 159.592 16.0682C159.592 10.6268 156.634 8.05322 151.78 8.05322ZM156.634 16.3166C156.634 19.861 154.941 21.6447 151.78 21.6447C148.642 21.6447 146.949 19.861 146.949 16.3166V15.8427C146.949 12.297 148.665 10.4917 151.78 10.4917C154.919 10.4917 156.634 12.297 156.634 15.8427V16.3166Z" fill="#D2D6E7"/>
</g>
</g>
</g>
<defs>
<clipPath id="clip0_4668_94707">
<rect width="159.255" height="32" fill="white" transform="translate(0.335938)"/>
</clipPath>
</defs>
</svg>
