<svg width="52" height="24" viewBox="0 0 52 24" fill="none" xmlns="http://www.w3.org/2000/svg">
<g id="CNN 1" clip-path="url(#clip0_4668_94645)">
<path id="path1607" d="M21.1744 0.000465761C18.9367 -0.0333358 16.9506 1.77584 16.9506 4.39407V16.1841C16.9529 16.6085 16.6359 16.9849 16.1744 16.9849H12.489C4.51411 16.9944 5.22673 6.78973 12.0149 6.78016C15.0326 6.77588 16.0873 6.78016 16.0873 6.78016V3.92099H11.8701C9.2275 3.92526 7.22688 4.9316 5.88118 6.43193C4.53544 7.93229 3.84649 9.93037 3.84756 11.916C3.84861 13.8277 4.50061 15.8117 5.86256 17.3153C7.2245 18.819 9.29532 19.8473 12.1573 19.8473H19.1135C19.5157 19.8473 19.8566 19.5066 19.8566 19.1094V4.70515C19.8522 3.9519 20.2429 3.34634 20.871 3.14589H20.8711C21.4805 2.952 22.1498 3.20452 22.5532 3.77831L22.555 3.78087L22.5565 3.78353C23.5341 5.38538 25.9768 9.31494 28.1831 12.8572C29.2863 14.6283 30.3305 16.3027 31.1031 17.5413C31.4894 18.1605 31.8079 18.6708 32.0318 19.0298C32.254 19.3859 32.3775 19.5837 32.3913 19.6061C32.554 19.8361 32.7588 19.9225 32.9294 19.8687H32.9295L32.9297 19.8686C33.0265 19.8386 33.1026 19.7704 33.1596 19.6582C33.2166 19.5459 33.2503 19.3901 33.2503 19.2029V4.70722C33.248 3.95637 33.6362 3.34953 34.2666 3.15023C34.8722 2.95604 35.5435 3.20858 35.9429 3.78294L35.9445 3.7852L35.9458 3.78757C36.9256 5.3884 39.3693 9.31799 41.5762 12.8602C43.7818 16.4005 45.7538 19.5588 45.7847 19.608C45.7848 19.6081 45.7849 19.6082 45.7849 19.6083C45.9444 19.8368 46.1622 19.928 46.344 19.8707C46.4425 19.8396 46.5212 19.77 46.5798 19.6577C46.6385 19.5454 46.6735 19.3906 46.6735 19.2051V0.089741V0.0887556H43.7888V11.2514C43.7888 11.2514 42.0024 8.22213 38.9571 2.99375C35.9776 -2.12825 30.3548 -0.0112414 30.3525 4.39614V11.2493C30.3525 11.2493 28.609 8.2179 25.5657 2.98951C24.3545 0.909537 22.7055 0.0235932 21.1744 0.000465761ZM12.3913 0.0887556C-4.18583 0.0866921 -4.02857 23.704 12.6146 23.7148H19.1177C21.9163 23.7168 23.7134 22.0569 23.7112 18.9977V13.0155C23.7112 13.0155 27.3585 19.0627 28.7897 21.4297C31.2248 25.4543 37.1175 24.663 37.1027 19.6357V13.0198C37.1027 13.0198 40.7498 19.0647 42.1831 21.4349C44.6182 25.4584 50.5112 24.6662 50.4962 19.6377V0.0887556H47.6159V19.2049V19.2051C47.6179 20.1084 47.1115 20.6133 46.629 20.7658L46.6287 20.7659C46.0402 20.9535 45.4 20.7025 45.0019 20.1322L45.0005 20.1303L44.9992 20.1283C44.9169 19.9968 37.111 7.4967 35.1593 4.30312C34.9974 4.07319 34.7602 3.97872 34.5498 4.04524C34.3313 4.11524 34.1924 4.34651 34.1924 4.70683V19.2006V19.2007C34.1946 20.1078 33.6969 20.6112 33.2164 20.7658L33.2161 20.7659L33.2159 20.766C32.6359 20.9483 32.0059 20.6977 31.6103 20.1279L31.6093 20.1265L31.6084 20.1251C31.5926 20.1006 31.4667 19.8991 31.2414 19.5386C31.0162 19.1782 30.6967 18.6666 30.3095 18.0462C29.535 16.8054 28.4898 15.1296 27.3862 13.358C25.18 9.81668 22.7424 5.89535 21.7679 4.29888C21.6062 4.06931 21.3668 3.97652 21.156 4.04327V4.04317C20.9351 4.11329 20.7948 4.34453 20.7968 4.702V4.70229V19.1093C20.7968 20.034 20.0389 20.7873 19.1135 20.7873H12.1572C8.99228 20.7873 6.67475 19.6384 5.15437 17.9532C3.63398 16.2679 2.90957 14.0513 2.90741 11.916C2.90525 9.70049 3.67254 7.47032 5.17861 5.79054C6.68467 4.11077 8.93144 2.98513 11.8679 2.98084H11.868H16.0873V0.0887556H12.3913Z" fill="#D2D6E7"/>
</g>
<defs>
<clipPath id="clip0_4668_94645">
<rect width="51" height="24" fill="white" transform="translate(0.0449219)"/>
</clipPath>
</defs>
</svg>
