<svg width="128" height="32" viewBox="0 0 128 32" fill="none" xmlns="http://www.w3.org/2000/svg">
<g id="ethereum-logo-landscape-black 1" clip-path="url(#clip0_4668_94606)">
<g id="Group">
<path id="Vector" d="M36.1565 18.3851C36.1565 18.6095 35.9676 18.7984 35.7314 18.7984H27.9026C28.1034 20.7349 29.5558 22.5062 31.6104 22.5062C33.0156 22.5062 34.0547 21.9748 34.834 20.853C34.9167 20.7349 35.0348 20.6523 35.1765 20.6523C35.4008 20.6523 35.5661 20.8176 35.5661 21.0419C35.5661 21.1246 35.5425 21.1836 35.5071 21.2427C34.7159 22.6124 33.1455 23.2855 31.6104 23.2855C28.9772 23.2855 27.0879 20.9239 27.0879 18.4087C27.0879 15.8818 28.9654 13.532 31.6104 13.532C34.2436 13.532 36.1447 15.87 36.1565 18.3851ZM35.3181 18.0191C35.1528 16.0825 33.665 14.3113 31.6104 14.3113C29.5558 14.3113 28.1034 16.0825 27.9026 18.0191H35.3181Z" fill="#D2D6E7"/>
<path id="Vector_2" d="M45.6611 13.7209C45.8855 13.7209 46.0508 13.9216 46.0508 14.1106C46.0508 14.3349 45.8855 14.5002 45.6611 14.5002H43.5593V22.7541C43.5593 22.9549 43.394 23.1438 43.1696 23.1438C42.9453 23.1438 42.7799 22.943 42.7799 22.7541V14.5002H40.7608C40.5364 14.5002 40.3711 14.3349 40.3711 14.1106C40.3711 13.9098 40.5364 13.7209 40.7608 13.7209H42.7799V10.7098C42.7799 10.5091 42.9335 10.3202 43.1342 10.2965C43.3822 10.2729 43.5711 10.4501 43.5711 10.6862V13.7209H45.6611Z" fill="#D2D6E7"/>
<path id="Vector_3" d="M58.4859 17.7122V22.707C58.4859 22.9314 58.2852 23.0967 58.0962 23.0967C57.8719 23.0967 57.7066 22.9314 57.7066 22.707V17.7122C57.7066 16.0236 56.7501 14.3469 54.8726 14.3469C52.4638 14.3469 51.4247 16.4487 51.5664 18.6096C51.5664 18.6686 51.59 18.9166 51.59 18.952V22.6952C51.59 22.8959 51.4365 23.0849 51.2357 23.1085C50.9878 23.1321 50.7988 22.955 50.7988 22.7188V6.29372C50.7988 6.09298 50.9641 5.90405 51.1885 5.90405C51.4128 5.90405 51.5782 6.10479 51.5782 6.29372V15.5749C52.2512 14.3705 53.4557 13.5557 54.8608 13.5557C57.1752 13.5557 58.4859 15.5749 58.4859 17.7122Z" fill="#D2D6E7"/>
<path id="Vector_4" d="M72.5491 18.3851C72.5491 18.6095 72.3602 18.7984 72.124 18.7984H64.2952C64.496 20.7349 65.9484 22.5062 68.003 22.5062C69.4081 22.5062 70.4473 21.9748 71.2266 20.853C71.3093 20.7349 71.4273 20.6523 71.569 20.6523C71.7934 20.6523 71.9587 20.8176 71.9587 21.0419C71.9587 21.1246 71.9351 21.1836 71.8997 21.2427C71.1085 22.6124 69.538 23.2855 68.003 23.2855C65.3698 23.2855 63.4805 20.9239 63.4805 18.4087C63.4805 15.8818 65.358 13.532 68.003 13.532C70.6244 13.532 72.5255 15.87 72.5491 18.3851ZM71.6989 18.0191C71.5336 16.0825 70.0458 14.3113 67.9912 14.3113C65.9484 14.3113 64.4842 16.0825 64.2834 18.0191H71.6989Z" fill="#D2D6E7"/>
<path id="Vector_5" d="M82.161 14.087C82.161 14.335 82.0193 14.4767 81.795 14.5121C79.4924 14.8545 78.4533 16.732 78.4533 18.9165V22.6597C78.4533 22.8604 78.2998 23.0494 78.099 23.073C77.851 23.0966 77.6621 22.9195 77.6621 22.6833V14.146C77.6621 13.9453 77.8156 13.7564 78.0164 13.7328C78.2643 13.7091 78.4533 13.8863 78.4533 14.1224V15.8582C79.1027 14.7601 80.3898 13.7209 81.7359 13.7209C81.9366 13.7209 82.161 13.8626 82.161 14.087Z" fill="#D2D6E7"/>
<path id="Vector_6" d="M95.0432 18.3851C95.0432 18.6095 94.8543 18.7984 94.6182 18.7984H86.7894C86.9901 20.7349 88.4425 22.5062 90.4971 22.5062C91.9023 22.5062 92.9414 21.9748 93.7207 20.853C93.8034 20.7349 93.9215 20.6523 94.0632 20.6523C94.2875 20.6523 94.4528 20.8176 94.4528 21.0419C94.4528 21.1246 94.4292 21.1836 94.3938 21.2427C93.6027 22.6124 92.0322 23.2855 90.4971 23.2855C87.8639 23.2855 85.9746 20.9239 85.9746 18.4087C85.9746 15.8818 87.8521 13.532 90.4971 13.532C93.1303 13.532 95.0314 15.87 95.0432 18.3851ZM94.2049 18.0191C94.0396 16.0825 92.5517 14.3113 90.4971 14.3113C88.4425 14.3113 86.9901 16.0825 86.7894 18.0191H94.2049Z" fill="#D2D6E7"/>
<path id="Vector_7" d="M107.702 14.1815V16.8855V22.7542C107.702 22.9785 107.502 23.1438 107.313 23.1438C107.088 23.1438 106.923 22.9785 106.923 22.7542V21.1247C106.274 22.4117 105.128 23.3446 103.664 23.3446C101.338 23.3446 100.051 21.3254 100.051 19.1881V14.1697C100.051 13.9689 100.216 13.78 100.44 13.78C100.665 13.78 100.83 13.9807 100.83 14.1697V19.1881C100.83 20.8767 101.787 22.5534 103.664 22.5534C106.297 22.5534 106.923 20.0855 106.923 17.3579V14.1579C106.923 13.9217 107.171 13.6855 107.454 13.7918C107.596 13.8627 107.702 14.0162 107.702 14.1815Z" fill="#D2D6E7"/>
<path id="Vector_8" d="M127.528 17.6767V22.6952C127.528 22.9195 127.327 23.0848 127.138 23.0848C126.914 23.0848 126.749 22.9195 126.749 22.6952V17.6767C126.749 15.9881 125.792 14.335 123.915 14.335C121.553 14.335 120.656 16.8619 120.656 18.8221V22.6952C120.656 22.9195 120.455 23.0848 120.266 23.0848C120.042 23.0848 119.876 22.9195 119.876 22.6952V17.6767C119.876 15.9881 118.92 14.335 117.043 14.335C114.657 14.335 113.677 16.2125 113.76 18.7158C113.76 18.7749 113.784 18.8811 113.76 18.9166V22.6833C113.76 22.8841 113.606 23.073 113.406 23.0966C113.158 23.1202 112.969 22.9431 112.969 22.707V14.1461C112.969 13.9453 113.122 13.7564 113.323 13.7328C113.571 13.7092 113.76 13.8863 113.76 14.1225V15.5512C114.433 14.3468 115.637 13.5557 117.043 13.5557C118.637 13.5557 119.877 14.5712 120.384 16.0472C121.034 14.583 122.297 13.5557 123.915 13.5557C126.217 13.5557 127.528 15.5512 127.528 17.6767Z" fill="#D2D6E7"/>
</g>
<path id="Vector_9" opacity="0.6" d="M9.80074 11.8198L0 16.2715L9.80074 22.0693L19.6133 16.2715L9.80074 11.8198Z" fill="#D2D6E7"/>
<path id="Vector_10" opacity="0.45" d="M0 16.2716L9.80074 22.0694V11.8199V0L0 16.2716Z" fill="#D2D6E7"/>
<path id="Vector_11" opacity="0.8" d="M9.80078 0V11.8199V22.0694L19.6133 16.2716L9.80078 0Z" fill="#D2D6E7"/>
<path id="Vector_12" opacity="0.45" d="M0 18.1372L9.80074 31.9527V23.9232L0 18.1372Z" fill="#D2D6E7"/>
<path id="Vector_13" opacity="0.8" d="M9.80078 23.9232V31.9527L19.6133 18.1372L9.80078 23.9232Z" fill="#D2D6E7"/>
</g>
<defs>
<clipPath id="clip0_4668_94606">
<rect width="127.646" height="32" fill="white"/>
</clipPath>
</defs>
</svg>
