<svg width="97" height="22" viewBox="0 0 97 22" fill="none" xmlns="http://www.w3.org/2000/svg">
<g id="KUCOIN 1" clip-path="url(#clip0_4668_94750)">
<g id="&#233;&#161;&#181;&#233;&#157;&#162;-1">
<g id="&#229;&#175;&#188;&#232;&#136;&#170;&#230;&#160;&#143;&#228;&#184;&#139;&#230;&#139;&#137;&#230;&#156;&#128;&#229;&#176;&#143;&#229;&#174;&#189;&#229;&#186;&#166;&#229;&#164;&#135;&#228;&#187;&#189;-4">
<g id="&#231;&#188;&#150;&#231;&#187;&#132;-27&#229;&#164;&#135;&#228;&#187;&#189;-2">
<g id="kucoin-logo">
<g id="KUCOIN-logo-3.0">
<path id="&#229;&#189;&#162;&#231;&#138;&#182;" d="M75.548 10.9898C75.548 10.4287 75.548 9.90088 75.5298 9.41345C75.5174 8.95362 75.4719 8.49527 75.3936 8.04199C75.3203 7.62808 75.1909 7.22609 75.0091 6.84712C74.8171 6.45639 74.5605 6.10088 74.2502 5.79556C73.81 5.34459 73.2863 4.98365 72.7081 4.7329C72.0827 4.47956 71.4129 4.35398 70.7382 4.36355C70.061 4.35479 69.3887 4.48033 68.7602 4.7329C68.1788 4.98023 67.6518 5.3396 67.2091 5.79052C66.8994 6.09565 66.6438 6.45124 66.4533 6.84208C66.2729 7.22112 66.1456 7.62318 66.0748 8.03694C65.9983 8.49036 65.9544 8.9487 65.9436 9.40841C65.9315 9.89584 65.9255 10.4236 65.9285 10.9847C65.9315 11.5458 65.9285 12.0696 65.9436 12.5601C65.9544 13.0198 65.9983 13.4781 66.0748 13.9315C66.1456 14.3453 66.2729 14.7473 66.4533 15.1264C66.6446 15.5168 66.9001 15.8722 67.2091 16.1779C67.651 16.6292 68.1783 16.9881 68.7602 17.2335C69.3883 17.4878 70.0608 17.614 70.7382 17.6049C71.4132 17.6149 72.0832 17.4886 72.7081 17.2335C73.2864 16.9861 73.8103 16.6275 74.2502 16.1779C74.5598 15.872 74.8163 15.5167 75.0091 15.1264C75.1909 14.7474 75.3203 14.3454 75.3936 13.9315C75.471 13.4795 75.5159 13.0225 75.5278 12.5641C75.5429 12.0736 75.55 11.5489 75.5459 10.9888L75.548 10.9898ZM73.0048 10.9898C73.0048 11.6114 72.9958 12.1291 72.9746 12.5409C72.9626 12.8791 72.9289 13.2162 72.8736 13.5501C72.8358 13.7725 72.7679 13.9888 72.6718 14.1929C72.5938 14.3574 72.4918 14.5095 72.3691 14.644C72.1796 14.8609 71.9446 15.0332 71.6808 15.1486C71.3839 15.2756 71.0641 15.3402 70.7413 15.3384C70.4168 15.3397 70.0954 15.2752 69.7967 15.1486C69.5264 15.0353 69.285 14.8629 69.0903 14.644C68.9668 14.5101 68.8647 14.3579 68.7875 14.1929C68.6941 13.9886 68.6295 13.7722 68.5958 13.5501C68.5419 13.216 68.5082 12.879 68.4948 12.5409C68.4767 12.1291 68.4676 11.6121 68.4676 10.9898C68.4676 10.3681 68.4767 9.84942 68.4948 9.43767C68.5082 9.09956 68.5419 8.76257 68.5958 8.4285C68.6295 8.20636 68.6941 7.99001 68.7875 7.78566C68.8649 7.62077 68.967 7.46865 69.0903 7.33455C69.2853 7.11597 69.5266 6.9436 69.7967 6.82997C70.095 6.70193 70.4166 6.63732 70.7413 6.64024C71.0643 6.63689 71.3844 6.70153 71.6808 6.82997C71.9444 6.94574 72.1794 7.11799 72.3691 7.33455C72.4915 7.46927 72.5936 7.62126 72.6718 7.78566C72.7679 7.9898 72.8358 8.20606 72.8736 8.4285C72.9289 8.76238 72.9626 9.09947 72.9746 9.43767C72.9968 9.84841 73.0048 10.3671 73.0048 10.9898Z" fill="#D2D6E7"/>
<path id="&#232;&#183;&#175;&#229;&#190;&#132;" d="M95.8134 4.70081C95.8123 4.57809 95.7131 4.47888 95.5904 4.47778H93.4923C93.3693 4.47834 93.2698 4.57787 93.2693 4.70081V12.4513L88.1527 4.54035C88.1184 4.48687 88.0882 4.47778 88.0125 4.47778H86.0668C85.9443 4.47941 85.8454 4.57832 85.8438 4.70081V17.2771C85.8454 17.3995 85.9444 17.4981 86.0668 17.4992H88.1638C88.2862 17.4986 88.3853 17.3995 88.3859 17.2771V9.5065L93.5034 17.4356C93.5387 17.4891 93.567 17.4982 93.6437 17.4982H95.5883C95.7109 17.4976 95.8103 17.3987 95.8114 17.2761L95.8134 4.70081Z" fill="#D2D6E7"/>
<path id="&#232;&#183;&#175;&#229;&#190;&#132;_2" d="M81.7491 4.70081C81.7486 4.57787 81.6491 4.47834 81.5261 4.47778H79.4301C79.3071 4.47834 79.2076 4.57787 79.207 4.70081V17.2761C79.2076 17.3991 79.3071 17.4986 79.4301 17.4992H81.5261C81.6491 17.4986 81.7486 17.3991 81.7491 17.2761V4.70081Z" fill="#D2D6E7"/>
<path id="&#232;&#183;&#175;&#229;&#190;&#132;_3" d="M56.6564 10.9899C56.6564 10.3642 56.6634 9.84348 56.6816 9.42871C56.6939 9.09053 56.7277 8.75346 56.7825 8.41953C56.9763 7.29935 57.8341 6.63834 58.929 6.63834C59.6435 6.6444 60.2914 6.9088 60.7052 7.51027C60.8926 7.79107 61.0292 8.10259 61.1088 8.43063C61.115 8.46519 61.1466 8.4893 61.1815 8.48614H63.6489C63.6843 8.48614 63.6974 8.46192 63.6913 8.42761C63.4219 6.90073 62.6075 5.52926 61.1684 4.85009C60.4611 4.52262 59.6892 4.35877 58.9099 4.37073C57.5206 4.37073 56.3503 4.84638 55.3989 5.7977C54.8558 6.32704 54.4851 7.00799 54.3353 7.75146C54.19 8.48345 54.1166 9.56259 54.1153 10.9889C54.1139 12.4152 54.1873 13.494 54.3353 14.2253C54.4838 14.9697 54.8535 15.6521 55.3959 16.1831C56.3466 17.1338 57.5169 17.6091 58.9068 17.6091C59.686 17.6209 60.4579 17.4574 61.1654 17.1307C62.6044 16.4516 63.4188 15.0801 63.6883 13.5532C63.6944 13.5179 63.6812 13.4947 63.6459 13.4947H61.1775C61.1424 13.491 61.1105 13.5153 61.1048 13.5502C61.025 13.8778 60.8883 14.189 60.7011 14.4695C60.2874 15.075 59.6395 15.3364 58.925 15.3415C57.83 15.3415 56.9722 14.6815 56.7785 13.5613C56.7237 13.2273 56.69 12.8903 56.6776 12.5521C56.6634 12.1353 56.6564 11.6136 56.6564 10.9899Z" fill="#D2D6E7"/>
<path id="&#232;&#183;&#175;&#229;&#190;&#132;_4" d="M30.5968 4.70081C30.5962 4.57787 30.4967 4.47834 30.3738 4.47778H28.2777C28.1548 4.47834 28.0552 4.57787 28.0547 4.70081V17.2771C28.0558 17.3997 28.1552 17.4986 28.2777 17.4993H30.3738C30.4963 17.4986 30.5957 17.3997 30.5968 17.2771V13.5856L32.2791 11.5743L35.7345 17.4326C35.7611 17.4757 35.809 17.5012 35.8596 17.4993H38.4068C38.5239 17.4993 38.5451 17.4265 38.4865 17.3266L33.9624 9.65687L38.1131 4.6776C38.1969 4.57668 38.1616 4.48081 38.0304 4.48081H35.2461C35.2122 4.47882 35.1796 4.49399 35.1593 4.52118L30.5968 9.99292V4.70081Z" fill="#D2D6E7"/>
<path id="&#232;&#183;&#175;&#229;&#190;&#132;_5" d="M45.8658 15.3415C44.6861 15.3415 43.6163 14.2496 43.6163 12.9458V4.70081C43.6158 4.57787 43.5162 4.47834 43.3933 4.47778H41.2972C41.1743 4.47834 41.0748 4.57787 41.0742 4.70081V12.9135C41.0742 15.7846 43.2217 17.6092 45.8658 17.6092C48.5098 17.6092 50.6573 15.7846 50.6573 12.9135V4.70081C50.6562 4.57809 50.557 4.47888 50.4343 4.47778H48.3372C48.2147 4.47889 48.1158 4.57826 48.1152 4.70081V12.9458C48.1152 14.2486 47.0445 15.3415 45.8658 15.3415Z" fill="#D2D6E7"/>
<path id="&#229;&#189;&#162;&#231;&#138;&#182;_2" fill-rule="evenodd" clip-rule="evenodd" d="M6.98423 10.9899L13.4914 17.498L17.5987 13.3907C18.3332 12.7294 19.4568 12.7588 20.1556 13.4576C20.8545 14.1565 20.8839 15.2801 20.2226 16.0145L14.8023 21.4358C14.0742 22.1519 12.9065 22.1519 12.1785 21.4358L4.35836 13.6137V18.263C4.35836 19.2891 3.52655 20.1209 2.50047 20.1209C1.47438 20.1209 0.642578 19.2891 0.642578 18.263V3.71069C0.642578 2.68461 1.47438 1.85281 2.50047 1.85281C3.52655 1.85281 4.35836 2.68461 4.35836 3.71069V8.35996L12.1774 0.539869C12.9053 -0.176701 14.0734 -0.176701 14.8013 0.539869L20.2256 5.96014C20.8869 6.69459 20.8575 7.81822 20.1587 8.51705C19.4598 9.21589 18.3362 9.24531 17.6018 8.584L13.4944 4.47666L6.98423 10.9899ZM13.4944 9.12996C12.7421 9.12955 12.0636 9.58245 11.7754 10.2774C11.4872 10.9724 11.646 11.7725 12.1779 12.3047C12.7097 12.8368 13.5098 12.9961 14.2049 12.7083C14.9001 12.4205 15.3533 11.7422 15.3533 10.9899C15.3536 10.4966 15.1579 10.0234 14.8093 9.67442C14.4607 9.32543 13.9877 9.12922 13.4944 9.12895V9.12996Z" fill="#D2D6E7"/>
</g>
</g>
</g>
</g>
</g>
</g>
<defs>
<clipPath id="clip0_4668_94750">
<rect width="95.8571" height="22" fill="white" transform="translate(0.642578)"/>
</clipPath>
</defs>
</svg>
