<svg width="113" height="32" viewBox="0 0 113 32" fill="none" xmlns="http://www.w3.org/2000/svg">
  <g fill="#D2D6E7">
    <path id="Nasda"
      d="M83.1715 24.2386C79.322 24.2386 76.93 22.0088 76.93 18.4146C76.93 14.6845 79.1373 12.3637 82.6915 12.3637H82.9897C83.4355 12.3637 84.0493 12.3783 84.8879 12.483V7.98047H87.3984V23.8328C87.3984 23.8328 85.0129 24.2386 83.1715 24.2386ZM83.1489 14.3405C80.7169 14.3405 79.5344 15.6532 79.5344 18.3521C79.5344 20.7754 80.9613 22.2816 83.2537 22.2816C83.6944 22.2816 84.1991 22.2525 84.8871 22.1936V14.5019C84.1999 14.3914 83.6457 14.3405 83.1489 14.3405ZM48.7824 23.875L42.0006 12.0401L41.9984 23.875H39.6348V8.89247H42.9439L49.7257 20.6219L49.7228 8.89247H52.1177V23.875H48.7824ZM70.3846 24.1056C69.2428 24.1056 68.0522 23.9776 66.6348 23.7048L66.4813 23.6757V21.5827L66.7053 21.6307C67.9555 21.8976 69.0348 22.1252 70.1148 22.1252C70.9868 22.1252 73.018 21.9885 73.018 20.7048C73.018 19.6285 71.6144 19.3579 70.4871 19.1419L70.4159 19.1274C70.205 19.0881 70.0064 19.0481 69.8391 19.0059C68.1853 18.5768 66.4209 17.9317 66.4209 15.7157C66.4209 13.5543 68.1315 12.3157 71.1148 12.3157C72.5468 12.3157 73.586 12.4685 74.4217 12.5936L74.8275 12.6532V14.6845L74.6115 14.6452C73.666 14.4714 72.5577 14.2925 71.4922 14.2925C70.3075 14.2925 68.9017 14.5143 68.9017 15.5681C68.9017 16.443 70.0522 16.6932 71.3846 16.9834C73.2479 17.3863 75.5577 17.8925 75.5577 20.435C75.5577 22.7674 73.674 24.1056 70.3846 24.1056ZM94.4464 24.1056C91.8479 24.1056 89.4413 23.6474 89.4413 20.3296C89.4413 16.7186 93.1628 16.7187 95.3875 16.7187C95.6086 16.7187 96.6544 16.7674 96.9751 16.7812C96.9722 14.7557 96.9468 14.2728 94.0093 14.2728C92.845 14.2728 91.5519 14.5027 90.41 14.7077L90.1919 14.747V12.747L90.3388 12.7157C91.6624 12.4467 92.9388 12.3157 94.2399 12.3157C97.0864 12.3157 99.498 12.6023 99.498 16.1339V23.8357L99.3249 23.8554C97.3533 24.0765 95.7875 24.1056 94.4464 24.1056ZM95.3249 18.5056C93.1795 18.5056 91.85 18.8212 91.85 20.3921C91.85 22.2103 93.546 22.3608 95.1373 22.3608C95.7308 22.3608 96.7991 22.2845 97.1257 22.2612V18.5681C96.666 18.5485 95.4697 18.5056 95.3249 18.5056ZM59.2195 24.1056C56.6173 24.1056 54.2115 23.6474 54.2115 20.3296C54.2115 16.7186 57.9329 16.7187 60.1569 16.7187C60.3788 16.7187 61.4268 16.7674 61.7482 16.7812C61.7453 14.7557 61.7169 14.2728 58.7795 14.2728C57.6144 14.2728 56.3213 14.5027 55.1795 14.7077L54.9613 14.747V12.747L55.1119 12.7157C56.3943 12.4506 57.7004 12.3165 59.01 12.3157C61.8559 12.3157 64.2682 12.6023 64.2682 16.1339V23.8357L64.0944 23.8554C62.1235 24.0765 60.5577 24.1056 59.2195 24.1056ZM60.0944 18.5056C57.9497 18.5056 56.6231 18.8212 56.6231 20.3921C56.6231 22.2103 58.3162 22.3608 59.9075 22.3608C60.5039 22.3608 61.5722 22.2845 61.8988 22.2612V18.5681C61.4355 18.5485 60.2391 18.5056 60.0944 18.5056Z" />
    <path id="q"
      d="M109.494 28.9659V24.051C108.514 24.1877 107.995 24.1877 107.574 24.1877C106.579 24.1877 105.475 23.9717 104.619 23.611C102.704 22.8146 101.562 20.7928 101.562 18.1986C101.562 16.9041 101.878 14.5368 103.989 13.2612C105.048 12.6285 106.299 12.3579 108.179 12.3579C108.852 12.3579 109.761 12.4088 110.639 12.4597L112.065 12.5339V27.827L109.494 28.9659ZM107.992 14.3354C105.44 14.3346 104.147 15.6365 104.147 18.1986C104.147 21.4975 106.076 22.1906 107.698 22.1906C108.093 22.1906 108.536 22.1906 109.519 22.0655V14.4066C108.749 14.3557 108.394 14.3354 107.992 14.3354Z" />
    <g id="logo">
      <path id="left"
        d="M18.7135 7.98828H9.83856C9.15129 7.98828 8.56293 8.42319 8.34111 9.03701L0.0371094 31.8516H8.97747L17.2822 9.03774C17.3899 8.74093 17.5836 8.4829 17.8385 8.29653C18.0934 8.11015 18.398 8.00386 18.7135 7.99119V7.98828Z" />
      <path id="center"
        d="M18.0628 23.5287C18.5719 23.5287 19.0177 23.2757 19.2904 22.8924C19.3188 22.8524 19.4184 22.7127 19.4889 22.5229L22.5348 14.1506L20.7529 9.26111C20.6492 9.01352 20.481 8.79818 20.266 8.63741C20.051 8.47665 19.7969 8.3763 19.5301 8.34678C19.2633 8.31725 18.9934 8.35962 18.7484 8.46949C18.5035 8.57936 18.2923 8.75274 18.1369 8.97166C18.1079 9.01166 17.9893 9.18984 17.9384 9.34111L14.8926 17.7106L16.6824 22.6197C16.7985 22.8895 16.9911 23.1194 17.2364 23.2809C17.4817 23.4425 17.769 23.5287 18.0628 23.5287Z" />
      <path id="right"
        d="M28.4166 0.0117188L20.1126 22.8263C20.0099 23.1072 19.8302 23.3535 19.5941 23.537C19.358 23.7206 19.0749 23.8339 18.7773 23.8641V23.875H27.5555C28.2428 23.875 28.8312 23.4379 29.0501 22.827L37.357 0.0117188H28.4166Z" />
    </g>
  </g>
</svg>