<svg width="44" height="38" viewBox="0 0 44 38" fill="none" xmlns="http://www.w3.org/2000/svg">
<path d="M0.194873 15.8503C1.3708 9.05089 8.29829 2.24364 14.9937 0.934929C22.9197 -1.49728 32.17 0.937203 38.1351 6.82898C39.9291 8.60058 43.4389 12.0675 43.1669 16.0636C42.9393 19.4061 40.133 22.1206 36.869 25.2769C35.2755 26.8182 34.2244 27.511 32.2336 29.7392C30.228 31.9841 29.8363 32.9128 28.9003 33.9763C25.8935 37.3915 20.3778 38.6606 15.5428 37.6765C8.60839 36.265 4.88564 30.5866 3.74448 28.8466C2.54599 27.0184 -0.84302 21.8505 0.194873 15.8503Z" fill="#181B2B"/>
<path d="M32.5642 33.4632C32.1613 34.8711 30.7165 35.7127 29.2881 35.3689L10.4157 30.827C9.77486 30.6727 9.21143 30.2931 8.82866 29.7581L5.80018 25.5248L35.1842 7.00275L37.9547 10.597C38.4838 11.2835 38.6553 12.1794 38.417 13.0118L32.5642 33.4632Z" fill="#181B2B" stroke="#181B2B" stroke-width="0.789832"/>
<path d="M30.6671 29.809C30.2296 31.4478 28.5619 32.4451 26.9003 32.0616L7.5866 27.6038C5.75121 27.1802 4.69502 25.2636 5.32411 23.4982L11.6542 5.73459C12.1384 4.37573 13.4916 3.51939 14.9352 3.65826L33.3774 5.43231C35.3169 5.61889 36.6253 7.48966 36.1256 9.36167L30.6671 29.809Z" fill="#8AFFCE"/>
<path fill-rule="evenodd" clip-rule="evenodd" d="M27.078 31.292C28.3284 31.5806 29.5773 30.8291 29.904 29.6053L35.3625 9.15796C35.735 7.76265 34.7609 6.35888 33.3018 6.21852L14.8596 4.44446C13.7736 4.33999 12.76 4.98446 12.3982 5.99972L11.6542 5.73459C12.1384 4.37573 13.4916 3.51939 14.9352 3.65826L33.3774 5.43231C35.3169 5.61889 36.6253 7.48966 36.1256 9.36167L30.6671 29.809C30.2296 31.4478 28.5619 32.4451 26.9003 32.0616L7.5866 27.6038C5.75121 27.1802 4.69502 25.2636 5.32411 23.4982L11.6542 5.73459L12.3982 5.99972L6.06811 23.7634C5.59907 25.0796 6.38462 26.5158 7.76423 26.8342L27.078 31.292Z" fill="#181B2B"/>
<path fill-rule="evenodd" clip-rule="evenodd" d="M17.9297 12.2586C17.9958 12.4685 17.8787 12.6921 17.6683 12.758L12.0109 14.5292C11.9415 14.5509 11.8786 14.6116 11.85 14.7096C11.8213 14.8077 11.8371 14.9136 11.8968 14.9944L15.579 19.9813C15.7098 20.1584 15.6719 20.4077 15.4944 20.5382C15.3168 20.6687 15.0669 20.6309 14.9361 20.4538L11.2539 15.4669L11.5753 15.2307L11.2539 15.4669C10.8287 14.8911 11.0519 13.9945 11.7718 13.7691L17.4292 11.9979C17.6396 11.932 17.8637 12.0488 17.9297 12.2586Z" fill="#181B2B"/>
<path fill-rule="evenodd" clip-rule="evenodd" d="M25.6247 14.4116C25.8022 14.2812 26.0521 14.319 26.1829 14.4961L29.8652 19.4829C30.2904 20.0588 30.0672 20.9553 29.3472 21.1807L23.6898 22.952C23.4794 23.0178 23.2553 22.9011 23.1893 22.6912C23.1233 22.4813 23.2403 22.2578 23.4507 22.1919L29.1081 20.4207C29.1775 20.3989 29.2404 20.3382 29.2691 20.2403C29.2977 20.1422 29.282 20.0362 29.2223 19.9554L25.54 14.9686C25.4092 14.7915 25.4471 14.5421 25.6247 14.4116Z" fill="#181B2B"/>
<path fill-rule="evenodd" clip-rule="evenodd" d="M25.4237 10.926C25.6009 11.0557 25.6392 11.3041 25.5093 11.481L15.9412 24.505C15.8113 24.6819 15.5624 24.7201 15.3852 24.5904C15.2081 24.4607 15.1698 24.2123 15.2997 24.0354L24.8678 11.0114C24.9977 10.8346 25.2466 10.7963 25.4237 10.926Z" fill="#181B2B"/>
<path fill-rule="evenodd" clip-rule="evenodd" d="M36.9983 8.98026C37.1864 8.83466 37.4578 8.86809 37.6044 9.05492L38.5561 10.2678C39.2428 11.143 39.4661 12.2868 39.1563 13.3502L35.9313 24.4209C35.865 24.6484 35.6255 24.7795 35.3964 24.7136C35.1674 24.6478 35.0354 24.41 35.1017 24.1825L38.3267 13.1118C38.5592 12.3138 38.3922 11.4544 37.8749 10.7951L36.9231 9.58215C36.7765 9.39533 36.8102 9.12585 36.9983 8.98026ZM8.38093 29.3541C8.57417 29.2153 8.84413 29.2583 8.98389 29.4503C9.35821 29.9643 9.91003 30.33 10.539 30.4786L25.2324 33.9526C25.4644 34.0074 25.6077 34.2387 25.5525 34.4691C25.4973 34.6995 25.2644 34.8418 25.0324 34.787L10.339 31.3131C9.51059 31.1172 8.78071 30.6349 8.28411 29.9529C8.14434 29.761 8.18769 29.4929 8.38093 29.3541Z" fill="#FFCB47"/>
</svg>
