<svg width="40" height="28" viewBox="0 0 40 28" fill="none" xmlns="http://www.w3.org/2000/svg">
<path d="M29.4562 0.508367C17.5608 -2.40537 -2.93661 7.63453 0.35268 19.6733C1.53817 24.0144 6.87285 25.7019 9.657 26.5831C10.5908 26.8785 27.7403 32.1643 37.0649 20.2146C43.9851 8.49975 37.5337 2.48689 29.4562 0.508367Z" fill="#1A1D2F"/>
<path d="M2.7348 7.50099C2.7348 7.50099 3.62619 5.17718 6.73663 1.5522C9.84706 -2.07278 40.3636 16.2337 37.2596 21.1283C34.1556 26.023 33.121 26.7953 33.121 26.7953C26.2085 28.1747 4.40877 14.6898 2.7348 7.50099Z" fill="#14C393"/>
<path d="M38.4126 21.9133C37.1713 23.8495 29.1094 21.5335 20.3434 15.9815C11.5774 10.4295 5.42682 3.74383 6.66806 1.80761C7.9093 -0.128599 16.0218 2.80259 24.7878 8.35461C33.5538 13.9066 39.6538 19.977 38.4126 21.9133Z" fill="#8AFFCE"/>
<path fill-rule="evenodd" clip-rule="evenodd" d="M6.96414 1.72277C7.2978 1.55714 7.79818 1.47023 8.49517 1.49928C9.53973 1.54283 10.9135 1.84403 12.5287 2.38471C15.7546 3.46455 19.8766 5.47663 24.1242 8.1694L24.1243 8.16943C28.3715 10.8608 31.9224 13.7107 34.2304 16.1371C35.3863 17.3522 36.2172 18.4474 36.6722 19.3522C37.0779 20.159 37.1455 20.7314 36.9939 21.1054C36.7208 21.4517 36.1308 21.6701 35.1382 21.6519C34.1222 21.6333 32.7859 21.3667 31.2079 20.8613C29.8108 20.4138 28.2375 19.7835 26.5486 18.9862C24.9843 18.1886 23.1323 17.2034 21.0734 16.0353C20.6381 15.7729 20.1999 15.5023 19.7595 15.2236L19.7595 15.2236C15.5117 12.5358 11.9615 9.58493 9.65425 7.05741C8.49898 5.79183 7.66741 4.64541 7.21185 3.70174C6.74368 2.73195 6.72462 2.0898 6.97166 1.72786L6.96414 1.72277ZM37.4381 21.6213L35.6755 24.1361C35.5956 24.253 35.5165 24.3659 35.4379 24.4751L34.038 26.4725L34.0366 26.4744C33.5798 27.1425 32.65 27.354 31.5476 27.308C30.4175 27.2609 28.9793 26.9395 27.3381 26.3902C24.0511 25.2899 19.8824 23.2518 15.6043 20.5397C11.3268 17.8291 7.73179 14.9477 5.37842 12.4737C5.02344 12.1005 4.6955 11.7354 4.39701 11.3803L4.28668 11.2976L4.30622 11.2715C3.66077 10.4924 3.15998 9.76338 2.82974 9.10663C2.34598 8.1446 2.17464 7.22543 2.6347 6.54904L2.63726 6.54528L2.63729 6.54529L6.03867 1.69223C6.49551 1.02412 7.42536 0.812602 8.52777 0.858556C9.65789 0.905665 11.0961 1.22703 12.7373 1.7764C16.0243 2.87669 20.193 4.91473 24.4711 7.62684C28.7485 10.3374 32.3436 13.2188 34.697 15.6928C35.8718 16.9279 36.7504 18.0752 37.2456 19.0599C37.6825 19.9287 37.8646 20.7626 37.5569 21.4142L37.5582 21.4151L37.5528 21.4229C37.5207 21.4898 37.4834 21.5547 37.4407 21.6175L37.4381 21.6213L37.4381 21.6213ZM5.12842 11.244C5.35112 11.4995 5.59016 11.7616 5.84499 12.0295C6.18276 12.3846 6.54715 12.7487 6.93645 13.1201L10.3606 8.71767C9.93817 8.30105 9.54355 7.89169 9.17882 7.49213C8.94437 7.2353 8.7218 6.982 8.51176 6.73292L5.12842 11.244ZM8.09361 6.22166L4.7041 10.741C4.12879 10.0346 3.69087 9.38641 3.4032 8.81433C2.93748 7.88818 2.91729 7.27097 3.16273 6.90808L6.18907 2.59012C6.2388 3.02593 6.39945 3.49928 6.63385 3.98483C6.96058 4.66163 7.45543 5.41572 8.09361 6.22166ZM10.8238 9.16671L7.40622 13.5607C8.72224 14.7744 10.2897 16.0558 12.0513 17.3441C11.223 15.5604 12.041 12.9211 14.7201 12.489C13.2668 11.3684 11.9564 10.2467 10.8238 9.16671Z" fill="#1A1D2F"/>
<path d="M27.2377 25.937C24.0006 24.8172 19.9689 22.8524 15.8279 20.268C14.748 19.5943 13.7116 18.9103 12.7275 18.2251" stroke="#FFAD4D" stroke-width="0.641282" stroke-miterlimit="10" stroke-linecap="round"/>
</svg>
