<svg width="14" height="19" viewBox="0 0 14 19" fill="none" xmlns="http://www.w3.org/2000/svg">
<g filter="url(#filter0_d_2607_3233)">
<path d="M8.70572 9.152V9.1219C10.2469 8.86906 11.0174 8.1045 11.0174 6.82222C11.0174 5.99144 10.6923 5.40146 10.0422 5.04628C9.54851 4.78139 8.86823 4.61282 7.99531 4.55262V3.2583H7.05621V4.52253H6.14717V3.2583H5.20799V4.52253H2.92635L2.93237 5.63023H4.15447C4.34712 5.63023 4.49766 5.78675 4.49766 5.97338V12.6196C4.49766 12.8122 4.3411 12.9627 4.15447 12.9627H2.92635L2.83008 14.3353H5.20799V15.6176H6.14717V14.3353H7.05018C7.0562 14.3353 7.05614 14.3353 7.06216 14.3353V15.6176H8.00134V14.2992C8.98863 14.2269 9.77128 14.0343 10.3612 13.7213C11.1258 13.3119 11.511 12.6015 11.511 11.5841C11.511 10.1995 10.578 9.38678 8.70572 9.152ZM6.16517 5.63625C7.33307 5.63625 9.28362 5.63625 9.28362 7.04496C9.28362 8.45366 7.33307 8.45366 6.16517 8.45366V5.63625ZM6.16517 12.8784V9.95266C7.53174 9.95266 9.82545 9.95268 9.82545 11.4156C9.82545 12.8785 7.53174 12.8784 6.16517 12.8784Z" fill="#14C393"/>
</g>
<defs>
<filter id="filter0_d_2607_3233" x="0.422033" y="0.850255" width="13.4972" height="17.1754" filterUnits="userSpaceOnUse" color-interpolation-filters="sRGB">
<feFlood flood-opacity="0" result="BackgroundImageFix"/>
<feColorMatrix in="SourceAlpha" type="matrix" values="0 0 0 0 0 0 0 0 0 0 0 0 0 0 0 0 0 0 127 0" result="hardAlpha"/>
<feOffset/>
<feGaussianBlur stdDeviation="1.20402"/>
<feComposite in2="hardAlpha" operator="out"/>
<feColorMatrix type="matrix" values="0 0 0 0 0.290347 0 0 0 0 0.770833 0 0 0 0 0.0642361 0 0 0 0.24 0"/>
<feBlend mode="normal" in2="BackgroundImageFix" result="effect1_dropShadow_2607_3233"/>
<feBlend mode="normal" in="SourceGraphic" in2="effect1_dropShadow_2607_3233" result="shape"/>
</filter>
</defs>
</svg>
