<svg width="20" height="20" viewBox="0 0 20 20" fill="none" xmlns="http://www.w3.org/2000/svg">
<g filter="url(#filter0_d_2607_3266)">
<path d="M6.92457 4.31568C7.07817 4.23248 7.13577 4.03409 7.04617 3.8805C6.96297 3.7269 6.76458 3.6693 6.61099 3.7589C6.45739 3.84209 6.39979 4.04048 6.48939 4.19408C6.57258 4.34128 6.76458 4.39888 6.92457 4.31568Z" fill="#14C393"/>
<path d="M7.87737 6.02457C8.09497 5.90297 8.17816 5.62138 8.05657 5.40378C7.93497 5.18619 7.65338 5.10299 7.43578 5.22459C7.21819 5.34619 7.13499 5.62778 7.25659 5.84537C7.37818 6.06297 7.65338 6.15257 7.87737 6.02457Z" fill="#14C393"/>
<path d="M13.325 15.8224C13.1714 15.9056 13.1138 16.104 13.2034 16.2576C13.2866 16.4111 13.485 16.4687 13.6386 16.3791C13.7922 16.296 13.8498 16.0976 13.7602 15.944C13.677 15.7904 13.4786 15.7328 13.325 15.8224Z" fill="#14C393"/>
<path d="M12.3718 14.1074C12.1542 14.2289 12.071 14.5105 12.1926 14.7281C12.3142 14.9457 12.5958 15.0289 12.8134 14.9073C13.031 14.7857 13.1142 14.5041 12.9926 14.2865C12.871 14.0626 12.5894 13.9858 12.3718 14.1074Z" fill="#14C393"/>
<path d="M6.73957 15.7142C6.58597 15.6246 6.38758 15.6694 6.29798 15.823C6.20838 15.9766 6.25317 16.175 6.40677 16.2646C6.56036 16.3542 6.75876 16.3094 6.84836 16.1558C6.93795 16.0022 6.89317 15.8038 6.73957 15.7142Z" fill="#14C393"/>
<path d="M7.74205 14.0307C7.52446 13.9027 7.24288 13.973 7.11488 14.1842C6.98688 14.4018 7.05728 14.6834 7.26847 14.8114C7.48607 14.9394 7.76767 14.869 7.89566 14.6578C8.03006 14.4402 7.95965 14.165 7.74205 14.0307Z" fill="#14C393"/>
<path d="M13.5102 4.41843C13.6638 4.50803 13.8622 4.46324 13.9518 4.30964C14.0414 4.15605 13.9966 3.95765 13.843 3.86805C13.6894 3.77845 13.4911 3.82324 13.4015 3.97684C13.3055 4.13043 13.3567 4.32883 13.5102 4.41843Z" fill="#14C393"/>
<path d="M12.4995 6.10048C12.7171 6.22848 12.9987 6.15808 13.1267 5.94689C13.2547 5.7293 13.1843 5.4477 12.9731 5.3197C12.7555 5.1917 12.4739 5.2621 12.3459 5.47969C12.2179 5.69089 12.2819 5.97248 12.4995 6.10048Z" fill="#14C393"/>
<path d="M3.21941 9.74886C3.04021 9.74886 2.89941 9.88966 2.89941 10.0689C2.89941 10.248 3.04021 10.3888 3.21941 10.3888C3.3986 10.3888 3.5394 10.248 3.5394 10.0689C3.5394 9.88966 3.3986 9.74886 3.21941 9.74886Z" fill="#14C393"/>
<path d="M5.04429 10.5236C5.29524 10.5236 5.49869 10.3202 5.49869 10.0692C5.49869 9.81826 5.29524 9.61481 5.04429 9.61481C4.79334 9.61481 4.58991 9.81826 4.58991 10.0692C4.58991 10.3202 4.79334 10.5236 5.04429 10.5236Z" fill="#14C393"/>
<path d="M17.0284 10.3888C17.2051 10.3888 17.3484 10.2456 17.3484 10.0689C17.3484 9.89213 17.2051 9.74886 17.0284 9.74886C16.8517 9.74886 16.7084 9.89213 16.7084 10.0689C16.7084 10.2456 16.8517 10.3888 17.0284 10.3888Z" fill="#14C393"/>
<path d="M15.207 10.5236C15.458 10.5236 15.6614 10.3202 15.6614 10.0692C15.6614 9.81826 15.458 9.61481 15.207 9.61481C14.9561 9.61481 14.7526 9.81826 14.7526 10.0692C14.7526 10.3202 14.9561 10.5236 15.207 10.5236Z" fill="#14C393"/>
<path d="M4.81239 6.92047C5.04278 6.93326 5.24758 6.76048 5.26038 6.53008C5.27318 6.29969 5.10038 6.09489 4.86998 6.08209C4.63959 6.06929 4.43479 6.24207 4.42199 6.47247C4.40279 6.70286 4.58199 6.90767 4.81239 6.92047Z" fill="#14C393"/>
<path d="M6.6942 8.33492C7.00779 8.35412 7.27659 8.11734 7.29579 7.81015C7.31499 7.49656 7.07819 7.22777 6.771 7.20857C6.4574 7.18937 6.18861 7.42615 6.16941 7.73334C6.14381 8.04053 6.38061 8.30932 6.6942 8.33492Z" fill="#14C393"/>
<path d="M15.2 13.1989C14.9888 13.3013 14.9056 13.5573 15.008 13.7621C15.1104 13.9669 15.3664 14.0565 15.5711 13.9541C15.7759 13.8517 15.8655 13.5957 15.7631 13.3909C15.6607 13.1797 15.4112 13.0965 15.2 13.1989Z" fill="#14C393"/>
<path d="M13.2479 11.7974C12.9663 11.9381 12.8511 12.2773 12.9855 12.5589C13.1263 12.8405 13.4655 12.9557 13.7471 12.8213C14.0287 12.6869 14.1439 12.3413 14.0095 12.0597C13.8687 11.7782 13.5295 11.663 13.2479 11.7974Z" fill="#14C393"/>
<path d="M4.85709 12.8973C4.6523 12.7821 4.39631 12.8525 4.28111 13.0572C4.16591 13.262 4.23631 13.518 4.44111 13.6332C4.6459 13.7484 4.90189 13.678 5.01709 13.4732C5.13228 13.2684 5.05549 13.0124 4.85709 12.8973Z" fill="#14C393"/>
<path d="M6.88798 11.6183C6.61279 11.4647 6.2672 11.5607 6.1136 11.8359C5.96001 12.1111 6.056 12.4567 6.3312 12.6103C6.60639 12.7639 6.95198 12.6678 7.10557 12.3927C7.25277 12.1175 7.15677 11.7719 6.88798 11.6183Z" fill="#14C393"/>
<path d="M15.578 6.38904C15.3476 6.38904 15.1556 6.58102 15.162 6.81782C15.162 7.04821 15.354 7.2402 15.5908 7.2338C15.8212 7.2338 16.0132 7.04182 16.0068 6.80503C16.0004 6.57463 15.8084 6.38904 15.578 6.38904Z" fill="#14C393"/>
<path d="M13.6197 7.4008C13.3061 7.4008 13.0565 7.6568 13.0565 7.97039C13.0565 8.28398 13.3189 8.53356 13.6261 8.53356C13.9397 8.53356 14.1893 8.27118 14.1893 7.96399C14.1893 7.65039 13.9333 7.4008 13.6197 7.4008Z" fill="#14C393"/>
<path d="M9.90011 16.0202C9.69531 16.1354 9.6313 16.3978 9.7465 16.5962C9.86169 16.801 10.1241 16.865 10.3225 16.7498C10.5209 16.6346 10.5913 16.3722 10.4761 16.1738C10.3609 15.969 10.1049 15.905 9.90011 16.0202Z" fill="#14C393"/>
<path d="M9.82823 13.621C9.55944 13.7746 9.46344 14.1266 9.62343 14.3954C9.77703 14.6642 10.129 14.7602 10.3978 14.6002C10.6666 14.4466 10.7626 14.0946 10.6026 13.8258C10.449 13.557 10.097 13.4674 9.82823 13.621Z" fill="#14C393"/>
<path d="M9.90153 4.05416C10.1063 4.16936 10.3623 4.09897 10.4775 3.90057C10.5927 3.69578 10.5223 3.43979 10.3239 3.32459C10.1191 3.20939 9.86312 3.27979 9.74792 3.47818C9.63272 3.68298 9.70313 3.93897 9.90153 4.05416Z" fill="#14C393"/>
<path d="M9.82823 6.45253C10.097 6.60613 10.449 6.51654 10.6026 6.24775C10.7562 5.97896 10.6666 5.62695 10.3978 5.47336C10.129 5.31976 9.77703 5.40936 9.62343 5.67816C9.46344 5.95335 9.55944 6.29894 9.82823 6.45253Z" fill="#14C393"/>
<path d="M10.3957 7.61724C10.1269 8.08442 10.2869 8.67961 10.7541 8.94201C11.2213 9.2108 11.8165 9.05081 12.0789 8.58362C12.3477 8.11643 12.1877 7.52124 11.7205 7.25885C11.2597 6.99005 10.6645 7.15005 10.3957 7.61724Z" fill="#14C393"/>
<path d="M12.0789 11.5471C11.8101 11.08 11.2213 10.92 10.7541 11.1888C10.2869 11.4575 10.1269 12.0463 10.3957 12.5135C10.6645 12.9807 11.2533 13.1407 11.7205 12.8719C12.1877 12.6031 12.3477 12.0143 12.0789 11.5471Z" fill="#14C393"/>
<path d="M12.4742 11.1257C13.0115 11.1257 13.447 10.6902 13.447 10.153C13.447 9.61571 13.0115 9.18019 12.4742 9.18019C11.937 9.18019 11.5015 9.61571 11.5015 10.153C11.5015 10.6902 11.937 11.1257 12.4742 11.1257Z" fill="#14C393"/>
<path d="M8.15349 8.59208C8.42228 9.05927 9.01747 9.21927 9.47826 8.95047C9.94545 8.68168 10.1054 8.08649 9.83665 7.6257C9.56786 7.15851 8.97267 6.99852 8.51188 7.26731C8.03829 7.52971 7.8847 8.1249 8.15349 8.59208Z" fill="#14C393"/>
<path d="M9.83669 12.5135C10.1055 12.0463 9.93909 11.4512 9.4783 11.1888C9.01111 10.92 8.41592 11.0864 8.15353 11.5472C7.88473 12.0144 8.05113 12.6095 8.51192 12.8719C8.9727 13.1407 9.56789 12.9807 9.83669 12.5135Z" fill="#14C393"/>
<path d="M7.75836 11.1257C8.29561 11.1257 8.73113 10.6902 8.73113 10.153C8.73113 9.61571 8.29561 9.18019 7.75836 9.18019C7.22111 9.18019 6.78558 9.61571 6.78558 10.153C6.78558 10.6902 7.22111 11.1257 7.75836 11.1257Z" fill="#14C393"/>
</g>
<defs>
<filter id="filter0_d_2607_3266" x="0.491369" y="0.861058" width="19.2653" height="18.3537" filterUnits="userSpaceOnUse" color-interpolation-filters="sRGB">
<feFlood flood-opacity="0" result="BackgroundImageFix"/>
<feColorMatrix in="SourceAlpha" type="matrix" values="0 0 0 0 0 0 0 0 0 0 0 0 0 0 0 0 0 0 127 0" result="hardAlpha"/>
<feOffset/>
<feGaussianBlur stdDeviation="1.20402"/>
<feComposite in2="hardAlpha" operator="out"/>
<feColorMatrix type="matrix" values="0 0 0 0 0.290347 0 0 0 0 0.770833 0 0 0 0 0.0642361 0 0 0 0.24 0"/>
<feBlend mode="normal" in2="BackgroundImageFix" result="effect1_dropShadow_2607_3266"/>
<feBlend mode="normal" in="SourceGraphic" in2="effect1_dropShadow_2607_3266" result="shape"/>
</filter>
</defs>
</svg>
