<svg width="18" height="16" viewBox="0 0 18 16" fill="none" xmlns="http://www.w3.org/2000/svg">
<g filter="url(#filter0_d_2607_3291)">
<path d="M4.86212 13.4079L3.18652 13.3698L6.75988 9.48549C7.08357 9.12372 7.47073 8.84445 7.91501 8.65404C8.33391 8.47632 8.77186 8.38112 9.22884 8.38112C9.23519 8.38112 9.24154 8.38112 9.25424 8.38112C9.71757 8.38112 10.1682 8.48266 10.5871 8.66673C11.025 8.86348 11.4122 9.14911 11.7296 9.51089L15.2268 13.4016H13.5131L10.8156 10.3169C10.6125 10.0821 10.3713 9.9044 10.092 9.7838C9.82547 9.66321 9.53985 9.60608 9.24788 9.59973C8.95592 9.59973 8.67031 9.65687 8.39739 9.77112C8.11812 9.89171 7.8706 10.0694 7.66749 10.2979L4.86212 13.4079Z" fill="#14C393"/>
<path d="M4.86212 2.50397L3.18652 2.54205L6.75988 6.4264C7.08357 6.78818 7.47073 7.06744 7.91501 7.25785C8.33391 7.43557 8.77186 7.53079 9.22884 7.53079C9.23519 7.53079 9.24154 7.53079 9.25424 7.53079C9.71757 7.52444 10.1682 7.42923 10.5871 7.24516C11.025 7.04841 11.4122 6.7628 11.7296 6.40102L15.2268 2.51032H13.5131L10.8156 5.59494C10.6125 5.82978 10.3713 6.0075 10.092 6.12809C9.82547 6.24868 9.53985 6.30581 9.24788 6.31216C8.95592 6.31216 8.67031 6.25504 8.39739 6.1408C8.11812 6.0202 7.8706 5.84248 7.66749 5.61399L4.86212 2.50397Z" fill="#14C393"/>
</g>
<defs>
<filter id="filter0_d_2607_3291" x="0.778478" y="0.0959218" width="16.8561" height="15.72" filterUnits="userSpaceOnUse" color-interpolation-filters="sRGB">
<feFlood flood-opacity="0" result="BackgroundImageFix"/>
<feColorMatrix in="SourceAlpha" type="matrix" values="0 0 0 0 0 0 0 0 0 0 0 0 0 0 0 0 0 0 127 0" result="hardAlpha"/>
<feOffset/>
<feGaussianBlur stdDeviation="1.20402"/>
<feComposite in2="hardAlpha" operator="out"/>
<feColorMatrix type="matrix" values="0 0 0 0 0.290347 0 0 0 0 0.770833 0 0 0 0 0.0642361 0 0 0 0.24 0"/>
<feBlend mode="normal" in2="BackgroundImageFix" result="effect1_dropShadow_2607_3291"/>
<feBlend mode="normal" in="SourceGraphic" in2="effect1_dropShadow_2607_3291" result="shape"/>
</filter>
</defs>
</svg>
