<svg width="11" height="12" viewBox="0 0 11 12" fill="none" xmlns="http://www.w3.org/2000/svg">
<path d="M5.15827 0.780212H4.72594H3.09538H1.46483H0.390137V2.1452H1.48952C1.66246 2.1452 1.79835 2.28108 1.80452 2.45401C1.82305 3.99192 1.82305 8.0127 1.80452 9.54444C1.80452 9.71737 1.66246 9.85325 1.48952 9.85325H0.390137V11.2182H1.46483H3.09538H4.72594H4.88651C8.53672 11.2182 10.6243 9.24797 10.6243 5.9498C10.6243 2.8184 8.70966 0.780212 5.15827 0.780212ZM4.93593 9.90884H3.63271C3.60801 8.68592 3.60801 3.30634 3.63271 2.10196H4.9174C6.50472 2.10196 8.32673 3.46076 8.32673 5.98688C8.32673 8.50682 6.50472 9.90884 4.93593 9.90884Z" fill="#14C393"/>
</svg>
