<svg width="20" height="20" viewBox="0 0 20 20" fill="none" xmlns="http://www.w3.org/2000/svg">
<g filter="url(#filter0_d_2607_3295)">
<path d="M10.119 9.98946C9.95549 9.78329 9.70667 9.66953 9.41518 9.71218C9.1237 9.75484 8.93886 9.90417 8.818 10.2312C8.69714 10.5582 8.88198 10.7644 8.88198 10.7644C8.88198 10.7644 8.97441 10.8853 9.30855 10.8853C9.67824 10.8853 9.98394 10.7999 10.1759 10.608C10.3821 10.4231 10.2896 10.1956 10.119 9.98946ZM9.54315 10.3236C9.34408 10.3236 9.18056 10.2099 9.18056 10.0748C9.18056 9.93258 9.34408 9.82596 9.54315 9.82596C9.74221 9.82596 9.90573 9.93969 9.90573 10.0748C9.90573 10.2099 9.74221 10.3236 9.54315 10.3236Z" fill="#14C393"/>
<path d="M8.34997 5.7166C8.34997 5.7166 8.28598 6.37068 8.45661 6.88256C8.64145 7.42998 8.95427 7.94188 9.2813 8.1907C9.61544 8.44664 9.75764 8.49639 9.93537 8.52483C10.1202 8.55326 10.3833 8.61726 10.2411 8.40398C10.0918 8.17648 10.0278 8.19069 9.8145 7.68592C9.53013 7.01764 9.67942 6.75456 9.45192 6.37066C9.2102 5.97253 8.71966 5.65262 8.34997 5.7166Z" fill="#14C393"/>
<path d="M9.72775 14.4605C9.71353 14.4605 9.70641 14.4463 9.72063 14.4392C9.80595 14.3752 10.0477 14.2259 10.2965 14.1335C10.652 13.9984 11.0856 13.906 11.4198 13.8562C11.8108 13.7993 12.2018 13.7567 12.5644 13.5932C12.9981 13.3941 13.3535 13.0457 13.446 12.5694C13.4531 12.5196 13.4602 12.477 13.4673 12.4272C13.4815 12.2495 13.4602 12.0646 13.4246 11.894C13.4104 11.8087 13.3891 11.7305 13.3678 11.6452C13.3535 11.6025 13.3464 11.5599 13.3322 11.5172C13.3251 11.503 13.3251 11.4746 13.318 11.4532C13.318 11.439 13.3322 11.4319 13.3393 11.439C13.5242 11.6309 13.6592 11.9082 13.7161 12.1642C13.7517 12.3348 13.7517 12.5125 13.7303 12.6831C13.6735 13.1595 13.3962 13.5718 12.9981 13.842C12.671 14.0695 12.3014 14.1477 11.9103 14.169C11.3771 14.1975 10.9221 14.1832 10.524 14.2614C10.2041 14.3325 9.85572 14.4249 9.72775 14.4605Z" fill="#14C393"/>
<path d="M14.1502 11.8167C14.1502 11.8167 13.8373 12.5205 14.1928 13.1817C14.5909 13.9068 14.6194 13.9282 15.0602 14.6107C15.5009 15.2932 15.7356 15.5633 15.7711 16.1179C15.8067 16.6724 15.6431 17.1985 15.5294 17.3265C15.5294 17.3265 16.3327 16.8501 16.6455 16.3951C16.9797 15.9046 17.1574 14.9875 17.0366 14.4898C16.9157 13.9922 16.5958 13.4376 16.2261 13.0892C15.8493 12.748 15.117 12.3854 14.7687 12.1793C14.4203 11.9802 14.1502 11.8167 14.1502 11.8167Z" fill="#14C393"/>
<path d="M12.3012 8.99374C12.3012 8.99374 12.0524 10.2379 13.2183 10.9133C14.498 11.6598 14.4838 11.5105 15.4009 11.9015C16.318 12.2996 16.4531 12.3778 16.6806 12.6196C16.9081 12.8613 17.292 13.231 17.1996 13.7144C17.1996 13.7144 17.5195 13.3163 17.5693 12.6906C17.6119 12.065 17.5266 11.3967 17.1569 10.9986C16.7943 10.6005 16.6095 10.2237 15.4507 9.88242C14.8179 9.69757 14.7468 9.79002 13.9577 9.64072C13.1685 9.49142 13.0477 9.48429 12.3012 8.99374Z" fill="#14C393"/>
<path d="M14.0806 6.56203C14.0806 6.56203 14.7347 6.81089 15.0475 7.1237C15.2679 7.3441 15.2679 7.63558 15.2821 8.01238C15.2963 8.32519 15.1968 8.78018 15.1755 8.84417C15.211 8.7944 15.3532 8.55266 15.403 8.28961C15.4385 8.08344 15.4385 7.91282 15.4527 7.54313C15.4527 7.45782 15.5025 7.44359 15.5594 7.44359C15.7016 7.44359 16.1068 7.82039 16.2774 7.9768C16.3698 8.06211 16.4836 8.14035 16.5618 8.19011C16.576 8.19722 16.5902 8.18298 16.576 8.16877L16.1637 7.77064C15.8651 7.49337 15.794 7.3796 15.6802 7.25874C15.5167 7.08812 15.4598 7.0028 15.4101 6.90327C15.3887 6.86772 15.3319 6.73268 15.2892 6.54073C15.2679 6.46252 15.2608 6.36298 15.2679 6.21368C15.275 5.85821 15.4101 5.50986 15.4101 5.50986C15.4101 5.50986 15.3177 5.53828 15.211 5.85109C15.1044 6.16391 15.1186 6.63315 15.1186 6.63315C15.1186 6.63315 15.1399 6.86065 15.0404 6.80377C14.8484 6.69713 14.0309 6.47672 14.0309 6.47672L13.8033 6.4483C13.7962 6.4483 13.7962 6.45542 13.8033 6.45542L14.0806 6.56203Z" fill="#14C393"/>
<path d="M16.1192 8.61674C15.9984 8.47456 15.8562 8.31104 15.6998 8.13331C15.6927 8.16886 15.6856 8.1973 15.6785 8.23285C15.65 8.37504 15.6074 8.53143 15.5505 8.6594C15.4936 8.78026 15.4296 8.92956 15.3159 9.01487C15.2163 9.09307 15.0599 9.10727 14.9462 9.03617C14.8253 8.95797 14.8182 8.82292 14.9035 8.66651C14.9746 8.53144 15.0244 8.33949 15.0315 8.18308C15.0528 7.87738 15.0244 7.66408 14.9675 7.45791C14.6974 7.25174 14.4059 7.08111 14.086 6.97447C13.2044 6.68299 12.7281 6.64034 12.0882 6.66878C11.4768 6.69721 11.2422 6.76832 11.2422 6.76832C11.2422 6.76832 10.5739 5.96494 9.9554 5.64502C9.40798 5.36775 8.68991 5.20421 8.42686 5.31085C8.41975 5.31085 8.41975 5.32509 8.42686 5.32509C8.54772 5.3322 9.00985 5.37483 9.42219 5.61655C9.94829 5.92226 10.3251 6.18533 10.7161 6.70431C11.1142 7.2233 11.9247 8.19727 11.9247 8.19727C11.9247 8.19727 12.138 8.48877 12.5503 8.70205C12.9627 8.91534 13.4959 9.03621 14.1855 9.11441C14.8751 9.19261 15.387 9.13573 15.8349 9.32768C16.2614 9.51253 16.496 9.77556 16.6098 9.98174C16.624 10.0031 16.6524 9.99597 16.6524 9.95331C16.6524 9.62628 16.4178 8.97221 16.1192 8.61674Z" fill="#14C393"/>
<path d="M13.1421 18.5135C12.9289 18.4637 12.7298 18.3642 12.5734 18.222C12.4312 18.094 12.3103 17.9305 12.2179 17.7528C12.0615 17.4542 11.9264 17.1414 11.7842 16.8357C11.642 16.5371 11.443 16.2811 11.1586 16.1034C10.8742 15.9256 10.5685 15.8617 10.2415 15.947C9.90026 16.0394 9.65854 16.3878 9.72963 16.7432C9.80072 17.1058 10.2415 17.3902 10.6041 17.2907C10.9027 17.2125 11.0733 16.8712 10.9738 16.5868C10.8814 16.3309 10.4903 16.2029 10.2699 16.3522C10.1491 16.4375 10.0922 16.601 10.1562 16.7361C10.1633 16.7574 10.2557 16.8854 10.1775 16.8357C10.1206 16.793 10.0851 16.7148 10.0709 16.6508C10.0495 16.5015 10.1206 16.3522 10.2415 16.2669C10.4477 16.1247 10.7605 16.1531 10.988 16.3238C11.2013 16.4873 11.2226 16.7077 11.2084 16.9494C11.1728 17.4115 10.6823 17.7599 10.1349 17.6177C9.90026 17.5537 9.70829 17.4257 9.53766 17.2622C9.37415 17.0987 9.21064 16.9139 9.0329 16.7575C8.86938 16.6082 8.67743 16.4873 8.47837 16.402C8.30774 16.3238 8.13001 16.2811 7.95228 16.2456C7.84564 16.2242 7.739 16.2101 7.63946 16.1887C7.61103 16.1816 7.41908 16.1816 7.46885 16.1247C7.61814 15.9754 7.80299 15.8332 7.98072 15.7124C8.15846 15.5844 8.3504 15.4706 8.54235 15.364C8.86227 15.2005 9.19642 15.0654 9.54478 14.973C10.014 14.845 10.5259 14.8237 10.9951 14.9446C11.4146 15.0512 11.8056 15.2645 12.0757 15.5986C12.3601 15.947 12.4596 16.3949 12.5378 16.8285C12.5876 17.1129 12.6231 17.3973 12.7156 17.6746C12.8649 18.1153 13.1421 18.2931 13.6114 18.3002C13.7535 18.3002 13.8886 18.2789 14.0237 18.2504C14.1304 18.222 14.2299 18.1793 14.3365 18.1509C14.3649 18.1438 14.4432 18.1296 14.4005 18.1722C14.3792 18.1936 14.3436 18.2078 14.3223 18.222C14.2796 18.2504 14.237 18.2789 14.1872 18.3073C13.8673 18.4922 13.5118 18.6059 13.1421 18.5135Z" fill="#14C393"/>
<path d="M2.87497 1.69166C2.93896 1.76275 2.99584 1.83384 3.05982 1.90493C3.37975 2.25329 6.43679 5.60894 6.87757 6.09238C7.09796 6.3341 7.32546 6.58291 7.54585 6.82463C7.9582 7.28674 8.37054 7.74886 8.79 8.21097C8.86109 8.28917 8.9393 8.36738 8.97485 8.43847C9.05305 8.58066 8.98195 8.76549 8.92508 8.90768C8.8682 9.04986 8.75446 9.19208 8.64071 9.29161C8.41321 9.48357 8.12172 9.59729 7.83734 9.66127C7.67383 9.69682 7.50321 9.69684 7.35391 9.77505C7.03399 9.93145 7.06241 10.358 7.03398 10.6566C6.96999 11.3036 6.65006 11.851 6.42967 12.4482C6.31592 12.7681 6.34436 13.1094 6.53631 13.3866C6.64295 13.543 6.79225 13.6568 6.94155 13.7776C7.16905 13.9625 7.41789 14.1331 7.61695 14.3535C7.86578 14.6094 7.83735 15.0858 7.66672 15.3773C7.55297 15.5692 7.38234 15.7185 7.1975 15.8465C6.94156 16.0242 6.65717 16.1522 6.35857 16.2517C6.20928 16.3015 6.06709 16.3441 5.9178 16.3868C5.8467 16.4081 5.7685 16.4223 5.69741 16.4437C5.64053 16.4579 5.58366 16.4792 5.52679 16.4792C5.51257 16.4792 5.49123 16.4792 5.47702 16.4721C5.42725 16.4508 5.41304 16.3655 5.39882 16.3157C5.27085 15.9531 5.00781 15.6687 4.84429 15.3275C4.59546 14.8085 4.47459 14.1615 4.65944 13.5999C4.74475 13.3369 4.90115 13.1022 5.07177 12.8818C5.37748 12.4908 5.71164 12.1069 5.95336 11.6661C6.1382 11.3249 6.26616 10.9623 6.32304 10.5784C6.36569 10.2798 6.40835 9.97411 6.5221 9.68974C6.57897 9.55466 6.6785 9.44802 6.76382 9.33427C6.84913 9.22052 6.96998 9.08544 6.89178 8.93614C6.71404 8.59489 6.53631 8.25364 6.35857 7.9195C5.93912 7.15169 5.50546 6.39095 5.07889 5.62314C5.07178 5.60892 5.06467 5.5947 5.05756 5.58048C5.04335 5.55915 5.03624 5.52362 5.04335 5.50229H5.05045C5.06467 5.51651 5.07888 5.53073 5.0931 5.55206C5.56232 6.27011 6.03155 6.99526 6.50077 7.72042C6.69983 8.01901 6.89179 8.32473 7.09796 8.62333C7.24015 8.84372 7.39656 9.0712 7.68093 9.09253C7.92265 9.11386 8.65492 8.90771 8.38476 8.53802C8.29945 8.41716 8.19992 8.30341 8.1075 8.18966C7.87289 7.89818 7.63827 7.60666 7.40366 7.31518C6.94155 6.74642 6.47945 6.18477 6.01734 5.61602C5.49835 4.97617 4.97225 4.33636 4.45326 3.69652C4.14045 3.31261 3.82763 2.93578 3.51481 2.55899C3.30153 2.29594 2.85365 1.75561 2.83943 1.7485C2.82522 1.69874 2.83943 1.68455 2.87497 1.69166ZM5.38459 13.9269C5.34193 13.9269 5.29217 13.9411 5.24951 13.9696C5.17842 14.0122 5.17842 14.0905 5.25663 14.1331C5.42725 14.2326 5.21397 14.3606 5.25663 14.4957C5.28506 14.5952 5.41303 14.6379 5.49834 14.6094C5.8467 14.5028 5.75428 13.9198 5.38459 13.9269Z" fill="#14C393"/>
</g>
<defs>
<filter id="filter0_d_2607_3295" x="0.425939" y="-0.718104" width="19.5612" height="21.6724" filterUnits="userSpaceOnUse" color-interpolation-filters="sRGB">
<feFlood flood-opacity="0" result="BackgroundImageFix"/>
<feColorMatrix in="SourceAlpha" type="matrix" values="0 0 0 0 0 0 0 0 0 0 0 0 0 0 0 0 0 0 127 0" result="hardAlpha"/>
<feOffset/>
<feGaussianBlur stdDeviation="1.20402"/>
<feComposite in2="hardAlpha" operator="out"/>
<feColorMatrix type="matrix" values="0 0 0 0 0.290347 0 0 0 0 0.770833 0 0 0 0 0.0642361 0 0 0 0.24 0"/>
<feBlend mode="normal" in2="BackgroundImageFix" result="effect1_dropShadow_2607_3295"/>
<feBlend mode="normal" in="SourceGraphic" in2="effect1_dropShadow_2607_3295" result="shape"/>
</filter>
</defs>
</svg>
