<svg width="2106" height="898" fill="none" xmlns="http://www.w3.org/2000/svg">
  <path d="M752.285 926.152H495.93c120.988-171.201 301.242-239.794 328.964-237.124l20.495-2.67 15.843 4.261-2.404 13.658 28.026-3.602c-36.666 21.65-112.713 124.377-134.569 225.477Z" fill="#181B2B" />
  <path d="M1085.58 561.03v50.561l.18.439c7.04 18.013 27.31 33.314 54.22 44.088 27.04 10.827 61.33 17.311 97.3 17.311 36.06 0 70.46-6.639 97.57-17.648 26.97-10.954 47.25-26.465 54.17-44.588l.16-.431v-21.666c312.94 66.405 716.78 316.48 716.78 634.074 0 402.18-568.69 795.82-970.87 795.82C732.915 2018.99 0 1625.35 0 1223.17c0-387.757 634.625-665.515 1085.58-662.14Z" fill="#1D223E" />
  <path d="M1386.29 307.373c0 17.074-14.49 34.071-41.49 47.114-26.62 12.864-63.78 20.969-105.11 20.969s-78.48-8.105-105.11-20.969c-27-13.043-41.49-30.04-41.49-47.114 0-17.075 14.49-34.071 41.49-47.115 26.63-12.864 63.78-20.969 105.11-20.969s78.49 8.105 105.11 20.969c27 13.044 41.49 30.04 41.49 47.115Z" fill="#273160" />
  <path d="M1239.69 380.773c70.42 0 129.65-23.151 146.87-54.559v76.972c-6.65 14.241-22.47 27.204-45.05 37.078-26.25 11.481-61.08 18.514-99.36 18.514-38.56 0-73.62-7.137-99.94-18.767-18.83-8.321-32.89-18.797-40.77-30.364-3.41-5.008-7.26-11.39-8.81-21.474v-51.692h-.08v-10.565s10.3 15.003 22.57 23.481c27.47 18.97 73.02 31.376 124.57 31.376Z" fill="#273160" />
  <path d="M1092.63 482.38v-78.366c7 16.288 24.29 30.286 47.56 40.571 27.07 11.96 62.83 19.193 101.96 19.193 38.84 0 74.37-7.129 101.36-18.933 19.12-8.358 34.24-19.2 43.05-31.752v74.637c-5.46 13.824-19.48 26.545-40.11 36.609-26.81 13.083-64.02 21.245-105.27 21.245-37.32 0-71.36-6.685-97.38-17.661-17.2-7.259-30.67-16.294-39.36-26.337-4.07-4.7-9.44-12.02-11.81-19.206ZM1092.63 493.282h.18l-.18-.358v.358Z" fill="#273160" />
  <path d="M1093.13 493.915v86.931c6.44 15.879 24.98 30.317 51.25 40.837 26.38 10.563 60.03 16.953 95.44 16.953 35.49 0 69.25-6.542 95.69-17.28 26.34-10.7 44.89-25.338 51.22-41.317v-26.432c-.06-.14-.11-.279-.17-.419v-54.712c-7.75 11.791-21.05 22.127-37.91 30.357-27.63 13.482-65.63 21.751-107.47 21.751-37.87 0-72.59-6.777-99.32-18.054-23.13-9.759-40.66-23.064-48.73-38.615Z" fill="#273160" />
  <path d="M1366.96 307.102c0 6.967-3.58 13.788-10.37 20.188-6.78 6.401-16.62 12.239-28.73 17.175-24.21 9.87-57.12 15.988-91.65 15.988-34.53 0-65.7-6.175-88.17-16.082-11.24-4.955-20.22-10.807-26.36-17.21-6.13-6.394-9.36-13.247-9.36-20.29 0-7.042 3.23-13.896 9.36-20.29 6.14-6.403 15.12-12.254 26.36-17.209 22.47-9.908 53.64-16.083 88.17-16.083s67.43 6.232 91.64 16.216c12.11 4.993 21.96 10.888 28.74 17.332 6.78 6.445 10.37 13.296 10.37 20.265Z" fill="#181B2B" stroke="#181B2B" stroke-width="3.74" />
  <path d="M884.602 344.628a7.091 7.091 0 0 1 3.662-.183l345.826 74.314a7.085 7.085 0 0 1 5.6 6.93v227.003c0 2.483-1.3 4.785-3.42 6.068l-10.41 6.282c-1.8 1.09-4 1.32-5.99.625l-342.864-119.45a7.089 7.089 0 0 1-4.753-6.465l-5.94-183.841a7.09 7.09 0 0 1 4.913-6.977l13.376-4.306Z" fill="#181B2B" />
  <path d="M891.484 595.352a1.775 1.775 0 0 1 1.079 0l327.397 104.544c1.58.503 1.67 2.701.13 3.328l-11.19 4.584c-3.49 1.635-5.89 1.806-11.76-.434l-319.967-104.08c-1.636-.532-1.63-2.85.009-3.373l14.302-4.569Z" fill="#15181F" />
  <path fill-rule="evenodd" clip-rule="evenodd" d="M884.816 343.709a7.976 7.976 0 0 1 3.668-.075l345.786 74.257a7.969 7.969 0 0 1 6.3 7.797v227.207a7.97 7.97 0 0 1-3.55 6.634l-2.54 1.699a.887.887 0 0 1-.99-1.474l2.55-1.699a6.215 6.215 0 0 0 2.76-5.16V425.688a6.201 6.201 0 0 0-4.9-6.065l-345.788-74.257a6.209 6.209 0 0 0-2.853.059l-5.538 1.43a.885.885 0 1 1-.443-1.716l5.538-1.43Z" fill="#6CC5AE" />
  <path d="M861.875 357.026c0-4.508 4.152-7.87 8.562-6.933l351.583 74.702a7.089 7.089 0 0 1 5.61 6.934V659.99c0 4.746-4.57 8.151-9.12 6.792L866.935 561.717a7.088 7.088 0 0 1-5.059-6.792l-.001-197.899Z" fill="#ECEEF5" />
  <path opacity=".25" d="M874.25 394.209a1.772 1.772 0 0 1 2.192-1.722l187.258 45.604c.79.194 1.35.905 1.35 1.722v37.739a1.771 1.771 0 0 1-2.21 1.717l-187.257-47.945a1.772 1.772 0 0 1-1.333-1.717v-35.398Z" fill="#3FB898" />
  <path fill-rule="evenodd" clip-rule="evenodd" d="m979.123 475-7.402 33.137c-.205.921-1.47 1.05-1.846.187l-5.264-12.064-9.475 64.872c-.162 1.106-1.757 1.124-1.929.021l-6.55-41.943-9.499 27.394c-.348 1.005-1.824.815-1.894-.244l-4.141-62.895-3.274 7.725c-.344.812-1.501.795-1.811-.027l-6.453-17.121-14.889 86.764c-.2 1.166-1.915 1.046-1.936-.136l-1.438-81.191-7.009 13.792c-.389.766-1.503.699-1.789-.106l-8.557-24.107 1.671-.601 7.938 22.361 7.618-14.99c.461-.907 1.826-.601 1.844.413l1.345 75.918 13.953-81.308c.168-.981 1.524-1.117 1.874-.189l6.786 18.007 3.805-8.978c.402-.947 1.804-.718 1.871.305l4.103 62.312 9.256-26.695c.333-.961 1.729-.844 1.885.158l6.229 39.885 9.116-62.412c.141-.971 1.468-1.156 1.859-.259l5.405 12.385 8.527-38.177c.13-.583.672-.813 1.084-.758a.967.967 0 0 1 .844.98c-.375 19.628.533 37.899 1.442 56.203l.005.092c.82 16.516 1.64 33.061 1.512 50.617l15.861-54.006c.3-1.029 1.8-.897 1.91.167l4.39 44.477 10.93-28.54c.36-.921 1.7-.805 1.87.163l2.18 11.903 11.73-28.427c.37-.892 1.67-.774 1.86.167l6.55 32.328 23.08-43.494 1.57.822-24.13 45.464c-.43.81-1.64.642-1.82-.253l-6.47-31.943-11.76 28.512c-.38.9-1.69.769-1.87-.186l-2.15-11.772-11.12 29.034c-.37.961-1.79.78-1.89-.242l-4.32-43.751-16.341 55.652a.978.978 0 0 1-1.097.692.967.967 0 0 1-.814-.976c.384-19.671-.522-37.975-1.432-56.31l-.006-.116c-.791-15.913-1.582-31.851-1.527-48.692Z" fill="#FFCB47" />
  <path d="M1065.9 487.516c0-.49-.4-.886-.89-.886a.88.88 0 0 0-.88.886v80.838l-186.07-48.951-.47 1.71 186.54 49.078v42.036c0 .489.39.886.88.886a.89.89 0 0 0 .89-.886V487.516Z" fill="#F5921C" />
  <path d="m874.531 375.047 212.999 51.088m0 0v190.999m0-190.999 113.73 27.278" stroke="#D2D6E7" stroke-width="1.772" stroke-linecap="round" stroke-linejoin="round" />
  <path opacity=".25" d="M1135.09 415.979c0-1.13 1.05-1.971 2.15-1.732l42.3 9.179c.81.177 1.39.898 1.39 1.732v14.837a1.769 1.769 0 0 1-2.17 1.725l-42.3-9.855a1.775 1.775 0 0 1-1.37-1.726v-14.16Z" fill="#3FB898" />
  <path opacity=".5" d="M1104.8 477.175c0-.875.83-1.512 1.68-1.283l94.27 25.516c.58.157.98.683.98 1.283v142.566a1.33 1.33 0 0 1-1.7 1.277l-94.27-27.363a1.328 1.328 0 0 1-.96-1.277V477.175ZM1104.8 446.891c0-.866.82-1.5 1.66-1.289l93.27 23.48c.59.148 1 .679 1 1.289v15.222c0 .872-.82 1.507-1.66 1.285l-93.28-24.548a1.332 1.332 0 0 1-.99-1.285v-14.154ZM1201.73 436.127c0 5.319-3.38 9.443-7.34 9.443-3.97 0-7.35-4.124-7.35-9.443 0-5.318 3.38-9.442 7.35-9.442 3.96 0 7.34 4.124 7.34 9.442Z" fill="#D2D6E7" stroke="#D2D6E7" stroke-width=".886" />
  <path d="M944.485 380.88c-.221.412-.506.709-1.033.547-.502-.158-.83-.575-.709-1.064.074-.301.308-.735.534-.778.304-.059.681.183 1.011.332.105.047.149.224.216.34l-.015.628-.004-.005ZM920.4 379.522c.168-1.481.339-2.901.492-4.322.092-.868.183-1.736.209-2.606.033-.993-.34-1.406-1.221-1.48-.676-.061-1.314.504-1.426 1.323-.15 1.087-.26 2.183-.387 3.275-.122 1.034-.24 2.073-.357 3.081-.084.033-.116.059-.142.054-1.094-.216-1.107-.221-.992-1.317.189-1.806.4-3.608.585-5.41a2.964 2.964 0 0 0-.047-.986c-.112-.46-.393-.801-.9-.918-.525-.123-.917.07-1.26.439-.55.589-.512 1.346-.595 2.065-.205 1.727-.396 3.459-.593 5.234-.42-.102-.787-.195-1.241-.307.341-3.007.682-6.015 1.034-9.07.319.069.586.124.866.184.053.335.098.64.16 1.019.635-.626 1.362-.898 2.236-.675.86.223 1.402.742 1.523 1.694.247-.2.436-.385.651-.52 1.419-.902 3.304.041 3.368 1.735.037 1.007-.071 2.02-.17 3.024-.153 1.579-.354 3.152-.543 4.783-.424-.098-.804-.191-1.241-.294l-.009-.005ZM929.314 377.138c-1.582-.372-2.972-.696-4.476-1.05.051.784.016 1.522.161 2.229.283 1.374 1.642 2.071 2.998 1.62.089-.029.174-.079.298-.133l.309 1.014c-1.504.957-3.786.25-4.542-1.368a5.353 5.353 0 0 1-.483-2.904c.117-1.048.284-2.108.598-3.107.458-1.452 1.466-2.065 2.794-1.897 1.424.18 2.399 1.127 2.486 2.593.056.96-.082 1.928-.143 2.999v.004Zm-1.135-1.421c.146-.757.175-1.42-.121-2.069-.246-.538-.625-.859-1.244-.887-.602-.024-1.022.252-1.276.751-.185.369-.291.78-.389 1.182-.024.1.084.327.172.347.926.238 1.862.441 2.863.672l-.005.004ZM931.484 372.91c.913-.127 1.023.425 1.012 1.062.404-.201.735-.43 1.107-.54 1.572-.454 3.042.527 3.095 2.151.037 1.178-.101 2.362-.2 3.542-.105 1.215-.266 2.429-.406 3.639-.016.136-.059.271-.103.463-.319-.065-.649-.086-.94-.207-.122-.052-.243-.314-.226-.468.189-1.819.414-3.638.612-5.457.04-.364.031-.734.018-1.099-.026-.902-.489-1.418-1.343-1.514-.711-.083-1.498.478-1.635 1.253-.165.963-.254 1.936-.366 2.905-.138 1.175-.272 2.35-.416 3.572-.429-.093-.809-.182-1.242-.276.346-3.033.692-6.04 1.037-9.026h-.004ZM895.034 373.452c-.588-.059-.981-.481-1.178-1.269-.58.518-1.212.837-2.008.659-1.167-.266-1.945-1.173-1.968-2.378a5.358 5.358 0 0 1 .161-1.394c.277-1.083 1.36-1.681 2.599-1.475.517.088 1.028.197 1.65.317.034-.68.103-1.351.093-2.019-.013-.563-.351-.95-.995-1.045-.661-.099-1.348-.05-2.104-.068-.064-.248-.162-.554-.211-.867-.012-.079.137-.243.235-.263 1.162-.244 2.317-.207 3.353.394 1.014.592 1.134 1.615 1.021 2.663-.215 1.942-.46 3.879-.674 5.816-.033.29.012.59.021.924l.005.005Zm-3.821-3.219c.003.066-.006.242.025.414.096.591.569 1.012 1.235 1.094.539.07 1.189-.257 1.372-.754.108-.287.125-.612.155-.923.103-1.176-.013-1.297-1.22-1.362-1.045-.056-1.535.389-1.567 1.531ZM902.357 375.192c-1.159-.226-1.181-.226-1.076-1.314.165-1.701.365-3.398.542-5.094.029-.294.032-.593.013-.888-.054-.859-.564-1.377-1.368-1.422-.75-.041-1.516.516-1.626 1.257-.147.981-.233 1.972-.349 2.963-.134 1.157-.263 2.314-.398 3.507l-1.241-.29 1.024-9.004c.8-.024.818-.002 1.02.908.614-.156 1.228-.436 1.848-.451 1.381-.037 2.317.869 2.341 2.263.016 1.109-.099 2.222-.196 3.332-.109 1.233-.271 2.46-.411 3.691-.022.184-.079.368-.119.551l-.004-.009ZM884.022 370.451c.149-.335.292-.648.46-1.013.237.16.44.319.666.43.339.175.681.381 1.044.46 1.133.239 1.6-.348 1.436-1.398-.08-.512-.446-1.009-.774-1.438-.43-.565-.999-1.027-1.424-1.6-.643-.86-.593-1.839-.257-2.802.26-.754.93-1.191 1.735-1.035.739.146 1.443.466 2.153.734.414.155.416.454.223.801-.092.165-.163.343-.227.478-.483-.227-.938-.484-1.422-.659-.405-.15-.881-.272-1.2.169-.322.445-.349.98-.052 1.432.314.473.721.896 1.12 1.306.87.892 1.537 1.866 1.412 3.186-.155 1.689-1.277 2.47-2.92 2.039-.869-.228-1.459-.55-1.973-1.09ZM941.447 384.446c-.728-.066-1.387-.064-2.017-.199-.63-.134-1.062-.61-1.077-1.261-.021-.95.038-1.911.122-2.859.132-1.421.316-2.836.478-4.265-.363-.101-.673-.188-1.009-.28.036-.386.071-.745.112-1.157l1.042.17c.046-.447.104-.841.131-1.236.027-.395.165-.616.612-.57.219.023.449-.042.745-.074-.064.614-.104 1.202-.184 1.78-.049.35.066.52.421.546.119.008.232.068.354.097.679.169.956.637.832 1.405l-1.793-.391c-.15 1.28-.299 2.538-.444 3.8-.062.553-.102 1.114-.177 1.666-.167 1.249.171 1.811 1.468 1.614.08-.011.167.013.272.025.036.343.068.669.121 1.194l-.009-.005ZM904.436 366.379c.363.079.665.143 1.006.218.076-.592.147-1.157.227-1.762.41-.043.802-.081 1.274-.127-.085.763-.159 1.464-.238 2.196.585.147 1.153.288 1.787.444-.036.395-.076.781-.113 1.197-.638-.147-1.198-.271-1.805-.413-.138 1.162-.276 2.283-.408 3.406-.083.692-.162 1.385-.24 2.082-.012.123-.028.241-.031.364-.02.993.432 1.382 1.407 1.225l.345-.062c.04.318.099.618.101.917-.003.088-.147.238-.244.254-1.456.232-3.005-.082-2.858-2.136.107-1.514.298-3.021.458-4.53.052-.504.143-1.003.177-1.508.008-.122-.11-.332-.224-.379-.731-.294-.736-.281-.664-1.071.007-.083.022-.171.039-.315h.004ZM910.311 377.109c-.424-.099-.791-.182-1.242-.286.342-3.02.683-6.018 1.035-9.078.428.094.813.178 1.246.276l-1.035 9.092-.004-.004ZM883.64 366.186c-.015.601-.29.916-.778.908-.58-.01-.991-.468-.967-1.074.021-.501.364-.879.79-.869.562.014.973.459.955 1.035ZM911.901 365.242c-.017.527-.334.875-.773.86-.549-.022-.942-.471-.932-1.06.013-.558.321-.924.792-.921.531-.001.937.502.917 1.125l-.004-.004Z" fill="#D2D6E7" />
  <path fill-rule="evenodd" clip-rule="evenodd" d="M1233.33 256.328c0-15.66-12.69-28.355-28.35-28.355h-66.02a.89.89 0 0 0-.89.886c0 .49.4.887.89.887h66.02c14.68 0 26.58 11.901 26.58 26.582v97.254c0 .49.4.887.89.887a.88.88 0 0 0 .88-.887v-97.254Z" fill="#6CC5AE" />
  <path fill-rule="evenodd" clip-rule="evenodd" d="M1231.56 252.965c0-11.488 12.34-18.748 22.38-13.164l51.9 28.376c.43.237.59.777.35 1.205a.892.892 0 0 1-1.21.343l-51.9-28.376c-8.86-4.926-19.75 1.48-19.75 11.616v100.618a.88.88 0 0 1-.88.886.89.89 0 0 1-.89-.886V252.965Z" fill="#6CC5AE" />
  <path fill-rule="evenodd" clip-rule="evenodd" d="M1233.33 252.965c0-11.488-12.34-18.748-22.38-13.164l-51.9 28.376a.893.893 0 0 0-.35 1.205c.24.427.78.581 1.21.343l51.9-28.376c8.86-4.926 19.75 1.48 19.75 11.616v100.618c0 .489.4.886.89.886a.88.88 0 0 0 .88-.886V252.965Z" fill="#6CC5AE" />
  <path fill-rule="evenodd" clip-rule="evenodd" d="M1232.45 197.475c.49 0 .88.397.88.886v155.221a.88.88 0 0 1-.88.887.89.89 0 0 1-.89-.887V198.361c0-.489.4-.886.89-.886Z" fill="#6CC5AE" />
  <path fill-rule="evenodd" clip-rule="evenodd" d="M1231.56 256.328c0-15.66 12.7-28.355 28.36-28.355h67.93c.49 0 .89.397.89.886 0 .49-.4.887-.89.887h-67.93c-14.69 0-26.59 11.901-26.59 26.582v97.254a.88.88 0 0 1-.88.887.89.89 0 0 1-.89-.887v-97.254Z" fill="#6CC5AE" />
  <path d="M1363.8 197.983c-2.18.01-4.26.196-6.09.52-5.4.953-6.38 2.948-6.38 6.627v4.859h12.75v1.619h-17.53c-3.71 0-6.95 2.227-7.97 6.463-1.17 4.856-1.22 7.886 0 12.957.91 3.774 3.07 6.463 6.78 6.463h4.38v-5.824c0-4.208 3.64-7.92 7.97-7.92h12.73c3.54 0 6.37-2.918 6.37-6.478V205.13c0-3.455-2.91-6.05-6.37-6.627a39.81 39.81 0 0 0-6.64-.52Zm-6.9 3.908c1.32 0 2.4 1.093 2.4 2.437 0 1.339-1.08 2.422-2.4 2.422-1.32 0-2.39-1.083-2.39-2.422 0-1.344 1.07-2.437 2.39-2.437Z" fill="#415ABF" />
  <path d="M1378.4 211.608v5.661c0 4.389-3.72 8.083-7.96 8.083h-12.73c-3.49 0-6.38 2.985-6.38 6.478v12.139c0 3.455 3.01 5.487 6.38 6.478 4.03 1.186 7.9 1.401 12.73 0 3.21-.929 6.37-2.799 6.37-6.478v-4.859h-12.73v-1.619h19.11c3.7 0 5.08-2.585 6.37-6.464 1.33-3.993 1.28-7.833 0-12.956-.91-3.688-2.66-6.463-6.37-6.463h-4.79Zm-7.16 30.741c1.32 0 2.39 1.083 2.39 2.422 0 1.344-1.07 2.437-2.39 2.437-1.31 0-2.39-1.093-2.39-2.437 0-1.339 1.08-2.422 2.39-2.422Z" fill="#FFE3A5" />
  <path fill-rule="evenodd" clip-rule="evenodd" d="M1337.31 268.366a4.929 4.929 0 0 1-.23 1.509l11.44 6.645a4.973 4.973 0 0 1 3.73-1.679c2.76 0 5 2.236 5 4.995a5.003 5.003 0 0 1-3.85 4.864v13.137a5.003 5.003 0 0 1 3.85 4.864 4.998 4.998 0 0 1-5 4.995c-1.42 0-2.71-.599-3.62-1.558l-11.47 6.685c.06.254.11.516.13.785.02.154.02.31.02.468a4.99 4.99 0 0 1-4.99 4.996 5 5 0 0 1-5-4.996c0-.438.06-.863.17-1.267l-11.3-6.581a4.973 4.973 0 0 1-3.73 1.68c-2.76 0-5-2.236-5-4.995a4.992 4.992 0 0 1 3.81-4.854v-13.368a4.994 4.994 0 0 1-3.81-4.855 4.998 4.998 0 0 1 8.72-3.332l11.38-6.614a5.116 5.116 0 0 1-.24-1.524 5 5 0 0 1 5-4.996 4.99 4.99 0 0 1 4.99 4.996Zm-23.89 16.373a4.995 4.995 0 0 0 4.03-4.903c0-.508-.07-.998-.22-1.46l11.41-6.628c.08.084.16.166.24.245l-15.12 26.096c-.11-.03-.22-.056-.34-.079v-13.271Zm15.05 26.154-11.23-6.543c.06-.205.11-.416.15-.631h29.97c.04.197.1.39.16.577l-11.34 6.608a5 5 0 0 0-7.71-.011Zm18.92-9.324h-30.12c-.12-.436-.3-.848-.53-1.227-.29-.476-.65-.9-1.07-1.256l15.06-25.984c.5.168 1.03.259 1.59.259s1.11-.094 1.61-.267l15 25.876a4.918 4.918 0 0 0-1.54 2.599Zm3.86-16.839v13.077c-.15.03-.3.067-.44.111l-15.04-25.943c.08-.077.16-.156.24-.238l11.46 6.66c-.14.456-.21.939-.21 1.439a4.995 4.995 0 0 0 3.99 4.894Z" fill="#FFADAD" />
  <path fill-rule="evenodd" clip-rule="evenodd" d="M1094.52 238.682c-21.07 0-38.14-11.438-38.14-25.548 0-14.109 17.07-25.547 38.14-25.547s38.15 11.438 38.15 25.547c0 14.11-17.08 25.548-38.15 25.548Zm5.84-41.107c-16.01 0-28.99 7.82-28.99 17.465 0 9.646 12.98 17.466 28.99 17.466 16.01 0 27.83-5.346 27.83-17.466 0-12.115-11.82-17.465-27.83-17.465Z" fill="#D2D6E7" />
  <path fill-rule="evenodd" clip-rule="evenodd" d="M1114.47 227.157s2.31.696 3.65 1.375c.47.236 1.27.706 1.85 1.323.57.604.85 1.216.85 1.216l9.1 15.341-14.71.007-6.88-12.914s-1.4-2.42-2.27-3.121c-.72-.585-1.03-.794-1.75-.794h-3.49v16.82l-13.01.005v-42.964h26.13s11.9.215 11.9 11.539-11.37 12.167-11.37 12.167Zm-5.66-14.386-7.88-.005v7.305l7.88-.003s3.65-.011 3.65-3.716c0-3.779-3.65-3.581-3.65-3.581ZM1217.28 153.091c-.91-3.382-4.33-5.46-8.01-6.689-3.82-1.276-8.59-1.873-13.31-1.855-4.72.018-9.53.651-13.43 1.93-3.76 1.233-7.26 3.257-8.41 6.471l-.11.299v36.843c0 .388.13.765.36 1.074l.01.012c2.03 2.669 5.56 4.352 9.4 5.376 3.91 1.039 8.45 1.477 12.85 1.427 4.41-.05 8.78-.588 12.35-1.554 1.79-.483 3.42-1.085 4.78-1.816 1.34-.719 2.55-1.635 3.3-2.812l.01-.01c.18-.286.28-.618.28-.958v-37.506l-.07-.232Zm-35.85 8.259c-1.35-.534-2.65-1.198-3.79-2.007v8.038c1.86 1.383 4.46 2.451 7.57 3.168 3.45.796 7.38 1.125 11.27 1.036 3.89-.089 7.68-.595 10.87-1.435 2.81-.741 4.99-1.702 6.36-2.742v-8.074c-1.34 1.025-2.95 1.829-4.63 2.446-4.03 1.478-9.07 2.1-13.97 2.006-4.9-.095-9.84-.91-13.68-2.436Zm-3.79 17.868v-7.552c2.01 1.073 4.32 1.865 6.76 2.426 3.8.876 8.03 1.222 12.16 1.128 4.13-.094 8.21-.631 11.72-1.554 1.97-.521 3.83-1.184 5.43-2.002v7.581c-1.37 1.04-3.55 2.001-6.36 2.743-3.19.84-6.98 1.345-10.87 1.434-3.89.089-7.82-.24-11.27-1.036-3.11-.717-5.71-1.785-7.57-3.168Zm0 4.285v5.222c0 .445.17.88.5 1.178 1.43 1.289 3.68 2.363 6.58 3.135 3.51.934 7.7 1.352 11.87 1.306 4.17-.047 8.22-.558 11.44-1.429 1.61-.435 2.97-.948 4.01-1.508.47-.253.85-.501 1.15-.738.36-.276.52-.717.52-1.166v-6.002c-1.6.819-3.46 1.481-5.43 2.002-3.51.924-7.59 1.46-11.72 1.554-4.13.094-8.37-.252-12.16-1.128-2.44-.561-4.75-1.352-6.76-2.426Zm30.48-33.653c1.93.644 3.33 1.403 4.27 2.206 1.46 1.251 1.31 2.244 0 3.608-1 1.031-2.51 1.951-4.56 2.702-3.49 1.278-8.05 1.873-12.65 1.784-4.61-.088-9.09-.857-12.41-2.178-1.79-.712-3.06-1.503-3.89-2.308-1.3-1.257-1.33-2.137.01-3.294 1.04-.889 2.62-1.733 4.77-2.438 3.45-1.131 7.87-1.732 12.32-1.749 4.45-.017 8.8.552 12.14 1.667Z" fill="#415ABF" />
  <path d="M1256.38 178.329c2.38-.977 4.15-3.393 4.15-6.365 0-3.893-3.03-6.832-6.52-6.832-3.48 0-6.51 2.939-6.51 6.832 0 2.566 1.32 4.718 3.21 5.887v4.82c-4.41-1.44-7.61-5.689-7.61-10.707 0-6.201 4.89-11.229 10.91-11.229 6.03 0 10.92 5.028 10.92 11.229 0 5.367-3.66 9.855-8.55 10.966v3.096h-3.97v-10.547h3.97v2.85ZM1271.71 160.932h-4.31v17.045c0 2.523 1.43 4.684 4.1 4.684h5.94v-4.684h-4.22c-.83 0-1.6-.441-1.51-1.932v-15.113ZM1239.93 160.99v3.866h-6.76c-1.31 0-1.86 1.119-1.12 2.09 1.05 1.383 2.37 2.457 3.65 3.499 1.15.941 2.27 1.857 3.14 2.951.82 1.038 1.32 2.187 1.27 3.531-.08 2.216-.78 3.98-2.27 4.944-1.2.78-2.56.778-3.93.776H1227.26v-4.192h6.43c.95 0 1.94-.128 2.03-1.375.04-.521-.13-1.004-.76-1.606-.91-.865-1.82-1.677-2.67-2.444-1.89-1.687-3.53-3.157-4.4-4.497-.87-1.345-1.1-3.726-.31-5.13.32-.569.82-1.215 1.57-1.703 1.14-.745 2.4-.73 3.69-.714.19.002.38.004.57.004h6.52Z" fill="#415ABF" />
  <path d="M1141.34 265.243h-19.65c-2.08 0-3.78 1.627-3.78 3.616v45.808c0 1.989 1.7 3.616 3.78 3.616h32.77c2.08 0 3.78-1.627 3.78-3.616V281.48h-11.34c-3 0-5.56-2.338-5.56-5.388v-10.849Z" fill="#3FB898" />
  <path d="m1143.13 265.254 15.1 14.446.01.008h-11.34c-2.09 0-3.79-1.618-3.79-3.616v-10.849l.02.011Z" fill="#3FB898" />
  <path d="M1127.99 291.16v17.479h20.16V291.16h-20.16Zm8.82 15.068h-6.3v-3.014h6.3v3.014Zm0-4.822h-6.3v-3.013h6.3v3.013Zm0-4.822h-6.3v-3.013h6.3v3.013Zm8.82 9.644h-6.3v-3.014h6.3v3.014Zm0-4.822h-6.3v-3.013h6.3v3.013Zm0-4.822h-6.3v-3.013h6.3v3.013Z" fill="#fff" />
  <g style="mix-blend-mode:color-dodge" opacity=".7" filter="url(#a)">
    <path d="M1277.01 427.503c-1.4 63.191-57.41 113.358-125.1 112.051-67.69-1.307-121.43-53.592-120.03-116.783 1.4-63.19 57.41-113.357 125.1-112.051 67.69 1.307 121.43 53.592 120.03 116.783Z" fill="#5275FF" />
  </g>
  <ellipse cx="847.508" cy="485.376" rx="26.836" ry="26.517" fill="#181B2B" />
  <path d="M847.713 459.473c14.211 0 25.732 11.522 25.732 25.735 0 4.146-.98 8.061-2.721 11.529-.838 1.671-1.94 3.184-3.011 4.71l1.963.213c1.044-1.509 2.042-3.007 2.834-4.67a27.35 27.35 0 0 0 2.65-11.782c0-15.16-12.288-27.45-27.447-27.45-15.158 0-27.446 12.29-27.446 27.45 0 11.493 7.062 21.337 17.084 25.426l-6.299-.171c-5.005.538-15.209 7.692-15.793 16.537l1.27 11.61-1.897 11.719 9.334 4.803 5.824-11.806v-17.598l4.645 34.663 2.599 3.295v-4.395l9.615-7.048 22.19 14.812 7.804-23.729-.845-10.822v-4.145l19.29-8.552c1.654-4.033-.762-11.873-3.379-14.162h-11.762l-10.82-4.198c-4.607-.553-10.79 1.014-13.971 8.421-1.521.402-2.806.731-4.397.908l-.002-.012a25.39 25.39 0 0 1-1.043.102c-.626.039-1.305.056-2.064.048l-2.024-.055c-13.235-1.063-23.644-12.141-23.644-25.651 0-14.213 11.52-25.735 25.731-25.735ZM822.599 556.591v10.944l-6.916 22.298 5.379 2.793 1.106 3.966 5.947 5.205c.028 1.043-5.754.982-8.295-2.405 0-.053.003-.117.006-.19.022-.585.067-1.737-.981-2.099l-1.24 1.569 1.24 6.012-.682 8c-1.675.37-2.563-2.287-2.968-3.5l-.055-.163-.278 1.518c-2.212.155-4.52-6.75-4.843-8.286l-1.514-12.42-.672-29.629 5.152-7.044 9.614 3.431Z" fill="#369F84" />
  <path d="m868.702 570.225 4.161 17.312c7.79 15.623 3.784 44.67 1.986 62.758-5.233 17.2-10.08 35.739-11.905 50.368l3.525-6.676 16.286 3.178 4.108 3.498c-1.782 2.268-15.827 5.692-19.098 5.692h-2.998v1.573c-2.906 1.244-8.889 1.947-10.803-1.24 3.239-14.013-1.143-38.146-1.143-38.146l7.704-19.382-6.787-53.269-8.887-8.354 8.887 21.776-4.022 34.647c-10.875 12.07-17.317 21.695-21.063 37.27l16.938 4.498c1.051 2.015-10.524 8.439-17.65 6.578-6.986 1.525-10.939-.56-11.412-1.807l6.661-39.496 8.048-13.429 2.96-38.996 1.141-11.041 5.35-17.312v-8.858l7.347-5.261 10.333 7.06 10.333 7.059Z" fill="#369F84" />
  <path fill-rule="evenodd" clip-rule="evenodd" d="M846.98 540.169c-3.213-2.823-4.338-15.372-.028-19.761-1.424 5.803-.855 15.219.028 19.761Z" fill="#191D3B" />
  <path d="M822.593 556.595v10.944l-6.915 22.298 5.379 2.793 1.105 3.966 5.947 5.205c.028 1.042-5.753.982-8.295-2.405 0-.053.003-.117.006-.19.023-.585.067-1.737-.981-2.1l-1.239 1.57 1.239 6.012-.682 7.999c-1.674.37-2.563-2.287-2.968-3.499l-.054-.163-.278 1.518c-2.213.155-4.521-6.75-4.843-8.286l-1.514-12.42-.672-29.629 5.151-7.044 9.614 3.431ZM844.845 587.54l8.887 21.777-4.022 34.647c-10.874 12.069-17.317 21.694-21.063 37.269l13.744 1.82 3.195 2.679c1.05 2.015-10.525 8.439-17.65 6.577-6.987 1.526-10.94-.559-11.413-1.807l6.662-39.495 8.047-13.43 2.96-38.996 1.141-11.041 2.54-8.319 6.972 8.319Z" fill="#165E55" />
  <path d="m925.893 478.71 2.196-4.496c.955-.456 1.681-1.194 2.266-2.259l.017-.03c.513-.934 1.391-2.533 2.046-1.705.487.615.452 2.302-.191 3.994-1.751 1.571-2.181 2.802-1.907 4.092l4.685-5.641 4.801-5.679 4.394-4.352a1.138 1.138 0 0 1 1.418-.135c.51.337.631 1.012.268 1.493l-3.403 4.516-3.692 5.537.376.345 4.442-4.632 3.69-2.875a1.104 1.104 0 0 1 1.404.045 1 1 0 0 1 .034 1.476l-3.242 3.156-3.501 4.507.489.462 6.906-5.19a1.135 1.135 0 0 1 1.522.15c.339.384.349.943.025 1.338l-2.128 2.599-4.601 4.267 4.484-3.064a1.013 1.013 0 0 1 1.388.24.916.916 0 0 1-.095 1.176l-8.748 9.02-7.634 4.309c-15.295 15.844-28.68 26.756-35.142 27.471 1.368-3.732-1.664-13.227-3.962-14.471 6.104-8.54 24.294-10.461 32.928-17.309 1.605.018 3.197.267 4.575 1.078-1.471.299-4.789-1.087-6.532.299l.424-9.732Z" fill="#369F84" />
  <path fill-rule="evenodd" clip-rule="evenodd" d="M852.992 458.312c22.263 4.716 26.215 30.435 16.601 43.323 11.257-8.503 10.799-39.555-16.601-43.323Z" fill="#FFCB47" />
  <path d="m872.751 586.922-4.118-16.961c5.559 31.518 6.806 49.279 6.223 80.783 1.314-15.5 6.787-45.464-2.105-63.822ZM876.781 543.298l-7.759 23.271 6.777-38.288.982 15.017ZM822.646 567.609v-10.914l-6.943 33.269 6.943-22.355Z" fill="#FFCB47" />
  <defs>
    <filter id="a" x="721.721" y=".565" width="865.444" height="849.144" filterUnits="userSpaceOnUse" color-interpolation-filters="sRGB">
      <feFlood flood-opacity="0" result="BackgroundImageFix" />
      <feBlend in="SourceGraphic" in2="BackgroundImageFix" result="shape" />
      <feGaussianBlur stdDeviation="125.065" result="effect1_foregroundBlur_5763_1694" />
      <feComponentTransfer>
        <feFuncA type="linear" slope="0.7" />
      </feComponentTransfer>
    </filter>
  </defs>
</svg>
