<svg width="360" height="372" viewBox="0 0 360 372" fill="none" xmlns="http://www.w3.org/2000/svg">
<g clip-path="url(#clip0_4675_93333)">
<ellipse cx="358.187" cy="531.959" rx="358.187" ry="358.778" fill="#1D223E"/>
<path d="M152.795 160.429L151.769 158.307C151.756 158.312 151.743 158.317 151.73 158.322L152.795 160.429Z" fill="#173D40"/>
<path d="M150.859 158.636C145.84 160.401 143.385 160.419 141.505 159.034C140.862 158.561 140.18 158.118 139.457 157.818L106.167 159.11C103.939 159.197 102.182 161.038 102.195 163.272L102.295 179.337C102.31 181.761 104.392 183.653 106.802 183.433L154.836 179.045C157.743 178.78 159.466 175.662 158.148 173.054L150.859 158.636Z" fill="#173D40"/>
<path fill-rule="evenodd" clip-rule="evenodd" d="M139.875 157.802L106.168 159.11C103.94 159.197 102.183 161.038 102.196 163.272L102.296 179.337C102.311 181.761 104.393 183.653 106.803 183.433L154.837 179.045C157.744 178.78 159.467 175.662 158.149 173.054L150.843 158.602L151.662 158.186L158.968 172.638C160.579 175.826 158.473 179.637 154.921 179.961L106.886 184.349C103.941 184.618 101.396 182.305 101.377 179.343L101.278 163.277C101.261 160.548 103.41 158.297 106.133 158.191L139.839 156.883L139.875 157.802Z" fill="#8AFFCE"/>
<g style="mix-blend-mode:color-dodge">
<path d="M175.817 126.403C175.884 137.197 154.268 146.082 127.538 146.247C100.807 146.413 79.0838 137.797 79.0171 127.003C78.9505 116.209 100.566 107.325 127.296 107.159C154.027 106.993 175.75 115.609 175.817 126.403Z" fill="#1FAC85"/>
</g>
<path fill-rule="evenodd" clip-rule="evenodd" d="M127.54 146.247C154.271 146.082 175.886 137.197 175.82 126.403C175.753 115.609 154.03 106.993 127.299 107.159C100.568 107.324 78.9531 116.209 79.0197 127.003C79.0863 137.797 100.81 146.413 127.54 146.247ZM171.359 133.304C173.668 131.072 174.82 128.742 174.806 126.41C174.792 124.077 173.611 121.762 171.274 119.559C168.935 117.353 165.504 115.328 161.185 113.615C152.553 110.191 140.574 108.092 127.305 108.174C114.037 108.256 102.085 110.504 93.4952 114.034C89.1978 115.801 85.7917 117.868 83.4801 120.102C81.1709 122.334 80.0189 124.664 80.0333 126.997C80.0477 129.329 81.2284 131.644 83.565 133.848C85.904 136.053 89.3353 138.078 93.6542 139.791C102.287 143.215 114.266 145.314 127.534 145.232C134.783 145.187 141.639 144.496 147.768 143.302L143.52 138.881C138.695 139.875 133.258 140.45 127.505 140.485C107.492 140.609 91.2281 134.158 91.1782 126.077C91.1283 117.996 107.312 111.344 127.325 111.22C147.337 111.096 163.602 117.547 163.652 125.628C163.686 131.215 155.962 136.119 144.577 138.655L148.837 143.088C153.502 142.121 157.722 140.861 161.344 139.372C165.642 137.605 169.048 135.538 171.359 133.304ZM144.165 138.226C147.409 137.519 150.355 136.621 152.91 135.571C156.145 134.241 158.726 132.679 160.487 130.976C162.247 129.275 163.156 127.469 163.145 125.631C163.133 123.794 162.202 121.999 160.421 120.32C158.639 118.639 156.039 117.109 152.788 115.819C146.288 113.241 137.286 111.666 127.328 111.728C117.37 111.789 108.388 113.476 101.92 116.134C98.6851 117.464 96.1039 119.027 94.3426 120.729C92.5826 122.43 91.6737 124.237 91.685 126.074C91.6964 127.911 92.6275 129.706 94.4084 131.385C96.1906 133.066 98.7909 134.597 102.042 135.886C108.542 138.464 117.544 140.039 127.502 139.978C133.103 139.943 138.395 139.394 143.104 138.448L138.529 133.687C135.254 134.333 131.59 134.705 127.723 134.729C113.728 134.816 102.354 130.305 102.319 124.654C102.284 119.002 113.601 114.351 127.596 114.264C141.591 114.178 152.965 118.689 153 124.34C153.024 128.258 147.59 131.696 139.591 133.465L144.165 138.226ZM139.178 133.035C141.502 132.538 143.61 131.9 145.43 131.152C147.682 130.226 149.468 129.143 150.681 127.97C151.893 126.798 152.501 125.573 152.493 124.343C152.485 123.113 151.863 121.895 150.636 120.739C149.409 119.581 147.609 118.52 145.346 117.622C140.823 115.828 134.549 114.729 127.599 114.772C120.65 114.815 114.389 115.992 109.889 117.842C107.637 118.767 105.851 119.851 104.638 121.024C103.426 122.195 102.818 123.421 102.826 124.651C102.834 125.88 103.456 127.098 104.682 128.255C105.91 129.412 107.709 130.474 109.972 131.371C114.495 133.165 120.77 134.265 127.719 134.222C131.434 134.199 134.953 133.852 138.11 133.251L133.807 128.772C131.876 129.153 129.716 129.372 127.437 129.386C119.18 129.437 112.469 126.776 112.449 123.442C112.428 120.107 119.105 117.363 127.362 117.312C135.619 117.261 142.33 119.922 142.35 123.256C142.364 125.499 139.349 127.474 134.861 128.543L139.178 133.035ZM134.452 128.117C135.694 127.836 136.822 127.487 137.805 127.083C139.119 126.543 140.147 125.916 140.838 125.248C141.527 124.582 141.847 123.91 141.843 123.259C141.839 122.609 141.511 121.941 140.813 121.283C140.115 120.624 139.079 120.01 137.758 119.486C135.12 118.44 131.445 117.794 127.365 117.819C123.285 117.845 119.619 118.536 116.994 119.615C115.68 120.155 114.651 120.782 113.961 121.45C113.272 122.116 112.951 122.788 112.955 123.438C112.959 124.089 113.288 124.757 113.985 125.415C114.684 126.073 115.72 126.688 117.04 127.211C119.679 128.258 123.353 128.904 127.433 128.879C129.56 128.865 131.574 128.671 133.387 128.335L130.584 125.418C129.619 125.594 128.554 125.695 127.433 125.702C123.084 125.729 119.549 124.327 119.538 122.571C119.527 120.815 123.044 119.369 127.394 119.342C131.743 119.315 135.278 120.717 135.289 122.473C135.296 123.605 133.837 124.608 131.635 125.185L134.452 128.117ZM131.23 124.764C131.811 124.625 132.34 124.457 132.803 124.267C133.479 123.989 133.991 123.673 134.325 123.35C134.659 123.028 134.783 122.733 134.782 122.477C134.78 122.221 134.652 121.927 134.315 121.609C133.976 121.29 133.46 120.98 132.781 120.711C131.427 120.174 129.523 119.837 127.397 119.85C125.27 119.863 123.371 120.224 122.023 120.778C121.348 121.055 120.836 121.371 120.501 121.695C120.168 122.017 120.043 122.312 120.045 122.568C120.046 122.824 120.175 123.117 120.512 123.435C120.851 123.755 121.366 124.064 122.045 124.333C123.4 124.871 125.303 125.208 127.43 125.195C128.813 125.186 130.1 125.03 131.202 124.77L131.219 124.753L131.23 124.764Z" fill="#8AFFCE"/>
<path fill-rule="evenodd" clip-rule="evenodd" d="M141.436 170.702C142.125 170.036 142.45 169.358 142.446 168.698C142.442 168.037 142.108 167.364 141.411 166.706C140.713 166.048 139.68 165.436 138.367 164.915C135.744 163.875 132.094 163.234 128.043 163.259C123.993 163.284 120.351 163.97 117.741 165.043C116.435 165.58 115.41 166.204 114.72 166.871C114.03 167.537 113.705 168.215 113.709 168.876C113.713 169.536 114.047 170.21 114.744 170.867C115.442 171.525 116.475 172.137 117.788 172.658C120.411 173.698 124.061 174.339 128.112 174.314C132.162 174.289 135.804 173.603 138.414 172.53C139.72 171.993 140.745 171.369 141.436 170.702ZM128.115 174.774C136.304 174.723 142.926 172.002 142.905 168.695C142.885 165.388 136.23 162.748 128.041 162.799C119.851 162.85 113.229 165.572 113.25 168.878C113.27 172.185 119.925 174.825 128.115 174.774Z" fill="#8AFFCE"/>
<path d="M113.286 130.454C113.294 131.719 111.765 132.753 109.871 132.765C107.978 132.777 106.436 131.761 106.428 130.497C106.42 129.232 107.949 128.197 109.843 128.186C111.737 128.174 113.278 129.189 113.286 130.454Z" fill="#FF6363"/>
<g style="mix-blend-mode:hard-light" filter="url(#filter0_f_4675_93333)">
<path d="M113.286 130.454C113.294 131.719 111.765 132.753 109.871 132.765C107.978 132.777 106.436 131.761 106.428 130.497C106.42 129.232 107.949 128.197 109.843 128.186C111.737 128.174 113.278 129.189 113.286 130.454Z" fill="#FF6363"/>
</g>
<path d="M256.922 380.458C258.735 345.177 230.838 286.36 217.064 279.692L204.209 249.341L228.083 238.535C263.664 234.855 341.872 247.894 376.318 291.736L367.771 380.458H256.922Z" fill="#181B2B"/>
<path d="M251.179 112.174C241.418 118.753 237.332 119.316 222.305 121.388L221.604 121.485C204.095 123.652 197.763 115.544 199.021 108.267C198.909 108.186 198.797 108.105 198.686 108.024C198.516 108.109 198.368 108.236 198.261 108.399C197.592 109.415 197.128 110.646 196.875 112.084C191.223 110.208 182.697 116.949 186.398 129.409C189.347 123.658 193.023 118.433 196.667 114.078C196.458 119.182 198.393 126.317 202.712 135.238C202.903 135.631 203.287 135.902 203.722 135.94C212.411 136.716 220.278 135.368 226.682 134.271C227.983 134.048 229.224 133.836 230.399 133.653C230.84 133.585 231.214 133.29 231.391 132.88C235.134 124.22 239.999 120.836 249.587 119.593C236.815 127.591 234.669 140.906 234.5 151.888C234.486 152.812 235.086 153.634 235.978 153.868C246.638 156.662 258.819 153.972 266.747 147.448C267.321 146.976 267.57 146.216 267.416 145.488C264.335 130.923 257.851 122.512 252.808 118.963C252.415 118.686 251.94 118.582 251.479 118.645C251.533 118.495 251.559 118.334 251.552 118.166L251.179 112.174Z" fill="#165E55"/>
<path d="M194.787 167.925C194.767 165.185 194.746 162.27 194.409 158.997C202.172 157.9 209.073 161.168 215.898 170.153C216.155 169.975 216.406 169.8 216.652 169.629C221.24 166.432 224.032 164.486 231.954 165.498L232.02 165.338C232.625 168.353 233.599 170.894 235.042 173.567C236.305 174.859 237.379 175.759 239.107 176.9C239.39 177.086 239.749 177.113 240.058 176.975L253.565 170.932C250.049 177.232 253.795 185.691 259.993 189.018C251.051 191.212 246.442 191.383 237.87 190.189V217.975C238.011 222.08 239.121 223.439 240.323 224.91C242.668 227.781 245.362 231.079 241.886 256.039C241.751 257.007 241.816 258.03 242.093 258.967L242.88 261.626C243.183 262.653 242.984 263.763 242.343 264.619L240.414 267.196C239.851 267.948 239.465 268.814 239.191 269.713C239 270.34 238.785 270.939 238.546 271.51C234.967 280.082 226.271 282.444 219.299 280.825C217.959 280.514 217.035 279.343 216.822 277.982L216.044 273.016C215.675 270.656 216.025 268.241 217.05 266.085L221.814 256.063C224.953 247.169 224.695 242.142 223.205 233.21C221.473 229.866 219.757 226.733 218.139 223.78L218.139 223.78C212.515 213.517 208.088 205.439 208.399 198.246L207.66 197.45C194.906 184.675 194.854 177.322 194.787 167.925Z" fill="#165E55"/>
<path d="M153.656 150.322C156.86 152.469 159.103 153.149 162.566 153.602C162.566 153.602 174.055 156.302 178.117 151.71C182.01 158.668 182.99 163.122 183.341 171.828C177.241 170.906 165.75 168.417 165.75 168.417L158.757 170.702L151.871 157.596C146.497 160.984 141.187 160.664 139.362 156.474C139.071 155.808 139.548 155.1 140.263 154.971C143.203 154.44 146.522 153.622 148.935 150.592C149.195 150.265 149.585 150.06 150.002 150.065L152.956 150.102C153.205 150.106 153.448 150.183 153.656 150.322Z" fill="#165E55"/>
<path d="M196.669 114.078C192.255 119.353 187.794 125.907 184.635 133.123C185.304 143.604 188.015 153.013 192.451 159.361C193.924 159.023 195.365 158.833 196.779 158.799C197.422 158.783 198.059 158.8 198.691 158.849C204.759 159.327 210.355 162.853 215.901 170.153C216.157 169.975 216.408 169.8 216.653 169.629C220.453 166.981 223.021 165.192 228.29 165.23C228.39 165.23 228.49 165.232 228.592 165.234C229.605 165.254 230.718 165.34 231.955 165.498L236.725 154.053C236.476 153.994 236.228 153.933 235.98 153.868C235.088 153.634 234.489 152.812 234.503 151.888C234.671 140.906 236.817 127.592 249.589 119.593C240.001 120.836 235.136 124.22 231.394 132.88C231.216 133.29 230.842 133.585 230.401 133.654C229.226 133.836 227.985 134.048 226.684 134.271C220.28 135.368 212.413 136.716 203.724 135.94C203.289 135.902 202.905 135.632 202.714 135.238C198.395 126.317 196.46 119.182 196.669 114.078Z" fill="#16926F"/>
<path d="M246.215 154.932C249.667 162.398 252.048 166.326 255.856 170.365L253.286 171.472C250.462 177.301 253.518 184.742 258.849 188.328C264.253 187.051 268.663 184.805 272.305 181.156C273.308 168.298 270.86 160.33 265.96 148.074C260.584 152.186 253.46 154.628 246.215 154.932Z" fill="#16926F"/>
<path d="M254.558 146.244C250.941 146.244 243.15 141.017 243.15 135.875C243.15 130.733 248.829 123.602 252.446 123.602C261.019 123.602 262.208 146.244 254.558 146.244Z" fill="#16926F"/>
<path d="M238.76 178.997C238.928 178.746 238.86 178.407 238.609 178.239C238.358 178.072 238.019 178.139 237.852 178.391C236.276 180.759 235.272 184.356 235.25 187.745C235.247 188.047 235.49 188.294 235.792 188.296C236.093 188.298 236.339 188.055 236.341 187.753C236.363 184.537 237.323 181.157 238.76 178.997Z" fill="#181B2B"/>
<path fill-rule="evenodd" clip-rule="evenodd" d="M251.224 105.991C260.208 98.1927 266.177 86.5045 266.177 73.6626C266.177 50.1728 247.166 31.1306 223.715 31.1306C200.264 31.1306 181.253 50.1728 181.253 73.6626C181.253 87.5987 187.944 99.9693 198.285 107.727C198.11 107.864 197.953 108.03 197.877 108.146C197.249 109.1 196.797 110.223 196.521 111.504C196.493 111.497 196.464 111.491 196.436 111.484C194.238 110.98 191.763 111.612 189.694 113.186C186.056 115.956 183.668 121.612 185.907 129.362C185.31 130.533 184.743 131.726 184.212 132.938L184.168 133.04L184.175 133.152C184.848 143.683 187.572 153.184 192.073 159.625L192.25 159.879L192.552 159.81C193.038 159.698 193.521 159.603 194 159.524C194.218 161.826 194.283 163.952 194.31 165.974C194.319 166.63 194.323 167.278 194.328 167.917C194.347 170.624 194.365 173.192 194.689 175.765C195.012 178.337 195.64 180.912 196.864 183.663C195.915 190.977 198.579 195.75 202.809 203.33C205.181 207.58 208.045 212.712 211.04 219.668L212.942 230.248C211.026 234.086 208.917 235.948 207.144 237.513C205.204 239.226 203.666 240.583 203.224 243.79L203.976 249.25C204.033 249.661 204.332 250.001 204.732 250.105C214.59 252.683 218.161 250.159 220.658 248.394C221.699 247.658 222.553 247.055 223.597 247.007C223.278 249.684 222.585 252.496 221.389 255.887L216.635 265.887C215.571 268.127 215.206 270.636 215.59 273.087L216.368 278.053C216.605 279.565 217.641 280.912 219.195 281.273C226.322 282.928 235.281 280.522 238.969 271.688C239.214 271.102 239.435 270.489 239.63 269.848C239.894 268.983 240.259 268.169 240.781 267.472L242.71 264.895C243.438 263.922 243.665 262.662 243.32 261.495L242.533 258.837C242.275 257.966 242.214 257.009 242.34 256.102C243.656 246.654 244.092 240.286 243.994 235.858C243.895 231.43 243.005 229.124 242.16 227.4C241.246 225.535 239.57 224.027 238.534 221.952C238.213 221.033 238.387 219.653 238.329 217.967V190.832C244.448 191.634 251.996 191.794 260.363 189.546C260.601 189.482 260.766 189.267 260.767 189.02C260.769 188.689 260.505 188.535 260.227 188.451C265.123 187.115 269.204 184.911 272.628 181.481C272.705 181.404 272.753 181.301 272.761 181.192C273.763 168.342 271.336 160.322 266.514 148.225C266.69 148.086 266.865 147.946 267.038 147.804C267.751 147.217 268.053 146.281 267.865 145.392C264.765 130.74 258.23 122.217 253.072 118.586C252.749 118.359 252.385 118.226 252.012 118.183L251.224 105.991ZM250.448 106.51C243.122 112.527 233.927 116.195 223.715 116.195C214.593 116.195 206.143 113.313 199.222 108.41C199.04 112.484 200.53 115.584 203.213 117.756C206.011 120.021 210.149 121.31 215.151 121.561C225.152 122.065 238.424 118.412 250.721 110.517C250.741 110.505 250.761 110.494 250.781 110.485L250.448 106.51ZM258.836 187.858C264.073 186.606 268.334 184.434 271.859 180.95C272.804 168.49 270.475 160.668 265.754 148.801C260.534 152.627 253.801 154.941 246.917 155.357C250.206 162.403 252.534 166.174 256.188 170.049C256.58 170.465 256.989 170.884 257.416 171.308C257.596 171.486 257.598 171.777 257.419 171.958C257.241 172.138 256.95 172.14 256.77 171.961C256.416 171.609 256.073 171.261 255.742 170.914L253.621 171.827C252.411 174.677 252.591 178.236 253.762 181.388C254.82 184.235 256.643 186.639 258.836 187.858ZM254.104 170.618L255.074 170.2C251.52 166.324 249.182 162.419 245.926 155.403C242.928 155.504 239.915 155.243 236.997 154.589L232.498 165.385C233.069 168.164 233.963 170.539 235.27 173.018C236.583 174.38 237.644 175.279 239.399 176.438C239.526 176.522 239.69 176.535 239.833 176.468L253.335 170.206C253.55 170.107 253.804 170.157 253.965 170.331C254.041 170.413 254.087 170.513 254.104 170.618ZM196.358 112.411C196.316 112.401 196.273 112.391 196.231 112.381C194.343 111.947 192.141 112.479 190.25 113.919C187.116 116.303 184.835 121.208 186.535 128.158C189.374 122.836 192.806 117.991 196.215 113.902C196.241 113.386 196.289 112.889 196.358 112.411ZM194.91 159.395C195.135 161.748 195.201 163.914 195.228 165.961C195.237 166.632 195.242 167.289 195.246 167.934C195.266 170.635 195.284 173.136 195.6 175.65C196.376 181.82 198.954 188.078 207.985 197.125L207.991 197.131L208.021 197.162C208.293 194.66 209.157 192.252 210.758 189.893C210.873 189.724 210.992 189.554 211.115 189.386C210.634 188.987 210.375 188.485 210.286 187.954C210.183 187.342 210.311 186.726 210.505 186.216C210.682 185.754 211.082 185.466 211.496 185.357L213.016 184.96L207.761 185.27C207.473 185.287 207.104 185.231 206.808 184.969C206.258 184.482 206.031 183.799 205.974 183.169C205.918 182.538 206.026 181.897 206.216 181.406C206.404 180.919 206.85 180.678 207.245 180.608L209.721 180.17C209.52 179.946 209.364 179.688 209.267 179.401C209.009 178.63 209.221 177.786 209.848 177.032C210.029 176.815 210.264 176.676 210.495 176.599C214.057 175.405 216.502 174.67 218.704 174.172C218.856 174.138 219.01 174.128 219.161 174.139C219.437 174.16 219.726 174.179 220.022 174.196C219.858 173.842 219.715 173.453 219.619 173.046C219.431 172.253 219.413 171.348 219.822 170.512C220.191 169.76 221.058 169.701 221.621 169.944C222.889 170.493 223.954 170.811 225.287 170.963C224.767 169.548 223.845 168.134 222.322 166.75C220.352 167.569 218.601 168.806 216.862 170.035C216.508 170.285 216.154 170.535 215.799 170.781L215.533 170.431C211.865 165.603 208.202 162.475 204.428 160.79C201.377 159.427 198.23 158.996 194.91 159.395ZM231.413 191.193C236.689 213.5 234.3 242.405 225.005 235.732C224.541 234.805 224.076 233.894 223.612 232.999C221.926 229.742 220.254 226.686 218.676 223.806L218.542 223.561C217.013 220.771 215.577 218.149 214.3 215.663C211.667 210.539 209.737 206.038 209.083 201.903C208.434 197.793 209.047 194.048 211.517 190.41C211.657 190.204 211.803 189.998 211.955 189.793C214.76 190.008 217.447 189.656 219.733 189.357C220.111 189.308 220.479 189.26 220.834 189.216L214.122 194.92C213.868 195.136 213.666 195.446 213.615 195.819C213.504 196.615 213.596 197.424 214.051 198.032C214.527 198.666 215.303 198.958 216.281 198.893C216.541 198.875 216.774 198.782 216.966 198.657L226.67 192.339C226.715 192.31 226.764 192.289 226.815 192.277L231.413 191.193ZM196.199 115.367C192.131 120.373 188.095 126.437 185.16 133.066C187.763 136.593 192.363 139.809 197.98 142.467C203.634 145.143 210.272 147.232 216.823 148.499L239.775 128.631C241.699 125.592 244.249 122.775 247.622 120.357C243.99 120.999 241.143 122.033 238.803 123.66C235.89 125.684 233.715 128.659 231.812 133.062C231.574 133.614 231.069 134.015 230.469 134.108C229.304 134.289 228.07 134.5 226.774 134.722C220.371 135.82 212.435 137.18 203.681 136.399C203.083 136.345 202.558 135.975 202.299 135.439C199.146 128.927 197.246 123.338 196.525 118.773C196.335 117.57 196.227 116.434 196.199 115.367ZM249.746 120.036C237.256 127.912 235.127 140.975 234.959 151.895C234.948 152.616 235.415 153.245 236.094 153.423C246.617 156.181 258.645 153.52 266.455 147.093C266.891 146.734 267.087 146.151 266.967 145.583C264.064 131.862 258.136 123.692 253.329 119.923C252.82 119.524 252.207 119.232 251.568 119.333C250.588 119.488 249.746 120.036 249.746 120.036ZM216.616 135.289C211.89 132.649 211.32 125.769 216.307 122.678C216.427 122.603 216.564 122.553 216.705 122.526C216.163 122.522 215.63 122.506 215.105 122.48C209.991 122.223 205.638 120.902 202.636 118.471C199.914 116.268 198.336 113.179 198.29 109.249C197.127 111.432 196.79 114.561 197.432 118.629C198.134 123.074 199.995 128.573 203.125 135.037C203.246 135.288 203.491 135.458 203.763 135.482C208.303 135.888 212.616 135.709 216.616 135.289ZM214.781 158.337C214.456 161.571 214.392 165.103 214.968 168.238C211.662 164.237 208.304 161.514 204.802 159.95C200.926 158.219 196.909 157.924 192.651 158.845C188.591 152.899 186.01 144.279 185.202 134.596C188.014 137.902 192.422 140.854 197.587 143.299C203.243 145.975 209.853 148.065 216.383 149.35C215.856 151.356 215.149 154.676 214.781 158.337ZM220.802 170.994C220.819 170.96 220.847 170.932 220.91 170.916C220.982 170.899 221.085 170.904 221.188 170.948C224.312 172.3 226.381 172.338 232.58 171.974C232.72 171.966 232.86 172.023 232.954 172.126C235.148 174.551 236.322 175.715 238.798 177.351C239.246 177.647 239.812 177.683 240.292 177.46L252.447 171.823C251.29 174.913 251.556 178.585 252.739 181.77C253.873 184.821 255.894 187.54 258.46 188.898C249.458 191.009 241.49 190.341 235.354 189.27C235.147 189.234 234.936 189.24 234.731 189.288L226.565 191.213C226.391 191.254 226.225 191.325 226.075 191.422L222.451 193.782C220.97 193.563 220.042 192.409 220.28 191.12L222.817 188.964L224.517 187.983C224.778 187.832 224.867 187.498 224.717 187.236C224.566 186.975 224.233 186.885 223.971 187.036L222.333 187.982L216.942 188.472C215.887 187.197 216.09 185.883 216.556 185.165C217.999 184.788 219.568 184.716 221.106 184.645C221.758 184.615 222.405 184.585 223.034 184.533C223.2 184.519 223.35 184.43 223.443 184.291L224.447 182.782C224.614 182.531 224.546 182.191 224.296 182.024C224.045 181.856 223.706 181.924 223.539 182.175L222.69 183.451L215.938 183.693L214.979 183.749C213.894 182.483 214.065 181.171 214.516 180.433L222.57 179.548C223.032 179.502 223.449 179.251 223.706 178.865L224.447 177.751C224.614 177.5 224.546 177.161 224.296 176.993C224.045 176.826 223.706 176.894 223.539 177.145L222.798 178.258C222.722 178.373 222.598 178.447 222.462 178.461L218.409 178.867C217.436 177.662 217.466 176.334 218.077 175.444C218.372 175.371 218.661 175.303 218.944 175.239C218.987 175.229 219.032 175.226 219.08 175.229C219.667 175.273 220.305 175.31 220.954 175.34C223.561 175.459 226.395 175.477 227.093 175.479C227.262 175.48 227.427 175.452 227.585 175.4L228.937 174.948C229.223 174.853 229.377 174.543 229.282 174.257C229.186 173.97 228.877 173.816 228.591 173.911L227.24 174.362C227.192 174.378 227.145 174.386 227.097 174.386C226.427 174.383 223.789 174.367 221.289 174.26C221.041 173.844 220.807 173.33 220.681 172.794C220.53 172.154 220.54 171.528 220.802 170.994Z" fill="#181B2B"/>
<path d="M159.102 160.959C158.878 160.839 158.6 160.924 158.48 161.148C158.361 161.372 158.445 161.65 158.668 161.77C159.916 162.439 161.104 162.764 162.201 162.881C161.937 163.245 161.719 163.575 161.518 163.912C161.389 164.13 161.46 164.412 161.678 164.542C161.896 164.672 162.178 164.601 162.307 164.382C162.6 163.89 162.938 163.407 163.447 162.757L164.019 162.025L163.091 162.014C161.894 161.998 160.55 161.736 159.102 160.959Z" fill="#181B2B"/>
<path fill-rule="evenodd" clip-rule="evenodd" d="M148.576 150.305C148.914 149.88 149.433 149.598 150.008 149.605L152.961 149.643C153.302 149.647 153.631 149.753 153.91 149.94C156.852 151.91 159.764 152.575 163.158 153.258C163.475 153.322 163.933 153.408 164.496 153.498C165.624 153.677 167.167 153.869 168.832 153.918C170.499 153.968 172.272 153.876 173.867 153.496C175.465 153.115 176.843 152.456 177.773 151.405L178.201 150.921L178.517 151.485C180.477 154.988 181.714 157.879 182.502 161.001C183.289 164.118 183.623 167.445 183.799 171.81L183.821 172.366L183.272 172.283C180.209 171.82 175.802 170.965 172.166 170.228C170.347 169.859 168.719 169.519 167.546 169.271C166.665 169.085 166.041 168.951 165.783 168.895L158.246 171.217L151.692 158.244C149.089 159.795 146.482 160.516 144.248 160.335C141.872 160.143 139.928 158.926 138.941 156.658C138.506 155.66 139.242 154.688 140.181 154.518C143.109 153.99 146.276 153.193 148.576 150.305ZM153.244 159.222L158.764 170.18L165.725 167.942C166.395 168.087 167.065 168.229 167.735 168.371C168.907 168.618 170.533 168.958 172.349 169.326C175.77 170.02 179.857 170.815 182.858 171.288C182.677 167.224 182.343 164.121 181.612 161.226C180.889 158.363 179.773 155.684 178.012 152.47C176.95 153.442 175.56 154.038 174.079 154.39C172.377 154.796 170.517 154.889 168.804 154.838C167.089 154.786 165.506 154.59 164.352 154.406C163.775 154.314 163.304 154.226 162.977 154.16C162.731 154.11 162.566 154.074 162.497 154.058L162.292 154.011C159.017 153.261 156.282 152.635 153.4 150.705C153.264 150.614 153.108 150.564 152.95 150.562L149.996 150.525C149.736 150.522 149.475 150.651 149.294 150.879C146.768 154.051 143.296 154.89 140.344 155.423C139.854 155.512 139.636 155.955 139.782 156.291C140.62 158.213 142.244 159.25 144.322 159.418C146.422 159.588 148.995 158.865 151.626 157.207C151.787 157.105 152.018 156.9 152.292 156.649C152.545 156.418 152.793 156.178 153.071 155.978C153.278 155.831 153.565 155.879 153.712 156.086C153.859 156.292 153.811 156.579 153.605 156.727C153.357 156.905 153.136 157.123 152.911 157.329C152.814 157.417 152.711 157.512 152.606 157.603C153.164 158.055 153.528 158.331 153.895 158.541C154.339 158.795 154.801 158.958 155.655 159.19C155.9 159.256 156.045 159.508 155.979 159.754C155.912 159.999 155.66 160.144 155.415 160.077C154.543 159.841 153.989 159.654 153.44 159.34C153.374 159.302 153.309 159.263 153.244 159.222Z" fill="#181B2B"/>
<path d="M227.573 37.2989C238.189 38.6736 243.274 51.436 235.742 59.0539C235.618 59.1796 235.492 59.3045 235.365 59.4284C229.598 65.0537 220.934 65.4773 213.157 67.5632C200.656 70.9166 196.439 77.9027 195.143 83.3783C193.812 89.0025 192.427 87.7526 190.012 82.5031C178.459 57.3925 206.324 34.5471 227.573 37.2989Z" fill="url(#paint0_linear_4675_93333)"/>
<path fill-rule="evenodd" clip-rule="evenodd" d="M251.278 106.018C260.397 98.2172 266.178 86.6161 266.178 73.6626C266.178 50.1728 247.167 31.1306 223.716 31.1306C200.265 31.1306 181.254 50.1728 181.254 73.6626C181.254 88.1057 188.18 100.75 199.168 108.438C198.909 112.589 200.706 115.773 203.287 117.863C206.085 120.128 210.223 121.417 215.225 121.668C227.139 121.928 239.645 117.976 250.707 110.513L251.042 116.926C251.058 117.179 251.276 117.372 251.529 117.356C251.782 117.34 251.974 117.122 251.959 116.868L251.278 106.018ZM223.716 115.275C246.66 115.275 265.26 96.6444 265.26 73.6626C265.26 50.6808 246.66 32.0504 223.716 32.0504C200.772 32.0504 182.172 50.6808 182.172 73.6626C182.172 96.6444 200.772 115.275 223.716 115.275Z" fill="#16926F"/>
<path d="M187.642 151.463C187.711 151.707 187.57 151.962 187.326 152.031L180.921 153.853C180.677 153.922 180.423 153.78 180.354 153.536C180.284 153.292 180.426 153.037 180.67 152.968L187.075 151.146C187.319 151.077 187.573 151.219 187.642 151.463Z" fill="#16926F"/>
<path d="M184.751 167.819C184.499 167.789 184.271 167.97 184.242 168.222C184.212 168.474 184.392 168.703 184.644 168.732L193.295 169.745C193.547 169.775 193.775 169.594 193.805 169.342C193.834 169.09 193.654 168.861 193.402 168.832L184.751 167.819Z" fill="#16926F"/>
<path fill-rule="evenodd" clip-rule="evenodd" d="M223.523 238.585C223.675 239.939 223.774 241.222 223.805 242.477C223.36 242.522 222.793 242.572 222.405 242.557C221.949 242.539 221.528 242.484 221.179 242.39C220.824 242.295 220.581 242.17 220.441 242.037C219.727 241.359 219.191 240.309 218.724 239.046C218.415 238.21 218.149 237.323 217.881 236.426C217.744 235.965 217.605 235.501 217.459 235.041C217.039 233.713 216.561 232.418 215.881 231.453C215.258 230.569 214.44 229.93 213.33 229.809L211.484 219.534L211.463 219.486C208.457 212.506 205.578 207.346 203.205 203.095C202.475 201.787 201.793 200.564 201.17 199.402C198.519 194.454 196.941 190.591 197.151 185.666C197.161 185.412 196.965 185.198 196.712 185.187C196.458 185.176 196.244 185.373 196.233 185.627C196.013 190.807 197.69 194.851 200.361 199.837C200.993 201.017 201.681 202.25 202.416 203.566C204.78 207.804 207.621 212.894 210.599 219.801L212.464 230.178C210.607 233.844 208.581 235.632 206.84 237.17L206.839 237.171L206.592 237.389C205.682 238.194 204.83 238.975 204.157 239.956C203.477 240.948 202.991 242.127 202.77 243.728L202.762 243.79L203.387 248.334C203.55 249.518 204.407 250.512 205.585 250.792C212.899 252.531 216.673 251.378 219.196 249.909C219.816 249.548 220.354 249.172 220.836 248.832L220.893 248.791L220.991 248.722C221.371 248.452 221.753 248.182 222.157 247.95C222.582 247.708 223.085 247.584 223.532 247.536C223.186 250.06 222.506 252.724 221.392 255.886L216.638 265.885C215.573 268.125 215.209 270.635 215.593 273.085L216.074 276.162C216.074 276.212 216.082 276.262 216.097 276.309L216.37 278.052C216.607 279.564 217.644 280.911 219.198 281.272C226.324 282.926 235.284 280.52 238.972 271.686C239.216 271.1 239.437 270.487 239.633 269.846C239.896 268.981 240.261 268.168 240.783 267.47L242.712 264.894C243.441 263.921 243.667 262.66 243.322 261.494L242.536 258.835C242.278 257.964 242.216 257.008 242.343 256.101C243.658 246.652 244.094 240.284 243.996 235.857C243.898 231.429 243.265 228.913 242.42 227.189C241.998 226.327 241.529 225.678 241.072 225.101C240.933 224.926 240.799 224.761 240.668 224.601L240.667 224.601C240.358 224.222 240.069 223.868 239.794 223.464C239.046 222.363 238.434 220.919 238.331 217.965L238.331 192.316C238.331 192.062 238.126 191.856 237.872 191.856C237.618 191.856 237.413 192.062 237.413 192.316L237.413 217.973L237.413 217.983L237.413 217.989C237.52 221.088 238.171 222.71 239.035 223.982C239.334 224.421 239.663 224.824 239.982 225.215L239.983 225.216L239.983 225.217L240.043 225.289C240.075 225.328 240.107 225.367 240.138 225.407C240.162 225.436 240.186 225.465 240.21 225.494C240.258 225.554 240.305 225.613 240.353 225.673C240.789 226.223 241.214 226.814 241.596 227.594C242.36 229.153 242.981 231.522 243.078 235.877C243.175 240.233 242.746 246.546 241.433 255.974C241.29 257.003 241.358 258.093 241.655 259.096L241.657 259.101C240.981 261.168 240.154 262.921 239.331 264.093C238.918 264.682 238.522 265.1 238.167 265.343C237.813 265.586 237.554 265.621 237.367 265.565C236.106 265.191 235.008 264.033 233.931 262.46C233.399 261.683 232.888 260.83 232.373 259.959L232.222 259.704L232.221 259.703C231.758 258.92 231.29 258.128 230.808 257.389C229.751 255.771 228.561 254.298 227.066 253.708C225.805 253.21 224.424 253.369 222.872 254.363C224.793 248.324 225.053 243.968 224.435 238.482C224.407 238.23 224.18 238.048 223.928 238.076C223.676 238.105 223.495 238.333 223.523 238.585ZM221.702 247.152C222.276 246.823 222.973 246.637 223.645 246.602C223.759 245.526 223.813 244.468 223.815 243.399C223.355 243.442 222.772 243.492 222.369 243.476C221.867 243.456 221.375 243.395 220.942 243.279C220.715 243.218 220.494 243.14 220.292 243.037C218.269 246.65 214.962 247.969 211.744 248.172C208.846 248.355 205.989 247.638 204.113 246.873L204.297 248.209C204.411 249.034 205.005 249.709 205.797 249.897C212.923 251.592 216.448 250.445 218.734 249.114C219.316 248.775 219.825 248.42 220.307 248.08L220.438 247.987C220.85 247.695 221.263 247.403 221.702 247.152ZM213.218 230.722C214.008 230.804 214.613 231.249 215.131 231.984C215.721 232.821 216.164 233.993 216.584 235.319C216.72 235.748 216.854 236.196 216.989 236.649L216.989 236.65C217.263 237.565 217.544 238.503 217.863 239.366C218.295 240.534 218.823 241.64 219.564 242.454C217.737 245.829 214.72 247.063 211.687 247.254C208.679 247.443 205.694 246.6 203.967 245.808L203.689 243.791C203.895 242.356 204.328 241.331 204.914 240.477C205.515 239.6 206.287 238.886 207.2 238.078C209.593 235.958 211.747 233.586 213.218 230.722ZM217.112 276.853L217.278 277.909C217.467 279.119 218.279 280.114 219.405 280.376C226.223 281.959 234.655 279.641 238.125 271.331C238.357 270.775 238.568 270.19 238.754 269.577C239.039 268.643 239.445 267.725 240.049 266.918L241.978 264.342C242.532 263.602 242.704 262.642 242.442 261.755L242.101 260.605C241.496 262.21 240.799 263.601 240.082 264.622C239.637 265.257 239.167 265.772 238.686 266.102C238.205 266.432 237.657 266.611 237.106 266.447C236.489 266.264 235.923 265.941 235.398 265.521C233.652 272.049 230.605 275.455 227.114 276.908C223.798 278.287 220.184 277.861 217.112 276.853ZM234.632 264.816C232.955 271.475 229.988 274.716 226.762 276.058C223.572 277.386 220.012 276.908 216.951 275.827L216.5 272.943C216.145 270.675 216.482 268.353 217.467 266.281L222.231 256.259C222.238 256.245 222.244 256.23 222.25 256.215C222.273 256.15 222.295 256.085 222.318 256.02L222.364 255.887C224.225 254.305 225.607 254.12 226.73 254.563C227.929 255.037 228.983 256.275 230.039 257.892C230.51 258.613 230.967 259.387 231.432 260.174L231.583 260.428C232.098 261.298 232.623 262.175 233.174 262.98C233.627 263.642 234.109 264.272 234.632 264.816Z" fill="#16926F"/>
<path d="M236.815 155.941C236.912 155.707 236.8 155.438 236.566 155.341C236.332 155.244 236.063 155.355 235.966 155.59L232.847 163.156C232.23 164.652 232.112 166.327 232.606 167.887C232.835 168.61 233.067 169.284 233.32 169.946C233.41 170.183 233.676 170.301 233.912 170.211C234.149 170.12 234.268 169.854 234.177 169.617C233.932 168.975 233.706 168.318 233.481 167.609C233.058 166.272 233.154 164.82 233.695 163.507L236.815 155.941Z" fill="#16926F"/>
<g style="mix-blend-mode:soft-light">
<path d="M127.539 146.248C145.374 146.137 160.931 142.145 169.291 136.295L142.865 169.376C142.834 169.424 142.803 169.473 142.771 169.521C142.861 169.25 142.907 168.975 142.905 168.695C142.885 165.388 136.229 162.748 128.04 162.799C119.851 162.85 113.229 165.572 113.25 168.879C113.252 169.258 113.342 169.629 113.511 169.988C113.511 169.988 93.8061 146.934 84.1387 135.687C92.1117 142.057 108.564 146.365 127.539 146.248Z" fill="#B0EBDB"/>
<path d="M142.446 168.698C142.45 169.359 142.124 170.036 141.435 170.702C140.745 171.369 139.72 171.993 138.414 172.53C135.804 173.603 132.162 174.289 128.111 174.314C124.061 174.339 120.411 173.698 117.788 172.658C116.475 172.137 115.442 171.526 114.744 170.867C114.047 170.21 113.713 169.537 113.709 168.876C113.705 168.215 114.03 167.538 114.719 166.872C115.409 166.205 116.435 165.58 117.741 165.043C120.351 163.971 123.992 163.284 128.043 163.259C132.094 163.234 135.744 163.875 138.367 164.916C139.68 165.436 140.712 166.048 141.411 166.706C142.108 167.364 142.442 168.037 142.446 168.698Z" fill="#B0EBDB"/>
</g>
<path d="M139.594 85.5482C143.27 82.7166 146.197 78.5969 147.875 72.99C148.449 71.0712 148.816 69.0588 149.183 67.0469C149.868 63.2994 150.551 59.5536 152.57 56.4182C152.681 56.2469 152.862 56.2981 153.023 56.4232C159.67 61.6005 164.063 60.4601 172.23 54.4543C169.298 55.0196 166.087 53.9955 162.904 52.9802C158.962 51.7225 155.062 50.4784 151.785 52.2857C148.09 50.0677 144.939 51.0187 141.71 51.9933C139.306 52.7187 136.859 53.4572 134.113 52.9109C138.702 56.5536 141.321 58.3443 146.962 56.9101C146.851 57.0843 146.74 57.2603 146.628 57.4375C142.713 63.634 137.801 71.4108 114.552 63.0123C111.587 61.9412 108.421 61.4451 105.285 61.7617L93.5425 62.9474C89.6736 62.6959 88.2067 64.3285 91.0516 68.5247C95.6271 84.6356 117.813 94.616 133.475 88.8938C134.208 90.072 134.826 91.2468 135.273 92.3941C142.664 95.3576 151.42 95.8726 152.367 93.8995C152.671 93.2667 151.853 92.8779 150.06 92.0263C148.043 91.0678 144.792 89.5231 140.518 86.3847C140.094 86.1125 139.798 85.8343 139.594 85.5482Z" fill="#68DBF4"/>
<path d="M111.499 65.0351C111.706 65.181 111.756 65.4679 111.611 65.6757C111.33 66.0756 111.324 66.2831 111.345 66.3696C111.364 66.4483 111.444 66.5743 111.745 66.7122C112.039 66.8471 112.458 66.9524 112.985 67.0365C113.506 67.1197 114.101 67.1777 114.731 67.2312C114.984 67.2526 115.171 67.4751 115.15 67.7282C115.129 67.9813 114.906 68.1691 114.654 68.1476C114.021 68.094 113.397 68.0337 112.84 67.9448C112.289 67.8567 111.771 67.7359 111.362 67.5483C110.96 67.3635 110.572 67.0702 110.453 66.5902C110.337 66.118 110.522 65.6274 110.859 65.1471C111.005 64.9393 111.291 64.8891 111.499 65.0351Z" fill="#181B2B"/>
<path fill-rule="evenodd" clip-rule="evenodd" d="M133.279 89.4522C128.701 91.0474 123.611 91.3422 118.585 90.5776C116.279 90.2269 113.979 89.6518 111.743 88.8737C111.668 89.5411 111.626 90.1915 111.623 90.8192C105.789 96.2451 97.803 99.8772 96.2111 98.3769C95.7005 97.8958 96.3248 97.2384 97.692 95.7984C99.2307 94.1779 101.711 91.5661 104.573 87.099C104.901 86.6516 105.081 86.2532 105.159 85.884C98.2599 81.9484 92.7109 75.9592 90.6304 68.7215C89.9279 67.6764 89.4702 66.7605 89.2538 65.9689C89.0328 65.1606 89.0528 64.4374 89.3771 63.8465C89.7025 63.2539 90.2842 62.8848 90.9944 62.6806C91.6928 62.4797 92.555 62.4251 93.534 62.486L105.239 61.3041C108.453 60.9795 111.688 61.4889 114.707 62.5796C126.628 66.8856 133.603 66.8831 138.063 65.1225C142.08 63.5366 144.142 60.4989 145.98 57.6017C143.624 58.0574 141.756 57.9091 139.982 57.245C137.97 56.4918 136.113 55.0855 133.828 53.2712C133.662 53.1393 133.607 52.9105 133.696 52.7178C133.785 52.525 133.995 52.4183 134.203 52.4597C136.828 52.9819 139.153 52.2819 141.559 51.5575C141.976 51.432 142.396 51.3057 142.82 51.185C145.602 50.3922 148.501 49.8799 151.797 51.7596C155.212 50.0294 159.12 51.2832 162.563 52.388C162.728 52.4409 162.892 52.4934 163.054 52.5452C164.453 52.9914 165.835 53.4322 167.2 53.7414C168.933 54.1341 170.591 54.3019 172.143 54.0026C172.354 53.9619 172.565 54.0731 172.651 54.2701C172.737 54.4672 172.675 54.6976 172.502 54.8249C168.416 57.8293 165.193 59.6829 162.116 60.0882C159.027 60.4953 156.17 59.4356 152.835 56.859C151.412 59.1495 150.687 61.78 150.125 64.543C149.954 65.383 149.798 66.2395 149.641 67.1012C149.627 67.1727 149.617 67.2438 149.607 67.3147C149.587 67.456 149.567 67.5965 149.524 67.7359C149.191 69.5522 148.835 71.3809 148.315 73.1219C146.669 78.6233 143.831 82.7304 140.259 85.6097C140.394 85.7367 140.561 85.866 140.765 85.9974L140.777 86.0052L140.789 86.0136C144.792 88.9532 147.887 90.4814 149.908 91.4449C150.029 91.5023 150.146 91.558 150.26 91.6123C151.089 92.0058 151.752 92.3204 152.18 92.6101C152.423 92.7747 152.654 92.9713 152.783 93.2241C152.931 93.5146 152.916 93.8176 152.781 94.0986C152.6 94.4739 152.259 94.7425 151.865 94.9356C151.468 95.1307 150.973 95.2708 150.413 95.3665C149.292 95.5581 147.837 95.5841 146.201 95.4563C142.924 95.2002 138.842 94.3204 135.102 92.8208L134.917 92.7468L134.845 92.5611C134.449 91.5453 133.913 90.5032 133.279 89.4522ZM147.163 56.4965C147.229 56.529 147.288 56.5777 147.334 56.6404C147.444 56.7932 147.45 56.9979 147.349 57.1569C147.236 57.3353 147.122 57.5161 147.006 57.6987L147.006 57.6996C145.112 60.6988 142.902 64.2006 138.399 65.9781C133.628 67.8618 126.39 67.7775 114.396 63.4448C111.485 62.3934 108.389 61.9104 105.331 62.2192L97.0665 63.0537C101.491 64.0968 107.357 66.46 113.37 69.6567C114.264 70.1318 115.305 70.2383 116.262 69.9368L117.552 69.5305C117.794 69.4543 118.052 69.589 118.128 69.8312C118.204 70.0735 118.069 70.3317 117.827 70.4079L116.538 70.8142C115.338 71.192 114.043 71.0557 112.939 70.4691C105.182 66.3455 97.7924 63.6844 93.5129 63.4062C92.5733 63.3451 91.8146 63.4016 91.2478 63.5646C90.6838 63.7268 90.3512 63.981 90.1818 64.2896C90.0114 64.6 89.9562 65.0559 90.1394 65.726C90.323 66.3975 90.7349 67.2388 91.4315 68.2662C91.459 68.3068 91.4798 68.3516 91.4932 68.3988C94.6662 79.5713 106.524 87.813 118.723 89.6683C122.322 90.2158 125.935 90.2037 129.347 89.5519C129.21 89.1781 129.056 88.7985 128.889 88.4144C111.266 89.9626 98.7512 78.2963 94.8111 69.2893C94.4941 68.5647 93.9536 67.9797 93.2596 67.6759L92.4641 67.3276C92.2317 67.2259 92.1257 66.9548 92.2272 66.7221C92.3288 66.4893 92.5995 66.3831 92.8318 66.4849L93.6273 66.8331C94.5617 67.2422 95.2558 68.0144 95.6521 68.9202C99.4411 77.5816 111.477 88.8542 128.48 87.5231C128.152 86.8413 127.786 86.1493 127.395 85.4545C126.795 85.4211 126.193 85.3653 125.59 85.2881C115.666 84.0189 105.413 76.9578 99.556 68.1116C99.1883 67.5563 98.66 67.1378 98.042 66.9357L97.7823 66.8508C97.5413 66.772 97.4097 66.5124 97.4884 66.2709C97.5671 66.0295 97.8263 65.8977 98.0673 65.9765L98.327 66.0614C99.1558 66.3325 99.8477 66.8881 100.321 67.6033C106.056 76.264 116.088 83.1457 125.706 84.3758C126.085 84.4243 126.464 84.4641 126.842 84.4948C126.47 83.8648 126.082 83.2355 125.688 82.6126C125 81.524 124.282 80.4407 123.601 79.4127L123.601 79.412C122.821 78.2342 122.089 77.1291 121.504 76.1722C120.95 75.2663 120.499 74.4484 120.236 73.7731C120.105 73.4357 120.011 73.1119 119.983 72.8167C119.955 72.5234 119.988 72.2106 120.165 71.9459C120.349 71.6706 120.637 71.526 120.953 71.4698C121.262 71.4152 121.626 71.4375 122.036 71.5142C122.221 71.5487 122.421 71.5954 122.637 71.6547C123.413 71.7948 124.411 72.0659 125.653 72.4722C130.902 74.1883 134.215 75.7164 136.294 77.1032C138.379 78.4946 139.263 79.7708 139.58 80.9872C139.601 81.068 139.62 81.1481 139.636 81.2274C143.404 78.5563 146.579 74.144 148.63 67.5194C148.662 67.3441 148.694 67.1685 148.726 66.9926L148.727 66.9919C148.886 66.1186 149.046 65.2394 149.225 64.3594C149.809 61.4918 150.585 58.6526 152.184 56.1688C152.25 56.0676 152.341 55.9764 152.462 55.9166C152.583 55.8567 152.707 55.8415 152.818 55.8514C153.024 55.8697 153.194 55.9739 153.305 56.0601C156.576 58.608 159.215 59.5429 161.996 59.1764C164.493 58.8475 167.172 57.4651 170.58 55.0747C169.398 55.0871 168.196 54.9099 166.997 54.6385C165.59 54.3197 164.158 53.8629 162.754 53.415C162.519 53.3398 162.281 53.2624 162.04 53.1843C158.828 52.1425 155.156 50.9513 152.007 52.6884C151.864 52.7674 151.69 52.7642 151.55 52.6801C151.496 52.6478 151.442 52.6162 151.388 52.5853C149.614 53.0141 147.914 54.8593 147.163 56.4965ZM139.742 84.8454C143.02 82.1845 145.658 78.4306 147.263 73.4144C145.238 77.4135 142.664 80.3181 139.732 82.2767C139.732 82.4034 139.728 82.5272 139.722 82.6479C139.711 82.8591 139.694 83.0662 139.677 83.2601C139.656 83.5061 139.635 83.7522 139.631 83.9992C139.626 84.3156 139.654 84.591 139.742 84.8454ZM130.391 83.8764C132.539 86.509 134.532 89.3321 135.626 92.0396C139.227 93.4594 143.139 94.2944 146.272 94.5393C147.867 94.664 149.24 94.634 150.258 94.4599C150.768 94.3727 151.17 94.2524 151.462 94.1096C151.757 93.9648 151.897 93.8178 151.953 93.6999C151.976 93.6521 151.97 93.6466 151.966 93.6438L151.966 93.6431L151.965 93.6425C151.944 93.6015 151.873 93.5121 151.666 93.3723C151.3 93.1247 150.71 92.8442 149.857 92.4386L149.844 92.4323C149.738 92.382 149.628 92.3298 149.514 92.2754C147.469 91.3004 144.32 89.7457 140.257 86.7637C139.635 86.3618 139.233 85.9248 138.995 85.4383C138.757 84.9509 138.706 84.457 138.713 83.9858C138.717 83.7162 138.74 83.4475 138.763 83.179C138.779 82.9849 138.795 82.7955 138.805 82.6012C138.828 82.1452 138.815 81.6919 138.692 81.2195C138.45 80.2927 137.755 79.183 135.785 77.8687C133.808 76.5499 130.587 75.0526 125.368 73.3465C123.647 72.7839 122.488 72.5135 121.767 72.4681C121.401 72.445 121.208 72.4848 121.121 72.5253C121.099 72.5356 121.089 72.5435 121.085 72.547C121.084 72.5503 121.083 72.5574 121.082 72.5701C121.076 72.6414 121.101 72.795 121.228 73.0589C121.349 73.3119 121.541 73.6193 121.801 73.9807C122.32 74.7031 123.075 75.5899 123.985 76.6113C124.479 77.1659 125.017 77.7588 125.583 78.3825C127.089 80.0412 128.793 81.9181 130.391 83.8764Z" fill="#181B2B"/>
<path d="M141.84 52.4345C139.917 53.0161 137.887 53.6301 135.676 53.553C137.235 54.7516 138.562 55.6583 139.925 56.2336C141.62 56.9489 143.392 57.1585 145.76 56.7075C146.009 56.6601 146.249 56.8239 146.297 57.0734C146.344 57.3229 146.181 57.5636 145.932 57.6111C143.406 58.092 141.449 57.8745 139.569 57.0812C137.715 56.2986 135.957 54.9627 133.827 53.2714C133.661 53.1395 133.606 52.9108 133.695 52.718C133.784 52.5252 133.993 52.4186 134.201 52.4599C136.829 52.9826 139.164 52.2793 141.579 51.5518C141.854 51.4689 142.131 51.3857 142.408 51.304C145.097 50.513 147.899 49.8809 151.059 51.3757C151.288 51.4842 151.386 51.7583 151.278 51.9879C151.17 52.2176 150.896 52.3158 150.667 52.2074C147.835 50.8677 145.325 51.4045 142.667 52.1865C142.393 52.267 142.118 52.3505 141.84 52.4345Z" fill="#68DBF4"/>
<path d="M104.577 86.1871C104.679 85.9542 104.949 85.8476 105.182 85.949C105.414 86.0504 105.521 86.3213 105.419 86.5542C105.306 86.8155 105.15 87.0824 104.949 87.3587C102.228 91.6039 99.8472 94.188 98.2884 95.834C98.199 95.9284 98.1129 96.0191 98.0301 96.1064L98.0269 96.1097C97.3761 96.7955 96.9262 97.2696 96.6736 97.6322C96.5308 97.8372 96.4959 97.9465 96.4911 97.9922C96.491 97.9926 96.4909 97.9929 96.4907 97.9932C96.4906 97.9934 96.4905 97.9936 96.4904 97.9939C96.4884 97.9977 96.4844 98.0051 96.523 98.0414C96.6181 98.1311 96.8013 98.218 97.1287 98.2468C97.4517 98.2753 97.8701 98.2428 98.3772 98.1406C99.3901 97.9365 100.682 97.4703 102.126 96.7798C104.962 95.4236 108.312 93.2365 111.164 90.6153C111.17 90.2533 111.188 89.8853 111.218 89.5122C111.238 89.259 111.459 89.07 111.712 89.09C111.964 89.11 112.153 89.3315 112.133 89.5847C112.1 90.0067 112.082 90.4192 112.08 90.8207L112.079 91.02L111.933 91.1557C108.981 93.9012 105.487 96.1917 102.521 97.6098C101.04 98.3181 99.6728 98.8177 98.5583 99.0423C98.0017 99.1544 97.4893 99.2019 97.0482 99.163C96.6114 99.1245 96.1967 98.9967 95.8938 98.7113C95.6671 98.4977 95.5438 98.2205 95.5779 97.8961C95.6075 97.6137 95.7525 97.3472 95.9205 97.106C96.2161 96.6816 96.7216 96.1494 97.3538 95.4839L97.3577 95.4798C97.4436 95.3894 97.5318 95.2965 97.6222 95.201C99.1627 93.5743 101.503 91.0341 104.184 86.8501L104.192 86.838L104.2 86.8264C104.372 86.5917 104.494 86.3798 104.577 86.1871Z" fill="#68DBF4"/>
<g style="mix-blend-mode:color-dodge" filter="url(#filter1_f_4675_93333)">
<path d="M147.569 69.6459C147.643 80.5809 136.09 89.5107 121.764 89.5911C107.438 89.6716 95.764 80.8722 95.6895 69.9371C95.6151 59.0021 107.168 50.0723 121.494 49.9918C135.82 49.9114 147.494 58.7108 147.569 69.6459Z" fill="#18C0E4"/>
</g>
<g style="mix-blend-mode:color-dodge" filter="url(#filter2_f_4675_93333)">
<path d="M459.454 230.763C459.454 297.569 401.476 351.727 329.957 351.727C258.438 351.727 200.461 297.569 200.461 230.763C200.461 163.956 258.438 109.798 329.957 109.798C401.476 109.798 459.454 163.956 459.454 230.763Z" fill="#1FAC85"/>
</g>
</g>
<defs>
<filter id="filter0_f_4675_93333" x="103.011" y="124.769" width="13.6919" height="11.4121" filterUnits="userSpaceOnUse" color-interpolation-filters="sRGB">
<feFlood flood-opacity="0" result="BackgroundImageFix"/>
<feBlend mode="normal" in="SourceGraphic" in2="BackgroundImageFix" result="shape"/>
<feGaussianBlur stdDeviation="1.70813" result="effect1_foregroundBlur_4675_93333"/>
</filter>
<filter id="filter1_f_4675_93333" x="49.7779" y="4.07966" width="143.702" height="131.424" filterUnits="userSpaceOnUse" color-interpolation-filters="sRGB">
<feFlood flood-opacity="0" result="BackgroundImageFix"/>
<feBlend mode="normal" in="SourceGraphic" in2="BackgroundImageFix" result="shape"/>
<feGaussianBlur stdDeviation="22.9558" result="effect1_foregroundBlur_4675_93333"/>
</filter>
<filter id="filter2_f_4675_93333" x="36.0294" y="-54.6337" width="587.855" height="570.793" filterUnits="userSpaceOnUse" color-interpolation-filters="sRGB">
<feFlood flood-opacity="0" result="BackgroundImageFix"/>
<feBlend mode="normal" in="SourceGraphic" in2="BackgroundImageFix" result="shape"/>
<feGaussianBlur stdDeviation="82.2158" result="effect1_foregroundBlur_4675_93333"/>
</filter>
<linearGradient id="paint0_linear_4675_93333" x1="213.318" y1="37.0732" x2="213.318" y2="87.0569" gradientUnits="userSpaceOnUse">
<stop stop-color="#6EECF9"/>
<stop offset="1" stop-color="#8AFFCE" stop-opacity="0"/>
</linearGradient>
<clipPath id="clip0_4675_93333">
<rect width="360" height="372" fill="white"/>
</clipPath>
</defs>
</svg>
