<svg width="725" height="690" viewBox="0 0 725 690" fill="none" xmlns="http://www.w3.org/2000/svg">
  <g clip-path="url(#clip0_4773_92903)">
    <circle cx="721.5" cy="1025.28" r="691.5" fill="#1D223E" />
    <path d="M324.981 309.207L323 305.117C322.975 305.126 322.949 305.136 322.924 305.145L324.981 309.207Z"
      fill="#173D40" />
    <path
      d="M321.244 305.751C311.553 309.153 306.813 309.188 303.184 306.518C301.944 305.606 300.627 304.752 299.23 304.175L234.963 306.665C230.662 306.832 227.268 310.381 227.295 314.685L227.487 345.649C227.515 350.321 231.535 353.968 236.188 353.544L328.922 345.087C334.532 344.575 337.859 338.566 335.314 333.54L321.244 305.751Z"
      fill="#173D40" />
    <path fill-rule="evenodd" clip-rule="evenodd"
      d="M300.035 304.143L234.963 306.665C230.662 306.832 227.269 310.381 227.295 314.685L227.487 345.649C227.516 350.321 231.535 353.968 236.188 353.544L328.922 345.087C334.533 344.576 337.859 338.566 335.314 333.54L321.21 305.685L322.792 304.884L336.896 332.739C340.006 338.882 335.94 346.227 329.083 346.853L236.349 355.309C230.662 355.828 225.749 351.37 225.714 345.66L225.523 314.696C225.49 309.435 229.637 305.097 234.895 304.894L299.966 302.372L300.035 304.143Z"
      fill="#8AFFCE" />
    <path opacity="0.3"
      d="M369.425 243.627C369.554 264.431 327.824 281.554 276.219 281.873C224.614 282.192 182.676 265.586 182.547 244.782C182.419 223.978 224.148 206.854 275.753 206.535C327.358 206.216 369.296 222.823 369.425 243.627Z"
      fill="#14C393" />
    <path fill-rule="evenodd" clip-rule="evenodd"
      d="M276.223 281.873C327.828 281.554 369.557 264.431 369.429 243.626C369.3 222.822 327.362 206.216 275.757 206.535C224.152 206.854 182.422 223.978 182.551 244.782C182.68 265.586 224.618 282.192 276.223 281.873ZM360.818 256.926C365.276 252.624 367.5 248.134 367.472 243.639C367.444 239.143 365.165 234.681 360.654 230.434C356.138 226.183 349.514 222.281 341.176 218.979C324.511 212.38 301.385 208.334 275.769 208.492C250.154 208.65 227.079 212.983 210.497 219.787C202.2 223.191 195.625 227.176 191.162 231.482C186.704 235.784 184.48 240.275 184.508 244.77C184.536 249.265 186.815 253.728 191.326 257.974C195.842 262.225 202.466 266.128 210.804 269.429C227.469 276.028 250.595 280.075 276.211 279.916C290.205 279.83 303.441 278.498 315.274 276.197L307.073 267.676C297.757 269.591 287.262 270.699 276.155 270.768C237.519 271.006 206.12 258.573 206.024 242.998C205.927 227.422 237.17 214.602 275.806 214.363C314.442 214.124 345.841 226.557 345.937 242.133C346.004 252.901 331.092 262.352 309.113 267.24L317.337 275.783C326.342 273.921 334.49 271.491 341.483 268.621C349.779 265.217 356.355 261.233 360.818 256.926ZM308.318 266.413C314.58 265.051 320.268 263.32 325.199 261.296C331.445 258.733 336.428 255.721 339.828 252.44C343.226 249.161 344.981 245.68 344.959 242.139C344.937 238.597 343.14 235.138 339.701 231.901C336.261 228.662 331.241 225.712 324.964 223.227C312.416 218.258 295.037 215.222 275.812 215.341C256.588 215.46 239.248 218.71 226.762 223.834C220.516 226.397 215.533 229.409 212.133 232.69C208.735 235.969 206.98 239.45 207.002 242.992C207.024 246.533 208.822 249.992 212.26 253.229C215.701 256.468 220.72 259.418 226.997 261.903C239.545 266.872 256.924 269.908 276.149 269.789C286.961 269.722 297.178 268.665 306.269 266.841L297.438 257.665C291.114 258.91 284.042 259.628 276.575 259.674C249.556 259.841 227.599 251.147 227.532 240.254C227.465 229.362 249.313 220.397 276.331 220.23C303.349 220.063 325.306 228.757 325.374 239.65C325.42 247.202 314.931 253.828 299.486 257.237L308.318 266.413ZM298.689 256.409C303.177 255.45 307.246 254.22 310.76 252.779C315.107 250.995 318.555 248.906 320.897 246.646C323.237 244.388 324.41 242.026 324.395 239.656C324.381 237.285 323.179 234.938 320.811 232.709C318.441 230.478 314.967 228.432 310.599 226.702C301.867 223.245 289.753 221.125 276.337 221.208C262.921 221.291 250.834 223.56 242.146 227.126C237.799 228.909 234.35 230.998 232.008 233.258C229.669 235.516 228.496 237.878 228.51 240.248C228.525 242.619 229.727 244.966 232.094 247.195C234.464 249.426 237.938 251.472 242.307 253.202C251.039 256.659 263.153 258.779 276.569 258.696C283.741 258.651 290.533 257.982 296.629 256.824L288.321 248.192C284.593 248.925 280.424 249.348 276.023 249.375C260.082 249.474 247.127 244.344 247.087 237.918C247.048 231.492 259.938 226.202 275.879 226.104C291.82 226.005 304.774 231.135 304.814 237.561C304.841 241.883 299.02 245.69 290.356 247.751L298.689 256.409ZM289.566 246.929C291.963 246.388 294.142 245.715 296.04 244.936C298.576 243.895 300.561 242.687 301.894 241.4C303.225 240.116 303.843 238.821 303.836 237.567C303.828 236.313 303.194 235.026 301.847 233.758C300.498 232.488 298.498 231.305 295.949 230.295C290.856 228.278 283.762 227.033 275.885 227.082C268.008 227.131 260.93 228.463 255.862 230.543C253.325 231.584 251.34 232.792 250.007 234.079C248.676 235.363 248.058 236.658 248.066 237.912C248.074 239.166 248.708 240.453 250.054 241.721C251.403 242.991 253.403 244.174 255.952 245.184C261.046 247.201 268.14 248.446 276.017 248.397C280.122 248.372 284.011 247.997 287.511 247.351L282.098 241.727C280.237 242.067 278.179 242.262 276.016 242.275C267.619 242.327 260.795 239.625 260.774 236.24C260.753 232.855 267.543 230.069 275.94 230.017C284.336 229.965 291.16 232.667 291.181 236.052C291.195 238.234 288.379 240.167 284.128 241.279L289.566 246.929ZM283.345 240.466C284.467 240.199 285.488 239.876 286.384 239.508C287.687 238.973 288.676 238.364 289.322 237.741C289.965 237.12 290.206 236.552 290.203 236.058C290.2 235.565 289.952 234.999 289.301 234.386C288.647 233.771 287.651 233.174 286.341 232.655C283.726 231.62 280.051 230.97 275.946 230.995C271.841 231.021 268.174 231.716 265.572 232.784C264.268 233.319 263.279 233.928 262.633 234.551C261.99 235.172 261.749 235.741 261.752 236.234C261.756 236.727 262.003 237.293 262.654 237.906C263.308 238.521 264.304 239.118 265.614 239.637C268.229 240.672 271.905 241.322 276.009 241.297C278.68 241.28 281.164 240.98 283.291 240.479L283.326 240.446L283.345 240.466Z"
      fill="#8AFFCE" />
    <path fill-rule="evenodd" clip-rule="evenodd"
      d="M303.05 329.006C304.38 327.722 305.009 326.417 305.001 325.143C304.993 323.869 304.348 322.572 303.002 321.305C301.654 320.036 299.66 318.857 297.126 317.854C292.063 315.848 285.016 314.613 277.196 314.661C269.375 314.709 262.345 316.032 257.306 318.1C254.785 319.134 252.805 320.338 251.473 321.624C250.143 322.907 249.514 324.213 249.522 325.486C249.53 326.76 250.175 328.057 251.521 329.324C252.869 330.594 254.863 331.773 257.397 332.776C262.46 334.781 269.507 336.017 277.327 335.969C285.148 335.92 292.178 334.597 297.217 332.53C299.739 331.495 301.718 330.292 303.05 329.006ZM277.333 336.855C293.142 336.757 305.927 331.511 305.887 325.138C305.848 318.764 293 313.677 277.19 313.775C261.381 313.872 248.596 319.118 248.636 325.492C248.675 331.865 261.523 336.953 277.333 336.855Z"
      fill="#8AFFCE" />
    <path
      d="M248.706 251.434C248.722 253.871 245.77 255.865 242.114 255.888C238.458 255.911 235.482 253.953 235.467 251.516C235.452 249.078 238.403 247.084 242.059 247.062C245.715 247.039 248.691 248.997 248.706 251.434Z"
      fill="#FF6363" />
    <g style="mix-blend-mode:hard-light" filter="url(#filter0_f_4773_92903)">
      <path
        d="M248.706 251.434C248.722 253.871 245.77 255.865 242.114 255.888C238.458 255.911 235.482 253.953 235.467 251.516C235.452 249.078 238.403 247.084 242.059 247.062C245.715 247.039 248.691 248.997 248.706 251.434Z"
        fill="#FF6363" />
    </g>
    <path
      d="M526 733.284C529.5 665.284 475.643 551.923 449.052 539.071L424.234 480.572L470.324 459.746C539.016 452.652 690 477.784 756.5 562.285L740 733.284H526Z"
      fill="#181B2B" />
    <path
      d="M514.914 216.201C496.069 228.881 488.181 229.967 459.171 233.96L457.817 234.146C424.015 238.324 411.79 222.696 414.219 208.67C414.003 208.515 413.787 208.359 413.572 208.202C413.244 208.367 412.959 208.61 412.751 208.925C411.46 210.883 410.564 213.256 410.077 216.028C399.165 212.412 382.705 225.404 389.85 249.419C395.543 238.336 402.64 228.264 409.675 219.87C409.27 229.708 413.006 243.46 421.345 260.654C421.713 261.412 422.455 261.933 423.295 262.008C440.069 263.502 455.257 260.905 467.62 258.791C470.132 258.361 472.527 257.951 474.796 257.6C475.647 257.468 476.37 256.899 476.712 256.108C483.937 239.418 493.33 232.896 511.84 230.5C487.182 245.916 483.04 271.578 482.714 292.745C482.687 294.525 483.844 296.109 485.567 296.56C506.147 301.946 529.663 296.761 544.968 284.188C546.076 283.277 546.558 281.813 546.26 280.409C540.311 252.337 527.794 236.126 518.058 229.285C517.299 228.752 516.382 228.552 515.493 228.673C515.596 228.385 515.647 228.073 515.633 227.75L514.914 216.201Z"
      fill="#165E55" />
    <path
      d="M406.045 323.654C406.007 318.373 405.967 312.756 405.315 306.446C420.302 304.333 433.626 310.631 446.802 327.948C447.298 327.605 447.782 327.269 448.256 326.939C457.114 320.776 462.505 317.026 477.798 318.976L477.926 318.668C479.093 324.479 480.974 329.377 483.76 334.528C486.197 337.019 488.272 338.753 491.607 340.951C492.153 341.311 492.847 341.363 493.444 341.096L519.519 329.45C512.732 341.593 519.963 357.897 531.928 364.309C514.667 368.536 505.768 368.866 489.219 366.565V420.119C489.492 428.03 491.635 430.65 493.955 433.485C498.482 439.019 503.683 445.375 496.972 493.482C496.712 495.348 496.837 497.32 497.372 499.127L498.891 504.251C499.477 506.23 499.093 508.369 497.854 510.02L494.13 514.986C493.043 516.435 492.299 518.105 491.77 519.838C491.402 521.047 490.985 522.201 490.525 523.302C483.615 539.824 466.828 544.375 453.367 541.255C450.78 540.656 448.996 538.399 448.584 535.775L447.083 526.203C446.37 521.656 447.047 517 449.026 512.845L458.223 493.53C464.282 476.387 463.785 466.698 460.907 449.483C457.565 443.037 454.25 436.998 451.127 431.308L451.127 431.307C440.27 411.527 431.724 395.957 432.324 382.094L430.898 380.559C406.275 355.937 406.174 341.766 406.045 323.654Z"
      fill="#165E55" />
    <path
      d="M326.639 289.727C332.826 293.865 337.155 295.175 343.841 296.048C343.841 296.048 366.021 301.253 373.862 292.402C381.379 305.813 383.27 314.397 383.947 331.177C372.172 329.401 349.987 324.603 349.987 324.603L336.488 329.007L323.193 303.746C312.818 310.275 302.567 309.66 299.044 301.585C298.483 300.299 299.403 298.935 300.784 298.686C306.459 297.663 312.867 296.087 317.526 290.247C318.028 289.617 318.78 289.221 319.586 289.231L325.288 289.304C325.77 289.31 326.238 289.459 326.639 289.727Z"
      fill="#165E55" />
    <path
      d="M409.677 219.87C401.154 230.038 392.542 242.67 386.443 256.577C387.736 276.778 392.969 294.914 401.533 307.149C404.377 306.497 407.159 306.13 409.889 306.064C411.13 306.034 412.36 306.066 413.58 306.162C425.294 307.082 436.098 313.877 446.804 327.948C447.299 327.605 447.783 327.268 448.257 326.939C455.592 321.835 460.55 318.386 470.723 318.459C470.915 318.46 471.109 318.463 471.304 318.467C473.261 318.506 475.409 318.671 477.799 318.976L487.006 296.918C486.525 296.804 486.046 296.685 485.569 296.56C483.846 296.109 482.689 294.525 482.716 292.745C483.042 271.578 487.184 245.916 511.842 230.5C493.332 232.896 483.939 239.418 476.714 256.108C476.372 256.899 475.649 257.468 474.798 257.6C472.529 257.951 470.134 258.361 467.622 258.791C455.259 260.905 440.071 263.502 423.297 262.008C422.457 261.933 421.715 261.412 421.347 260.654C413.008 243.46 409.272 229.707 409.677 219.87Z"
      fill="#16926F" />
    <path
      d="M505.328 298.612C511.991 313.001 516.588 320.573 523.939 328.356L518.978 330.491C513.526 341.725 519.426 356.067 529.719 362.977C540.151 360.516 548.664 356.188 555.696 349.156C557.632 324.372 552.906 309.016 543.447 285.393C533.068 293.32 519.314 298.025 505.328 298.612Z"
      fill="#16926F" />
    <path
      d="M521.435 281.866C514.453 281.866 499.412 271.793 499.412 261.882C499.412 251.972 510.374 238.228 517.357 238.228C533.908 238.228 536.203 281.866 521.435 281.866Z"
      fill="#16926F" />
    <path
      d="M490.938 344.994C491.26 344.51 491.129 343.856 490.645 343.533C490.161 343.21 489.507 343.341 489.184 343.825C486.142 348.389 484.203 355.324 484.159 361.855C484.156 362.437 484.624 362.912 485.206 362.916C485.788 362.92 486.263 362.451 486.267 361.869C486.308 355.671 488.163 349.157 490.938 344.994Z"
      fill="#181B2B" />
    <path fill-rule="evenodd" clip-rule="evenodd"
      d="M515 204.285C532.343 189.254 543.866 166.726 543.866 141.975C543.866 96.7016 507.165 60.0001 461.891 60.0001C416.617 60.0001 379.916 96.7016 379.916 141.975C379.916 168.835 392.834 192.678 412.797 207.629C412.459 207.894 412.157 208.214 412.01 208.437C410.797 210.276 409.925 212.44 409.391 214.91C409.337 214.897 409.283 214.884 409.228 214.872C404.985 213.899 400.207 215.117 396.212 218.152C389.188 223.49 384.578 234.392 388.9 249.328C387.748 251.586 386.654 253.886 385.63 256.221L385.543 256.419L385.557 256.634C386.856 276.93 392.115 295.243 400.805 307.657L401.147 308.146L401.729 308.013C402.668 307.798 403.6 307.614 404.525 307.463C404.946 311.899 405.072 315.997 405.123 319.893C405.14 321.159 405.149 322.406 405.158 323.639C405.195 328.855 405.23 333.806 405.855 338.765C406.479 343.723 407.691 348.686 410.054 353.988C408.223 368.083 413.366 377.284 421.532 391.894C426.11 400.084 431.639 409.976 437.422 423.382L441.093 443.774C437.394 451.172 433.323 454.76 429.901 457.776C426.154 461.077 423.185 463.694 422.333 469.875L423.784 480.398C423.894 481.19 424.472 481.845 425.244 482.046C444.275 487.014 451.169 482.149 455.99 478.748C457.999 477.33 459.648 476.167 461.664 476.074C461.048 481.233 459.709 486.654 457.402 493.191L448.224 512.464C446.168 516.78 445.465 521.617 446.206 526.34L447.707 535.913C448.165 538.827 450.166 541.423 453.166 542.119C466.924 545.308 484.221 540.671 491.341 523.644C491.813 522.515 492.24 521.333 492.617 520.097C493.125 518.43 493.83 516.862 494.838 515.517L498.562 510.552C499.969 508.677 500.405 506.247 499.739 503.999L498.221 498.875C497.723 497.196 497.605 495.353 497.848 493.605C500.389 475.394 501.23 463.12 501.04 454.587C500.851 446.053 499.131 441.607 497.5 438.285C495.735 434.69 492.5 431.785 490.5 427.785C489.88 426.013 490.217 423.353 490.104 420.104V367.804C501.918 369.349 516.489 369.658 532.642 365.326C533.102 365.203 533.421 364.788 533.423 364.313C533.426 363.674 532.917 363.377 532.38 363.215C541.832 360.64 549.711 356.392 556.321 349.782C556.47 349.633 556.561 349.435 556.578 349.225C558.512 324.459 553.827 309 544.516 285.685C544.858 285.418 545.195 285.147 545.529 284.873C546.905 283.743 547.489 281.938 547.126 280.225C541.141 251.985 528.525 235.557 518.566 228.56C517.943 228.122 517.24 227.866 516.52 227.783L515 204.285ZM513.5 205.285C499.359 216.882 481.607 223.95 461.891 223.95C444.281 223.95 427.967 218.397 414.606 208.946C414.255 216.798 417.132 222.773 422.311 226.959C427.713 231.326 435.702 233.809 445.358 234.294C464.665 235.264 490.289 228.225 514.028 213.008C514.066 212.984 514.105 212.963 514.145 212.945L513.5 205.285ZM529.695 362.072C539.806 359.66 548.031 355.474 554.835 348.759C556.66 324.743 552.164 309.667 543.05 286.795C532.973 294.169 519.974 298.629 506.684 299.43C513.034 313.011 517.528 320.279 524.582 327.747C525.34 328.55 526.129 329.356 526.953 330.173C527.301 330.518 527.304 331.079 526.959 331.427C526.615 331.775 526.054 331.777 525.706 331.433C525.022 330.755 524.361 330.084 523.72 329.414L519.627 331.175C517.29 336.667 517.638 343.527 519.899 349.603C521.941 355.089 525.46 359.723 529.695 362.072ZM520.559 328.845L522.431 328.039C515.57 320.568 511.058 313.042 504.77 299.52C498.984 299.715 493.167 299.212 487.534 297.95L478.848 318.758C479.949 324.114 481.675 328.692 484.199 333.471C486.734 336.095 488.782 337.827 492.171 340.063C492.415 340.223 492.732 340.248 493.009 340.12L519.075 328.051C519.489 327.859 519.98 327.956 520.29 328.291C520.437 328.449 520.527 328.642 520.559 328.845ZM409.077 216.659C408.996 216.638 408.914 216.618 408.832 216.6C405.188 215.764 400.937 216.789 397.285 219.564C391.236 224.16 386.831 233.612 390.113 247.008C395.595 236.75 402.22 227.413 408.802 219.532C408.852 218.538 408.943 217.579 409.077 216.659ZM406.282 307.214C406.716 311.749 406.843 315.924 406.896 319.869C406.913 321.162 406.922 322.427 406.931 323.671C406.968 328.877 407.003 333.698 407.613 338.544C409.111 350.435 414.089 362.497 431.524 379.933L431.536 379.944L431.592 380.005C432.119 375.183 433.785 370.542 436.878 365.995C437.1 365.668 437.329 365.342 437.566 365.017C436.637 364.248 436.137 363.281 435.966 362.257C435.768 361.077 436.015 359.892 436.39 358.908C436.73 358.017 437.502 357.461 438.302 357.253L441.236 356.487L431.092 357.084C430.536 357.117 429.823 357.009 429.251 356.503C428.19 355.565 427.751 354.249 427.642 353.035C427.533 351.819 427.741 350.584 428.108 349.637C428.471 348.699 429.332 348.233 430.094 348.099L434.876 347.255C434.486 346.823 434.186 346.326 434 345.772C433.5 344.286 433.91 342.66 435.12 341.207C435.469 340.788 435.924 340.521 436.369 340.372C443.245 338.071 447.966 336.655 452.217 335.695C452.511 335.628 452.808 335.609 453.1 335.631C453.633 335.671 454.19 335.707 454.761 335.741C454.444 335.058 454.168 334.308 453.983 333.524C453.622 331.996 453.586 330.251 454.377 328.64C455.088 327.191 456.761 327.077 457.848 327.546C460.296 328.603 462.353 329.216 464.926 329.51C463.923 326.782 462.141 324.056 459.203 321.39C455.398 322.968 452.018 325.352 448.661 327.72C447.977 328.203 447.294 328.685 446.609 329.159L446.096 328.485C439.015 319.179 431.943 313.151 424.658 309.902C418.767 307.275 412.691 306.445 406.282 307.214ZM476.753 368.501C486.939 411.493 482.327 467.205 464.382 454.344C463.486 452.558 462.588 450.802 461.693 449.075C458.438 442.798 455.21 436.908 452.164 431.358L451.905 430.886C448.954 425.509 446.18 420.455 443.714 415.664C438.632 405.788 434.906 397.111 433.644 389.143C432.39 381.22 433.575 374.004 438.343 366.992C438.614 366.594 438.895 366.198 439.189 365.801C444.604 366.216 449.79 365.539 454.204 364.962C454.934 364.867 455.643 364.774 456.329 364.69L443.371 375.684C442.882 376.1 442.492 376.697 442.392 377.416C442.178 378.951 442.357 380.51 443.235 381.681C444.153 382.904 445.651 383.466 447.539 383.34C448.041 383.307 448.492 383.127 448.862 382.886L467.596 370.709C467.682 370.654 467.777 370.613 467.876 370.59L476.753 368.501ZM408.771 222.356C400.916 232.004 393.124 243.691 387.458 256.468C392.485 263.266 401.365 269.464 412.208 274.587C423.124 279.745 435.939 283.77 448.585 286.213L492.897 247.92C496.61 242.063 501.533 236.634 508.045 231.972C501.034 233.21 495.537 235.204 491.019 238.339C485.396 242.24 481.198 247.974 477.524 256.461C477.064 257.524 476.089 258.297 474.93 258.476C472.681 258.824 470.3 259.232 467.797 259.66C455.435 261.775 440.115 264.396 423.215 262.891C422.06 262.788 421.048 262.074 420.546 261.041C414.459 248.49 410.791 237.718 409.4 228.92C409.033 226.602 408.824 224.412 408.771 222.356ZM512.145 231.354C488.033 246.533 483.923 271.712 483.599 292.758C483.578 294.147 484.478 295.359 485.79 295.703C506.104 301.019 529.326 295.889 544.404 283.503C545.245 282.812 545.624 281.688 545.392 280.593C539.787 254.148 528.342 238.401 519.062 231.136C518.079 230.367 516.897 229.805 515.664 229.999C513.771 230.298 512.145 231.354 512.145 231.354ZM448.186 260.753C439.062 255.664 437.962 242.404 447.589 236.446C447.822 236.302 448.087 236.204 448.357 236.153C447.312 236.145 446.282 236.115 445.269 236.064C435.397 235.568 426.994 233.024 421.197 228.338C415.943 224.091 412.896 218.137 412.807 210.563C410.562 214.771 409.911 220.803 411.151 228.643C412.506 237.209 416.098 247.807 422.141 260.267C422.376 260.751 422.848 261.078 423.372 261.125C432.139 261.906 440.464 261.562 448.186 260.753ZM444.645 305.174C444.017 311.407 443.893 318.215 445.006 324.258C438.622 316.546 432.139 311.297 425.38 308.283C417.897 304.946 410.14 304.378 401.921 306.154C394.083 294.693 389.1 278.079 387.539 259.417C392.969 265.789 401.478 271.478 411.45 276.19C422.369 281.349 435.129 285.377 447.736 287.854C446.719 291.719 445.355 298.118 444.645 305.174ZM456.268 329.569C456.3 329.504 456.354 329.45 456.477 329.42C456.615 329.385 456.814 329.395 457.013 329.481C463.045 332.085 467.038 332.159 479.006 331.458C479.277 331.442 479.546 331.552 479.727 331.752C483.964 336.425 486.23 338.668 491.011 341.822C491.874 342.391 492.967 342.462 493.894 342.032L517.361 331.167C515.126 337.124 515.64 344.201 517.924 350.338C520.113 356.22 524.014 361.459 528.969 364.077C511.59 368.145 496.206 366.859 484.36 364.794C483.961 364.724 483.553 364.736 483.159 364.829L467.394 368.539C467.057 368.618 466.738 368.754 466.448 368.942L459.45 373.491C456.591 373.068 454.8 370.844 455.26 368.36L460.158 364.204L463.439 362.313C463.943 362.022 464.116 361.378 463.826 360.874C463.535 360.37 462.891 360.197 462.387 360.487L459.223 362.311L448.816 363.256C446.78 360.798 447.171 358.266 448.071 356.882C450.856 356.155 453.885 356.016 456.855 355.88C458.114 355.822 459.362 355.764 460.576 355.663C460.897 355.636 461.187 355.465 461.365 355.198L463.305 352.289C463.627 351.805 463.497 351.15 463.012 350.828C462.528 350.505 461.874 350.636 461.551 351.12L459.912 353.579L446.877 354.045L445.025 354.154C442.932 351.714 443.261 349.184 444.132 347.761L459.682 346.057C460.573 345.968 461.377 345.484 461.874 344.739L463.305 342.593C463.627 342.109 463.497 341.455 463.012 341.132C462.528 340.809 461.874 340.94 461.551 341.424L460.121 343.57C459.974 343.791 459.736 343.934 459.472 343.96L451.648 344.743C449.77 342.421 449.827 339.862 451.008 338.146C451.577 338.005 452.133 337.874 452.681 337.75C452.763 337.732 452.851 337.725 452.942 337.732C454.077 337.817 455.308 337.887 456.562 337.945C461.593 338.176 467.066 338.209 468.414 338.213C468.74 338.215 469.058 338.162 469.362 338.06L471.972 337.191C472.524 337.007 472.822 336.41 472.638 335.858C472.454 335.306 471.858 335.008 471.306 335.192L468.696 336.061C468.604 336.092 468.513 336.107 468.421 336.106C467.128 336.102 462.035 336.071 457.207 335.864C456.728 335.062 456.278 334.072 456.034 333.039C455.742 331.805 455.763 330.599 456.268 329.569Z"
      fill="#181B2B" />
    <path
      d="M337.152 310.228C336.72 309.997 336.183 310.16 335.952 310.592C335.721 311.023 335.884 311.56 336.315 311.791C338.725 313.081 341.017 313.708 343.135 313.933C342.625 314.635 342.205 315.269 341.817 315.919C341.567 316.34 341.705 316.884 342.125 317.134C342.546 317.385 343.09 317.247 343.341 316.826C343.905 315.878 344.559 314.947 345.54 313.693L346.645 312.283L344.854 312.261C342.543 312.231 339.947 311.725 337.152 310.228Z"
      fill="#181B2B" />
    <path fill-rule="evenodd" clip-rule="evenodd"
      d="M316.831 289.694C317.485 288.875 318.487 288.331 319.596 288.345L325.298 288.417C325.956 288.426 326.591 288.63 327.13 288.99C332.808 292.788 338.43 294.068 344.982 295.386C345.594 295.508 346.479 295.675 347.566 295.848C349.743 296.193 352.722 296.562 355.936 296.658C359.155 296.754 362.578 296.575 365.657 295.843C368.741 295.11 371.403 293.84 373.197 291.815L374.024 290.881L374.634 291.969C378.418 298.72 380.806 304.293 382.327 310.309C383.847 316.317 384.492 322.729 384.831 331.142L384.874 332.214L383.813 332.054C377.902 331.162 369.392 329.514 362.374 328.093C358.862 327.381 355.719 326.726 353.453 326.248C351.754 325.889 350.548 325.631 350.051 325.524L335.5 330L322.847 304.995C317.821 307.984 312.789 309.374 308.476 309.025C303.888 308.655 300.137 306.309 298.23 301.939C297.39 300.015 298.811 298.141 300.625 297.814C306.277 296.795 312.391 295.261 316.831 289.694ZM325.843 306.88L336.5 328L349.939 323.686C351.231 323.966 352.525 324.24 353.819 324.513C356.081 324.99 359.22 325.645 362.726 326.355C369.33 327.693 377.221 329.224 383.014 330.137C382.665 322.302 382.02 316.322 380.609 310.744C379.213 305.224 377.059 300.062 373.66 293.867C371.609 295.739 368.925 296.888 366.067 297.568C362.781 298.349 359.189 298.529 355.883 298.43C352.572 298.331 349.515 297.952 347.288 297.598C346.174 297.421 345.265 297.251 344.633 297.123C344.159 297.028 343.84 296.957 343.707 296.927L343.311 296.837C336.988 295.392 331.708 294.185 326.144 290.464C325.882 290.289 325.58 290.194 325.275 290.19L319.573 290.117C319.071 290.111 318.568 290.36 318.217 290.8C313.34 296.913 306.638 298.531 300.939 299.559C299.993 299.729 299.573 300.584 299.855 301.23C301.471 304.935 304.607 306.935 308.619 307.258C312.673 307.586 317.64 306.192 322.719 302.996C323.031 302.799 323.476 302.405 324.006 301.921C324.493 301.476 324.972 301.013 325.51 300.629C325.909 300.344 326.462 300.437 326.747 300.835C327.031 301.233 326.939 301.787 326.54 302.071C326.06 302.414 325.636 302.834 325.201 303.231C325.013 303.402 324.813 303.584 324.612 303.76C325.689 304.63 326.392 305.164 327.1 305.568C327.957 306.057 328.849 306.371 330.498 306.818C330.971 306.946 331.25 307.432 331.122 307.905C330.995 308.377 330.508 308.657 330.035 308.529C328.352 308.073 327.281 307.712 326.221 307.107C326.095 307.035 325.969 306.96 325.843 306.88Z"
      fill="#181B2B" />
    <path
      d="M469.338 71.8884C489.832 74.538 499.65 99.136 485.109 113.818C484.869 114.061 484.627 114.301 484.381 114.54C473.247 125.382 456.52 126.199 441.508 130.219C417.374 136.682 409.232 150.147 406.73 160.701C404.16 171.541 401.486 169.132 396.824 159.014C374.52 110.616 428.316 66.5846 469.338 71.8884Z"
      fill="url(#paint0_linear_4773_92903)" />
    <path fill-rule="evenodd" clip-rule="evenodd"
      d="M515.101 204.336C532.706 189.301 543.867 166.941 543.867 141.975C543.867 96.7015 507.166 60 461.892 60C416.618 60 379.917 96.7015 379.917 141.975C379.917 169.812 393.288 194.183 414.5 209C414 217 417.47 223.138 422.453 227.165C427.855 231.532 435.844 234.015 445.5 234.5C468.5 235 492.644 227.384 514 213L514.647 225.36C514.678 225.848 515.098 226.219 515.587 226.189C516.076 226.158 516.447 225.737 516.416 225.248L515.101 204.336ZM461.892 222.177C506.187 222.177 542.094 186.27 542.094 141.975C542.094 97.6805 506.187 61.7727 461.892 61.7727C417.598 61.7727 381.69 97.6805 381.69 141.975C381.69 186.27 417.598 222.177 461.892 222.177Z"
      fill="#16926F" />
    <path
      d="M392.249 291.925C392.383 292.396 392.11 292.886 391.639 293.02L379.273 296.532C378.802 296.665 378.312 296.392 378.178 295.921C378.045 295.45 378.318 294.96 378.789 294.826L391.154 291.315C391.625 291.181 392.116 291.454 392.249 291.925Z"
      fill="#16926F" />
    <path
      d="M386.668 323.449C386.182 323.392 385.742 323.74 385.685 324.227C385.628 324.713 385.976 325.153 386.462 325.21L403.163 327.163C403.65 327.219 404.09 326.871 404.147 326.385C404.204 325.899 403.855 325.459 403.369 325.402L386.668 323.449Z"
      fill="#16926F" />
    <path fill-rule="evenodd" clip-rule="evenodd"
      d="M461.519 459.842C461.814 462.453 462.003 464.924 462.063 467.344C461.206 467.43 460.111 467.527 459.362 467.498C458.48 467.463 457.668 467.357 456.995 467.177C456.309 466.993 455.84 466.751 455.57 466.496C454.192 465.19 453.156 463.164 452.255 460.731C451.657 459.12 451.146 457.41 450.628 455.681C450.362 454.793 450.094 453.899 449.813 453.012C449.002 450.451 448.079 447.957 446.767 446.097C445.563 444.393 443.984 443.16 441.842 442.927L438.277 423.124L438.237 423.031C432.434 409.578 426.875 399.634 422.294 391.439C420.885 388.918 419.568 386.562 418.365 384.321C413.248 374.786 410.202 367.341 410.606 357.848C410.627 357.359 410.248 356.946 409.758 356.925C409.269 356.904 408.856 357.284 408.835 357.773C408.41 367.756 411.647 375.551 416.803 385.159C418.024 387.434 419.353 389.812 420.771 392.347C425.336 400.515 430.82 410.326 436.569 423.639L440.169 443.639C436.584 450.705 432.674 454.151 429.312 457.114L429.309 457.116L428.833 457.537C427.077 459.089 425.432 460.594 424.133 462.485C422.82 464.396 421.881 466.669 421.455 469.754L421.439 469.875L422.647 478.633C422.961 480.914 424.615 482.83 426.889 483.37C441.01 486.722 448.294 484.5 453.165 481.669C454.363 480.973 455.401 480.248 456.332 479.591L456.443 479.513L456.631 479.38C457.365 478.86 458.102 478.339 458.883 477.893C459.702 477.425 460.673 477.187 461.537 477.094C460.87 481.96 459.557 487.093 457.405 493.187L448.228 512.46C446.172 516.777 445.469 521.614 446.21 526.337L447.14 532.267C447.139 532.364 447.154 532.46 447.184 532.551L447.711 535.909C448.168 538.824 450.169 541.42 453.169 542.115C466.928 545.304 484.224 540.668 491.345 523.641C491.817 522.512 492.243 521.33 492.62 520.094C493.129 518.427 493.833 516.859 494.842 515.514L498.566 510.549C499.972 508.674 500.409 506.244 499.743 503.996L498.224 498.872C497.727 497.193 497.608 495.349 497.852 493.602C500.392 475.391 501.234 463.117 501.044 454.584C500.854 446.05 499.632 441.2 498.001 437.878C497.186 436.217 496.282 434.966 495.398 433.853C495.131 433.516 494.871 433.199 494.618 432.89L494.617 432.889C494.02 432.159 493.462 431.477 492.932 430.699C491.487 428.576 490.306 425.793 490.107 420.101L490.107 370.665C490.107 370.175 489.71 369.779 489.221 369.779C488.731 369.779 488.335 370.175 488.335 370.665L488.335 420.116L488.335 420.134L488.335 420.147C488.541 426.119 489.798 429.245 491.467 431.696C492.043 432.543 492.678 433.319 493.295 434.074L493.296 434.075L493.297 434.076L493.412 434.216C493.474 434.292 493.535 434.367 493.597 434.442C493.642 434.499 493.688 434.555 493.734 434.612C493.827 434.726 493.919 434.841 494.01 434.956C494.852 436.016 495.672 437.156 496.41 438.659C497.885 441.664 499.085 446.229 499.272 454.623C499.458 463.019 498.631 475.187 496.096 493.357C495.819 495.341 495.951 497.441 496.525 499.375L496.527 499.384C495.223 503.368 493.627 506.747 492.038 509.006C491.241 510.141 490.476 510.947 489.791 511.416C489.107 511.884 488.608 511.951 488.245 511.843C485.811 511.123 483.692 508.889 481.613 505.858C480.587 504.361 479.6 502.716 478.605 501.038L478.313 500.546L478.312 500.545C477.418 499.035 476.514 497.508 475.583 496.084C473.543 492.965 471.245 490.127 468.36 488.99C465.926 488.03 463.258 488.337 460.263 490.252C463.971 478.614 464.473 470.217 463.281 459.644C463.226 459.157 462.787 458.807 462.301 458.862C461.814 458.917 461.465 459.356 461.519 459.842ZM458.004 476.353C459.113 475.72 460.458 475.362 461.755 475.294C461.975 473.221 462.079 471.182 462.084 469.12C461.196 469.204 460.07 469.3 459.291 469.269C458.323 469.23 457.373 469.113 456.537 468.889C456.099 468.772 455.672 468.621 455.281 468.423C451.376 475.387 444.991 477.929 438.78 478.32C433.184 478.672 427.67 477.291 424.048 475.816L424.403 478.391C424.622 479.982 425.769 481.282 427.299 481.645C441.055 484.911 447.86 482.702 452.275 480.136C453.398 479.483 454.381 478.798 455.311 478.143L455.564 477.964C456.36 477.401 457.157 476.837 458.004 476.353ZM441.625 444.687C443.15 444.846 444.318 445.702 445.318 447.119C446.458 448.734 447.313 450.992 448.123 453.547C448.386 454.375 448.644 455.237 448.906 456.111L448.906 456.112C449.435 457.876 449.977 459.685 450.592 461.347C451.427 463.598 452.445 465.731 453.877 467.299C450.349 473.803 444.525 476.182 438.669 476.55C432.862 476.916 427.099 475.29 423.765 473.764L423.228 469.876C423.626 467.11 424.463 465.135 425.594 463.488C426.755 461.798 428.245 460.422 430.007 458.865C434.627 454.78 438.785 450.208 441.625 444.687ZM449.143 533.6L449.462 535.635C449.828 537.967 451.396 539.885 453.57 540.388C466.732 543.439 483.011 538.973 489.709 522.957C490.158 521.884 490.564 520.757 490.925 519.576C491.474 517.776 492.257 516.006 493.423 514.451L497.148 509.485C498.218 508.058 498.55 506.21 498.043 504.5L497.386 502.283C496.218 505.377 494.872 508.058 493.488 510.026C492.628 511.249 491.721 512.243 490.793 512.878C489.863 513.515 488.807 513.858 487.742 513.543C486.551 513.191 485.458 512.567 484.444 511.757C481.074 524.341 475.193 530.904 468.452 533.704C462.051 536.363 455.073 535.542 449.143 533.6ZM482.965 510.399C479.729 523.234 474.001 529.48 467.772 532.067C461.614 534.625 454.742 533.704 448.833 531.622L447.961 526.063C447.275 521.692 447.926 517.217 449.828 513.223L459.026 493.908C459.039 493.88 459.051 493.851 459.061 493.822C459.106 493.696 459.15 493.57 459.194 493.445L459.283 493.19C462.875 490.141 465.543 489.784 467.71 490.639C470.025 491.551 472.061 493.938 474.099 497.055C475.008 498.444 475.891 499.936 476.789 501.452L477.08 501.943C478.073 503.618 479.087 505.309 480.151 506.86C481.026 508.136 481.956 509.351 482.965 510.399Z"
      fill="#16926F" />
    <path
      d="M487.181 300.557C487.367 300.104 487.152 299.586 486.7 299.399C486.247 299.212 485.729 299.428 485.542 299.88L479.519 314.462C478.328 317.345 478.101 320.574 479.055 323.581C479.496 324.973 479.944 326.274 480.432 327.548C480.607 328.005 481.12 328.234 481.577 328.059C482.034 327.884 482.263 327.371 482.088 326.914C481.614 325.678 481.178 324.411 480.744 323.045C479.927 320.468 480.113 317.669 481.158 315.139L487.181 300.557Z"
      fill="#16926F" />
    <g opacity="0.1">
      <path
        d="M276.222 281.874C310.653 281.661 340.688 273.967 356.827 262.691L305.81 326.45C305.75 326.544 305.69 326.637 305.628 326.729C305.802 326.209 305.891 325.677 305.887 325.138C305.848 318.765 293 313.677 277.19 313.775C261.381 313.873 248.596 319.119 248.636 325.492C248.64 326.224 248.814 326.938 249.141 327.63C249.141 327.63 211.099 283.197 192.436 261.519C207.828 273.798 239.59 282.1 276.222 281.874Z"
        fill="#B0EBDB" />
      <path
        d="M305.001 325.143C305.009 326.417 304.38 327.722 303.05 329.006C301.718 330.292 299.739 331.495 297.217 332.53C292.178 334.598 285.148 335.921 277.327 335.969C269.507 336.017 262.46 334.781 257.397 332.776C254.863 331.773 252.869 330.594 251.521 329.325C250.175 328.058 249.53 326.76 249.522 325.487C249.514 324.213 250.143 322.908 251.473 321.624C252.805 320.338 254.785 319.135 257.306 318.1C262.345 316.032 269.375 314.709 277.196 314.661C285.016 314.613 292.063 315.849 297.126 317.854C299.66 318.857 301.654 320.036 303.002 321.305C304.348 322.572 304.993 323.87 305.001 325.143Z"
        fill="#B0EBDB" />
    </g>
    <path
      d="M299.494 164.883C306.589 159.426 312.241 151.486 315.48 140.679C316.588 136.981 317.297 133.102 318.006 129.225C319.327 122.002 320.647 114.782 324.544 108.739C324.757 108.409 325.108 108.508 325.418 108.749C338.25 118.727 346.731 116.529 362.499 104.954C356.838 106.043 350.639 104.07 344.495 102.113C336.883 99.6888 329.354 97.291 323.029 100.774C315.895 96.4992 309.812 98.3323 303.578 100.211C298.938 101.609 294.214 103.032 288.912 101.979C297.771 109 302.827 112.451 313.717 109.687C313.503 110.023 313.289 110.362 313.072 110.704C305.515 122.647 296.031 137.635 251.147 121.448C245.423 119.384 239.312 118.428 233.257 119.038L210.588 121.323C203.119 120.839 200.287 123.985 205.779 132.073C214.613 163.125 257.443 182.361 287.681 171.332C289.094 173.602 290.289 175.867 291.152 178.078C305.421 183.79 322.324 184.782 324.153 180.979C324.739 179.76 323.159 179.011 319.699 177.369C315.804 175.522 309.528 172.545 301.277 166.496C300.459 165.971 299.888 165.435 299.494 164.883Z"
      fill="#68DBF4" />
    <path
      d="M245.253 125.347C245.654 125.628 245.75 126.181 245.469 126.582C244.928 127.353 244.915 127.753 244.956 127.919C244.993 128.071 245.148 128.314 245.728 128.58C246.295 128.84 247.106 129.043 248.122 129.205C249.128 129.365 250.276 129.477 251.493 129.58C251.981 129.621 252.343 130.05 252.302 130.538C252.261 131.026 251.832 131.388 251.344 131.346C250.122 131.243 248.918 131.127 247.843 130.955C246.779 130.786 245.778 130.553 244.989 130.191C244.212 129.835 243.464 129.27 243.235 128.344C243.01 127.434 243.368 126.489 244.018 125.563C244.3 125.163 244.853 125.066 245.253 125.347Z"
      fill="#181B2B" />
    <path fill-rule="evenodd" clip-rule="evenodd"
      d="M287.3 172.408C278.463 175.483 268.637 176.051 258.933 174.577C254.481 173.901 250.042 172.793 245.724 171.293C245.58 172.579 245.499 173.833 245.493 175.043C234.23 185.501 218.813 192.501 215.739 189.609C214.754 188.682 215.959 187.415 218.598 184.64C221.569 181.516 226.356 176.482 231.883 167.873C232.515 167.01 232.864 166.242 233.013 165.531C219.695 157.946 208.982 146.402 204.966 132.452C203.609 130.438 202.726 128.673 202.308 127.147C201.881 125.589 201.92 124.195 202.546 123.056C203.174 121.914 204.297 121.203 205.668 120.809C207.017 120.422 208.681 120.317 210.571 120.434L233.168 118.156C239.373 117.531 245.618 118.512 251.448 120.615C274.46 128.914 287.927 128.909 296.536 125.516C304.291 122.459 308.273 116.604 311.821 111.02C307.272 111.899 303.667 111.613 300.242 110.333C296.357 108.881 292.773 106.171 288.361 102.674C288.04 102.42 287.935 101.979 288.107 101.607C288.279 101.236 288.683 101.03 289.084 101.11C294.152 102.116 298.641 100.767 303.287 99.3709C304.092 99.129 304.902 98.8856 305.72 98.6528C311.092 97.1248 316.688 96.1376 323.051 99.7604C329.644 96.4256 337.189 98.8422 343.836 100.972C344.154 101.073 344.47 101.175 344.784 101.275C347.484 102.134 350.152 102.984 352.787 103.58C356.133 104.337 359.333 104.66 362.331 104.083C362.738 104.005 363.145 104.219 363.31 104.599C363.476 104.979 363.357 105.423 363.023 105.668C355.135 111.459 348.913 115.031 342.973 115.813C337.009 116.597 331.494 114.555 325.055 109.589C322.308 114.003 320.909 119.073 319.823 124.399C319.494 126.018 319.192 127.668 318.888 129.329C318.863 129.467 318.843 129.604 318.824 129.741C318.785 130.013 318.747 130.284 318.664 130.553C318.019 134.053 317.334 137.578 316.328 140.933C313.15 151.537 307.673 159.453 300.776 165.002C301.038 165.247 301.359 165.496 301.754 165.749L301.777 165.764L301.799 165.781C309.527 171.446 315.503 174.392 319.405 176.249C319.637 176.359 319.864 176.467 320.084 176.571C321.684 177.33 322.964 177.936 323.79 178.495C324.26 178.812 324.706 179.191 324.955 179.678C325.241 180.238 325.21 180.822 324.95 181.363C324.602 182.087 323.944 182.604 323.183 182.977C322.415 183.353 321.459 183.623 320.379 183.807C318.216 184.176 315.406 184.227 312.247 183.98C305.922 183.487 298.041 181.791 290.821 178.901L290.464 178.758L290.324 178.4C289.56 176.442 288.526 174.434 287.3 172.408ZM314.105 108.89C314.233 108.953 314.347 109.047 314.435 109.168C314.648 109.462 314.659 109.857 314.464 110.163C314.245 110.507 314.025 110.855 313.802 111.207L313.801 111.209C310.146 116.99 305.879 123.739 297.186 127.165C287.975 130.795 274.001 130.633 250.846 122.282C245.227 120.256 239.249 119.325 233.346 119.92L217.391 121.528C225.932 123.539 237.256 128.094 248.865 134.255C250.591 135.17 252.601 135.376 254.449 134.795L256.939 134.012C257.406 133.865 257.904 134.124 258.051 134.591C258.198 135.058 257.938 135.556 257.471 135.703L254.981 136.486C252.665 137.214 250.165 136.951 248.034 135.821C233.059 127.873 218.792 122.744 210.53 122.208C208.716 122.09 207.252 122.199 206.158 122.513C205.069 122.826 204.427 123.316 204.099 123.91C203.771 124.509 203.664 125.387 204.018 126.679C204.372 127.973 205.167 129.595 206.512 131.575C206.565 131.653 206.605 131.739 206.631 131.83C212.757 153.364 235.65 169.249 259.199 172.825C266.148 173.88 273.124 173.857 279.709 172.6C279.445 171.88 279.149 171.148 278.826 170.408C244.804 173.392 220.643 150.907 213.037 133.547C212.425 132.15 211.381 131.023 210.041 130.437L208.506 129.766C208.057 129.57 207.852 129.047 208.048 128.599C208.244 128.15 208.767 127.945 209.215 128.141L210.751 128.813C212.555 129.601 213.895 131.089 214.66 132.835C221.975 149.529 245.212 171.256 278.036 168.69C277.402 167.376 276.697 166.042 275.943 164.703C274.784 164.639 273.621 164.531 272.456 164.382C253.298 161.936 233.504 148.327 222.197 131.277C221.487 130.206 220.467 129.4 219.274 129.01L218.773 128.847C218.307 128.695 218.053 128.195 218.205 127.729C218.357 127.264 218.858 127.01 219.323 127.162L219.824 127.325C221.424 127.848 222.76 128.919 223.674 130.297C234.745 146.989 254.113 160.253 272.681 162.624C273.414 162.718 274.145 162.794 274.874 162.853C274.156 161.639 273.407 160.426 272.647 159.226C271.317 157.128 269.932 155.04 268.618 153.058L268.617 153.057C267.111 150.787 265.698 148.657 264.569 146.813C263.5 145.067 262.629 143.49 262.121 142.189C261.867 141.538 261.687 140.914 261.633 140.345C261.579 139.78 261.642 139.177 261.984 138.667C262.34 138.136 262.894 137.858 263.506 137.749C264.101 137.644 264.805 137.687 265.596 137.835C265.952 137.901 266.338 137.991 266.755 138.106C268.255 138.376 270.18 138.898 272.579 139.681C282.713 142.989 289.107 145.934 293.121 148.607C297.148 151.289 298.854 153.748 299.466 156.093C299.507 156.249 299.542 156.403 299.573 156.556C306.847 151.408 312.978 142.904 316.937 130.135C316.999 129.797 317.061 129.459 317.123 129.12L317.123 129.119C317.431 127.435 317.741 125.741 318.086 124.045C319.213 118.518 320.712 113.046 323.799 108.259C323.925 108.064 324.101 107.888 324.334 107.773C324.568 107.657 324.808 107.628 325.023 107.647C325.421 107.682 325.748 107.883 325.962 108.049C332.277 112.96 337.371 114.762 342.742 114.055C347.561 113.421 352.733 110.757 359.313 106.15C357.03 106.174 354.709 105.832 352.396 105.309C349.679 104.695 346.915 103.814 344.205 102.951C343.751 102.806 343.29 102.657 342.825 102.506C336.625 100.498 329.536 98.2026 323.457 101.551C323.18 101.703 322.844 101.697 322.573 101.534C322.47 101.472 322.366 101.411 322.262 101.352C318.837 102.178 315.556 105.735 314.105 108.89ZM299.778 163.529C306.106 158.401 311.199 151.165 314.297 141.497C310.389 149.205 305.42 154.803 299.76 158.578C299.759 158.822 299.751 159.061 299.739 159.294C299.719 159.701 299.685 160.1 299.653 160.474C299.613 160.948 299.571 161.422 299.564 161.898C299.555 162.508 299.609 163.039 299.778 163.529ZM281.725 161.661C285.872 166.735 289.719 172.177 291.833 177.395C298.785 180.131 306.336 181.741 312.385 182.213C315.464 182.453 318.114 182.395 320.081 182.06C321.065 181.892 321.841 181.66 322.404 181.385C322.973 181.106 323.243 180.822 323.352 180.595C323.397 180.503 323.385 180.492 323.378 180.487L323.377 180.486L323.376 180.484C323.336 180.405 323.197 180.233 322.798 179.964C322.092 179.486 320.953 178.946 319.305 178.164L319.28 178.152C319.075 178.055 318.863 177.954 318.643 177.849C314.695 175.97 308.617 172.974 300.773 167.226C299.572 166.452 298.796 165.609 298.337 164.672C297.877 163.732 297.778 162.78 297.791 161.872C297.799 161.353 297.844 160.835 297.887 160.317C297.919 159.943 297.95 159.578 297.969 159.204C298.014 158.325 297.988 157.451 297.751 156.541C297.284 154.754 295.942 152.616 292.138 150.082C288.321 147.541 282.103 144.655 272.029 141.366C268.707 140.282 266.468 139.761 265.077 139.673C264.371 139.629 263.998 139.706 263.83 139.784C263.787 139.803 263.768 139.819 263.761 139.825C263.759 139.832 263.755 139.846 263.753 139.87C263.743 140.007 263.792 140.303 264.036 140.812C264.27 141.3 264.64 141.892 265.141 142.589C266.144 143.981 267.602 145.69 269.358 147.659C270.312 148.728 271.351 149.871 272.444 151.073C275.351 154.27 278.641 157.887 281.725 161.661Z"
      fill="#181B2B" />
    <path
      d="M303.829 101.061C300.117 102.182 296.198 103.365 291.931 103.217C294.941 105.527 297.503 107.274 300.134 108.383C303.406 109.762 306.826 110.166 311.398 109.297C311.879 109.205 312.343 109.521 312.434 110.002C312.526 110.483 312.21 110.947 311.729 111.038C306.854 111.965 303.075 111.546 299.446 110.017C295.866 108.508 292.473 105.934 288.36 102.674C288.039 102.42 287.934 101.979 288.106 101.607C288.278 101.236 288.682 101.03 289.083 101.11C294.156 102.117 298.664 100.762 303.327 99.3594C303.858 99.1998 304.392 99.0394 304.928 98.882C310.118 97.3574 315.528 96.139 321.628 99.0201C322.071 99.2292 322.26 99.7575 322.051 100.2C321.842 100.643 321.314 100.832 320.871 100.623C315.405 98.0411 310.558 99.0756 305.427 100.583C304.899 100.738 304.366 100.899 303.829 101.061Z"
      fill="#68DBF4" />
    <path
      d="M231.893 166.115C232.088 165.666 232.611 165.46 233.059 165.656C233.508 165.851 233.714 166.373 233.518 166.822C233.299 167.326 232.999 167.84 232.61 168.373C227.356 176.555 222.761 181.535 219.751 184.708C219.579 184.89 219.413 185.065 219.253 185.233L219.247 185.239C217.99 186.561 217.122 187.475 216.634 188.174C216.358 188.569 216.291 188.779 216.282 188.868C216.282 188.868 216.281 188.869 216.281 188.87C216.281 188.87 216.281 188.87 216.28 188.871C216.276 188.878 216.269 188.892 216.343 188.962C216.527 189.135 216.88 189.303 217.513 189.358C218.136 189.413 218.944 189.35 219.923 189.154C221.878 188.76 224.373 187.862 227.16 186.531C232.635 183.917 239.103 179.701 244.608 174.65C244.62 173.952 244.655 173.242 244.712 172.523C244.751 172.035 245.178 171.671 245.666 171.71C246.154 171.748 246.518 172.175 246.479 172.663C246.415 173.476 246.38 174.272 246.376 175.045L246.375 175.43L246.093 175.691C240.394 180.983 233.649 185.397 227.924 188.131C225.064 189.496 222.424 190.459 220.272 190.891C219.198 191.108 218.209 191.199 217.357 191.124C216.514 191.05 215.713 190.804 215.129 190.254C214.691 189.842 214.453 189.308 214.519 188.682C214.576 188.138 214.856 187.624 215.18 187.16C215.751 186.342 216.727 185.316 217.947 184.033L217.955 184.025C218.121 183.851 218.291 183.672 218.465 183.488C221.439 180.353 225.957 175.457 231.133 167.393L231.148 167.369L231.165 167.347C231.497 166.895 231.731 166.486 231.893 166.115Z"
      fill="#68DBF4" />
    <g style="mix-blend-mode:hard-light" filter="url(#filter1_f_4773_92903)">
      <path
        d="M302.189 143.711C302.297 159.568 287.388 172.506 268.888 172.61C250.389 172.713 235.304 159.943 235.196 144.086C235.088 128.23 249.997 115.291 268.497 115.188C286.996 115.084 302.081 127.854 302.189 143.711Z"
        fill="#18C0E4" />
    </g>
    <g style="mix-blend-mode:color-dodge" filter="url(#filter2_f_4773_92903)">
      <path
        d="M863 434C863 527.336 783.531 603 685.5 603C587.469 603 508 527.336 508 434C508 340.664 587.469 265 685.5 265C783.531 265 863 340.664 863 434Z"
        fill="#1FAC85" />
    </g>
  </g>
  <defs>
    <filter id="filter0_f_4773_92903" x="228.872" y="240.466" width="26.4308" height="22.0175"
      filterUnits="userSpaceOnUse" color-interpolation-filters="sRGB">
      <feFlood flood-opacity="0" result="BackgroundImageFix" />
      <feBlend mode="normal" in="SourceGraphic" in2="BackgroundImageFix" result="shape" />
      <feGaussianBlur stdDeviation="3.29764" result="effect1_foregroundBlur_4773_92903" />
    </filter>
    <filter id="filter1_f_4773_92903" x="146.561" y="26.5523" width="244.264" height="234.693"
      filterUnits="userSpaceOnUse" color-interpolation-filters="sRGB">
      <feFlood flood-opacity="0" result="BackgroundImageFix" />
      <feBlend mode="normal" in="SourceGraphic" in2="BackgroundImageFix" result="shape" />
      <feGaussianBlur stdDeviation="44.3174" result="effect1_foregroundBlur_4773_92903" />
    </filter>
    <filter id="filter2_f_4773_92903" x="0" y="" width="855" height="838" filterUnits="userSpaceOnUse"
      color-interpolation-filters="sRGB">
      <feFlood flood-opacity="0" result="BackgroundImageFix" />
      <feBlend mode="normal" in="SourceGraphic" in2="BackgroundImageFix" result="shape" />
      <feGaussianBlur stdDeviation="125" result="effect1_foregroundBlur_4773_92903" />
    </filter>
    <linearGradient id="paint0_linear_4773_92903" x1="441.818" y1="71.4535" x2="441.818" y2="167.791"
      gradientUnits="userSpaceOnUse">
      <stop stop-color="#6EECF9" />
      <stop offset="1" stop-color="#8AFFCE" stop-opacity="0" />
    </linearGradient>
    <clipPath id="clip0_4773_92903">
      <rect width="725" height="690" fill="white" />
    </clipPath>
  </defs>
</svg>