<svg width="1550" height="683" viewBox="0 0 1550 683" fill="none" xmlns="http://www.w3.org/2000/svg">
  <g clip-path="url(#clip0_4785_93883)">
    <ellipse cx="721.035" cy="1025.28" rx="691.054" ry="691.5" fill="#1D223E" />
    <path d="M324.771 309.207L322.792 305.117C322.767 305.126 322.741 305.136 322.716 305.145L324.771 309.207Z"
      fill="#173D40" />
    <path
      d="M321.036 305.751C311.352 309.154 306.616 309.188 302.988 306.518C301.749 305.606 300.433 304.752 299.037 304.175L234.812 306.665C230.513 306.832 227.122 310.381 227.149 314.686L227.34 345.649C227.369 350.321 231.386 353.968 236.036 353.544L328.71 345.087C334.317 344.576 337.641 338.566 335.098 333.54L321.036 305.751Z"
      fill="#173D40" />
    <path fill-rule="evenodd" clip-rule="evenodd"
      d="M299.842 304.143L234.813 306.665C230.514 306.832 227.123 310.381 227.15 314.685L227.341 345.649C227.37 350.321 231.387 353.968 236.037 353.544L328.71 345.087C334.318 344.575 337.642 338.566 335.099 333.539L321.004 305.685L322.585 304.884L336.679 332.739C339.788 338.882 335.725 346.227 328.871 346.852L236.198 355.309C230.515 355.828 225.605 351.37 225.569 345.66L225.378 314.696C225.345 309.435 229.49 305.097 234.744 304.893L299.774 302.372L299.842 304.143Z"
      fill="#8AFFCE" />
    <path opacity="0.3"
      d="M369.187 243.627C369.316 264.431 327.613 281.554 276.041 281.873C224.47 282.192 182.559 265.586 182.43 244.782C182.301 223.978 224.004 206.854 275.576 206.535C327.147 206.216 369.059 222.823 369.187 243.627Z"
      fill="#14C393" />
    <path fill-rule="evenodd" clip-rule="evenodd"
      d="M276.045 281.873C327.617 281.554 369.32 264.43 369.191 243.626C369.063 222.822 327.151 206.216 275.58 206.535C224.008 206.854 182.305 223.978 182.434 244.782C182.562 265.586 224.474 282.192 276.045 281.873ZM360.586 256.926C365.041 252.624 367.263 248.134 367.236 243.638C367.208 239.143 364.93 234.681 360.422 230.434C355.909 226.183 349.289 222.28 340.957 218.979C324.302 212.38 301.191 208.333 275.592 208.492C249.993 208.65 226.933 212.982 210.362 219.787C202.071 223.191 195.499 227.176 191.039 231.482C186.584 235.784 184.362 240.274 184.389 244.77C184.417 249.265 186.695 253.728 191.203 257.974C195.716 262.225 202.336 266.128 210.668 269.429C227.323 276.028 250.434 280.075 276.033 279.916C290.019 279.83 303.246 278.498 315.072 276.197L306.876 267.676C297.566 269.59 287.077 270.699 275.977 270.767C237.366 271.006 205.988 258.573 205.891 242.998C205.795 227.422 237.018 214.601 275.629 214.362C314.24 214.124 345.619 226.557 345.715 242.132C345.781 252.901 330.879 262.352 308.915 267.239L317.132 275.783C326.132 273.921 334.275 271.491 341.263 268.621C349.554 265.217 356.126 261.233 360.586 256.926ZM308.119 266.413C314.378 265.051 320.062 263.32 324.99 261.296C331.232 258.733 336.212 255.721 339.61 252.44C343.006 249.161 344.759 245.68 344.737 242.138C344.715 238.597 342.919 235.138 339.483 231.901C336.044 228.662 331.028 225.712 324.755 223.227C312.215 218.258 294.847 215.222 275.635 215.341C256.423 215.46 239.094 218.71 226.616 223.834C220.375 226.397 215.395 229.409 211.997 232.69C208.601 235.969 206.847 239.45 206.869 242.991C206.891 246.533 208.688 249.992 212.124 253.229C215.562 256.468 220.579 259.418 226.851 261.903C239.392 266.872 256.759 269.908 275.971 269.789C286.777 269.722 296.986 268.665 306.072 266.841L297.246 257.664C290.927 258.91 283.859 259.628 276.397 259.674C249.396 259.841 227.453 251.147 227.386 240.254C227.318 229.362 249.152 220.397 276.153 220.23C303.154 220.063 325.097 228.757 325.164 239.649C325.211 247.202 314.728 253.828 299.294 257.237L308.119 266.413ZM298.497 256.409C302.982 255.45 307.049 254.22 310.56 252.778C314.904 250.995 318.35 248.906 320.691 246.646C323.029 244.388 324.201 242.026 324.187 239.655C324.172 237.285 322.971 234.938 320.605 232.709C318.236 230.478 314.765 228.432 310.399 226.702C301.672 223.245 289.566 221.125 276.159 221.208C262.752 221.291 250.673 223.56 241.99 227.125C237.646 228.909 234.2 230.998 231.859 233.258C229.521 235.516 228.349 237.878 228.364 240.248C228.378 242.619 229.579 244.966 231.945 247.195C234.314 249.426 237.785 251.472 242.151 253.202C250.878 256.659 262.984 258.778 276.391 258.695C283.558 258.651 290.346 257.982 296.438 256.824L288.135 248.192C284.41 248.925 280.244 249.348 275.845 249.375C259.915 249.474 246.968 244.344 246.929 237.918C246.889 231.491 259.771 226.202 275.701 226.103C291.632 226.005 304.578 231.135 304.618 237.561C304.645 241.883 298.828 245.69 290.17 247.751L298.497 256.409ZM289.38 246.929C291.775 246.388 293.953 245.714 295.849 244.936C298.384 243.895 300.368 242.687 301.7 241.4C303.03 240.116 303.648 238.821 303.64 237.567C303.632 236.313 302.999 235.026 301.653 233.758C300.305 232.488 298.306 231.304 295.759 230.295C290.669 228.278 283.579 227.033 275.707 227.082C267.836 227.131 260.762 228.463 255.697 230.543C253.162 231.584 251.179 232.792 249.846 234.079C248.516 235.363 247.899 236.658 247.906 237.912C247.914 239.166 248.548 240.453 249.894 241.721C251.242 242.991 253.24 244.174 255.788 245.184C260.878 247.201 267.967 248.446 275.839 248.397C279.942 248.372 283.828 247.997 287.326 247.35L281.917 241.727C280.057 242.067 278.001 242.262 275.838 242.275C267.447 242.327 260.627 239.625 260.606 236.24C260.585 232.855 267.371 230.069 275.762 230.017C284.154 229.965 290.973 232.667 290.994 236.052C291.007 238.234 288.194 240.166 283.945 241.279L289.38 246.929ZM283.163 240.466C284.284 240.199 285.305 239.876 286.199 239.508C287.502 238.973 288.49 238.364 289.136 237.741C289.779 237.12 290.019 236.551 290.016 236.058C290.013 235.565 289.766 234.999 289.115 234.386C288.462 233.771 287.466 233.174 286.157 232.655C283.544 231.62 279.871 230.97 275.768 230.995C271.666 231.021 268.001 231.716 265.401 232.784C264.098 233.319 263.11 233.927 262.465 234.551C261.821 235.172 261.581 235.74 261.584 236.234C261.587 236.727 261.835 237.293 262.485 237.906C263.139 238.521 264.134 239.118 265.443 239.637C268.057 240.672 271.73 241.322 275.832 241.297C278.5 241.28 280.984 240.98 283.109 240.479L283.143 240.446L283.163 240.466Z"
      fill="#8AFFCE" />
    <path fill-rule="evenodd" clip-rule="evenodd"
      d="M302.855 329.006C304.184 327.722 304.812 326.417 304.804 325.143C304.797 323.87 304.152 322.572 302.807 321.305C301.46 320.036 299.467 318.857 296.935 317.854C291.874 315.849 284.832 314.613 277.017 314.661C269.202 314.709 262.176 316.032 257.14 318.1C254.62 319.135 252.643 320.338 251.311 321.624C249.982 322.907 249.353 324.213 249.361 325.486C249.369 326.76 250.014 328.057 251.359 329.325C252.706 330.594 254.698 331.773 257.231 332.776C262.291 334.781 269.334 336.017 277.149 335.969C284.964 335.92 291.99 334.597 297.025 332.53C299.545 331.495 301.523 330.292 302.855 329.006ZM277.154 336.855C292.954 336.757 305.73 331.511 305.69 325.138C305.651 318.764 292.811 313.677 277.012 313.775C261.212 313.872 248.436 319.118 248.476 325.492C248.515 331.865 261.355 336.953 277.154 336.855Z"
      fill="#8AFFCE" />
    <path
      d="M248.546 251.434C248.561 253.871 245.611 255.865 241.957 255.888C238.304 255.911 235.329 253.953 235.314 251.516C235.299 249.078 238.249 247.084 241.903 247.062C245.556 247.039 248.531 248.997 248.546 251.434Z"
      fill="#FF6363" />
    <g style="mix-blend-mode:hard-light" filter="url(#filter0_f_4785_93883)">
      <path
        d="M248.546 251.434C248.561 253.871 245.611 255.865 241.957 255.888C238.304 255.911 235.329 253.953 235.314 251.516C235.299 249.078 238.249 247.084 241.903 247.062C245.556 247.039 248.531 248.997 248.546 251.434Z"
        fill="#FF6363" />
    </g>
    <path
      d="M525.661 733.284C529.159 665.284 475.336 551.923 448.763 539.071L423.961 480.572L470.021 459.746C538.669 452.652 689.555 477.785 756.012 562.285L739.523 733.284H525.661Z"
      fill="#181B2B" />
    <path
      d="M514.583 216.201C495.751 228.881 487.868 229.967 458.876 233.96L457.523 234.146C423.743 238.324 411.526 222.696 413.953 208.67C413.737 208.515 413.522 208.359 413.307 208.202C412.979 208.367 412.694 208.61 412.486 208.925C411.196 210.883 410.301 213.256 409.814 216.028C398.909 212.412 382.46 225.404 389.6 249.419C395.289 238.336 402.381 228.264 409.412 219.87C409.008 229.708 412.741 243.46 421.075 260.654C421.442 261.412 422.184 261.933 423.023 262.008C439.787 263.502 454.965 260.905 467.319 258.791C469.83 258.361 472.224 257.951 474.491 257.6C475.342 257.468 476.064 256.899 476.406 256.108C483.627 239.418 493.013 232.896 511.511 230.5C486.87 245.916 482.729 271.578 482.404 292.745C482.377 294.525 483.533 296.109 485.255 296.56C505.822 301.946 529.323 296.761 544.618 284.188C545.726 283.277 546.206 281.813 545.909 280.409C539.964 252.337 527.455 236.126 517.725 229.285C516.966 228.752 516.05 228.552 515.162 228.673C515.265 228.385 515.315 228.073 515.302 227.75L514.583 216.201Z"
      fill="#165E55" />
    <path
      d="M405.784 323.654C405.746 318.373 405.706 312.756 405.055 306.446C420.032 304.333 433.348 310.631 446.515 327.948C447.011 327.605 447.494 327.269 447.968 326.939C456.82 320.776 462.208 317.026 477.491 318.976L477.619 318.668C478.786 324.479 480.665 329.377 483.449 334.528C485.885 337.019 487.959 338.753 491.291 340.951C491.837 341.311 492.53 341.363 493.127 341.096L519.186 329.45C512.403 341.593 519.629 357.897 531.587 364.309C514.336 368.536 505.444 368.866 488.905 366.565V420.119C489.177 428.03 491.319 430.65 493.638 433.485C498.162 439.019 503.359 445.375 496.653 493.482C496.393 495.348 496.518 497.32 497.053 499.127L498.57 504.251C499.156 506.23 498.772 508.369 497.535 510.02L493.813 514.986C492.726 516.435 491.983 518.105 491.455 519.838C491.086 521.047 490.67 522.201 490.21 523.302C483.305 539.824 466.528 544.375 453.076 541.255C450.491 540.656 448.708 538.399 448.297 535.775L446.796 526.203C446.083 521.656 446.76 517 448.737 512.845L457.929 493.53C463.984 476.387 463.487 466.698 460.611 449.483C457.271 443.037 453.959 436.998 450.838 431.308L450.837 431.307C439.988 411.527 431.447 395.957 432.046 382.094L430.621 380.559C406.015 355.937 405.914 341.766 405.784 323.654Z"
      fill="#165E55" />
    <path
      d="M326.429 289.727C332.613 293.865 336.939 295.175 343.621 296.048C343.621 296.048 365.786 301.253 373.623 292.402C381.135 305.813 383.024 314.397 383.701 331.177C371.934 329.401 349.763 324.603 349.763 324.603L336.272 329.007L322.986 303.746C312.618 310.275 302.374 309.66 298.852 301.585C298.292 300.299 299.212 298.935 300.591 298.686C306.263 297.663 312.667 296.087 317.322 290.247C317.824 289.617 318.576 289.221 319.381 289.231L325.079 289.304C325.561 289.31 326.029 289.459 326.429 289.727Z"
      fill="#165E55" />
    <path
      d="M409.414 219.87C400.897 230.038 392.29 242.67 386.195 256.577C387.487 276.778 392.716 294.914 401.276 307.149C404.118 306.497 406.898 306.13 409.626 306.064C410.866 306.034 412.095 306.066 413.315 306.162C425.021 307.082 435.818 313.878 446.517 327.948C447.012 327.605 447.496 327.268 447.969 326.939C455.3 321.835 460.254 318.386 470.42 318.459C470.612 318.46 470.806 318.463 471.002 318.467C472.957 318.506 475.104 318.671 477.492 318.976L486.693 296.918C486.213 296.805 485.734 296.685 485.257 296.56C483.535 296.109 482.379 294.525 482.406 292.745C482.731 271.578 486.871 245.916 511.513 230.5C493.015 232.896 483.628 239.418 476.408 256.108C476.066 256.899 475.343 257.468 474.493 257.6C472.226 257.952 469.832 258.361 467.321 258.791C454.967 260.905 439.789 263.502 423.025 262.008C422.186 261.933 421.444 261.413 421.077 260.654C412.743 243.46 409.009 229.708 409.414 219.87Z"
      fill="#16926F" />
    <path
      d="M505.003 298.612C511.662 313.001 516.256 320.573 523.603 328.356L518.645 330.491C513.196 341.726 519.092 356.067 529.378 362.977C539.804 360.516 548.311 356.188 555.339 349.156C557.274 324.372 552.551 309.017 543.098 285.393C532.725 293.32 518.98 298.026 505.003 298.612Z"
      fill="#16926F" />
    <path
      d="M521.101 281.866C514.123 281.866 499.092 271.793 499.092 261.882C499.092 251.971 510.047 238.228 517.025 238.228C533.566 238.228 535.859 281.866 521.101 281.866Z"
      fill="#16926F" />
    <path
      d="M490.622 344.994C490.944 344.51 490.814 343.856 490.33 343.533C489.846 343.21 489.192 343.341 488.87 343.825C485.829 348.389 483.892 355.324 483.848 361.855C483.844 362.437 484.312 362.912 484.894 362.916C485.475 362.92 485.95 362.451 485.954 361.869C485.996 355.672 487.849 349.157 490.622 344.994Z"
      fill="#181B2B" />
    <path fill-rule="evenodd" clip-rule="evenodd"
      d="M514.669 204.285C532 189.254 543.516 166.726 543.516 141.975C543.516 96.7017 506.838 60.0002 461.594 60.0002C416.35 60.0002 379.672 96.7017 379.672 141.975C379.672 168.835 392.582 192.678 412.532 207.63C412.194 207.894 411.892 208.214 411.745 208.437C410.533 210.276 409.662 212.44 409.128 214.91C409.074 214.897 409.02 214.884 408.965 214.872C404.725 213.899 399.95 215.117 395.958 218.152C388.938 223.49 384.331 234.392 388.65 249.328C387.499 251.586 386.405 253.886 385.382 256.221L385.295 256.419L385.309 256.634C386.607 276.93 391.863 295.243 400.547 307.657L400.889 308.146L401.471 308.013C402.409 307.798 403.341 307.614 404.265 307.463C404.685 311.899 404.811 315.997 404.863 319.893C404.879 321.159 404.888 322.406 404.897 323.639C404.934 328.855 404.969 333.806 405.594 338.765C406.218 343.723 407.429 348.686 409.79 353.988C407.96 368.084 413.1 377.284 421.261 391.894C425.836 400.084 431.362 409.976 437.141 423.382L440.81 443.774C437.113 451.172 433.045 454.76 429.625 457.776C425.88 461.078 422.913 463.694 422.061 469.875L423.512 480.399C423.621 481.19 424.199 481.845 424.971 482.047C443.99 487.014 450.879 482.15 455.697 478.748C457.704 477.33 459.352 476.167 461.367 476.074C460.751 481.234 459.414 486.655 457.107 493.191L447.936 512.464C445.882 516.78 445.179 521.617 445.919 526.341L447.42 535.913C447.876 538.827 449.876 541.423 452.874 542.119C466.624 545.308 483.909 540.671 491.025 523.644C491.497 522.515 491.923 521.333 492.3 520.097C492.808 518.431 493.512 516.862 494.52 515.518L498.241 510.552C499.647 508.677 500.083 506.247 499.418 504L497.9 498.875C497.403 497.196 497.284 495.353 497.528 493.605C500.067 475.395 500.908 463.12 500.718 454.587C500.528 446.053 498.81 441.607 497.18 438.285C495.416 434.69 492.183 431.785 490.184 427.785C489.565 426.013 489.902 423.353 489.789 420.104V367.805C501.595 369.349 516.156 369.659 532.3 365.327C532.759 365.204 533.078 364.788 533.08 364.313C533.082 363.674 532.574 363.377 532.038 363.215C541.483 360.64 549.358 356.392 555.963 349.783C556.112 349.633 556.203 349.435 556.219 349.225C558.153 324.459 553.471 309 544.166 285.685C544.507 285.418 544.845 285.147 545.178 284.873C546.553 283.743 547.137 281.938 546.774 280.225C540.793 251.986 528.185 235.557 518.232 228.56C517.61 228.122 516.907 227.866 516.187 227.783L514.669 204.285ZM513.17 205.285C499.037 216.882 481.297 223.95 461.594 223.95C443.995 223.95 427.692 218.397 414.339 208.946C413.989 216.798 416.863 222.773 422.039 226.959C427.438 231.326 435.421 233.809 445.072 234.294C464.366 235.264 489.974 228.225 513.698 213.008C513.735 212.984 513.774 212.963 513.814 212.945L513.17 205.285ZM529.354 362.072C539.458 359.66 547.678 355.474 554.478 348.759C556.302 324.743 551.809 309.667 542.701 286.795C532.63 294.17 519.64 298.629 506.358 299.43C512.704 313.011 517.195 320.279 524.244 327.748C525.002 328.551 525.79 329.357 526.614 330.174C526.962 330.518 526.965 331.079 526.62 331.427C526.276 331.775 525.715 331.777 525.368 331.433C524.684 330.755 524.024 330.084 523.383 329.414L519.293 331.176C516.958 336.667 517.305 343.527 519.564 349.603C521.605 355.089 525.122 359.723 529.354 362.072ZM520.224 328.845L522.095 328.039C515.238 320.568 510.729 313.042 504.445 299.52C498.663 299.715 492.85 299.212 487.22 297.95L478.54 318.758C479.64 324.114 481.365 328.692 483.888 333.471C486.421 336.095 488.467 337.827 491.854 340.063C492.098 340.224 492.415 340.248 492.691 340.12L518.741 328.051C519.155 327.859 519.645 327.956 519.956 328.291C520.102 328.449 520.192 328.643 520.224 328.845ZM408.814 216.659C408.733 216.638 408.651 216.619 408.569 216.6C404.927 215.764 400.679 216.789 397.029 219.564C390.984 224.16 386.582 233.612 389.862 247.008C395.341 236.751 401.961 227.413 408.539 219.532C408.589 218.538 408.68 217.58 408.814 216.659ZM406.021 307.214C406.454 311.749 406.582 315.924 406.634 319.869C406.651 321.162 406.66 322.427 406.669 323.671C406.707 328.878 406.741 333.698 407.351 338.544C408.848 350.435 413.823 362.497 431.247 379.933L431.258 379.944L431.315 380.005C431.841 375.183 433.507 370.542 436.597 365.995C436.819 365.668 437.048 365.342 437.285 365.017C436.356 364.248 435.857 363.281 435.685 362.257C435.488 361.078 435.734 359.892 436.109 358.909C436.449 358.017 437.221 357.461 438.02 357.253L440.952 356.487L430.814 357.084C430.259 357.117 429.546 357.009 428.975 356.503C427.914 355.565 427.476 354.249 427.367 353.035C427.258 351.82 427.466 350.584 427.833 349.637C428.196 348.699 429.056 348.234 429.818 348.099L434.596 347.255C434.207 346.823 433.907 346.326 433.721 345.772C433.221 344.286 433.631 342.66 434.84 341.207C435.189 340.788 435.644 340.521 436.089 340.372C442.96 338.071 447.678 336.655 451.926 335.695C452.22 335.629 452.517 335.609 452.809 335.631C453.342 335.671 453.898 335.708 454.469 335.741C454.152 335.058 453.876 334.308 453.691 333.524C453.33 331.996 453.294 330.251 454.084 328.641C454.795 327.191 456.468 327.077 457.554 327.547C460 328.604 462.056 329.216 464.627 329.51C463.625 326.782 461.844 324.056 458.907 321.39C455.105 322.968 451.727 325.352 448.373 327.72C447.689 328.203 447.007 328.685 446.321 329.159L445.809 328.485C438.732 319.179 431.665 313.151 424.385 309.902C418.497 307.275 412.425 306.445 406.021 307.214ZM476.446 368.501C486.626 411.493 482.017 467.206 464.083 454.344C463.187 452.558 462.291 450.802 461.396 449.076C458.143 442.798 454.917 436.908 451.873 431.358L451.614 430.886C448.665 425.509 445.893 420.455 443.429 415.664C438.35 405.788 434.626 397.111 433.366 389.143C432.112 381.22 433.296 374.004 438.062 366.992C438.331 366.595 438.613 366.198 438.907 365.801C444.318 366.216 449.501 365.539 453.912 364.962C454.642 364.867 455.35 364.774 456.036 364.69L443.086 375.684C442.597 376.1 442.208 376.697 442.107 377.416C441.894 378.951 442.072 380.51 442.95 381.681C443.868 382.904 445.365 383.466 447.251 383.34C447.753 383.307 448.204 383.127 448.574 382.886L467.296 370.709C467.381 370.654 467.476 370.613 467.575 370.59L476.446 368.501ZM408.508 222.356C400.658 232.004 392.871 243.691 387.209 256.468C392.232 263.266 401.107 269.464 411.943 274.587C422.852 279.745 435.658 283.77 448.297 286.213L492.58 247.92C496.291 242.063 501.211 236.634 507.718 231.972C500.712 233.21 495.218 235.204 490.703 238.339C485.084 242.24 480.888 247.975 477.217 256.461C476.757 257.524 475.783 258.297 474.625 258.476C472.377 258.825 469.997 259.232 467.496 259.66C455.142 261.775 439.832 264.396 422.943 262.891C421.788 262.788 420.777 262.074 420.276 261.041C414.193 248.491 410.527 237.719 409.137 228.92C408.77 226.602 408.561 224.412 408.508 222.356ZM511.815 231.354C487.719 246.533 483.611 271.712 483.288 292.758C483.267 294.147 484.166 295.36 485.477 295.703C505.779 301.02 528.985 295.89 544.054 283.503C544.894 282.812 545.273 281.688 545.041 280.593C539.44 254.148 528.002 238.401 518.729 231.136C517.746 230.367 516.564 229.805 515.332 229.999C513.44 230.298 511.815 231.354 511.815 231.354ZM447.898 260.753C438.78 255.664 437.681 242.404 447.301 236.446C447.534 236.302 447.799 236.204 448.069 236.153C447.025 236.145 445.995 236.115 444.983 236.064C435.117 235.568 426.719 233.024 420.926 228.338C415.675 224.091 412.631 218.137 412.541 210.563C410.298 214.771 409.648 220.803 410.887 228.643C412.24 237.209 415.83 247.807 421.87 260.267C422.104 260.751 422.576 261.078 423.1 261.125C431.861 261.906 440.18 261.562 447.898 260.753ZM444.359 305.174C443.732 311.407 443.608 318.216 444.719 324.258C438.34 316.546 431.861 311.297 425.106 308.283C417.628 304.946 409.876 304.378 401.662 306.154C393.829 294.693 388.85 278.08 387.29 259.417C392.716 265.789 401.22 271.478 411.186 276.19C422.098 281.349 434.849 285.377 447.448 287.854C446.432 291.719 445.068 298.118 444.359 305.174ZM455.975 329.569C456.007 329.504 456.061 329.45 456.183 329.42C456.322 329.385 456.52 329.395 456.719 329.481C462.747 332.086 466.738 332.159 478.698 331.458C478.968 331.442 479.238 331.553 479.418 331.752C483.652 336.425 485.917 338.668 490.695 341.822C491.558 342.391 492.65 342.462 493.576 342.033L517.028 331.167C514.794 337.124 515.308 344.201 517.591 350.338C519.778 356.22 523.677 361.459 528.628 364.077C511.261 368.145 495.887 366.859 484.049 364.794C483.649 364.724 483.242 364.736 482.848 364.829L467.093 368.539C466.757 368.618 466.437 368.754 466.148 368.943L459.155 373.491C456.298 373.068 454.508 370.844 454.967 368.361L459.862 364.205L463.141 362.313C463.645 362.022 463.818 361.378 463.527 360.874C463.237 360.37 462.593 360.197 462.089 360.487L458.928 362.311L448.528 363.257C446.493 360.798 446.884 358.266 447.783 356.882C450.566 356.156 453.593 356.016 456.561 355.88C457.819 355.822 459.067 355.765 460.28 355.663C460.6 355.636 460.891 355.465 461.069 355.198L463.007 352.289C463.329 351.805 463.198 351.151 462.715 350.828C462.231 350.505 461.577 350.636 461.254 351.12L459.616 353.58L446.59 354.045L444.739 354.154C442.647 351.714 442.976 349.184 443.847 347.762L459.386 346.057C460.276 345.968 461.08 345.484 461.577 344.739L463.007 342.593C463.329 342.109 463.198 341.455 462.715 341.132C462.231 340.809 461.577 340.94 461.254 341.424L459.825 343.57C459.678 343.791 459.44 343.934 459.176 343.96L451.357 344.743C449.481 342.421 449.537 339.862 450.718 338.146C451.286 338.006 451.843 337.874 452.39 337.75C452.472 337.732 452.56 337.725 452.651 337.732C453.785 337.817 455.015 337.887 456.268 337.945C461.296 338.176 466.765 338.209 468.112 338.214C468.438 338.215 468.756 338.162 469.061 338.061L471.669 337.191C472.22 337.007 472.518 336.41 472.334 335.858C472.151 335.306 471.554 335.008 471.003 335.192L468.395 336.062C468.303 336.092 468.212 336.107 468.12 336.106C466.827 336.102 461.738 336.071 456.913 335.864C456.435 335.063 455.984 334.072 455.74 333.039C455.449 331.805 455.47 330.599 455.975 329.569Z"
      fill="#181B2B" />
    <path
      d="M336.935 310.229C336.504 309.998 335.967 310.16 335.736 310.592C335.505 311.023 335.668 311.561 336.099 311.792C338.507 313.081 340.798 313.708 342.915 313.933C342.405 314.635 341.985 315.269 341.598 315.919C341.348 316.34 341.485 316.884 341.906 317.134C342.326 317.385 342.87 317.247 343.12 316.826C343.684 315.878 344.337 314.947 345.318 313.694L346.422 312.284L344.632 312.261C342.323 312.231 339.729 311.725 336.935 310.229Z"
      fill="#181B2B" />
    <path fill-rule="evenodd" clip-rule="evenodd"
      d="M316.627 289.694C317.281 288.875 318.282 288.331 319.39 288.345L325.089 288.417C325.747 288.426 326.381 288.63 326.92 288.991C332.594 292.788 338.212 294.068 344.761 295.386C345.372 295.509 346.256 295.675 347.343 295.848C349.519 296.193 352.495 296.562 355.707 296.658C358.924 296.754 362.345 296.576 365.422 295.844C368.504 295.11 371.164 293.84 372.958 291.815L373.784 290.881L374.393 291.969C378.175 298.721 380.561 304.293 382.082 310.309C383.6 316.317 384.245 322.729 384.584 331.142L384.627 332.214L383.567 332.054C377.659 331.162 369.155 329.514 362.141 328.093C358.631 327.381 355.49 326.726 353.226 326.248C351.528 325.889 350.323 325.631 349.826 325.524L335.284 330L322.64 304.995C317.617 307.984 312.588 309.374 308.278 309.026C303.693 308.655 299.944 306.309 298.038 301.939C297.199 300.015 298.619 298.141 300.432 297.814C306.08 296.795 312.19 295.261 316.627 289.694ZM325.633 306.881L336.284 328L349.714 323.686C351.006 323.966 352.298 324.24 353.592 324.513C355.852 324.99 358.989 325.645 362.493 326.355C369.093 327.693 376.978 329.224 382.768 330.137C382.419 322.302 381.774 316.323 380.364 310.744C378.969 305.224 376.817 300.062 373.42 293.867C371.371 295.739 368.687 296.889 365.831 297.568C362.548 298.349 358.958 298.529 355.654 298.43C352.345 298.331 349.29 297.952 347.065 297.599C345.952 297.422 345.043 297.251 344.411 297.124C343.938 297.028 343.619 296.958 343.486 296.927L343.091 296.837C336.772 295.392 331.494 294.185 325.935 290.464C325.673 290.289 325.371 290.194 325.066 290.19L319.368 290.118C318.866 290.111 318.363 290.36 318.012 290.8C313.139 296.913 306.441 298.532 300.746 299.559C299.8 299.729 299.38 300.584 299.662 301.23C301.278 304.935 304.411 306.935 308.421 307.259C312.472 307.586 317.436 306.193 322.512 302.996C322.823 302.8 323.268 302.405 323.798 301.921C324.285 301.476 324.763 301.013 325.301 300.629C325.699 300.344 326.252 300.437 326.537 300.835C326.821 301.233 326.729 301.787 326.33 302.072C325.851 302.414 325.426 302.834 324.992 303.231C324.804 303.402 324.605 303.584 324.403 303.76C325.48 304.631 326.183 305.164 326.89 305.568C327.746 306.057 328.637 306.371 330.286 306.818C330.758 306.946 331.037 307.432 330.91 307.905C330.782 308.377 330.296 308.657 329.823 308.529C328.141 308.073 327.071 307.712 326.012 307.107C325.885 307.035 325.76 306.96 325.633 306.881Z"
      fill="#181B2B" />
    <path
      d="M469.036 71.8885C489.517 74.5381 499.329 99.1361 484.797 113.819C484.557 114.061 484.315 114.302 484.07 114.54C472.942 125.382 456.226 126.199 441.224 130.219C417.105 136.682 408.969 150.147 406.468 160.701C403.9 171.541 401.228 169.132 396.568 159.014C374.279 110.617 428.04 66.5847 469.036 71.8885Z"
      fill="url(#paint0_linear_4785_93883)" />
    <path fill-rule="evenodd" clip-rule="evenodd"
      d="M514.771 204.336C532.364 189.301 543.518 166.941 543.518 141.975C543.518 96.7015 506.84 60 461.596 60C416.351 60 379.674 96.7015 379.674 141.975C379.674 169.812 393.036 194.183 414.234 209C413.735 217 417.203 223.138 422.182 227.165C427.581 231.532 435.564 234.015 445.214 234.5C468.2 235 492.328 227.384 513.67 213L514.317 225.36C514.347 225.848 514.768 226.219 515.256 226.189C515.744 226.158 516.115 225.737 516.085 225.248L514.771 204.336ZM461.596 222.177C505.862 222.177 541.746 186.27 541.746 141.975C541.746 97.6805 505.862 61.7727 461.596 61.7727C417.33 61.7727 381.445 97.6805 381.445 141.975C381.445 186.27 417.33 222.177 461.596 222.177Z"
      fill="#16926F" />
    <path
      d="M391.998 291.925C392.132 292.396 391.858 292.886 391.388 293.02L379.03 296.532C378.56 296.665 378.07 296.392 377.936 295.921C377.803 295.45 378.076 294.96 378.546 294.826L390.904 291.315C391.375 291.181 391.864 291.454 391.998 291.925Z"
      fill="#16926F" />
    <path
      d="M386.42 323.449C385.934 323.392 385.494 323.74 385.438 324.227C385.381 324.713 385.729 325.153 386.215 325.21L402.905 327.163C403.391 327.219 403.831 326.871 403.888 326.385C403.945 325.899 403.597 325.459 403.111 325.402L386.42 323.449Z"
      fill="#16926F" />
    <path fill-rule="evenodd" clip-rule="evenodd"
      d="M461.223 459.842C461.518 462.453 461.707 464.924 461.767 467.344C460.91 467.43 459.816 467.527 459.067 467.498C458.186 467.463 457.375 467.357 456.702 467.177C456.016 466.993 455.547 466.751 455.278 466.496C453.9 465.19 452.866 463.164 451.965 460.731C451.368 459.12 450.856 457.41 450.339 455.681C450.073 454.793 449.806 453.899 449.525 453.012C448.714 450.451 447.792 447.957 446.48 446.097C445.278 444.393 443.699 443.16 441.559 442.927L437.996 423.124L437.956 423.031C432.156 409.578 426.601 399.634 422.024 391.439C420.615 388.918 419.299 386.562 418.097 384.321C412.983 374.786 409.939 367.341 410.343 357.848C410.364 357.359 409.985 356.946 409.496 356.925C409.007 356.904 408.594 357.284 408.573 357.773C408.148 367.756 411.383 375.551 416.536 385.159C417.756 387.434 419.084 389.812 420.501 392.347C425.063 400.515 430.544 410.326 436.289 423.639L439.887 443.639C436.304 450.705 432.397 454.151 429.036 457.114L429.034 457.116L428.558 457.537C426.803 459.089 425.159 460.594 423.861 462.485C422.549 464.396 421.611 466.669 421.185 469.754L421.169 469.875L422.376 478.633C422.69 480.914 424.343 482.83 426.616 483.37C440.727 486.722 448.007 484.5 452.875 481.669C454.071 480.973 455.109 480.248 456.04 479.591L456.15 479.513L456.338 479.38C457.072 478.86 457.808 478.339 458.589 477.893C459.407 477.425 460.378 477.187 461.241 477.094C460.574 481.96 459.262 487.093 457.112 493.187L447.94 512.46C445.886 516.777 445.183 521.614 445.923 526.337L446.853 532.267C446.852 532.364 446.868 532.46 446.897 532.551L447.424 535.909C447.881 538.824 449.881 541.42 452.879 542.115C466.628 545.304 483.913 540.668 491.029 523.641C491.501 522.512 491.927 521.33 492.304 520.094C492.812 518.427 493.516 516.859 494.524 515.514L498.246 510.549C499.651 508.674 500.088 506.244 499.422 503.996L497.905 498.872C497.408 497.193 497.289 495.349 497.533 493.602C500.071 475.391 500.912 463.117 500.723 454.584C500.533 446.05 499.312 441.2 497.682 437.878C496.867 436.217 495.963 434.966 495.08 433.853C494.813 433.516 494.553 433.199 494.301 432.89L494.3 432.889C493.703 432.159 493.146 431.477 492.616 430.699C491.172 428.576 489.991 425.793 489.793 420.101L489.793 370.665C489.793 370.175 489.396 369.779 488.907 369.779C488.418 369.779 488.021 370.175 488.021 370.665L488.021 420.116L488.022 420.134L488.022 420.147C488.228 426.119 489.484 429.245 491.151 431.696C491.727 432.543 492.362 433.319 492.979 434.074L492.98 434.075L492.981 434.076L493.095 434.216C493.157 434.292 493.219 434.367 493.28 434.442C493.326 434.499 493.372 434.555 493.417 434.612C493.51 434.726 493.602 434.841 493.693 434.956C494.535 436.016 495.354 437.156 496.092 438.659C497.566 441.664 498.765 446.229 498.951 454.623C499.138 463.019 498.311 475.187 495.778 493.357C495.501 495.341 495.633 497.441 496.206 499.375L496.209 499.384C494.905 503.368 493.31 506.747 491.723 509.006C490.925 510.141 490.162 510.947 489.477 511.416C488.794 511.884 488.295 511.951 487.932 511.843C485.499 511.123 483.382 508.889 481.304 505.858C480.278 504.361 479.292 502.716 478.298 501.038L478.006 500.546L478.006 500.545C477.112 499.035 476.208 497.508 475.278 496.084C473.239 492.965 470.943 490.127 468.06 488.99C465.627 488.03 462.961 488.337 459.968 490.252C463.674 478.614 464.175 470.217 462.984 459.644C462.929 459.157 462.491 458.807 462.004 458.862C461.518 458.917 461.169 459.356 461.223 459.842ZM457.71 476.353C458.818 475.72 460.162 475.362 461.459 475.294C461.679 473.221 461.783 471.182 461.787 469.12C460.9 469.204 459.775 469.3 458.997 469.269C458.029 469.23 457.08 469.113 456.244 468.889C455.807 468.772 455.38 468.621 454.989 468.423C451.086 475.387 444.706 477.929 438.499 478.32C432.907 478.672 427.396 477.291 423.776 475.816L424.131 478.391C424.35 479.982 425.496 481.282 427.025 481.645C440.772 484.911 447.573 482.702 451.985 480.136C453.108 479.483 454.09 478.798 455.019 478.143L455.272 477.964C456.067 477.401 456.864 476.837 457.71 476.353ZM441.341 444.687C442.866 444.846 444.033 445.702 445.033 447.119C446.172 448.734 447.027 450.992 447.836 453.547C448.098 454.375 448.356 455.237 448.618 456.111L448.618 456.112C449.146 457.876 449.688 459.685 450.303 461.347C451.137 463.598 452.155 465.731 453.586 467.299C450.06 473.803 444.24 476.182 438.387 476.55C432.585 476.916 426.825 475.29 423.493 473.764L422.957 469.876C423.354 467.11 424.191 465.135 425.321 463.488C426.481 461.798 427.971 460.422 429.731 458.865C434.348 454.78 438.503 450.208 441.341 444.687ZM448.855 533.6L449.174 535.635C449.54 537.967 451.106 539.885 453.279 540.388C466.433 543.439 482.701 538.973 489.395 522.957C489.843 521.884 490.25 520.757 490.61 519.576C491.159 517.776 491.942 516.006 493.107 514.451L496.829 509.485C497.898 508.058 498.23 506.21 497.724 504.5L497.067 502.283C495.899 505.377 494.555 508.058 493.172 510.026C492.312 511.249 491.406 512.243 490.478 512.878C489.549 513.515 488.493 513.858 487.429 513.543C486.239 513.191 485.147 512.567 484.133 511.757C480.766 524.341 474.888 530.904 468.152 533.704C461.754 536.363 454.781 535.542 448.855 533.6ZM482.656 510.399C479.422 523.234 473.697 529.48 467.472 532.067C461.318 534.625 454.45 533.704 448.545 531.622L447.674 526.063C446.988 521.692 447.639 517.217 449.54 513.223L458.731 493.908C458.745 493.88 458.756 493.851 458.767 493.822C458.811 493.696 458.855 493.57 458.899 493.445L458.988 493.19C462.578 490.141 465.245 489.784 467.41 490.639C469.724 491.551 471.758 493.938 473.795 497.055C474.703 498.444 475.586 499.936 476.483 501.452L476.774 501.943C477.767 503.618 478.78 505.309 479.843 506.86C480.718 508.136 481.647 509.351 482.656 510.399Z"
      fill="#16926F" />
    <path
      d="M486.868 300.557C487.055 300.104 486.84 299.586 486.388 299.399C485.935 299.212 485.417 299.428 485.231 299.88L479.212 314.462C478.021 317.345 477.794 320.574 478.747 323.581C479.189 324.973 479.636 326.274 480.124 327.548C480.299 328.005 480.811 328.234 481.268 328.059C481.725 327.884 481.953 327.371 481.778 326.914C481.305 325.678 480.869 324.411 480.436 323.045C479.619 320.468 479.805 317.669 480.849 315.139L486.868 300.557Z"
      fill="#16926F" />
    <g opacity="0.1">
      <path
        d="M276.043 281.874C310.452 281.661 340.467 273.967 356.596 262.691L305.611 326.45C305.552 326.544 305.492 326.637 305.43 326.729C305.604 326.209 305.692 325.677 305.689 325.138C305.65 318.765 292.81 313.677 277.011 313.775C261.211 313.873 248.435 319.119 248.475 325.492C248.479 326.224 248.652 326.938 248.979 327.63C248.979 327.63 210.962 283.197 192.311 261.519C207.693 273.798 239.434 282.1 276.043 281.874Z"
        fill="#B0EBDB" />
      <path
        d="M304.803 325.143C304.811 326.417 304.183 327.722 302.854 329.006C301.522 330.292 299.544 331.495 297.024 332.53C291.989 334.598 284.963 335.921 277.148 335.969C269.333 336.017 262.29 334.781 257.23 332.776C254.697 331.773 252.705 330.594 251.358 329.325C250.012 328.058 249.368 326.76 249.36 325.487C249.352 324.213 249.981 322.908 251.31 321.624C252.641 320.338 254.619 319.135 257.139 318.1C262.174 316.032 269.201 314.709 277.016 314.661C284.831 314.613 291.873 315.849 296.934 317.854C299.466 318.857 301.459 320.036 302.806 321.305C304.151 322.572 304.795 323.87 304.803 325.143Z"
        fill="#B0EBDB" />
    </g>
    <path
      d="M299.301 164.883C306.392 159.426 312.039 151.486 315.276 140.679C316.384 136.981 317.092 133.102 317.801 129.225C319.121 122.002 320.44 114.782 324.335 108.739C324.548 108.409 324.898 108.508 325.208 108.749C338.032 118.727 346.508 116.529 362.265 104.954C356.607 106.043 350.413 104.07 344.273 102.113C336.666 99.6888 329.142 97.291 322.821 100.774C315.691 96.4992 309.612 98.3323 303.382 100.211C298.745 101.609 294.024 103.032 288.726 101.979C297.579 109 302.631 112.451 313.515 109.687C313.301 110.023 313.087 110.362 312.871 110.704C305.318 122.647 295.84 137.635 250.985 121.448C245.265 119.384 239.157 118.428 233.107 119.038L210.452 121.323C202.988 120.839 200.158 123.985 205.647 132.073C214.474 163.125 257.277 182.361 287.495 171.332C288.908 173.602 290.102 175.867 290.964 178.078C305.224 183.79 322.116 184.782 323.944 180.979C324.53 179.76 322.951 179.011 319.493 177.369C315.601 175.522 309.328 172.545 301.083 166.496C300.265 165.971 299.694 165.435 299.301 164.883Z"
      fill="#68DBF4" />
    <path
      d="M245.094 125.347C245.495 125.628 245.591 126.181 245.31 126.582C244.769 127.353 244.756 127.752 244.797 127.919C244.835 128.071 244.989 128.314 245.569 128.579C246.136 128.84 246.946 129.042 247.962 129.205C248.967 129.365 250.114 129.477 251.331 129.58C251.818 129.621 252.18 130.05 252.139 130.538C252.097 131.025 251.669 131.387 251.181 131.346C249.96 131.243 248.757 131.127 247.683 130.955C246.619 130.785 245.619 130.553 244.831 130.191C244.054 129.835 243.306 129.27 243.078 128.344C242.853 127.434 243.211 126.489 243.861 125.563C244.142 125.162 244.694 125.066 245.094 125.347Z"
      fill="#181B2B" />
    <path fill-rule="evenodd" clip-rule="evenodd"
      d="M287.114 172.408C278.283 175.483 268.464 176.051 258.765 174.577C254.316 173.901 249.88 172.793 245.565 171.293C245.421 172.579 245.34 173.833 245.335 175.043C234.078 185.501 218.671 192.501 215.6 189.609C214.615 188.682 215.819 187.415 218.457 184.64C221.425 181.516 226.21 176.482 231.732 167.873C232.365 167.01 232.713 166.242 232.862 165.531C219.552 157.945 208.847 146.402 204.833 132.452C203.478 130.438 202.594 128.673 202.177 127.147C201.751 125.589 201.789 124.195 202.415 123.056C203.043 121.914 204.165 121.203 205.535 120.809C206.883 120.422 208.546 120.317 210.435 120.434L233.017 118.156C239.218 117.531 245.459 118.512 251.285 120.615C274.282 128.914 287.74 128.909 296.345 125.515C304.094 122.459 308.073 116.604 311.62 111.02C307.073 111.898 303.471 111.613 300.048 110.333C296.166 108.881 292.584 106.17 288.174 102.674C287.854 102.419 287.749 101.979 287.921 101.607C288.092 101.235 288.496 101.03 288.897 101.11C293.962 102.116 298.448 100.767 303.09 99.3708C303.895 99.1288 304.704 98.8855 305.522 98.6527C310.891 97.1247 316.483 96.1374 322.842 99.7603C329.431 96.4254 336.971 98.8421 343.614 100.972C343.932 101.073 344.248 101.175 344.561 101.274C347.26 102.134 349.926 102.984 352.559 103.58C355.903 104.337 359.101 104.66 362.096 104.083C362.503 104.005 362.91 104.219 363.076 104.599C363.241 104.979 363.122 105.423 362.788 105.668C354.905 111.459 348.687 115.031 342.751 115.813C336.791 116.597 331.28 114.555 324.845 109.589C322.099 114.003 320.701 119.073 319.617 124.399C319.287 126.018 318.985 127.668 318.682 129.329C318.657 129.467 318.637 129.604 318.618 129.741C318.579 130.013 318.541 130.284 318.458 130.553C317.814 134.053 317.129 137.578 316.124 140.933C312.948 151.537 307.474 159.453 300.581 165.002C300.843 165.247 301.164 165.496 301.559 165.749L301.582 165.764L301.604 165.781C309.327 171.446 315.299 174.392 319.198 176.249C319.431 176.359 319.657 176.467 319.877 176.571C321.476 177.33 322.755 177.936 323.581 178.494C324.05 178.812 324.496 179.191 324.745 179.678C325.03 180.238 325 180.822 324.74 181.363C324.392 182.087 323.734 182.604 322.974 182.977C322.207 183.353 321.252 183.623 320.172 183.807C318.01 184.176 315.202 184.227 312.045 183.98C305.724 183.487 297.848 181.791 290.633 178.901L290.276 178.758L290.137 178.4C289.373 176.442 288.339 174.434 287.114 172.408ZM313.902 108.89C314.03 108.953 314.144 109.047 314.231 109.167C314.444 109.462 314.456 109.856 314.261 110.163C314.042 110.507 313.822 110.855 313.599 111.207L313.598 111.209C309.946 116.989 305.681 123.739 296.994 127.165C287.789 130.795 273.824 130.633 250.684 122.282C245.068 120.256 239.094 119.325 233.195 119.92L217.25 121.528C225.786 123.539 237.103 128.093 248.704 134.255C250.429 135.17 252.438 135.376 254.285 134.794L256.773 134.011C257.24 133.865 257.737 134.124 257.884 134.591C258.03 135.058 257.771 135.556 257.304 135.702L254.816 136.486C252.502 137.214 250.003 136.951 247.874 135.821C232.908 127.873 218.651 122.744 210.394 122.208C208.581 122.09 207.118 122.199 206.024 122.513C204.936 122.826 204.294 123.315 203.967 123.91C203.639 124.508 203.532 125.387 203.886 126.679C204.24 127.973 205.034 129.595 206.378 131.575C206.431 131.653 206.472 131.739 206.498 131.83C212.619 153.364 235.497 169.249 259.031 172.825C265.976 173.88 272.947 173.856 279.529 172.6C279.264 171.88 278.969 171.148 278.646 170.408C244.646 173.392 220.5 150.906 212.899 133.547C212.287 132.15 211.244 131.022 209.905 130.437L208.371 129.766C207.922 129.57 207.718 129.047 207.914 128.599C208.11 128.15 208.632 127.945 209.08 128.141L210.615 128.813C212.417 129.601 213.757 131.089 214.521 132.835C221.831 149.529 245.053 171.256 277.856 168.69C277.223 167.376 276.518 166.042 275.764 164.703C274.606 164.638 273.444 164.531 272.28 164.382C253.134 161.936 233.353 148.327 222.053 131.277C221.344 130.206 220.324 129.4 219.132 129.01L218.631 128.847C218.166 128.695 217.912 128.194 218.064 127.729C218.216 127.264 218.716 127.01 219.181 127.162L219.682 127.325C221.281 127.848 222.616 128.918 223.529 130.297C234.593 146.989 253.949 160.253 272.505 162.624C273.237 162.717 273.967 162.794 274.696 162.853C273.978 161.639 273.23 160.426 272.47 159.225C271.142 157.127 269.758 155.039 268.444 153.058L268.443 153.057C266.939 150.787 265.527 148.657 264.398 146.812C263.329 145.066 262.459 143.49 261.951 142.188C261.698 141.538 261.518 140.914 261.464 140.345C261.41 139.78 261.473 139.177 261.815 138.667C262.17 138.136 262.724 137.857 263.336 137.749C263.93 137.644 264.633 137.687 265.424 137.835C265.78 137.901 266.166 137.991 266.583 138.106C268.081 138.376 270.005 138.898 272.403 139.681C282.53 142.989 288.92 145.934 292.931 148.607C296.956 151.289 298.66 153.748 299.272 156.093C299.313 156.249 299.348 156.403 299.379 156.556C306.649 151.407 312.776 142.903 316.732 130.135C316.794 129.797 316.856 129.459 316.918 129.12L316.918 129.119C317.226 127.435 317.535 125.741 317.881 124.045C319.006 118.518 320.504 113.046 323.59 108.258C323.715 108.063 323.891 107.888 324.125 107.772C324.358 107.657 324.598 107.628 324.812 107.647C325.21 107.682 325.538 107.883 325.751 108.049C332.062 112.96 337.153 114.762 342.52 114.055C347.336 113.421 352.505 110.757 359.08 106.15C356.799 106.174 354.48 105.832 352.169 105.309C349.453 104.694 346.691 103.814 343.982 102.951C343.528 102.806 343.068 102.657 342.603 102.506C336.408 100.498 329.323 98.2024 323.247 101.55C322.971 101.703 322.635 101.696 322.365 101.534C322.261 101.472 322.157 101.411 322.054 101.352C318.631 102.178 315.352 105.735 313.902 108.89ZM299.584 163.529C305.908 158.401 310.998 151.165 314.094 141.497C310.188 149.205 305.223 154.803 299.566 158.578C299.565 158.822 299.557 159.061 299.546 159.293C299.525 159.701 299.491 160.1 299.459 160.474C299.419 160.948 299.377 161.422 299.37 161.898C299.361 162.508 299.415 163.039 299.584 163.529ZM281.543 161.661C285.687 166.735 289.532 172.177 291.644 177.395C298.592 180.131 306.138 181.741 312.183 182.213C315.26 182.453 317.909 182.395 319.874 182.06C320.857 181.892 321.633 181.66 322.195 181.385C322.765 181.106 323.034 180.822 323.143 180.595C323.188 180.503 323.175 180.492 323.169 180.487L323.168 180.485L323.167 180.484C323.127 180.405 322.988 180.233 322.589 179.963C321.883 179.486 320.745 178.946 319.099 178.164L319.073 178.152C318.869 178.055 318.657 177.954 318.437 177.849C314.491 175.97 308.417 172.974 300.579 167.226C299.378 166.452 298.602 165.609 298.144 164.672C297.685 163.732 297.586 162.78 297.599 161.872C297.606 161.353 297.651 160.835 297.695 160.317C297.726 159.943 297.757 159.578 297.776 159.203C297.821 158.325 297.796 157.451 297.558 156.541C297.092 154.754 295.75 152.615 291.949 150.082C288.135 147.54 281.921 144.655 271.853 141.366C268.533 140.282 266.296 139.761 264.905 139.673C264.2 139.629 263.827 139.705 263.659 139.784C263.617 139.803 263.597 139.819 263.59 139.825C263.588 139.832 263.585 139.845 263.583 139.87C263.572 140.007 263.621 140.303 263.865 140.812C264.1 141.3 264.469 141.892 264.97 142.589C265.971 143.981 267.429 145.69 269.184 147.659C270.137 148.728 271.175 149.871 272.268 151.072C275.173 154.269 278.46 157.887 281.543 161.661Z"
      fill="#181B2B" />
    <path
      d="M303.633 101.061C299.923 102.182 296.007 103.365 291.742 103.217C294.75 105.527 297.31 107.274 299.94 108.383C303.21 109.762 306.628 110.166 311.197 109.297C311.677 109.205 312.141 109.521 312.232 110.002C312.324 110.483 312.008 110.947 311.528 111.038C306.656 111.965 302.879 111.546 299.252 110.017C295.675 108.508 292.284 105.934 288.174 102.674C287.853 102.42 287.748 101.979 287.92 101.607C288.092 101.236 288.495 101.03 288.897 101.11C293.966 102.117 298.471 100.762 303.131 99.3594C303.662 99.1998 304.195 99.0394 304.731 98.882C309.918 97.3574 315.325 96.139 321.42 99.0201C321.863 99.2292 322.052 99.7575 321.843 100.2C321.634 100.643 321.106 100.832 320.664 100.623C315.201 98.0411 310.358 99.0756 305.23 100.583C304.702 100.738 304.17 100.899 303.633 101.061Z"
      fill="#68DBF4" />
    <path
      d="M231.743 166.115C231.938 165.666 232.46 165.46 232.909 165.656C233.357 165.851 233.563 166.373 233.367 166.822C233.148 167.326 232.848 167.84 232.46 168.373C227.209 176.555 222.617 181.535 219.609 184.708C219.437 184.89 219.271 185.065 219.111 185.233L219.105 185.239C217.849 186.561 216.981 187.475 216.494 188.174C216.218 188.569 216.151 188.779 216.142 188.868C216.142 188.868 216.141 188.869 216.141 188.87C216.141 188.87 216.141 188.87 216.141 188.871C216.137 188.878 216.129 188.892 216.203 188.962C216.387 189.135 216.74 189.303 217.372 189.358C217.995 189.413 218.802 189.35 219.781 189.154C221.735 188.76 224.228 187.862 227.013 186.531C232.484 183.917 238.949 179.701 244.45 174.65C244.462 173.952 244.497 173.242 244.554 172.523C244.593 172.035 245.019 171.671 245.507 171.71C245.995 171.748 246.359 172.175 246.32 172.663C246.256 173.476 246.221 174.272 246.217 175.045L246.215 175.43L245.934 175.691C240.238 180.983 233.498 185.397 227.776 188.131C224.919 189.496 222.28 190.459 220.13 190.891C219.056 191.108 218.068 191.199 217.217 191.124C216.374 191.05 215.574 190.804 214.989 190.254C214.552 189.842 214.314 189.308 214.38 188.682C214.437 188.138 214.717 187.624 215.041 187.16C215.611 186.342 216.587 185.316 217.806 184.033L217.814 184.025C217.98 183.851 218.15 183.672 218.324 183.488C221.296 180.353 225.811 175.457 230.984 167.393L230.999 167.369L231.015 167.347C231.347 166.895 231.581 166.486 231.743 166.115Z"
      fill="#68DBF4" />
    <g style="mix-blend-mode:hard-light" filter="url(#filter1_f_4785_93883)">
      <path
        d="M301.994 143.711C302.102 159.568 287.202 172.506 268.714 172.61C250.226 172.713 235.151 159.943 235.043 144.086C234.935 128.23 249.835 115.291 268.323 115.188C286.811 115.084 301.886 127.854 301.994 143.711Z"
        fill="#18C0E4" />
    </g>
    <g style="mix-blend-mode:color-dodge" filter="url(#filter2_f_4785_93883)">
      <path
        d="M862.443 434C862.443 527.336 783.025 603 685.057 603C587.09 603 507.672 527.336 507.672 434C507.672 340.664 587.09 265 685.057 265C783.025 265 862.443 340.664 862.443 434Z"
        fill="#1FAC85" />
    </g>
  </g>
  <defs>
    <filter id="filter0_f_4785_93883" x="228.719" y="240.466" width="26.421" height="22.0172"
      filterUnits="userSpaceOnUse" color-interpolation-filters="sRGB">
      <feFlood flood-opacity="0" result="BackgroundImageFix" />
      <feBlend mode="normal" in="SourceGraphic" in2="BackgroundImageFix" result="shape" />
      <feGaussianBlur stdDeviation="3.29764" result="effect1_foregroundBlur_4785_93883" />
    </filter>
    <filter id="filter1_f_4785_93883" x="146.408" y="26.5522" width="244.221" height="234.693"
      filterUnits="userSpaceOnUse" color-interpolation-filters="sRGB">
      <feFlood flood-opacity="0" result="BackgroundImageFix" />
      <feBlend mode="normal" in="SourceGraphic" in2="BackgroundImageFix" result="shape" />
      <feGaussianBlur stdDeviation="44.3174" result="effect1_foregroundBlur_4785_93883" />
    </filter>
    <filter id="filter2_f_4785_93883" x="0" y="0" width="1600" height="838" filterUnits="userSpaceOnUse"
      color-interpolation-filters="sRGB">
      <feFlood flood-opacity="0" result="BackgroundImageFix" />
      <feBlend mode="normal" in="SourceGraphic" in2="BackgroundImageFix" result="shape" />
      <feGaussianBlur stdDeviation="125" result="effect1_foregroundBlur_4785_93883" />
    </filter>
    <linearGradient id="paint0_linear_4785_93883" x1="441.534" y1="71.4536" x2="441.534" y2="167.791"
      gradientUnits="userSpaceOnUse">
      <stop stop-color="#6EECF9" />
      <stop offset="1" stop-color="#8AFFCE" stop-opacity="0" />
    </linearGradient>
    <clipPath id="clip0_4785_93883">
      <rect width="1550" height="690" fill="white" />
    </clipPath>
  </defs>
</svg>