<svg width="56" height="44" viewBox="0 0 56 44" fill="none" xmlns="http://www.w3.org/2000/svg">
<path d="M49.5883 37.965C46.1848 41.1228 42.2488 41.9261 38.5545 42.6808C36.3175 43.1376 30.0211 44.3484 22.6708 42.1909C12.2367 39.1275 3.83875 30.4971 1.52111 20.7885C0.823881 17.869 -0.539592 12.1562 2.62292 8.51042C5.26826 5.46091 10.291 4.76878 16.1323 3.96457C18.9843 3.5717 20.6334 3.62299 24.4133 2.84194C28.2215 2.05488 29.3166 1.43114 31.1052 1.04875C36.85 -0.178714 43.8076 2.359 48.4038 6.59361C54.9955 12.6669 55.0074 20.6447 55.0114 23.0895C55.0152 25.658 55.0271 32.9192 49.5883 37.965Z" fill="#E7EAF3"/>
</svg>
